<svg xmlns="http://www.w3.org/2000/svg" viewBox="0 0 268 377.64"><defs><style>.cls-1{fill:#2b2d42;}.cls-2{fill:#f76f8e;}.cls-3{fill:#febc8e;}.cls-4{fill:#febc91;}.cls-5{fill:#ce5f7c;}.cls-6{fill:#514339;}.cls-7{fill:#52443c;}.cls-8{fill:#fcfdfd;}.cls-9{fill:#56463d;}.cls-10{fill:#f489a5;}.cls-11{fill:#fdc093;}.cls-12{fill:#433a33;}.cls-13{fill:#3f3831;}.cls-14{fill:#fcc195;}.cls-15{fill:#786250;}.cls-16{fill:#504137;}.cls-17{fill:#776251;}.cls-18{fill:#e09c6e;}.cls-19{fill:#453a33;}.cls-20{fill:#febc8f;}</style></defs><g id="Calque_2" data-name="Calque 2"><g id="Calque_1-2" data-name="Calque 1"><path class="cls-1" d="M251.44,196.22c5.77,4.28,10.58,9,13.28,15.51,8.18,19.67.6,42.1-17.57,51.11a27.09,27.09,0,0,1-8.27,2.73c-1.92.26-2.26,1.17-2.25,2.88,0,5.67.2,11.36-.19,17-.89,12.62-5.5,24.12-11.83,34.89-17.14,29.15-43.08,46.58-75.24,55.32-14,3.82-27.83,1.76-41.21-3.28-19.6-7.39-37-18.22-51.12-33.88a103.74,103.74,0,0,1-24.15-44.83c-1.2-4.78-.93-9.66-1.11-14.5-.15-3.88-.08-7.77-.13-11.66,0-.84.25-1.7-1.16-1.93C16.8,263.41,7.8,255.13,3,242.69c-6.45-16.56-2.48-35,13.55-46.22a30.5,30.5,0,0,1-9.83-12,27.49,27.49,0,0,1-2.36-11.08c0-10.29.19-20.58,0-30.86C4,129,9.77,119,20.81,111.77a10.18,10.18,0,0,0,4.62-6.48C28.58,93.86,34.12,83.53,41,74,55.88,53.34,74.89,38,99,29.38c3.67-1.3,5.05-2.81,5.79-6.67C107.15,10.05,119.38.37,132.49,0c16.37-.44,28.44,9.31,31.59,25.59.24,1.19.43,1.93,1.83,2.37,22.61,7.1,41,20.42,55.94,38.58a116.67,116.67,0,0,1,21.43,39.16,10.72,10.72,0,0,0,4.64,6.24c10.81,7.26,16.4,17.28,16.06,30.54-.24,9.14-.18,18.3,0,27.45C264.25,180.77,261.09,189.87,251.44,196.22Z"/><path class="cls-2" d="M72.42,59.47a.43.43,0,0,1,.44-.11c1,.16,1.57-.63,2.24-1.17a72,72,0,0,1,8.53-5.75c.74-.43,1.53-1,2.46-.41.37,1.22-.56,1.93-1.08,2.8a5.76,5.76,0,0,0,1,7.27,4.45,4.45,0,0,0,5.12,1,11.19,11.19,0,0,0,5.25-4.48A75.76,75.76,0,0,1,108,44.13c1.14-1.08,2.72-1.77,3.12-3.51,3.4-1.46,7.07-1.7,10.64-2.14A103.05,103.05,0,0,1,155,39.58a5.88,5.88,0,0,1,1.61.48c4.73,4.29,8.62,9.3,12.59,14.26,1.76,2.2,3.57,2.45,5.28,1.36s2.34-3.46,1.46-5.85c-.33-.88-1.23-1.55-1-2.64,1-.63,1.85.05,2.67.48a90.07,90.07,0,0,1,12.79,8,2.37,2.37,0,0,0,1.69.79A10.89,10.89,0,0,1,196,59.35a10.88,10.88,0,0,0,1.8,3.66,123.87,123.87,0,0,1,12,21.77,48.76,48.76,0,0,1,1.86,5.75c.25.91.76,2.28-1.21,2-19.17-7.38-39.1-11.24-59.48-13.27-27.29-2.73-53.71,1.64-79.74,9.37C66.73,89.92,62.3,91.5,57.85,93c-1.73.4-1.44-.84-1.29-1.72A25.45,25.45,0,0,1,58.49,85c3.49-7.71,6.77-15.55,12.4-22C71.8,61.93,71.75,60.57,72.42,59.47Z"/><path class="cls-3" d="M111.74,239.69a48.26,48.26,0,0,0,9.79-13.15,36.09,36.09,0,0,0,3.64-20.49,2.19,2.19,0,0,1,1.4-2.65c5.21-2.56,10.33-2,15.46.26a1.41,1.41,0,0,1,.83,1.77c-1.67,10.53,2.13,19.54,7.8,28a64.14,64.14,0,0,0,13.56,13.42c5.24,3.67,11.19,5.44,17.43,6.24,10.4,1.32,20.06-1.25,29.26-5.94.9-.47,1.85-1.41,2.88-.66s.78,2.08.53,3.17c-.29,1.33,0,2.77-.74,4-1,.68-1.36-.56-2.14-.65-.61.67-.33,1.51-.32,2.27.14,10.1-4.8,17.66-12.09,24-2.27,2-3.36,1.49-4-1.51a18.75,18.75,0,0,0-4.66-8.88,16.78,16.78,0,0,0-4.28-3.69c-9.13-6.57-19.55-9.38-30.55-10.58-4.39-.48-4.37-.62-3.05-4.74a11.15,11.15,0,0,0,.39-4.8,1.94,1.94,0,0,0-1.21-1.93,1.83,1.83,0,0,0-2.06.94,17.37,17.37,0,0,1-6.74,5.37c-8.19,3.84-18.34,1.88-23.42-5.08-.7-1-1.46-2.21-2.91-1.63-1.26.51-1.45,1.86-1.58,3.08a10.72,10.72,0,0,0,.68,4c.11,1.22,1,2.32.51,3.63a5.87,5.87,0,0,1-3.41,1c-11.51,1.27-22.5,4-31.93,11.23a15.77,15.77,0,0,0-4.2,4.6A27.2,27.2,0,0,0,73,278c-.86,2.73-2.18,3.2-4.35,1.29a33.69,33.69,0,0,1-12-26.45c-.85.22-1.16,1.23-2,1.15-1.7-2.33-.93-4.89-.59-7.38.09-.68.8-.69,1.39-.56a8.79,8.79,0,0,1,2.44,1.05c8.91,5.2,18.65,6.8,28.73,6a32.91,32.91,0,0,0,18.22-7.25C107.26,243.86,109.85,242.15,111.74,239.69Z"/><path class="cls-4" d="M66.63,173.69a39.3,39.3,0,0,0-15.15,12.53c-.59.84-6,1.07-6.63.36-.48-.53-.28-1.23-.29-1.86,0-3.72.1-7.45-.06-11.17a3.78,3.78,0,0,1,2.41-4A155.43,155.43,0,0,1,88.2,155.05c20.63-4.18,41.49-4.6,62.37-3.63,16.92.78,33.66,3.29,49.83,8.62a126.18,126.18,0,0,1,21.54,9.46,2.81,2.81,0,0,1,1.76,2.82c-.1,4.29-.07,8.58,0,12.87,0,1.26-.19,1.72-1.71,1.82a7.25,7.25,0,0,1-7.1-3.25c-3-4.17-7.25-7.09-11.76-9.55-.87-1.2-2.29-1.49-3.51-2-11-4.83-22.57-7.24-34.35-9.07-14.3-2.22-28.69-2.12-43.07-1.83-8.81.18-17.53,1.59-26.24,3a95.7,95.7,0,0,0-24.88,7.09C69.54,172,67.84,172.41,66.63,173.69Z"/><path class="cls-4" d="M66.63,173.69c.73-2,2.79-2.22,4.31-3,9-4.42,18.74-6.2,28.54-7.82a220.91,220.91,0,0,1,48-2.26c15.85.84,31.6,3,46.62,8.61,2.93,1.1,5.72,2.58,8.57,3.91.41.2.95.44.4,1.05-11.57-5.25-23.4-6.15-35.34-1.61A36.69,36.69,0,0,0,148,190c-.62,1.16-1,1.74-2.49,1.05-7.57-3.56-15.19-3.29-22.75.06-1.27.56-1.79.55-2.56-.82-7.13-12.65-17.88-19.67-32.51-20.44A45,45,0,0,0,66.63,173.69Z"/><path class="cls-5" d="M190.51,144A323.81,323.81,0,0,0,140,138.13a2.89,2.89,0,0,1-.7-2.22c.12-2-1-2.38-2.67-2.41-2.54-.05-5.11.4-7.61-.37a1.45,1.45,0,0,1-.6-.65,5.66,5.66,0,0,1-.36-2.37c0-10,0-20,0-30a8.14,8.14,0,0,1,2.72-6.47c2.3-1.48,4.65-1.18,7-.2,2.6,1.67,2.89,4.36,2.92,7.05.08,8.5,0,17,0,25.49,0,5.81,0,5.66,5.79,6.08C159.76,133,173,134,186,136.82c3.74.81,3.77.67,3.77-3.1,0-7.92,0-15.85,0-23.78,0-3,.67-5.63,3.27-7.45,3.31-.75,5.93.61,8.31,2.73A5,5,0,0,1,202,108q.06,15.63,0,31.26a6.21,6.21,0,0,1-.16,1.43,2.58,2.58,0,0,1-.33.76c-1,.93-2.12.51-3.18.17-1.61-.5-3.24-.95-4.86-1.43-1.22-.36-1.8,0-1.84,1.33C191.59,142.45,192.07,143.73,190.51,144Z"/><path class="cls-6" d="M223.1,239.24c.74.73.44,1.68.44,2.53,0,8,.46,16-.06,24s.41,16.18-.95,24.16a66.77,66.77,0,0,1-5.36,16.71A91.78,91.78,0,0,1,196.1,335.9a113.49,113.49,0,0,1-19.17,14.67c-.4.05-.63-.18-.57-.54.92-5.58-.48-11.13-.19-16.7a7.29,7.29,0,0,1,.39-2.86c1.25-.88,1.28.28,1.4.94a29.7,29.7,0,0,1,.15,4.12c0,.85-.27,1.77.43,2.76a82,82,0,0,0,11.37-9.38c4.7-4.93,9.13-10,11.73-16.51a32.8,32.8,0,0,0,2.29-10.85c.06-1.29,0-2.59,0-3.88,0-1.72-.07-3.49,2-4.27s3.62,0,4.85,1.65c.09.13.26.19.68.28a8.2,8.2,0,0,0,1.15-4.45,189.31,189.31,0,0,0,.32-25.43c-.19-2.73.33-5.48.36-8.23,0-.72.18-1.48,1.1-1.67,1.19.21,1.62,1.25,2.21,2.08,1.86,2.63,3.48,5.41,5.7,8.28a38.55,38.55,0,0,0,.11-4.83c0-6.21,0-12.42,0-18.64C222.42,241.34,222.19,240.16,223.1,239.24Z"/><path class="cls-7" d="M90.42,349.56a114.83,114.83,0,0,1-22.28-18.12A89.06,89.06,0,0,1,47.49,296.6a58.78,58.78,0,0,1-2.3-15.46c-.65-17.62-.47-35.24-.5-52.87v-5.19c1.06.23,1,.89,1,1.51.55,13.61,0,27.24.3,41.17,2.55-3,4.15-6.41,6.55-9.19,1.4-.91,2.09-.21,2.43,1.13a10.76,10.76,0,0,1,.15,2.66c0,8.73.06,17.47,0,26.21a38.38,38.38,0,0,0,1.53,9.35c.83-.15.87-.92,1.27-1.33a3.55,3.55,0,0,1,3.92-1.19c1.54.52,2,1.76,2,3.25A46.81,46.81,0,0,0,66,310.5c2.28,6.65,6.58,12,11.35,17a95.89,95.89,0,0,0,11.21,10,9,9,0,0,1,2.76,2.68c.6,2.52.32,5.07.24,7.6C91.55,348.53,91.54,349.46,90.42,349.56Z"/><path class="cls-8" d="M210.59,201.26a15.66,15.66,0,0,0-.49-1.61,28.83,28.83,0,0,0-30.76-17.14c-10.82,1.6-20,9.41-22.47,19.25a19.79,19.79,0,0,0-1.14,10.73c4,23.47,29.88,31.35,45.58,19.45C211,224.63,215,211.51,210.59,201.26Zm-27,5.72c-.1,2.25.1,4.51-.94,6.63a6.68,6.68,0,0,1-6.6,4,6.5,6.5,0,0,1-5.63-4.92,21.44,21.44,0,0,1-.53-6.23c.46-.47.37-1.2.42-1.84.09-1.12,0-2.26,0-3.39.07-3.66,1.84-6,4.95-6.42,4-.6,6.83,1.09,7.91,4.64a4.9,4.9,0,0,0,.9,2.24C183.1,203.34,183.63,205.2,183.55,207Z"/><path class="cls-8" d="M110.79,200.85h0a10.48,10.48,0,0,0-1.57-4c-7.92-13.93-23.4-18.53-37.83-11.2a27.06,27.06,0,0,0-14.06,16.17h0c-4.2,10.42.4,24.25,10.18,30.57,14.16,9.14,32.23,5.18,41.07-9.24C112.85,216.18,114.28,208.7,110.79,200.85ZM97.92,211.38a6.8,6.8,0,0,1-9.39,5.79c-2.65-1-3.64-3.28-4.46-5.71a.52.52,0,0,0,0-.11,5.05,5.05,0,0,0,.21-2c0-2.66,0-5.32,0-8A7,7,0,0,1,97.82,199a4.91,4.91,0,0,0,1,2.09c-.79.59-.79,1.57-.82,2.52C97.92,206.2,98.13,208.8,97.92,211.38Z"/><path class="cls-9" d="M170.59,353.93c-4.4,2.92-9.35,4.72-14.24,6.55a61.91,61.91,0,0,1-23.64,4.22c-7.55-.2-14.61-2.24-21.54-4.89a84.59,84.59,0,0,1-13-5.87,1,1,0,0,1,.18-1.49,7.37,7.37,0,0,0,2.7-5.93,1.45,1.45,0,0,1,.41-.86c.61-.26,1.09.07,1.57.36,7.32,4.37,15.49,6.29,23.67,8.21a7.65,7.65,0,0,1,2.52.75,6,6,0,0,1,1.16,1.2c2.35,2.71,4.59,2.73,7.08.11a8,8,0,0,1,1.68-1.7c7.2-.7,14-3,20.67-5.53,2.11-.78,3.85-2.4,6.2-2.58.07,0,.18,0,.21.1A42.81,42.81,0,0,0,170.59,353.93Z"/><path class="cls-10" d="M137.54,94a11.36,11.36,0,0,0-6.33-.1,3.86,3.86,0,0,1-2.5.76c-17.44.24-34.35,3.8-51.12,8.23-.94.25-1.91.38-2.82.69-2.66.8-5.34,1.57-7.94,2.55a256.78,256.78,0,0,0-28.64,12.45,33.73,33.73,0,0,0-7.9,4.84c-3.25,2.24-6.54,4.45-9.1,7.54-.77.93-.82.88-1.86.41,2.4-4.95,6.67-8.08,11.05-11,13-8.7,27.44-14.5,42.29-19.19,23-7.29,46.59-10.92,70.81-9.66,29.94,1.56,58.31,8.94,84.82,23,7,3.69,13.91,7.71,18.89,14.18.2.25.37.53.55.8-1.06.52-1.64-.34-2.29-.86-2.62-2.1-5.19-4.28-8-6.13-2.46-2.19-5.58-3.23-8.4-4.8-8.65-4.17-17.29-8.37-26.39-11.51a19.49,19.49,0,0,1-1.92-1,20.55,20.55,0,0,0-7.27-2.58,5.57,5.57,0,0,1-2.86-.34,219.81,219.81,0,0,0-34.79-6.4c-4.89-.52-9.8-1-14.73-1.16A12.49,12.49,0,0,1,137.54,94Z"/><path class="cls-11" d="M223.1,239.24v28.82c-3.54-4.16-5.79-8.51-8.7-12.38-.64-.42-1.22-.87-1-1.77q.21-2.9.43-5.79c.11-1.49-.47-1.72-1.68-1-5.56,3.45-11.71,5.13-18.09,6.31a42.1,42.1,0,0,1-24.3-2.89c-8.42-3.46-14.16-9.8-19.09-17.11,1.34.59,1.9,1.93,2.79,2.94,8,9.14,18.31,13,30.09,13.43,16,.52,28.17-6.44,36.56-20a48.46,48.46,0,0,1,3-5.16Z"/><path class="cls-11" d="M53,256.71l-7.11,10.85c-1-.19-.63-.81-.63-1.19q0-19.63,0-39.26c0-.85-.29-1.8.47-2.52A41,41,0,0,0,56.43,240c8.58,7.68,18.8,10.31,30.05,9.76,9.57-.46,17.8-4.28,25.26-10-1.55,3.37-4.6,5.32-7.42,7.33C94.2,254.24,83,255.1,71.09,252.74,65.23,251.58,60,249,54.41,246c.2,2.91-.53,5.39.46,7.84C55.27,255.45,53.46,255.65,53,256.71Z"/><path class="cls-2" d="M237.71,122.06a43.38,43.38,0,0,1,8.06,6.08c.59.52,1.06,1.23,2,1.29a12.89,12.89,0,0,1,3.08,8.14c.13,10.39,0,20.79,0,31.18-2.25-.85-3.53-2.91-5.3-4.35-2.3-1.89-4.46-4-6.91-5.67a3.26,3.26,0,0,1-1.52-2.1c-.39-8.13-.09-16.26-.18-24.39,0-2.42,0-4.83,0-7.25C236.92,124,236.83,122.87,237.71,122.06Z"/><path class="cls-11" d="M254.29,223.7c2.73,11.82-4.32,24.7-15.64,28.72-1.55.55-1.86,0-1.84-1.36q.18-9.23.28-18.46c0-1.18.51-1.6,1.62-1.5.4,0,.81,0,1.21,0,2.32.22,4.23-.4,5-2.81a5.17,5.17,0,0,0-2.69-5.92,4.43,4.43,0,0,0-2.22-.89c-2.93.18-3.13-1.46-3-3.77.25-4.26-.63-8.53.08-12.8,1.34,1.55.69,3.4.68,5.1,0,2,.64,3,2.73,3.47a24.31,24.31,0,0,1,12,7.36C253.31,221.71,253.33,223,254.29,223.7Z"/><path class="cls-2" d="M19.33,131.32c1.11.7,1.15-.53,1.52-.94A36,36,0,0,1,30.08,123a2.65,2.65,0,0,1,.81,2.2c0,10.59.17,21.18-.07,31.77,0,.24-.06.48-.09.72-1.2,2.31-3.54,3.38-5.46,4.88a24.48,24.48,0,0,0-4.68,4.07c-.68.89-1.61,1.91-3,1.13,0-10.1-.06-20.2,0-30.29A10.43,10.43,0,0,1,19.33,131.32Z"/><path class="cls-5" d="M237.71,122.06v35.49a6.43,6.43,0,0,1-1,5.84L227,157.56c.27-2.17.19-4.38.66-6.54-.09-10.12-.05-20.24,0-30.36,0-1.32-.42-3.09,1.73-3.43C232.3,118.64,235.37,119.73,237.71,122.06Z"/><path class="cls-11" d="M31.15,241.17c.06,3.15.1,6.3.19,9.45.05,1.69-.54,2.11-2.18,1.47A24.16,24.16,0,0,1,13.58,229.6c0-2.48-.45-5,.45-7.43.27.21.39.64.86.06A24.34,24.34,0,0,1,27,214.28a6.16,6.16,0,0,1,4-.3c0,.72.06,1.44,0,2.17a17.63,17.63,0,0,1-.18,4.06c-.47,1.82-2.35.73-3.52,1.29a9.8,9.8,0,0,0-4.51,4.14c-1.86,5.16,1.53,13.61,7.67,15.12A1.75,1.75,0,0,1,31.15,241.17Z"/><path class="cls-5" d="M210.44,92.49c1.61-.28.74-1.25.54-2-1.53-6-4.41-11.38-7.34-16.75a81.22,81.22,0,0,0-7.64-12,1.78,1.78,0,0,1-.05-2.39c1.75.61,2.88,2.07,4.18,3.23a107,107,0,0,1,25.19,32.88c.61,1.21,1.1,2.49,1.84,4.18Z"/><path class="cls-5" d="M72.42,59.47c.86,2.14-.67,3.39-1.76,4.81A83.61,83.61,0,0,0,57.21,91.16c-.24.81-.69,1.59.64,1.81-5.62,2.22-11.1,4.77-16.56,7.44C42.18,92.12,60.13,68.55,72.42,59.47Z"/><path class="cls-5" d="M128.8,138.13a287.91,287.91,0,0,0-51,6.23c-1-1-.72-2.17-.75-3.33a3.51,3.51,0,0,1,.61-2.1,6.25,6.25,0,0,1,2.91-1.11,230.49,230.49,0,0,1,37.16-5.37c2.74-.19,5.47-.48,8.22-.4a3.78,3.78,0,0,1,2.75.68l.14.08A4.87,4.87,0,0,1,128.8,138.13Z"/><path class="cls-12" d="M170.59,353.93a9.47,9.47,0,0,1-4.35-7.24,91.78,91.78,0,0,1,0-16.41,5.71,5.71,0,0,1,7.57-5,4.05,4.05,0,0,1,3.15,4.82c-.19,4.9.2,9.77.46,14.66a15.52,15.52,0,0,1-.46,5.79A38.83,38.83,0,0,1,170.59,353.93Z"/><path class="cls-10" d="M86,52a57.58,57.58,0,0,0-11.27,7.25c-.48.37-1.12,2-1.83.11,15.19-12.85,32.21-21.45,52.34-23.28,25.1-2.28,47.4,4.31,66.86,20.38-.9,1-1.38-.11-1.9-.46a110.46,110.46,0,0,0-15.11-8.87,3.34,3.34,0,0,1-2-.65A47.5,47.5,0,0,0,159.87,42c-1-.2-2.1-.23-2.8-1.18a99.63,99.63,0,0,0-30.41-2.14,120.92,120.92,0,0,0-14.78,2.24,6.74,6.74,0,0,0-1.08.46,3.18,3.18,0,0,1-2.1,1A62.94,62.94,0,0,0,88.83,51C88,51.54,87.13,52.24,86,52Z"/><path class="cls-13" d="M101.57,345.71c.28,3-.25,5.64-3.09,7.34-.2.12-.2.58-.29.89a59.31,59.31,0,0,1-7.77-4.38c1.06-3.2.2-6.48.46-9.72a18.32,18.32,0,0,1-.13-11.13c.69-2.53,3.44-3.85,6-3.52,2.82.37,4.73,1.94,4.92,4.82A92.49,92.49,0,0,1,101.57,345.71Z"/><path class="cls-2" d="M146.46,18a14.19,14.19,0,0,1,3.13,4.14c.63,1.37.45,2-1.17,1.63-5.26-1.14-10.6-1-15.93-1a138.84,138.84,0,0,0-14.69,1.28,14,14,0,0,1,3.2-5c5.82-3.91,12.17-4.87,19-3.56A21.46,21.46,0,0,1,146.46,18Z"/><path class="cls-5" d="M66.59,147.38c-4.59,1.78-9.22,3.44-13.75,5.36-4.23,1.79-8.34,3.87-12.51,5.82-2-1.74-1.09-3.93-.91-6,1.49-2.29,4.11-2.76,6.36-3.59,5.95-2.22,11.78-4.72,17.83-6.66,1.09-.35,2.22-1.21,3.31,0C67.45,144.07,67.67,145.77,66.59,147.38Z"/><path class="cls-5" d="M228.43,151.72c-.69,1.26-.41,2.63-.48,4,0,.74.26,1.68-.92,1.87-8.17-4.58-17-7.5-25.8-10.68a4.87,4.87,0,0,1,0-5.32l.14-.06a4.09,4.09,0,0,1,2.82.35c7.75,2.7,15.6,5.13,23,8.86A4.88,4.88,0,0,1,228.43,151.72Z"/><path class="cls-11" d="M31.06,214A27,27,0,0,0,17,220.71c-1,.93-1.66,2.13-2.74,3.16-.07-.65-.13-1.17-.19-1.7a20.94,20.94,0,0,1,15.31-17.29c1.3-.32,2-.26,1.88,1.36C31.08,208.81,31.11,211.4,31.06,214Z"/><path class="cls-14" d="M254.29,223.7a1.94,1.94,0,0,1-.16.7c-.4.63-.36,0-.44-.19-3-5.93-8.16-8.85-14.35-10.27-1.44-.33-2.26-.79-2.15-2.5.13-2.16,0-4.34-.08-6.51,3.75-.36,6.64,1.64,9.31,3.75C251.21,212.48,253.65,217.65,254.29,223.7Z"/><path class="cls-5" d="M236.71,163.39q.51-2.92,1-5.84a65.7,65.7,0,0,1,13.08,11.2V176A57.61,57.61,0,0,0,236.71,163.39Z"/><path class="cls-5" d="M17.55,167.76c1.5-.15,2.35-1.21,3.29-2.23a42.32,42.32,0,0,1,9.25-7c.87.64.5,1.8,1.08,2.56.37.76.85,1.49.48,2.39a92.56,92.56,0,0,0-8.84,6.71c-1.85,1.68-3,3.91-5.26,5.91Z"/><path class="cls-11" d="M31.15,241.17a5.72,5.72,0,0,1-4.87-2c-4.36-4.43-5.55-9-3.39-13.49-.31,4.22.68,5.27,5,5.31,3.63,0,3.67,0,3.61,3.75C31.44,236.86,31.26,239,31.15,241.17Z"/><path class="cls-5" d="M31.65,163.45l-1-2c-.66-4-.48-4.6,3-6.27,2-1,3.64-2.67,5.92-3.11l.36.13c.13,2.12-.4,4.29.46,6.35A68.49,68.49,0,0,1,31.65,163.45Z"/><path class="cls-5" d="M128.8,138.13c0-1.78,0-3.55,0-5.32,2.83,0,5.67.12,8.49-.08,2.19-.15,2.95.62,2.66,2.73a19.81,19.81,0,0,0,0,2.67Z"/><path class="cls-5" d="M66.59,147.38c0-1.78,0-3.56,0-5.34l.15-.37a35.13,35.13,0,0,1,8.92-2.6c1.52-.26,1.81.88,2.09,2,0,1.11,0,2.21,0,3.31Z"/><path class="cls-5" d="M201.18,141.56c0,1.77,0,3.55,0,5.32-3.69-.5-7.17-1.81-10.72-2.87.89-.87.6-2,.45-3-.33-2.08.55-2.08,2.14-1.67C195.81,140.06,198.36,141.31,201.18,141.56Z"/><path class="cls-10" d="M146.46,18c-2.52-.19-4.66-1.65-7.19-2-5.86-.86-11.38-.29-16.58,2.68-.48.28-1,.93-1.69.36C127.84,11.28,138.56,10.85,146.46,18Z"/><path class="cls-5" d="M86,52c7.66-5,15.71-9.08,24.84-10.61,1.07.17.7.64.19,1-6.31,4.87-10.73,11.33-15.08,17.87a9.15,9.15,0,0,1-4.16,3.24c-3,1.26-5.29.59-7.24-2a6.81,6.81,0,0,1,.1-7.3A5,5,0,0,0,86,52Z"/><path class="cls-5" d="M157.07,40.83c6.31,1.21,12.62,2.39,18,6.3A8.41,8.41,0,0,1,177,52.44a4.47,4.47,0,0,1-2.82,4.14,4,4,0,0,1-4.65-.95,38.85,38.85,0,0,1-4.87-6,32.22,32.22,0,0,0-6-6.52C157.93,42.6,156.53,42.27,157.07,40.83Z"/><path class="cls-15" d="M101.57,345.71c-.72-.74-.43-1.68-.44-2.53,0-4,0-8.06,0-12.08,0-3.38-1.9-5.26-5.17-5.33a5.23,5.23,0,0,0-5,5.37c0,2.9,0,5.8,0,8.7-2.2-.9-3.86-2.58-5.64-4a79.9,79.9,0,0,1-14.75-15.27,34.19,34.19,0,0,1-6.87-18,39.79,39.79,0,0,1-.41-5.77c.13-1.48-.27-2.63-1.83-2.93a3,3,0,0,0-3.5,1.92c-.29.64-.49,1.32-.74,2A2,2,0,0,1,55.86,296a46.07,46.07,0,0,1-1.48-10.48c.15-8.9.07-17.8,0-26.7,0-.86.75-2.56-1.41-2.13,0-1.35,1.53-1.74,1.88-2.89l2.2-3.1c.37,3.2.27,5.93.76,8.61a33.07,33.07,0,0,0,11.34,19.55c2.09,1.8,2.55,1.59,3.25-1a19,19,0,0,1,3.92-8,1.37,1.37,0,0,1,.51,1.05c-.08,3.5,2.17,5.15,5,6.37,4,1.73,8,3.46,12,5.1.79.33,1.77.41,2.07,1.45-1.43,4.67.46,8.58,3,12.24,4.32,6.26,10.39,10,17.71,11.83,1.55.39,2.91.68,3-1.64,0-.51.25-1.41,1.22-.73a1.46,1.46,0,0,1,.2.44c1.28,6.34,2,6.91,8.49,6.92,3.56,0,7.12-.09,10.68,0,3.33.1,5.66-1.08,6.58-4.45a1.46,1.46,0,0,1,.57-.75c1.6,1,3.21.62,4.84.09,5.61-1.82,10.79-4.31,14.87-8.78a23.54,23.54,0,0,0,5.77-12.86,7.72,7.72,0,0,0-.41-2.86c.37-1,1.38-1,2.17-1.35,3.66-1.5,7.41-2.78,11.07-4.3,3.49-1.45,5.38-3.77,4.6-7.74a1.53,1.53,0,0,1,.33-1.58,16.72,16.72,0,0,1,5.17,9.84c.36,2.34,1.2,2.06,2.53.93,7.14-6.09,12.06-13.37,12.28-23.13,0-1.43,0-2.86,0-4.45,1.64.29,1.82,1.81,2.83,2.37l1,1.77c-.88.77-.53,1.81-.54,2.74,0,7.41.16,14.82-.06,22.22-.14,4.76.12,9.6-1.28,14.27-.22.74-.21,1.81-1.16,1.91s-1-.93-1.31-1.54c-.8-1.64-2.12-1.86-3.67-1.47s-1.88,1.56-1.78,3a34.59,34.59,0,0,1-4.88,21,54.08,54.08,0,0,1-3.88,5.51,82.53,82.53,0,0,1-18.17,16.42c-.81-3.35.41-6.61-.74-9.66-.63-3.84-3.08-4.64-6.06-4.35-2.28.23-4.13,2.75-4.15,5.75,0,4.21,0,8.42,0,12.63,0,.86.29,1.8-.47,2.54a88.1,88.1,0,0,1-21.94,7.89,30.54,30.54,0,0,1-5.29.35c-1-1-.73-2.27-.73-3.46,0-6.15,0-12.3,0-18.45a11.06,11.06,0,0,0-.25-3.14,4.33,4.33,0,0,0-3.91-3.12,4.25,4.25,0,0,0-3.91,3.4,31.68,31.68,0,0,0-.48,9.42c.62,4.52.24,9.05.29,13.58a2.64,2.64,0,0,1-.74,2.23c-6.29-.9-12.28-3-18.3-4.88A31.5,31.5,0,0,1,101.57,345.71Z"/><path class="cls-1" d="M95.76,283.93c-4.78-2-9.57-4.07-14.34-6.13-4.3-1.87-5.24-3.37-5.08-7.92a8.94,8.94,0,0,1,3.84-4.41,7.9,7.9,0,0,1,6.34.08c5.55,2.21,11.06,4.5,16.61,6.7a35.39,35.39,0,0,0,12,2.82c6.45.28,11.39-2.5,15.57-7.07.33-.36.61-.76.94-1.11,1.92-2,2.66-2,4.46.07,6.73,7.86,14.61,10,24.45,6.68,1.22-.42,2.46-.82,3.64-1.35,5.94-2.2,11.91-4.34,17.65-7a5.14,5.14,0,0,1,4.83-.26,9.13,9.13,0,0,1,3.93,3.35c1.78,7.33-.85,8.26-7.22,11-3.53,1.54-7.21,2.72-10.82,4.06a1.56,1.56,0,0,1-.93,1.05c-9.07,3.81-18.25,6.68-28.21,3.66a24.17,24.17,0,0,1-7.37-3.6,2.88,2.88,0,0,0-3.91,0c-5.93,4.29-12.68,5.28-19.82,4.66a52,52,0,0,1-13.83-3.46C97.45,285.38,96.24,285.18,95.76,283.93Z"/><path class="cls-16" d="M164.34,272.85c-5.33,2.32-10.79,3.58-16.64,2.46-4.95-.94-8.57-4-11.81-7.51-2.26-2.46-2.08-2.53-4.44.22-3,3.46-6.39,6.3-11.07,7.23A27.48,27.48,0,0,1,103,272.8c1.08-1.12,2.58-1.21,3.95-1.6a64.16,64.16,0,0,0,15-6.45c2.36-1.38,2.3-1.52.1-3a21.24,21.24,0,0,1-5.84-6.67c-.35-.55-.65-1.14-.17-1.79-.33-1.09-.67-2.18-1-3.28.38-1.24.65-1.4,1.46-.52,1.27,1.36,2.66,2.57,4,3.82,6.7,6.09,20.08,6.39,26.58.89a17.15,17.15,0,0,1,3.31-2.42c2.14.7,1.67,2.31,1.09,3.7-1.16,2.78-3.49,4.61-5.79,6.39-1.86,1.44-1.93,1.58.09,2.8,5.12,3.09,10.29,6.1,16.3,7.23A2.88,2.88,0,0,1,164.34,272.85Z"/><path class="cls-15" d="M116.12,253.27c1.74,3.71,4.11,6.87,7.82,8.82,1,.55,2.06.93.32,2A64.35,64.35,0,0,1,103,272.8c-5-2-10.11-3.87-15.08-6a15.63,15.63,0,0,0-7.78-1.34c7.37-6.18,16.23-8.81,25.41-10.63C109.06,254.14,112.61,253.78,116.12,253.27Z"/><path class="cls-17" d="M164.34,272.85c-5.61-.47-10.46-3.05-15.32-5.55-1.63-.84-3.16-1.89-4.75-2.82-1.44-.83-1.35-1.52,0-2.39a18.07,18.07,0,0,0,6.72-6.75,2.7,2.7,0,0,0-.27-3.49c.15-1.37.61-2.37,2.29-1.83-1,3.52-1,3.57,2.63,4,10.29,1.12,20.15,3.54,28.87,9.43.73.49,1.41,1.05,2.11,1.58-2.88-.28-5.27,1.15-7.74,2.25C174.14,269.36,169.25,271.12,164.34,272.85Z"/><path class="cls-18" d="M153,250c-1.29-.05-1.46,1.31-2.3,1.83-7.81,9.22-23.2,8.71-30.83,1.7a20.56,20.56,0,0,1-3.59-3.57c-.3-.45-.82-1.3-1.2,0-1.05-2.39-1.34-4.78.09-7.15.93-1.53,2.08-1.63,3.37-.46a6.75,6.75,0,0,1,1.14,1.25c5,7.27,14.62,8.74,22.32,5.53a14.55,14.55,0,0,0,7.09-5.62,2.37,2.37,0,0,1,2.64-1.31,2.45,2.45,0,0,1,1.79,2.57C153.57,246.55,154,248.36,153,250Z"/><path class="cls-3" d="M133.83,233.84c3.19,0,5.63,2.17,5.68,5a5.38,5.38,0,0,1-5.5,5.26,5.28,5.28,0,0,1-5.28-5.44A4.76,4.76,0,0,1,133.83,233.84Z"/><path class="cls-1" d="M169.23,206.79c.07-1.68.19-3.37.21-5.06.08-4.66,2.66-7.71,6.74-7.92,4.47-.22,7.44,2.5,8,7.29,0,.24.06.48.09.72,0,2.82-.06,5.64-.12,8.47-.09,4.87-3.2,8.12-7.75,8.11-4,0-6.88-3.31-7-8C169.29,209.21,169.26,208,169.23,206.79Z"/><path class="cls-1" d="M83.55,212c0-3.4,0-6.79,0-10.19,0-4.7,2.61-7.76,6.88-8.11,4.43-.36,7.7,2.29,8.45,6.86,0,.24.09.47.14.71-.48,2.71-.2,5.44-.25,8.16-.11,5.27-2.27,8.21-6.64,8.89C88.2,219,85.22,216.78,83.55,212Z"/><path class="cls-2" d="M128.71,132.73c-11.63,0-23.15,1.43-34.63,3.09-5.48.79-10.88,2.17-16.32,3.29-1.53-.84-1.18-2.34-1.22-3.66-.24-7.57.21-15.14.46-22.71.12-3.52-.16-6.94-2.74-9.7,15-4.2,30.21-7.58,45.82-8.76,3.71-.28,7.41-.48,11.13-.43a10.21,10.21,0,0,0-2.45,7.35C128.82,111.71,128.74,122.22,128.71,132.73Z"/><path class="cls-2" d="M137.54,94a219.93,219.93,0,0,1,54.88,8,5.51,5.51,0,0,1,1,.56c-2.7,2.47-3,5.65-3,9.08.11,8.26,0,16.51.09,24.76,0,1.81-.44,2.15-2.16,1.78a201,201,0,0,0-25.95-4c-6.18-.49-12.35-1.08-18.53-1.41-3.95-.2-4-.23-4-4.16,0-9.55,0-19.1,0-28.65C139.92,97.69,139.56,95.47,137.54,94Z"/><path class="cls-2" d="M228.43,151.72c-2.89-.28-5.09-2.23-7.71-3.21-6.15-2.31-12.29-4.61-18.56-6.55a4.92,4.92,0,0,1-.84-.46q0-16.67-.08-33.34a5.32,5.32,0,0,0-.51-3c4.76.79,9,3,13.37,4.87,5.19,2.22,10.22,4.81,15.32,7.24-1.31.68-1,1.92-1,3Q228.42,136,228.43,151.72Z"/><path class="cls-19" d="M129.26,355.39c-.17-5.48.36-11-.39-16.44-.44-3.14.25-6.28.48-9.4.13-1.82,3.23-3.92,5.09-3.74a5.25,5.25,0,0,1,4.56,5.11c0,7.36,0,14.71,0,22.07,0,.64,0,1.29,0,1.94-.94,2-2.1,3.69-4.59,3.89S130.27,357.61,129.26,355.39Z"/><path class="cls-2" d="M66.6,142c-9,3-18,6.37-26.73,10.17l0,0c-1-1.06-.76-2.41-.76-3.67q0-12.31,0-24.63a10,10,0,0,0-1.24-5.79A196.87,196.87,0,0,1,66.6,105.59a3.72,3.72,0,0,1,.78,3q0,15.12,0,30.25a6.34,6.34,0,0,1-.77,3.25Z"/><path class="cls-5" d="M66.63,142l0-36.45A40.28,40.28,0,0,1,74.26,103c3.5,1.15,3.36,4.24,3.41,7,.18,8.68-.64,17.36-.35,26.05a6,6,0,0,0,.44,3.06v1.94c-.55-.87-1-1.79-2.38-1.4C72.48,140.49,69.55,141.25,66.63,142Z"/><path class="cls-5" d="M37.84,118.15c1.81.28,2,1.56,2,3.06,0,10.34,0,20.69,0,31-2.35,1.34-4.61,2.86-7.06,4s-2.18,3.21-2.16,5.25c-.88-.86-.3-2-.53-3q0-17.75,0-35.51A22.56,22.56,0,0,1,37.84,118.15Z"/><path class="cls-20" d="M95.76,283.93c8.6,3.74,17.42,6,26.88,4.05a22.9,22.9,0,0,0,10-4.65c.65-.53,1.18-1.32,2.26-.46,8.46,6.74,18,6.95,27.83,4.14,3.33-.95,6.53-2.36,9.79-3.56,1.64.91.91,2.43.75,3.63a23.27,23.27,0,0,1-10.62,16.59,38.63,38.63,0,0,1-12.61,5.38c-1.15.27-2.3.48-2.34-1.29-.13-.11-.3-.21-.33-.35-1.08-4.71-4.15-5.85-8.73-5.93-3.78-.07-7.52.25-11.28.17a6.41,6.41,0,0,0-5.84,2.73,2.18,2.18,0,0,1-1.12.88,2,2,0,0,0-.34.61c-.52,3.61-.5,3.55-4.2,2.51-9.16-2.58-16.26-7.62-20.08-16.63a14.59,14.59,0,0,1-1.15-6.12C94.67,284.83,94.53,283.93,95.76,283.93Z"/><path class="cls-1" d="M120.42,305.26a6.18,6.18,0,0,1,6-4.4c5.07-.13,10.14-.18,15.21,0,3.71.1,6,2.89,6.08,6.94-.7,1.31-.52,3-1.83,4.08a6.6,6.6,0,0,1-4.57,1.86c-4.61-.1-9.22,0-13.83,0s-7-2.24-7-7C120.47,306.23,120.44,305.74,120.42,305.26Z"/></g></g></svg>