<svg xmlns="http://www.w3.org/2000/svg" viewBox="0 0 580.09 580.09"><defs><style>.cls-1{fill:#2b2d42;}.cls-2{fill:#6161c1;}</style></defs><g id="Calque_2" data-name="Calque 2"><g id="Calque_1-2" data-name="Calque 1"><path class="cls-1" d="M580.09,515.64V64.45A64.44,64.44,0,0,1,515.64,0H64.45A64.44,64.44,0,0,1,0,64.45V515.64a64.44,64.44,0,0,1,64.45,64.45H515.64A64.44,64.44,0,0,1,580.09,515.64Zm-290-161.14a64.46,64.46,0,1,1,64.45-64.45A64.46,64.46,0,0,1,290.05,354.5Z"/><circle class="cls-2" cx="290.05" cy="290.05" r="64.45"/><path class="cls-2" d="M0,515.64v64.45H64.45A64.44,64.44,0,0,0,0,515.64Z"/><path class="cls-2" d="M580.09,515.64a64.44,64.44,0,0,0-64.45,64.45h64.45Z"/><path class="cls-2" d="M580.09,64.45V0H515.64A64.44,64.44,0,0,0,580.09,64.45Z"/><path class="cls-2" d="M64.45,0H0V64.45A64.44,64.44,0,0,0,64.45,0Z"/></g></g></svg>