<svg xmlns="http://www.w3.org/2000/svg" viewBox="0 0 413.09 413.1"><defs><style>.cls-1{fill:#df6480;}.cls-2{fill:#f76f8e;}.cls-3{fill:#fff;}</style></defs><g id="Calque_2" data-name="Calque 2"><g id="Calque_1-2" data-name="Calque 1"><path class="cls-1" d="M266.72,344.49C170.9,386.3,60.65,349.63,7.81,262.7a207.2,207.2,0,0,0,9.46,26.43c45.6,104.53,167.31,152.3,271.85,106.69S441.42,228.5,395.81,124a209.17,209.17,0,0,0-12.94-24.9C410.66,196.92,362.55,302.69,266.72,344.49Z"/><ellipse class="cls-2" cx="195.34" cy="180.89" rx="204.6" ry="178.5" transform="translate(-56.04 93.21) rotate(-23.57)"/><path class="cls-3" d="M206.54,32.05A174.5,174.5,0,0,1,329.93,329.94,174.5,174.5,0,1,1,83.15,83.16,173.36,173.36,0,0,1,206.54,32.05m0-32C92.49.05,0,92.5,0,206.55s92.45,206.5,206.5,206.5S413,320.6,413,206.55,320.59.05,206.54.05Z"/><rect class="cls-3" x="94.55" y="190.38" width="224" height="32.34" rx="15.81" transform="translate(206.55 -85.55) rotate(45)"/><rect class="cls-3" x="94.8" y="190.43" width="224" height="32.34" rx="15.81" transform="translate(-85.52 206.74) rotate(-45)"/></g></g></svg>