<svg xmlns="http://www.w3.org/2000/svg" viewBox="0 0 62 413"><defs><style>.cls-1{fill:none;}.cls-2{fill:#fcfdfd;}.cls-3{opacity:0.1;}.cls-4{fill:#6161c1;}.cls-5{fill:#f76f8e;}.cls-6{fill:#ccf;}</style></defs><g id="Calque_2" data-name="Calque 2"><g id="Calque_1-2" data-name="Calque 1"><path class="cls-1" d="M32.26,32.24h0v0Z"/><path class="cls-1" d="M32.42,32h0a.33.33,0,0,0-.16.15h0A.35.35,0,0,1,32.42,32Z"/><path class="cls-1" d="M18.52,409.82a32.45,32.45,0,0,1-4-2.33c-.42-.29-.85-.59-1.26-.9a29.73,29.73,0,0,1-2.39-2c-.76-.69-1.49-1.42-2.18-2.18s-1.36-1.56-2-2.39c-.31-.42-.6-.84-.89-1.27a32.19,32.19,0,0,1-4.5-10,32.34,32.34,0,0,1-1-8.05V32.24a32.34,32.34,0,0,1,1-8,32.19,32.19,0,0,1,4.5-10c.29-.43.58-.85.89-1.27.62-.83,1.28-1.62,2-2.39s1.42-1.49,2.18-2.18a29.73,29.73,0,0,1,2.39-2c.41-.31.84-.61,1.26-.9a32.45,32.45,0,0,1,4-2.33A31.69,31.69,0,0,1,24.44,1,32,32,0,0,1,32.5,0H0V413H32.5a32,32,0,0,1-8.06-1A31.69,31.69,0,0,1,18.52,409.82Z"/><path class="cls-2" d="M35,383a11,11,0,0,1-2.71-.4V32.25h0v-.06h0a.33.33,0,0,1,.16-.15H62V0H32.5a32,32,0,0,0-8.06,1,31.69,31.69,0,0,0-5.92,2.16,32.45,32.45,0,0,0-4,2.33c-.42.29-.85.59-1.26.9a29.73,29.73,0,0,0-2.39,2c-.76.69-1.49,1.42-2.18,2.18s-1.36,1.56-2,2.39c-.31.42-.6.84-.89,1.27a32.19,32.19,0,0,0-4.5,10,32.34,32.34,0,0,0-1,8.05V380.76a32.34,32.34,0,0,0,1,8.05,32.19,32.19,0,0,0,4.5,10c.29.43.58.85.89,1.27.62.83,1.28,1.62,2,2.39s1.42,1.49,2.18,2.18a29.73,29.73,0,0,0,2.39,2c.41.31.84.61,1.26.9a32.45,32.45,0,0,0,4,2.33A31.69,31.69,0,0,0,24.44,412a32,32,0,0,0,8.06,1H62V383Z"/><path class="cls-2" d="M36.15,381,35,381H32.26v1.6A11,11,0,0,0,35,383H62v-2Z"/><path class="cls-3" d="M36.15,381,35,381H32.26v1.6A11,11,0,0,0,35,383H62v-2Z"/><path class="cls-4" d="M32.5,32h-.08a.35.35,0,0,0-.16.16h0V380.65A12.34,12.34,0,0,0,35,381H62V32Z"/><path class="cls-5" d="M32.26,380.84V381h.16A.33.33,0,0,1,32.26,380.84Z"/><path class="cls-3" d="M62,381V368H32.26v12.65A12.34,12.34,0,0,0,35,381Z"/><path class="cls-3" d="M32.42,381a.33.33,0,0,1-.16-.15V381h.16Z"/><path class="cls-2" d="M32.42,381H35a12.34,12.34,0,0,1-2.71-.35v.19A.33.33,0,0,0,32.42,381Z"/><path class="cls-3" d="M32.42,381H35a12.34,12.34,0,0,1-2.71-.35v.19A.33.33,0,0,0,32.42,381Z"/><path class="cls-6" d="M35,381l1.18,0H62v0Z"/><path class="cls-3" d="M35,381l1.18,0H62v0Z"/></g></g></svg>