<svg xmlns="http://www.w3.org/2000/svg" viewBox="0 0 62.26 413"><defs><style>.cls-1{fill:none;}.cls-2{fill:#fcfdfd;}.cls-3{fill:#ccf;}.cls-4{fill:#f76f8e;}.cls-5{opacity:0.1;}</style></defs><g id="Calque_2" data-name="Calque 2"><g id="Calque_1-2" data-name="Calque 1"><path class="cls-1" d="M30,0a33.09,33.09,0,0,1,4.91.37A29.8,29.8,0,0,1,38.07,1c.52.13,1,.27,1.53.43A31.53,31.53,0,0,1,44,3.18c.47.23.94.46,1.39.71.92.5,1.8,1,2.66,1.62.43.29.85.59,1.27.9a29.59,29.59,0,0,1,2.38,2,32.68,32.68,0,0,1,5.9,7.14c.54.89,1,1.81,1.49,2.75a32.42,32.42,0,0,1,2.16,5.92,31.88,31.88,0,0,1,1,8.05V0Z"/><path class="cls-1" d="M59.08,394.73c-.45.94-.95,1.86-1.49,2.75a32.68,32.68,0,0,1-5.9,7.14,29.59,29.59,0,0,1-2.38,2c-.42.31-.84.61-1.27.9-.86.58-1.74,1.12-2.66,1.62-.45.25-.92.48-1.39.71a31.53,31.53,0,0,1-4.39,1.73c-.5.16-1,.3-1.53.43a29.8,29.8,0,0,1-3.15.65A33.09,33.09,0,0,1,30,413H62.26V380.76a31.88,31.88,0,0,1-1,8.05A32.42,32.42,0,0,1,59.08,394.73Z"/><path class="cls-1" d="M30.25,32.17a.2.2,0,0,1,0,.08h0a.2.2,0,0,0,0-.08A.28.28,0,0,0,30.1,32h0A.29.29,0,0,1,30.25,32.17Z"/><path class="cls-2" d="M59.08,18.27c-.45-.94-.95-1.86-1.49-2.75a32.68,32.68,0,0,0-5.9-7.14,29.59,29.59,0,0,0-2.38-2c-.42-.31-.84-.61-1.27-.9-.86-.58-1.74-1.12-2.66-1.62-.45-.25-.92-.48-1.39-.71A31.53,31.53,0,0,0,39.6,1.45c-.5-.16-1-.3-1.53-.43A29.8,29.8,0,0,0,34.92.37,33.09,33.09,0,0,0,30,0H0V32H30.1a.28.28,0,0,1,.15.15.2.2,0,0,1,0,.08h0V382.37a8.7,8.7,0,0,1-3.05.63H0v30H30a33.09,33.09,0,0,0,4.91-.37,29.8,29.8,0,0,0,3.15-.65c.52-.13,1-.27,1.53-.43A31.53,31.53,0,0,0,44,409.82c.47-.23.94-.46,1.39-.71.92-.5,1.8-1,2.66-1.62.43-.29.85-.59,1.27-.9a29.59,29.59,0,0,0,2.38-2,32.68,32.68,0,0,0,5.9-7.14c.54-.89,1-1.81,1.49-2.75a32.42,32.42,0,0,0,2.16-5.92,31.88,31.88,0,0,0,1-8.05V32.24a31.88,31.88,0,0,0-1-8A32.42,32.42,0,0,0,59.08,18.27Z"/><path class="cls-2" d="M27.21,381c-.38,0-.76,0-1.15,0-5.18,0-10.37,0-15.56,0H0v2H27.21a8.7,8.7,0,0,0,3.05-.63V381H27.21Z"/><path class="cls-3" d="M30.25,32.17A.29.29,0,0,0,30.1,32H0V381H27.21a9.47,9.47,0,0,0,3.05-.55V32.25A.2.2,0,0,0,30.25,32.17Z"/><path class="cls-4" d="M30.1,381h.16v-.24a.2.2,0,0,1,0,.08A.28.28,0,0,1,30.1,381Z"/><path class="cls-5" d="M27.21,381c-.38,0-.76,0-1.15,0-5.18,0-10.37,0-15.56,0H0v2H27.21a8.7,8.7,0,0,0,3.05-.63V381H27.21Z"/><path class="cls-5" d="M0,381H27.21a9.47,9.47,0,0,0,3.05-.55V368H0Z"/><path class="cls-5" d="M30.1,381h.16v-.24a.2.2,0,0,1,0,.08A.28.28,0,0,1,30.1,381Z"/><path class="cls-2" d="M30,381h.09a.28.28,0,0,0,.15-.15.2.2,0,0,0,0-.08v-.31a9.47,9.47,0,0,1-3.05.55Z"/><path class="cls-5" d="M30,381h.09a.28.28,0,0,0,.15-.15.2.2,0,0,0,0-.08v-.31a9.47,9.47,0,0,1-3.05.55Z"/><path class="cls-3" d="M27.21,381H10.5c5.19,0,10.38,0,15.56,0C26.45,381,26.83,381,27.21,381Z"/><path class="cls-5" d="M27.21,381H10.5c5.19,0,10.38,0,15.56,0C26.45,381,26.83,381,27.21,381Z"/></g></g></svg>