<svg xmlns="http://www.w3.org/2000/svg" viewBox="0 0 391 413"><defs><style>.cls-1{fill:#fcfdfd;}.cls-2{fill:#6161c1;}.cls-3{fill:#ccf;}.cls-4{opacity:0.1;}</style></defs><g id="Calque_2" data-name="Calque 2"><g id="Calque_1-2" data-name="Calque 1"><path class="cls-1" d="M387.82,18.27c-.45-.94-.95-1.86-1.49-2.75a32.35,32.35,0,0,0-5.89-7.14,29.73,29.73,0,0,0-2.39-2c-.42-.31-.84-.61-1.27-.9-.85-.58-1.74-1.12-2.65-1.62-.46-.25-.93-.48-1.4-.71a31,31,0,0,0-4.39-1.73c-.5-.16-1-.3-1.53-.43a30.14,30.14,0,0,0-3.14-.65A33.29,33.29,0,0,0,358.76,0H32.24a32.06,32.06,0,0,0-18,5.51c-.43.29-.85.59-1.27.9a29.73,29.73,0,0,0-2.39,2c-.76.69-1.49,1.42-2.18,2.18a29.73,29.73,0,0,0-2,2.39c-.31.42-.61.84-.9,1.27A32.18,32.18,0,0,0,0,32.24V380.76a32.06,32.06,0,0,0,5.51,18c.29.43.59.85.9,1.27a29.73,29.73,0,0,0,2,2.39c.69.76,1.42,1.49,2.18,2.18a29.73,29.73,0,0,0,2.39,2c.42.31.84.61,1.27.9a32.18,32.18,0,0,0,18,5.51H358.76a33.29,33.29,0,0,0,4.91-.37,30.14,30.14,0,0,0,3.14-.65c.52-.13,1-.27,1.53-.43a31,31,0,0,0,4.39-1.73c.47-.23.94-.46,1.4-.71.91-.5,1.8-1,2.65-1.62.43-.29.85-.59,1.27-.9a29.73,29.73,0,0,0,2.39-2,32.35,32.35,0,0,0,5.89-7.14c.54-.89,1-1.81,1.49-2.75a32.28,32.28,0,0,0,3.18-14V32.24a32.28,32.28,0,0,0-3.18-14ZM359,380.76a.2.2,0,0,1,0,.08.28.28,0,0,1-.15.15H32.16a.28.28,0,0,1-.15-.15.2.2,0,0,1,0-.08V32.24a.2.2,0,0,1,0-.08.28.28,0,0,1,.15-.15H358.84a.28.28,0,0,1,.15.15.2.2,0,0,1,0,.08Z"/><path class="cls-2" d="M359,32.25a.2.2,0,0,0,0-.08.29.29,0,0,0-.15-.16H32.16a.29.29,0,0,0-.15.16.2.2,0,0,0,0,.08V381H359Z"/><path class="cls-1" d="M32,380.76a.2.2,0,0,0,0,.08.28.28,0,0,0,.15.15h2.56a12.35,12.35,0,0,1-2.72-.35Z"/><path class="cls-1" d="M358.76,381h.08a.28.28,0,0,0,.15-.15.2.2,0,0,0,0-.08v-.31A9.47,9.47,0,0,1,356,381Z"/><path class="cls-1" d="M299.94,381h0Z"/><path class="cls-3" d="M354.81,381c.39,0,.77,0,1.14,0H339.24C344.43,381,349.62,381,354.81,381Z"/><path class="cls-3" d="M35.89,381l207.67,0H34.72Z"/><path class="cls-4" d="M32,368v14.6a11,11,0,0,0,2.72.4H299.94q19.65,0,39.3,0H356a8.7,8.7,0,0,0,3.05-.63V368Z"/></g></g></svg>