<svg xmlns="http://www.w3.org/2000/svg" viewBox="0 0 390.73 413.84"><defs><style>.cls-1{fill:#7f7eff;}.cls-2{fill:#c72e2e;}.cls-3{fill:#fcfdfd;}.cls-4{fill:#ccf;}</style></defs><g id="Calque_2" data-name="Calque 2"><g id="Calque_1-2" data-name="Calque 1"><path class="cls-1" d="M361.76,413.65l-.3-.13-.28.15q-88.49.09-177,.16-77,0-154,0C14.86,410,4.7,400.75,1,385.09a34.47,34.47,0,0,1-.68-7.93C.22,264,.49,150.87,0,37.73c-.11-26,26.28-47,53.65-33.53A428,428,0,0,1,129,52.06c3.75,2.94,7,3.65,11.77,2.49,36.54-8.91,73.17-9.15,109.69.21a10.35,10.35,0,0,0,10-2c24-18.63,49.32-35.21,76.82-48.27,16.54-7.86,32.82-5,44.22,7.66,7.37,8.19,9.26,18.13,9.24,28.76q-.09,61.74,0,123.47,0,71.49,0,143c0,22.49-.37,45-.15,67.47.19,19.09-8.76,31.48-26.29,38.16ZM33.25,366.89c-.1,2-.28,4-.27,6,0,5.76,1.33,7.05,7.05,7.05l257.37,0c17.82,0,35.64,0,53.47,0,3.71,0,6.62-.68,7-5.07.07-.82.2-1.65.2-2.48q0-108.5-.11-217a10.39,10.39,0,0,0-3.11-7.23q-19.51-15.85-39.61-31c-5.24-4-6-5.27-2.62-10.94,4.34-7.27,8.81-14.46,13.12-21.75,1.84-3.12,4.05-5.5,8-4.43s4.77,4.25,4.7,7.85c-.17,9.16-.36,18.31-.47,27.47a3.64,3.64,0,0,0,.71,2.57c4,3.15,8.08,6.13,13,9.78,1.63-9.06,4-17.3,4.44-25.65,1.14-20.45,1.48-40.93,2-61.41.16-7-2.42-8.57-8.55-5.52a336.13,336.13,0,0,0-57.06,35.46C287,74.77,281.76,79.31,276,84.12c2.23.94,3.59,1.48,4.92,2.07,4.62,2,6.72,5.54,5,8.85-2.14,4-5.54,3.51-9,1.92-.6-.27-1.24-.46-1.86-.69-37.31-13.73-75.7-18.11-114.88-11.43-15.77,2.69-31.1,8-46.57,12.28-3.68,1-7.17,2-8.71-2.47-1.38-4,.92-6.59,4.59-8.09,1.49-.61,2.95-1.33,4.66-2.1a17.31,17.31,0,0,0-2-2.52A327.37,327.37,0,0,0,39.59,34.71c-4.28-2.08-6.66-.47-6.58,4.48.33,20.66.48,41.32,1.46,62,.42,8.64,2.73,17.18,4.32,26.59,5-3.76,8.89-6.55,12.55-9.63.87-.74,1.25-2.48,1.25-3.76,0-9-.54-18-.06-27,.13-2.53,2.55-5.81,4.85-7.12,2.91-1.65,5.58.64,7.3,3.49,4.55,7.54,9.24,15,13.71,22.6,3.4,5.78,2.7,6.81-2.73,10.89q-19.9,15-39.3,30.61c-1.93,1.56-3.31,5-3.32,7.59q-.21,101.49,0,203C33,361.24,33.17,364.06,33.25,366.89Z"/><path class="cls-2" d="M361.76,413.65l2.46-.72Z"/><path class="cls-3" d="M33.25,366.89c-.08-2.83-.23-5.65-.24-8.48q-.06-101.49,0-203c0-2.58,1.39-6,3.32-7.59q19.35-15.68,39.3-30.61c5.43-4.08,6.13-5.11,2.73-10.89-4.47-7.59-9.16-15.06-13.71-22.6-1.72-2.85-4.39-5.14-7.3-3.49-2.3,1.31-4.72,4.59-4.85,7.12-.48,9,0,18,.06,27,0,1.28-.38,3-1.25,3.76-3.66,3.08-7.58,5.87-12.55,9.63-1.59-9.41-3.9-18-4.32-26.59-1-20.63-1.13-41.29-1.46-61.95-.08-4.95,2.3-6.56,6.58-4.48a327.37,327.37,0,0,1,72.47,47.23,17.31,17.31,0,0,1,2,2.52c-1.71.77-3.17,1.49-4.66,2.1-3.67,1.5-6,4.13-4.59,8.09,1.54,4.43,5,3.5,8.71,2.47,15.47-4.31,30.8-9.59,46.57-12.28,39.18-6.68,77.57-2.3,114.88,11.43.62.23,1.26.42,1.86.69,3.5,1.59,6.9,2.13,9-1.92,1.76-3.31-.34-6.82-5-8.85-1.33-.59-2.69-1.13-4.92-2.07,5.8-4.81,11-9.35,16.45-13.58a336.13,336.13,0,0,1,57.06-35.46c6.13-3,8.71-1.48,8.55,5.52-.48,20.48-.82,41-2,61.41-.46,8.35-2.81,16.59-4.44,25.65-4.88-3.65-9-6.63-13-9.78a3.64,3.64,0,0,1-.71-2.57c.11-9.16.3-18.31.47-27.47.07-3.6-.8-6.78-4.7-7.85s-6.13,1.31-8,4.43c-4.31,7.29-8.78,14.48-13.12,21.75-3.38,5.67-2.62,7,2.62,10.94q20.08,15.15,39.61,31a10.39,10.39,0,0,1,3.11,7.23q.24,108.5.11,217c0,.83-.13,1.66-.2,2.48-.85-2.46-1.69-4.93-2.74-7.95ZM123.9,203.46A33.19,33.19,0,0,0,90.37,235.9c-.27,17.61,15,33.27,32.7,33.58s33.22-15,33.44-32.77A32.87,32.87,0,0,0,123.9,203.46Zm111.28,32.59c-.06,17.89,15.18,33.35,32.78,33.27,17.88-.08,33.06-15.23,33.14-33.06.08-17.67-14.81-32.63-32.67-32.84A32.92,32.92,0,0,0,235.18,236.05Zm-39.56,16v.1c-4.5,0-9.08-.51-13.46.21-2.35.39-5.36,2.52-6.16,4.6-.61,1.61,1.38,4.66,2.9,6.51,1.65,2,4.47,3.07,6.08,5.1a20.67,20.67,0,0,1,4.16,7.93c1.9,8.58-.83,14.77-10,17.2-3.38.9-5.06,3.59-3.71,6.94,1.24,3.08,4.08,3.64,7.12,2.45,3.39-1.32,6.67-3,10.14-4a10.14,10.14,0,0,1,5.8.13c3.43,1.16,6.56,3.59,10,4.13,2.11.33,5.47-1.31,6.74-3.13,1.8-2.59-.22-5-3-6.24-2.56-1.18-5.3-2.08-7.65-3.59-1.52-1-3.42-2.74-3.56-4.29-.67-7.82-1.21-15.82,7.49-20.29a8.11,8.11,0,0,0,3.16-2.38c1.34-2.08,3.73-5.16,3.06-6.47a10.51,10.51,0,0,0-6.68-4.71C204.06,251.47,199.79,252,195.62,252Zm111.61,43.5v-.21c6.82,0,13.64,0,20.46,0,3.79,0,7.42-.88,7.32-5.5-.09-4.32-3.39-5.76-7.31-5.75-13.31,0-26.61.12-39.92.18-3.95,0-7.2,1.41-7.32,5.72-.12,4.64,3.58,5.49,7.3,5.54C294.25,295.61,300.74,295.54,307.23,295.54Zm-224.95,0v-.31c7.13,0,14.27.09,21.41-.05,3.08-.06,5.55-1.42,5.73-4.95s-2.13-5.33-5.37-6a12,12,0,0,0-2.48-.14c-12.95,0-25.9,0-38.85.09-4.85,0-7.73,2.34-7.43,6.05.38,4.67,3.87,5.27,7.56,5.3C69.33,295.6,75.8,295.56,82.28,295.56Z"/><path class="cls-4" d="M33.25,366.89H355.14c1.05,3,1.89,5.49,2.74,7.95-.39,4.39-3.3,5.09-7,5.07-17.83-.07-35.65,0-53.47,0L40,379.91c-5.72,0-7-1.29-7.05-7.05C33,370.87,33.15,368.88,33.25,366.89Z"/><path class="cls-1" d="M123.9,203.46a32.87,32.87,0,0,1,32.61,33.25c-.22,17.81-15.81,33.08-33.44,32.77s-33-16-32.7-33.58A33.19,33.19,0,0,1,123.9,203.46Z"/><path class="cls-1" d="M235.18,236.05a32.92,32.92,0,0,1,33.25-32.63c17.86.21,32.75,15.17,32.67,32.84-.08,17.83-15.26,33-33.14,33.06C250.36,269.4,235.12,253.94,235.18,236.05Z"/><path class="cls-1" d="M195.62,252c4.17,0,8.44-.57,12.46.2a10.51,10.51,0,0,1,6.68,4.71c.67,1.31-1.72,4.39-3.06,6.47a8.11,8.11,0,0,1-3.16,2.38c-8.7,4.47-8.16,12.47-7.49,20.29.14,1.55,2,3.32,3.56,4.29,2.35,1.51,5.09,2.41,7.65,3.59,2.75,1.27,4.77,3.65,3,6.24-1.27,1.82-4.63,3.46-6.74,3.13-3.46-.54-6.59-3-10-4.13a10.14,10.14,0,0,0-5.8-.13c-3.47,1-6.75,2.68-10.14,4-3,1.19-5.88.63-7.12-2.45-1.35-3.35.33-6,3.71-6.94,9.19-2.43,11.92-8.62,10-17.2a20.67,20.67,0,0,0-4.16-7.93c-1.61-2-4.43-3.09-6.08-5.1-1.52-1.85-3.51-4.9-2.9-6.51.8-2.08,3.81-4.21,6.16-4.6,4.38-.72,9-.21,13.46-.21Z"/><path class="cls-4" d="M307.23,295.54c-6.49,0-13,.07-19.47,0-3.72-.05-7.42-.9-7.3-5.54.12-4.31,3.37-5.71,7.32-5.72,13.31-.06,26.61-.15,39.92-.18,3.92,0,7.22,1.43,7.31,5.75.1,4.62-3.53,5.48-7.32,5.5-6.82,0-13.64,0-20.46,0Z"/><path class="cls-4" d="M82.28,295.56c-6.48,0-13,0-19.43,0-3.69,0-7.18-.63-7.56-5.3-.3-3.71,2.58-6,7.43-6.05,13-.07,25.9-.07,38.85-.09a12,12,0,0,1,2.48.14c3.24.68,5.56,2.34,5.37,6s-2.65,4.89-5.73,4.95c-7.14.14-14.28.05-21.41.05Z"/></g></g></svg>