<svg width="121" height="105" viewBox="0 0 121 105" fill="none" xmlns="http://www.w3.org/2000/svg">
<g clip-path="url(#clip0_194_18)">
<path d="M59.8779 80.1079C52.0554 82.7893 46.8386 81.7105 43.3927 79.4637C43.9187 79.9072 44.4711 80.3192 45.047 80.6974C47.5369 84.1152 48.6782 83.4087 48.6782 83.4087C51.892 82.1441 53.0475 85.4637 53.0315 86.5937C53.0156 87.7237 47.7271 89.5151 46.6795 89.9112C45.6319 90.3074 43.9898 89.6945 38.9524 88.5877C33.9151 87.4809 30.1512 84.5506 30.1512 84.5506C30.1512 84.5506 26.7158 85.7417 24.0182 86.722C21.3206 87.7023 22.3544 83.733 22.3544 83.733C12.3922 79.716 18.7639 67.8241 18.7434 67.9323C18.6131 54.6024 24.3742 49.1335 30.1598 46.2008C39.6663 41.3757 51.8567 46.6823 52.303 47.9692C52.4155 45.9782 52.562 43.7015 52.562 43.7015C58.094 44.4924 63.6063 51.7519 63.6063 51.7519C68.2778 52.7184 71.3223 58.9324 71.9586 59.6054C72.595 60.2783 79.2753 73.4683 59.8811 80.1162L59.8779 80.1079Z" fill="#FCFDFD"/>
<path d="M101.669 65.5971C102.65 70.9615 99.2997 76.3924 94.5041 77.4421C89.754 78.4802 84.8289 76.0212 83.1321 71.5341C81.4353 67.047 84.0863 61.4426 88.5402 59.4892C93.3083 57.4075 100.653 60.0584 101.669 65.5971Z" fill="#F76F8E"/>
<path d="M38.5848 62.2278L36.6302 68.5526C36.6302 68.5526 31.7491 63.7893 30.6406 61.3655C30.6406 61.3655 37.6737 61.5489 38.5848 62.2278Z" fill="#CCCCFF"/>
<path d="M92.2857 58.0576L90.5275 59.1015C90.5275 59.1015 86.3062 59.9397 85.2775 61.5834C84.6586 62.5729 83.9588 63.5107 83.1852 64.3875L73.3696 64.4526C73.3696 64.4526 73.0584 60.2755 70.1958 57.0745C67.3331 53.8736 65.5662 52.4436 65.5662 52.4436C65.5662 52.4436 85.2281 56.7386 85.7872 56.4969C86.3463 56.2551 92.902 50.5331 92.2857 58.0576ZM21.7504 28.8846C18.9018 33.0228 25.4 34.811 30.2289 37.6551C35.0577 40.4991 33.6536 44.8492 33.6536 44.8492L37.9784 43.9094C40.4239 40.877 39.4653 36.0027 37.2745 31.9904C34.3794 26.6638 24.594 24.7483 21.7504 28.8846Z" fill="#E6E6FF"/>
<path d="M25.4021 58.9C25.3833 60.4233 24.9742 60.6709 24.2538 60.7348C23.6792 60.7834 23.4819 60.0791 23.4652 60.0854C22.1662 52.5555 30.4754 45.8937 30.4754 45.8937L35.4681 45.0708C29.6436 46.5153 25.4267 57.3971 25.4008 58.8966L25.4021 58.9ZM50.4957 51.5221C48.4328 51.2275 46.5352 52.9686 46.5352 52.9686C46.5352 52.9686 52.2898 54.9622 54.4061 58.8283C56.4586 62.5763 57.0556 63.3835 57.8581 63.3492C58.6606 63.3148 59.1943 62.1483 57.7943 59.7248C56.3943 57.3012 52.5513 51.8175 50.4957 51.5221ZM41.6335 56.2646C41.6335 56.2646 47.8038 59.3576 48.7682 60.6039C49.7327 61.8503 50.3846 61.7118 50.9376 61.4439C51.4907 61.176 52.201 59.6242 44.3923 54.3551L41.6335 56.2646ZM56.5344 50.6183L52.9047 51.0774C52.9047 51.0774 57.8842 53.0817 59.3929 54.2094C60.5578 55.0824 61.1382 55.3689 61.617 55.1178C62.0957 54.8666 61.2391 52.6773 56.5344 50.6183ZM47.5063 48.2193C47.5063 48.2193 49.0566 48.2187 49.1969 47.7373C49.3373 47.2559 48.9399 47.1389 48.9399 47.1389C48.9399 47.1389 34.9567 45.7684 30.7982 55.3431C30.7982 55.3431 30.5083 56.099 30.9522 56.5472C31.3961 56.9953 32.4141 56.3128 33.0199 55.4184C33.6258 54.524 38.7479 48.4514 47.4969 48.2248L47.5063 48.2193Z" fill="#CCCCFF"/>
<path d="M68.1439 67.7195C68.2134 67.8221 68.8009 68.7617 68.4439 69.5734C68.3092 69.8821 67.992 70.2712 67.2294 70.4212C65.9366 70.6713 64.0044 71.5801 63.6093 71.8394C63.5679 71.887 63.5174 71.926 63.4609 71.9543C63.3819 72.0145 62.7443 72.4849 60.7174 74.762C60.032 75.5273 59.3398 76.0411 58.6716 76.2938C58.3873 76.404 58.0869 76.467 57.7827 76.4802C57.5059 76.4981 57.2287 76.4604 56.9678 76.3695C56.7069 76.2787 56.4677 76.1364 56.2644 75.9513L56.9894 75.2298L56.9862 75.2215C57.2082 75.4009 57.4934 75.4858 57.7798 75.4578C58.4297 75.4205 59.1762 74.9487 59.9458 74.0815C61.8244 71.9704 62.5856 71.3244 62.8382 71.1398C63.0081 70.9751 63.4101 70.734 64.3839 70.3051C65.2322 69.9184 66.1182 69.6202 67.0275 69.4153C67.2054 69.3784 67.4299 69.3124 67.4962 69.1679C67.5929 68.9418 67.4224 68.4908 67.2733 68.259C67.2027 68.1459 67.1799 68.0094 67.2098 67.879C67.2398 67.7486 67.3202 67.6346 67.4337 67.5616C67.5492 67.4902 67.6879 67.4659 67.8204 67.4941C67.9528 67.5222 68.0686 67.6004 68.143 67.7122L68.1439 67.7195ZM61.5039 71.1534C61.9343 70.9862 62.32 70.7215 62.6298 70.3808C62.8806 70.0855 63.1125 69.775 63.3241 69.4511C63.6982 68.8927 63.9017 68.5276 63.6664 68.1996C63.5966 68.1006 63.4947 68.0283 63.3773 67.9948C63.26 67.9613 63.1343 67.9685 63.021 68.0153C62.8937 68.0702 62.7763 68.1454 62.6733 68.2378C62.5196 68.3641 61.0513 69.3781 59.7554 70.2643C59.6804 70.3179 59.6204 70.3895 59.5812 70.4724C59.542 70.5553 59.5248 70.6466 59.5314 70.7375C59.5394 70.8276 59.5722 70.9136 59.6264 70.986C59.6805 71.0585 59.7538 71.1146 59.8383 71.1483C60.3729 71.3625 60.9719 71.3634 61.5106 71.1509L61.5039 71.1534ZM56.1947 70.6877C56.2765 70.6571 56.3489 70.6059 56.4048 70.5392C56.4607 70.4725 56.4981 70.3926 56.5134 70.3075C56.527 70.242 56.5273 70.1745 56.5142 70.1091C56.5012 70.0436 56.4751 69.9815 56.4374 69.9264C56.3998 69.8713 56.3514 69.8242 56.295 69.788C56.2387 69.7518 56.1755 69.7272 56.1092 69.7155C54.7755 69.4617 47.8537 71.4348 46.4864 71.8381C46.3554 71.8759 46.2444 71.9635 46.178 72.0818C46.1115 72.2 46.0949 72.3393 46.132 72.4688C46.169 72.5983 46.2565 72.7075 46.3754 72.7724C46.4942 72.8373 46.6346 72.8526 46.7656 72.8148C49.8595 71.9235 55.0698 70.5597 55.9145 70.7179C56.0088 70.7355 56.1064 70.7262 56.196 70.691L56.1947 70.6877ZM63.4901 66.3482C63.5711 66.3557 63.653 66.3448 63.7295 66.3165C63.8161 66.2829 63.8922 66.2269 63.9499 66.1544C64.0075 66.0819 64.0446 65.9956 64.0572 65.9044C64.1638 65.07 66.5072 62.006 68.1394 60.0962C68.2276 59.9929 68.2711 59.8596 68.2603 59.7254C68.2495 59.5912 68.1853 59.4672 68.0819 59.3807C67.9784 59.2941 67.8441 59.2521 67.7086 59.2639C67.5731 59.2757 67.4474 59.3403 67.3592 59.4436C66.6691 60.2523 63.2261 64.3461 63.039 65.7796C63.0305 65.8462 63.0352 65.9136 63.053 65.9782C63.0708 66.0427 63.1014 66.103 63.1428 66.1556C63.1843 66.2083 63.2359 66.2522 63.2947 66.2849C63.3535 66.3176 63.4183 66.3384 63.4855 66.3462L63.4901 66.3482ZM107.734 57.7575C107.658 57.8698 107.54 57.9478 107.406 57.9743C107.272 58.0008 107.133 57.9736 107.02 57.8987C106.658 57.6565 105.752 57.2544 105.331 57.5519C105.107 57.7066 104.467 58.5154 105.468 62.2518C106.286 65.2934 106.11 67.6742 104.968 69.3397C104.401 70.1579 103.594 70.7852 102.658 71.1364C102.37 71.2505 102.069 71.3311 101.763 71.3765C101.722 71.3795 101.681 71.3785 101.64 71.3734C100.621 74.1943 98.5151 76.5506 95.7853 77.5829C95.3997 77.7303 95.0031 77.8473 94.5993 77.9328C89.5547 79.0444 84.4162 76.3762 82.6535 71.715C81.8609 69.619 81.9575 67.2663 82.7457 65.1184C80.3214 65.3908 75.546 65.1591 74.0761 65.0781C74.1009 65.5296 74.0972 65.9823 74.0649 66.4337C74.0736 66.5018 74.0692 66.571 74.0519 66.6377C74.003 67.2805 73.9044 67.9191 73.7572 68.5478C73.2195 70.8 72.0477 72.8618 70.2517 74.6838C68.1138 76.855 65.0853 78.6958 61.2559 80.144C60.8597 80.2938 60.452 80.4385 60.0442 80.5832C56.7293 81.7174 53.6894 82.2491 50.9509 82.1929C50.8631 82.2115 50.7721 82.2082 50.6862 82.183C49.1759 82.1323 47.6825 81.8673 46.2515 81.3961C47.6649 83.028 48.3734 82.9477 48.4443 82.9323L48.4795 82.919C50.0306 82.3116 51.1076 82.6833 51.7432 83.1158C52.9863 83.9573 53.5458 85.6448 53.5345 86.574C53.5232 87.5032 52.1086 88.385 48.3648 89.8008C48.029 89.9277 47.6781 90.0604 47.3071 90.2007C47.114 90.2737 46.9508 90.3241 46.8467 90.3635C45.9217 90.7133 44.8133 90.4463 42.1205 89.8156C41.2379 89.613 40.1344 89.3537 38.8272 89.0633C34.375 88.0934 30.9433 85.7521 30.0403 85.1099C29.1909 85.4008 26.4112 86.3723 24.1656 87.1931C23.3443 87.4923 22.687 87.4338 22.2206 87.0226C21.4268 86.3088 21.5796 84.82 21.734 84.0357C18.8293 82.7688 16.9608 80.9128 16.18 78.4826C14.7258 74.0231 17.4612 69.0426 18.2165 67.7923C18.1752 61.7257 19.382 56.7168 21.7964 52.902C23.691 49.8997 26.3493 47.562 29.9219 45.7543C30.9771 45.2203 32.0828 44.792 33.2225 44.4758C33.4174 43.6061 33.8322 40.3693 29.9632 38.0947C28.9543 37.5021 27.858 36.9424 26.8001 36.4081C23.8836 34.9371 21.1469 33.5459 20.6269 31.5061C20.3919 30.5904 20.6261 29.6111 21.3233 28.6082C22.4752 26.9198 24.7756 26.0309 27.6216 26.1582C31.1015 26.3131 35.7556 28.1315 37.7147 31.7443C38.913 33.9541 39.654 36.2079 39.8594 38.2682C40.0705 40.3946 39.679 42.2617 38.7296 43.7143C44.596 43.6339 49.9073 45.653 51.8036 46.8616C51.8151 46.8667 51.8189 46.8766 51.8321 46.8811C51.9084 45.4895 51.998 44.1535 52.0284 43.6758C52.0312 43.6049 52.0503 43.5356 52.0841 43.4729C52.1179 43.4102 52.1656 43.3558 52.2235 43.3139C52.2798 43.2699 52.3442 43.2373 52.413 43.2181C52.4819 43.1989 52.5538 43.1934 52.6245 43.202C57.9138 43.9653 63.0358 50.2181 63.8793 51.3017C64.4826 51.4518 65.0654 51.6716 65.616 51.9566C65.6275 51.9617 65.6359 51.9585 65.6474 51.9636C72.7483 53.524 84.2528 55.9512 85.5987 56.009C85.6814 55.9587 85.8139 55.8575 85.9334 55.7725C87.1924 54.8699 89.8256 52.9985 91.5441 53.9502C92.561 54.5133 92.9638 55.8678 92.7824 58.1028C92.7758 58.1699 92.7554 58.235 92.7224 58.2942C94.4842 58.3892 96.198 58.8798 97.7341 59.7291C100.16 61.0692 101.725 63.1215 102.164 65.5104L102.167 65.5187C102.453 67.101 102.389 68.7289 101.979 70.29C102.857 70.0466 103.622 69.5009 104.134 68.7513C105.093 67.3443 105.204 65.2438 104.475 62.5192C103.628 59.3502 103.71 57.4505 104.729 56.7274C105.839 55.9381 107.405 56.938 107.578 57.0507C107.637 57.0838 107.688 57.1286 107.729 57.1822C107.769 57.2358 107.798 57.2972 107.813 57.3625C107.828 57.4278 107.83 57.4956 107.818 57.5617C107.806 57.6279 107.78 57.691 107.742 57.747L107.734 57.7575ZM34.261 42.2238C34.3759 42.8773 34.391 43.545 34.3058 44.2045C35.3572 43.977 36.4236 43.8272 37.4962 43.7562C37.5142 43.6962 37.5449 43.6407 37.5862 43.5933C39.9775 40.6307 38.7673 35.7813 36.8308 32.2283C35.0529 28.9526 30.7877 27.315 27.5808 27.1668C25.1017 27.0505 23.1259 27.7882 22.1786 29.1699C21.6549 29.9365 21.4702 30.6205 21.6351 31.2442C22.0491 32.8465 24.5886 34.1322 27.2885 35.4974C28.3592 36.0402 29.4674 36.601 30.5049 37.2133C33.1612 38.7826 34.0133 40.7974 34.261 42.2238ZM44.6261 80.9949C44.5644 80.9097 44.5323 80.8069 44.5344 80.7017C44.3107 80.5872 44.086 80.4751 43.867 80.3475C40.8134 78.6308 38.9897 76.0207 38.0114 74.1238C37.4249 73.0165 36.9685 71.8454 36.6512 70.6333C31.9297 68.393 29.0227 60.7055 28.8973 60.3739C28.8718 60.3051 28.8611 60.2317 28.8657 60.1584C28.8729 60.0803 28.898 60.0046 28.939 59.9372C28.98 59.8698 29.0358 59.8125 29.1024 59.7694C29.4535 59.5571 29.8251 59.3804 30.2116 59.2419C33.0035 58.1862 38.8858 57.1634 40.0009 56.9711C42.1707 54.6079 44.8704 52.7829 47.8789 51.6455C48.9065 51.2649 49.9574 50.9504 51.0249 50.7041C51.3017 50.6392 51.5316 50.5826 51.6943 50.5306C51.701 50.0409 51.7496 49.109 51.8104 48.072C51.3387 47.5453 48.4357 46.0389 44.3456 45.2297C40.6902 44.5044 35.304 44.1549 30.4231 46.6281C25.5935 49.0798 19.1566 53.959 19.2783 67.9006C19.2773 67.9954 19.2501 68.0883 19.1995 68.1692C18.6002 69.1217 15.8017 73.9555 17.1744 78.1691C17.8859 80.345 19.6219 82.0331 22.3304 83.1772C23.0559 82.8327 24.6834 82.1585 25.5533 82.4645C25.6793 82.5094 25.7824 82.6013 25.8408 82.7206C25.8992 82.84 25.9083 82.9776 25.8662 83.1043C25.8411 83.1744 25.8005 83.2382 25.7474 83.2911C25.6944 83.3439 25.6302 83.3845 25.5596 83.4098C25.4461 83.4535 25.3207 83.4544 25.2074 83.4122C24.8585 83.2863 23.7172 83.6478 22.7802 84.0723C22.621 84.8489 22.5629 85.9436 22.9239 86.2639C23.1256 86.4473 23.5329 86.352 23.8317 86.239C25.8228 85.5164 28.2299 84.6763 29.3507 84.2809C26.4736 79.8136 27.0901 76.2276 28.14 73.9751C28.8858 72.4132 29.9992 71.0495 31.3858 69.9994C31.4965 69.9325 31.6282 69.9094 31.7546 69.9347C31.8809 69.9601 31.9925 70.032 32.0669 70.136C32.1412 70.24 32.1728 70.3684 32.1553 70.4953C32.1378 70.6222 32.0725 70.7382 31.9725 70.82C30.7311 71.7842 29.7341 73.0228 29.0625 74.4355C27.6515 77.4634 28.1392 80.7474 30.5267 84.1887C31.0162 84.5494 34.5354 87.0965 39.0611 88.0784C40.3784 88.3649 41.4819 88.6242 42.376 88.832C44.7815 89.3931 45.8767 89.6556 46.5029 89.4188C46.6171 89.3756 46.7749 89.316 46.9728 89.2506C47.7767 88.9561 49.13 88.4652 50.3429 87.9174C52.2422 87.0589 52.5 86.6241 52.5273 86.5645C52.5277 85.9768 52.1136 84.5925 51.172 83.9648C50.562 83.5492 49.8058 83.5186 48.9261 83.8513L48.8909 83.8646C48.5162 84.0461 47.1134 84.406 44.6254 80.9932L44.6261 80.9949ZM72.6936 68.6126C72.816 68.1419 72.9077 67.664 72.9682 67.1821C72.2842 67.3725 71.5491 67.6107 71.3349 67.7902C71.2829 67.8326 71.2231 67.8646 71.1588 67.8842C71.0946 67.9038 71.0271 67.9108 70.9604 67.9046C70.8936 67.8984 70.8289 67.8793 70.7698 67.8482C70.7107 67.8172 70.6585 67.7749 70.6161 67.7237C70.5737 67.6726 70.5419 67.6135 70.5226 67.55C70.5034 67.4865 70.4969 67.4198 70.5037 67.3536C70.5105 67.2874 70.5303 67.2231 70.5621 67.1643C70.594 67.1055 70.6371 67.0534 70.6891 67.011C71.1605 66.6337 72.3754 66.2842 73.0478 66.119C73.0741 65.3393 73.0222 64.5596 72.893 63.7913C71.8407 64.3882 70.8032 65.0497 70.6475 65.2773C70.6117 65.3343 70.5649 65.3837 70.5096 65.4227C70.4544 65.4616 70.392 65.4892 70.326 65.5039C70.26 65.5186 70.1918 65.5201 70.1254 65.5083C70.0591 65.4965 69.9959 65.4715 69.9396 65.435C69.8832 65.3989 69.8346 65.352 69.7967 65.2969C69.7588 65.2419 69.7323 65.1799 69.7189 65.1146C69.7054 65.0492 69.7051 64.9817 69.7181 64.916C69.7311 64.8503 69.7571 64.7877 69.7946 64.7318C70.1432 64.1924 71.8311 63.2262 72.6915 62.7511C72.491 61.9131 72.1943 61.1014 71.8072 60.3316C70.6207 62.0805 69.4144 63.8634 69.2616 64.2055C69.2408 64.285 69.2007 64.3583 69.1447 64.4192C69.0888 64.48 69.0187 64.5264 68.9407 64.5543C68.8779 64.5797 68.8104 64.5916 68.7429 64.5893C68.6082 64.5842 68.4814 64.5267 68.39 64.4293C68.2986 64.3319 68.2499 64.2024 68.2544 64.0689C68.2622 63.9068 68.269 63.6559 71.2052 59.4448C71.1288 59.324 71.0346 59.1814 70.9303 59.0123C69.7858 57.2087 67.0986 53.0051 63.5059 52.2579C63.3866 52.2322 63.28 52.1669 63.2037 52.0727C63.1474 52.005 58.1258 45.4545 53.0453 44.3147C52.9756 45.4347 52.8961 46.7668 52.8295 47.9254C52.8376 47.9769 52.8407 48.0291 52.8385 48.0812C52.8361 48.1287 52.8267 48.1757 52.8107 48.2206C52.7677 49.122 52.7233 49.9026 52.7072 50.3674C54.1268 50.1281 56.9122 49.7249 57.8246 50.0622C57.9504 50.1088 58.052 50.203 58.1072 50.3243C58.1624 50.4455 58.1666 50.5838 58.1191 50.709C58.0919 50.7757 58.051 50.8362 57.999 50.8865C57.947 50.9369 57.885 50.976 57.8171 51.0014C57.7593 51.0249 57.6974 51.0369 57.6351 51.0367C57.5728 51.0365 57.5113 51.0242 57.454 51.0003C56.824 50.7704 53.9852 51.1388 52.1727 51.4812C52.1505 51.4878 52.1273 51.4902 52.1043 51.4881C51.8974 51.555 51.6244 51.6297 51.2556 51.72C50.2286 51.9601 49.2173 52.2634 48.2275 52.6281C45.3149 53.7294 42.7083 55.5096 40.6298 57.8173C40.5502 57.902 40.4451 57.959 40.3305 57.9798C40.2653 57.995 33.4924 59.1138 30.5612 60.2223C30.3497 60.3023 30.165 60.3721 30.0124 60.4507C30.0751 60.6165 30.1604 60.8117 30.2694 61.0491C30.3195 60.9912 30.3817 60.9448 30.4516 60.9132C30.5215 60.8815 30.5974 60.8653 30.674 60.8657C30.694 60.8677 32.4638 60.9149 34.3245 61.0452C38.2122 61.3244 38.6992 61.6785 38.9102 61.8356C38.9932 61.8981 39.0546 61.9843 39.0863 62.0827C39.1181 62.1812 39.1186 62.2871 39.0878 62.3864L37.1315 68.7117C37.1083 68.7854 37.0684 68.8531 37.0148 68.9094C36.9613 68.9658 36.8956 69.0094 36.8228 69.037L36.769 69.0573C36.6844 69.079 36.5957 69.0787 36.5116 69.0563C36.4275 69.034 36.3508 68.9904 36.2891 68.9298C36.1475 68.7939 33.4735 66.1679 31.6484 63.8179C32.94 66.1119 34.8888 68.7941 37.306 69.8379C37.3804 69.8697 37.4461 69.9185 37.4975 69.9804C37.5489 70.0424 37.5847 70.1156 37.6019 70.1942C37.6214 70.2456 38.6366 74.9601 42.5096 78.1941C44.2017 77.3457 50.2903 74.3667 52.0663 74.6484C52.1995 74.6691 52.3186 74.7415 52.3973 74.8497C52.476 74.9579 52.5078 75.0929 52.4858 75.2251C52.4638 75.3574 52.3898 75.476 52.28 75.5548C52.1702 75.6337 52.0336 75.6663 51.9003 75.6456C50.7968 75.4677 46.3692 77.4093 43.4123 78.8762C43.7254 79.0952 44.0538 79.2989 44.4007 79.4956C44.9333 79.7908 45.4854 80.0506 46.0533 80.2732C47.1159 79.3028 50.3866 76.3772 51.95 76.2541C52.0802 76.2501 52.2066 76.2957 52.3031 76.3815C52.3996 76.4673 52.459 76.5867 52.469 76.7153C52.4791 76.8438 52.4389 76.9716 52.3569 77.0725C52.2749 77.1734 52.1573 77.2396 52.0282 77.2575C51.1121 77.3367 48.7951 79.1662 47.1574 80.6404C48.2615 80.9485 49.3982 81.1322 50.546 81.188C51.1612 79.892 51.7786 78.5157 51.8612 78.2266C51.8692 78.1008 51.9244 77.9822 52.0159 77.894C52.1075 77.8058 52.2287 77.7545 52.3559 77.7501C52.483 77.7458 52.6067 77.7888 52.7028 77.8706C52.7988 77.9524 52.8602 78.0671 52.8748 78.1921C52.8953 78.353 52.9259 78.5405 51.6647 81.2236C54.1096 81.1936 56.8089 80.6694 59.7329 79.6737C60.1322 79.5321 60.5322 79.3922 60.915 79.2475C67.5315 76.7056 71.4961 73.1386 72.6961 68.6193L72.6936 68.6126ZM36.3955 67.5875L37.968 62.5104C36.9869 62.235 34.1928 62.001 31.5257 61.895C32.6935 63.7601 35.2386 66.4158 36.3955 67.5875ZM73.986 64.0584C75.309 64.1267 81.2754 64.4425 83.2123 64.0284C83.3832 63.6829 83.5716 63.346 83.7766 63.019C83.7959 62.9761 83.8216 62.9363 83.8529 62.9011C84.4963 61.9035 85.3021 61.0177 86.2372 60.2803C86.2269 60.2025 86.2308 60.1234 86.2487 60.0467C86.2813 59.9452 87.0668 57.5519 88.8101 57.2092C89.3351 57.093 89.88 57.1083 90.3954 57.2537C90.9107 57.399 91.3803 57.6698 91.7614 58.0416L91.7583 58.0333C91.8974 56.2749 91.6542 55.1804 91.0321 54.8394C89.888 54.2088 87.3583 56.0088 86.5271 56.6018C86.3505 56.7418 86.162 56.8664 85.9637 56.9741C85.7154 57.0888 85.4701 57.191 75.3344 55.0801C72.5021 54.4814 69.6698 53.8826 67.762 53.4706C69.6528 55.1418 71.0205 57.2971 71.7776 58.4721C72.0014 58.8253 72.2282 59.1868 72.3114 59.2748C72.554 59.4901 73.6366 61.3684 73.981 64.0603L73.986 64.0584ZM89.0181 58.1958C88.4728 58.3015 88.0304 58.8062 87.7172 59.3226C87.9194 59.2178 88.1324 59.1164 88.3376 59.0198C88.4665 58.9597 88.5991 58.9095 88.7217 58.8632C89.314 58.6388 89.929 58.48 90.5555 58.3896C90.0854 58.1474 89.5427 58.0781 89.0232 58.1939L89.0181 58.1958ZM83.6071 71.3544C84.1862 72.8746 85.177 74.2046 86.4714 75.1991C92.4578 68.8395 92.699 60.7139 92.7044 59.3226C91.4763 59.2383 90.2418 59.4107 89.081 59.8285C88.9668 59.8717 88.8527 59.9149 88.7452 59.9555C87.2035 60.6422 85.88 61.7363 84.9209 63.117C86.1846 64.089 88.8799 65.8427 90.5901 65.575C90.725 65.5549 90.862 65.5884 90.9712 65.6681C91.0805 65.7479 91.1531 65.8675 91.1733 66.0008C91.1919 66.1151 91.1696 66.2326 91.1101 66.333C91.0506 66.4334 90.9578 66.5103 90.8477 66.5504C90.8162 66.5643 90.7829 66.5737 90.7488 66.5783C88.5229 66.9234 85.525 64.8464 84.3838 63.9853C83.688 65.2122 83.268 66.5719 83.1526 67.9706C84.2154 68.7514 87.121 70.5335 88.8707 70.1012C88.9965 70.0698 89.1293 70.0871 89.242 70.1494C89.3547 70.2117 89.4388 70.3145 89.4772 70.4367C89.5156 70.559 89.5054 70.6915 89.4487 70.8073C89.3919 70.9231 89.293 71.0135 89.1719 71.0601L89.1199 71.0797C87.1171 71.5888 84.4088 70.0391 83.1503 69.2129C83.1918 69.944 83.3449 70.6638 83.6046 71.3477L83.6071 71.3544ZM101.31 68.0583C100.962 68.8464 100.567 69.6134 100.127 70.3554C98.221 73.5402 95.65 75.8145 92.6651 76.9433L92.4451 77.0265C92.3823 77.049 92.3158 77.059 92.2493 77.0561C92.1827 77.0531 92.1176 77.0372 92.0575 77.0093C91.9973 76.9813 91.9435 76.9419 91.8989 76.8931C91.8544 76.8444 91.82 76.7874 91.7978 76.7254C91.7756 76.6633 91.766 76.5975 91.7695 76.5315C91.7731 76.4656 91.7897 76.4009 91.8184 76.3411C91.8471 76.2813 91.8873 76.2276 91.9369 76.1831C91.9864 76.1386 92.0442 76.1041 92.107 76.0816C98.5894 73.7686 100.87 66.5453 101.141 65.588C100.784 63.8147 99.6873 62.2505 98.0125 61.0946C97.474 63.4457 95.218 72.4393 91.4448 75.4469C91.4037 75.4825 91.3565 75.5107 91.3055 75.5299C91.2031 75.567 91.0919 75.5716 90.9873 75.5433C90.8827 75.5149 90.7899 75.4549 90.7217 75.3716C90.6375 75.2661 90.5989 75.1318 90.6143 74.9976C90.6296 74.8633 90.6976 74.7401 90.8036 74.6545C94.4909 71.7192 96.7514 62.0169 97.0845 60.5282C96.0302 59.9725 94.8879 59.5966 93.705 59.4161C93.6765 61.2421 93.4426 63.0609 93.0078 64.8389C92.3057 67.7977 90.7441 72.0462 87.2889 75.7675C89.4005 77.0557 91.941 77.4777 94.3754 76.9448C94.7275 76.8682 95.0731 76.7641 95.409 76.6335C98.7954 75.3737 101.097 71.8482 101.304 68.0625L101.31 68.0583Z" fill="#2B2D42"/>
</g>
<path d="M117.301 21.4492C117.041 23.2392 116.109 25.3347 114.736 27.5725C113.367 29.8024 111.584 32.1364 109.66 34.3975C105.814 38.919 101.438 43.1146 98.7829 45.5556C97.7415 46.5068 96.1066 46.2687 95.3798 45.06C93.5318 41.963 90.5344 36.6932 88.1378 31.2621C86.9393 28.5461 85.8958 25.8004 85.2205 23.2727C84.5428 20.7361 84.2479 18.462 84.5086 16.672C85.8027 7.78878 94.191 1.63559 103.251 2.95547C112.311 4.27536 118.595 12.566 117.301 21.4492ZM105.854 15.4256C104.87 14.1286 103.405 13.2688 101.783 13.0325C100.161 12.7963 98.5122 13.2025 97.1983 14.1646C95.8841 15.1269 95.0131 16.5667 94.7798 18.1683C94.5465 19.7698 94.9705 21.3983 95.9555 22.6956C96.9403 23.9925 98.4051 24.8524 100.027 25.0887C101.649 25.3249 103.298 24.9187 104.612 23.9566C105.926 22.9943 106.797 21.5544 107.03 19.9529C107.263 18.3514 106.839 16.7229 105.854 15.4256Z" fill="#F76F8E" stroke="#2B2D42"/>
<defs>
<clipPath id="clip0_194_18">
<rect width="93.1892" height="73.0402" fill="white" transform="translate(0 35.7166) rotate(-20.7144)"/>
</clipPath>
</defs>
</svg>
