<svg xmlns="http://www.w3.org/2000/svg" viewBox="0 0 553.75 434.77"><defs><style>.cls-1{fill:#fcfdfd;}.cls-2{fill:#e6e6ff;}.cls-3{fill:#ccf;}.cls-4{fill:#f76f8e;}.cls-5{fill:#2b2d42;}</style></defs><g id="Calque_2" data-name="Calque 2"><g id="Calque_1-2" data-name="Calque 1"><path class="cls-1" d="M443.92,186.22c-9.17,18.35-10.68,34.12-9.17,50.91S415.62,386.5,354.41,409.54s-175.66,14.38-181.42,13-24.33,15.16-40.61,7-73.29-35.14-95.72-38.16-56-38.71-.51-39.72a174.16,174.16,0,0,1,38.38,3.75L65.69,352s13-28.81,30.6-47.89L113.92,285s2.12,2,5.81,4.86c-31.94-29.65-37.81-77.2-37.81-77.2s-56-50.91-58.52-69.2c0,0,68.19-25.46,81.45-18.85,0,0,67.41-60.42,103.16-45.49,0,0,31.22-67.52,34.74-67.52s52.31,50.46,49.85,87.83c0,0,45.87,40.45,48.39,78.1,0,0-.67,2.07-1.74,5.48a125.69,125.69,0,0,1,40.9-49.29s-3.08-93.14,6.6-113,32.06-28.53,42.74,3.58c10.91,32.11,23.61,143.61,14.43,161.9Z"/><path class="cls-2" d="M520.34,371.39c-54,62.6-163.41,38.88-163.41,38.88,9.57-5.37,19.47-13.59,29.54-23.77,105.45,0,105.12-79.16,107.63-114.07S506.69,239,525,240.76s49.29,68-4.7,130.63ZM2.87,401c-.51,7.11,38.93,25.18,66.4,2.29L18.14,385S3.43,393.88,2.87,401Zm187.8-87.49c-.73.11-1.51.28-2.24.44-18.52,3.25-37.65-4.53-51.86-12.81l-4.75-1.73-10-8.06C116.94,287.7,114,285,114,285L96.41,304.09c-8.23,8.9-15.33,19.81-20.65,29l-9.9,18.85,36,10.46,13.37-21.93L147,323.9l40.73,1.28,8.06.51L194.75,314Z"/><path class="cls-3" d="M352.34,355.73c-27.46,43.74-72.78,41.73-92.64,37.14S188.43,314,188.43,314s69.76-21.76,75-23.55,22.54,6,27.35,5.48,8.11-23.83,8.11-23.83l25-20.53,3.3,39.55c43,27,25.17,64.62,25.17,64.62ZM89.69,194.61c3.86-13.48,5.32-27,13.48-40.45,0,0-49.9-1.51-58.51-3.3C44.66,150.86,48.46,179.9,89.69,194.61Z"/><path class="cls-3" d="M188.88,169.49c2.85,7.95-5.76,11.14-8.28,6.83s-55-68.76-55-68.76,8-12.58,17.62-9.34,42.8,63.38,45.71,71.27Zm-.22-87.1-26.75,7.1s65.18,71.78,66.91,89.85,13,18.35,18.86,18.35,7.38-16.06-15.28-58.8-43.74-56.5-43.74-56.5Zm47.1,1.29-17.57-2.3s25.68,42.52,26.74,47.83S252,146.28,259.2,143.7,260.43,113.94,235.76,83.68Z"/><path class="cls-4" d="M291.81,294c-12.25,8.28-36.36-14.77-36.36-14.77l18.24-18.74,21.7,1.46c1.46,2.57,8.68,23.77-3.58,32Z"/><path class="cls-5" d="M547.47,262c-5.59-13.93-14.26-23.44-22.09-24.23l-.67-.05c-3.64-.34-7.11-.73-10.24-.73-15.33,0-21.48,9.23-23.33,35.24-.11,1.74-.22,3.53-.39,5.49-2.35,36.42-6.66,103.66-99.69,105.73,13.65-18.35,23.44-41.45,30-61.48,12.47-37.6,17.62-76,16.78-85.09-1.68-18.74.95-33.46,8.84-49.29,6.21-12.47,2.52-58.29.62-77.42-3.58-36.2-9.51-71-14.72-86.77C426.47,4.91,417.13.49,410.36,0c-9.79-.67-20,7-26.07,19.41-9.29,19.08-7.33,99.86-7,112.78a127.47,127.47,0,0,0-34.8,38.55c-8.78-30.38-23.27-49.73-34.18-60.87A103.16,103.16,0,0,0,295.84,99c-.67-24.22-13.09-46.54-23.44-61-11.3-15.83-23.89-27.58-27.8-29.71a3.53,3.53,0,0,0-3.75-.16c-1.12.67-1.9,1.12-19,35.86-6.77,13.76-13.43,27.58-15.67,32.22a152.78,152.78,0,0,0-27.69,3.13,125.6,125.6,0,0,0-45.65,19.25,112.85,112.85,0,0,0-25.62,24,2.79,2.79,0,0,0-1.29-.84c-21.2-6.88-81,17.84-83.52,18.91a3.26,3.26,0,0,0-1.68,1.67,3.09,3.09,0,0,0,.06,2.35C36,179.84,72.57,209.16,79.34,214.3a157.09,157.09,0,0,0,10,34.86,125.36,125.36,0,0,0,21.26,35.18c-3.69,3.81-13.71,14.38-23.5,26.07-21,25.18-24,35.42-24.22,39.78a168.42,168.42,0,0,0-26.52-1.62c-26.68.5-32.78,8.95-33.23,15.94-.33,6,3.69,13,11.13,19.19.06.05.12.05.17.11C9.64,387,.52,393.94,0,400.71c-.33,4.36,5,8.05,9.57,10.4a62.46,62.46,0,0,0,27.69,6.38h.34A52.54,52.54,0,0,0,71.4,405.57l.17-.17c22.93,9.12,48.55,21.26,59.63,26.8a24.69,24.69,0,0,0,11.19,2.57c8.39,0,16.45-3.74,22.38-6.48,2.79-1.29,6.6-3,7.66-2.91,3.58.89,34.41,3.3,70.71,2.79,33.23-.5,79.55-3.58,112-15.66a3,3,0,0,0,1.34.67A251.79,251.79,0,0,0,405,417.66c36.3,0,86.26-7.72,117.87-44.37,16.39-19,26.4-39.77,29.82-61.65,2.46-17.23.67-34.9-5.21-49.67ZM85.05,212.34v-.11c-.06-.16-.06-.33-.11-.5s-.17-.34-.23-.5a2.92,2.92,0,0,0-.33-.45l-.06-.06a2.39,2.39,0,0,0-.39-.39c-.39-.28-39.66-29.87-56.28-65.17,18.52-7.44,60.81-22.21,76.08-17.68-2.29,3.36-3.35,5.54-3.52,5.76a3,3,0,0,0,1.34,4.09,3,3,0,0,0,1.34.33,3.1,3.1,0,0,0,2.75-1.68c.11-.17,9-17.45,30.65-32.33,20.14-13.82,55.61-28.09,110.38-17.9a3,3,0,0,0,3.52-2.41,3,3,0,0,0-2.4-3.52A206.61,206.61,0,0,0,213,76.24c10.63-22,25.68-52.81,30.38-61.26,4.19,3.35,14,12.86,23.66,26.18,9.34,13,20.48,32.5,22.43,53.7-3-1.79-4.81-2.62-5-2.74a3.07,3.07,0,0,0-2.52,5.6c.11,0,10.24,4.7,22.21,16.89,9.34,9.57,21.48,25.62,29.93,50.13-3.92,5.87-23.72,35.91-24.51,45.81a3,3,0,0,0,2.8,3.25h.23a3.05,3.05,0,0,0,3-2.8c.44-5.93,12-25.28,20.81-38.88.61,2.07,1.17,4.14,1.73,6.32,0,.06.06.17.06.23-.17.33-.34.67-.51,1.06a152.14,152.14,0,0,0-11.69,33.17c-.39.23-.78.51-1.23.79-4.31,2.74-8.73,5.54-10.57,7.49a3,3,0,1,0,4.36,4.2,41.24,41.24,0,0,1,5.65-4.14c-.67,3.64-1.23,7.33-1.68,11-.72,6.21-1.17,12.2-1.34,17.79l-.17.34c-2.57,5.31-13.87,13.09-20.64,17.34-.28-1.12-.56-2.13-.84-3,5.43-3,8.39-14.27,9.18-17.68a3,3,0,1,0-5.93-1.34c-1.68,7.1-4.76,13.26-6.27,13.76-6.94-3.08-22-2.18-24.45-1.06-1.17.5-2.52,1.9-7.66,7.55-3.75,4.08-8.39,9.17-11,11.19s-11.41.78-16.5-.73a3,3,0,1,0-1.68,5.82,52.13,52.13,0,0,0,12.92,2,18.7,18.7,0,0,0,6.72-1.06c1.4,1.29,3.58,3.13,6.21,5.15-31.44,15.44-59.3,22.76-83.36,22,6.6-4,12.93-7.5,14.49-7.83a3.05,3.05,0,1,0-1.17-6c-4,.79-18.24,9.63-22.49,12.31a5.09,5.09,0,0,0-.79.67A83.33,83.33,0,0,1,139,300.23c-.95-.5-1.84-1-2.74-1.56,13.71-3.64,38.6-9.18,48.62-6.38a3,3,0,1,0,1.62-5.88c-14.88-4.14-52.08,6.38-57,7.78a92.42,92.42,0,0,1-14.09-12.92c15.72-1.91,62.15-6.77,76.25-.79a3,3,0,1,0,2.35-5.59c-17.18-7.22-73.07-.45-83.19.84a125.76,125.76,0,0,1-16.17-28.48,159.33,159.33,0,0,1-9.62-34.91Zm175,67c2.74-2.63,6-6.21,9-9.51,2.12-2.35,4.75-5.2,5.76-6.1,2.46-.5,13.09-.95,18.35.73,1.68,4.25,6.32,20.75-3.08,27.13-7.33,4.92-22.66-5.87-30-12.25ZM20.66,409.1c-9.34-2.74-14.1-6.72-14.72-8,.51-3.81,8.12-10,13.6-13.32a43,43,0,0,0,16.84,6.66c6.77.95,17.06,4.2,28.53,8.56-17,12.19-36.42,8.39-44.25,6.1Zm157.59,11c3-2.74,6.71-6.66,8-9.68a3,3,0,0,0-5.59-2.35c-1.18,2.74-6.89,8.06-10.19,10.8a2.7,2.7,0,0,0-.72.89,48.05,48.05,0,0,0-7.67,3.08c-7.94,3.69-18.85,8.73-28.3,4-19.36-9.68-74.41-35.41-96.62-38.49C24.29,386.61,8.57,373.46,9.08,365c.39-6.21,10.29-10,27.24-10.24,53.82-1,97.12,26.74,97.51,27a3,3,0,1,0,3.3-5.09,177.56,177.56,0,0,0-29.37-14.43c-.78-.28-1.56-.61-2.4-1,7.49-21.54,25.84-33.34,54.48-35.13,22.66-1.4,43.47,4.25,43.7,4.31a3,3,0,0,0,1.62-5.88A155.39,155.39,0,0,0,159.62,320c-31,1.9-51.69,15.44-60,39.16a204.61,204.61,0,0,0-30.82-8c-.4-10.85,27-43.08,45.7-62.32a92,92,0,0,0,21.71,16.5q20.13,10.83,45.25,10.86c24.4,0,52.26-7.72,83.25-23.05a3.08,3.08,0,0,0,1.45-1.57c5.88,3.86,13,7.27,19.36,7.27a14.07,14.07,0,0,0,8-2.29c7.77-5.26,8.95-14.66,8.05-22.55,3.58-2.12,13.15-8.11,19.58-14.32a180.84,180.84,0,0,0,3,32.06,3,3,0,1,0,5.93-1.23,198.22,198.22,0,0,1-1.4-57.62c.62-5.26,1.57-10.91,2.85-16.79a2.15,2.15,0,0,0,.4-1.79c6.09-26.18,19.91-56.39,50.12-78a3.17,3.17,0,0,0,1.29-2.58c-.06-1-2.91-92.58,6.32-111.55,4.87-10.07,13-16.44,20.19-16,6.94.45,12.93,7.28,16.9,19.19C438,59.17,449.41,168.43,441.18,184.93c-8.44,16.9-11.3,32.62-9.45,52.53.67,7.11-3.47,43.25-16.51,82.63-11,33-30.54,74.85-61.87,86.66-54.71,20.58-152.67,15.44-175.1,13.37Zm339.8-50.69c-30.1,34.91-78.21,42.24-113.23,42.24a262.6,262.6,0,0,1-39.5-3,158.89,158.89,0,0,0,22.44-19.08c43.74-.28,74.57-14.32,91.63-41.84,14.38-23.16,16.17-51.13,17.34-69.65.12-1.9.23-3.69.34-5.43,2-27.47,8.39-29.59,17.29-29.59,2.85,0,6,.33,9.67.67l.68.06c4.47.44,11.69,7,17.06,20.41,10.29,25.68,9.45,66.74-23.72,105.23ZM105.86,152.71a3,3,0,0,0-2.57-1.57c-17.18-.5-51.36-1.9-58-3.24a2.92,2.92,0,0,0-2.68.73,3,3,0,0,0-1,2.63c.16,1.28,4.53,31,47,46.26a3.29,3.29,0,0,0,1,.17,3,3,0,0,0,1.4-.34,3.06,3.06,0,0,0,1.51-1.84c1-3.58,1.9-7.22,2.74-10.74,2.41-10,4.65-19.42,10.41-29a3.19,3.19,0,0,0,.11-3.08Zm-16.45,30.6c-.56,2.41-1.17,4.87-1.79,7.33-18.35-7.22-28.14-17.4-33.17-24.78a44.42,44.42,0,0,1-5.71-11.36c11.92,1.23,38.32,2.18,49.4,2.57-4.53,8.84-6.66,17.68-8.73,26.24Zm161.23,68.81a3,3,0,0,1,1.57-3.41c6.37-3.25,16.56-8.67,18.74-10.52,1.62-1.4,2.79-2.18,4.19-2.18a3.24,3.24,0,0,1,3.19,2.68c.17,1,.45,2.35-4.19,8.62-4.37,6-5.88,6.54-6.44,6.71-.84.34-2.29.62-7,.62-2,0-4.53-.06-7-.17h-.11a3,3,0,0,1-2.91-2.35Zm-85.87,4.53a3,3,0,0,1,1.62-4c1.12-.45,27.41-11.24,58.74-5.26a3.05,3.05,0,0,1-1.17,6c-29.49-5.6-55,4.81-55.28,4.92a2.86,2.86,0,0,1-1.17.22,3.07,3.07,0,0,1-2.74-1.9Zm110.71-35.8c.73-17.29,27.86-53.76,29-55.33a3,3,0,0,1,4.87,3.64c-7.55,10.12-27.3,39.1-27.8,51.91a3,3,0,0,1-3,2.91h-.12a3,3,0,0,1-3-3.13Z"/></g></g></svg>