<svg xmlns="http://www.w3.org/2000/svg" viewBox="0 0 325.16 407"><defs><style>.cls-1{fill:#fcfdfd;}.cls-2{fill:#e6e6ff;}.cls-3{fill:#f76f8e;}.cls-4{fill:#fff;}.cls-5{fill:#ccf;}.cls-6{fill:#2b2d42;}</style></defs><g id="Calque_2" data-name="Calque 2"><g id="Calque_1-2" data-name="Calque 1"><path class="cls-1" d="M252.59,391.74c-35,9.67-46.26-7.44-46.26-7.44l-34.51,2.43L156,403.42c-22.12,6.05-41-6.45-41-6.45l4.2-10A115.45,115.45,0,0,1,99,382.12c-22.9-6.87-36.14-16.16-44.78-27.06-1.81-1.89-3.54-3.86-5.22-6C23.9,317.31,22.5,205.91,22.42,200v-.29c-.66-.91-25.33-33.93-19.41-76.86A95,95,0,0,1,15.92,83.81C24.48,67.65,36.4,54.53,51.41,46.59c3.46-2.34,5.64-3.49,5.64-3.49,2.59-.74,5.18-1.4,7.77-1.89,12.91-3.71,27.55-3.91,43.8.41C162.94,56.09,170.18,67,170.18,67s37.42-1.6,56.75,10.08v.08a99,99,0,0,1-3.21,11.14c-3.86,12.54-10.73,32.28-18.09,41.5,4.4,11.39-5.64,48.48-5.64,48.48,3.21,13.08,75.67,89.94,84.51,101.21s12.79,29.77,12.79,29.77c8,62-44.7,82.49-44.7,82.49Z"/><path class="cls-2" d="M297.29,309.25l-12.87-29.77s11.68-37.84-2-86.94,10.85-44.66,12.87-44.66,13.28,5.63,21.71,25.37,12.09,106.23-19.7,136ZM41.5,338.65C36.65,327,24.85,248.72,24.85,248.72S10,358.76,48.17,391c10.56,8.6,47.12,15.79,30.59-15.71,0,0-32.45-24.92-37.26-36.6ZM99.12,2.3C86.33,7.69,57,43.14,57,43.14S89,32.73,112.36,41C105.37-1.4,99.12,2.3,99.12,2.3Z"/><path class="cls-3" d="M110.63,202.9c-5.39-4.56-27-7.4-38.12-7.4s-9.38-9.37-9.09-24.47-6.54-62-6.54-62L68,120.7s12.25-6.25,20.48-4.28,15.38,10,15.38,10a17.73,17.73,0,0,1,14.8-1.15C131.11,191.27,116.06,207.47,110.63,202.9Z"/><path class="cls-4" d="M56.84,109l11.23,14.1-7,7.74Zm47,17.35s.49,11.85,1.23,12.26,6.95-2.43,9.87-12.38c0,0-8.27-1.44-11.1.12Z"/><path class="cls-5" d="M236.1,359.54s-18.18,3.87-21.59,10.41-8.18,14.35-8.18,14.35-27.39,5.8-34.51,2.43c0,0,25.87-43.8,26.45-62.59,0,0,21,10.52,24.18,7.4s1.15,19.61,4.27,22.49,9.38,5.51,9.38,5.51ZM89.54,238.06C46.52,219.56,27,259.24,27,259.24s1.89,55.23,17.56,83,63.78,44.45,74.59,44.78,17.93-11.76,17.93-11.76c7.24-14.1-.57-65.63-.57-65.63-12.09-37.38-27.14-63-47-71.56Z"/><path class="cls-5" d="M159.65,61.77l8.64,6.54a45.43,45.43,0,0,0-16.82,7c-8.35,5.71-12.79,2.3-13-1.73s14.35-10.44,21.18-11.84ZM204.72,192s1.2,49.31-1.19,57.74c-1.77,6.17,6.17,3.83,8.06.82,3.21-5.14,4-29.15-.21-50.91Zm24.76,29.78s-3.62,38.24-6.25,43.88,1.4,8.63,3.21,9.25c6.21.86,16.69-28.38,13.07-42.85s-10-10.28-10-10.28ZM88,71c1,7.24,9,3,11.89-.62s31.38-19.69,34-19.94c-1.65-.49-10.69-3.62-10.69-3.62S87,63.78,88,71Zm46.1-20.52H134C134.2,50.58,134.28,50.58,134.11,50.5ZM98.29,41.86a2.12,2.12,0,0,0-1.11,0C98.25,42,98.79,42.07,98.29,41.86ZM79.17,38.45S55.24,52.93,54.62,59s7.65,4.24,12.26-1c4.23-4.77,24.84-15,30.26-16.08C92.83,41.25,79.17,38.45,79.17,38.45ZM273.32,267c-.41-1.2-6.25-7.65-6.25-7.65s-.62,16-1.61,18.3c-1.19,2.75,6.05,5.92,7.65,2.22.74-1.65.62-11.68.21-12.87Z"/><path class="cls-6" d="M319.05,172.35c-8.64-20.15-20.65-26.69-23.77-26.69a1,1,0,0,1-.33,0c-6.17-.45-11,1.36-14.27,5.39-6.05,7.36-6.17,21.54-.45,42.15a179,179,0,0,1,6.08,60.94,144.6,144.6,0,0,1-2.88,20.07c-10.07-14.43-24-28.79-37.67-42.89-17.39-18-35.4-36.52-43.87-54-.09-.16-.17-.28-.25-.41,5-13.86,6-31,6.17-40.34a.14.14,0,0,1,0-.08c.12-.37.29-.87,0-2.8,0-1.36,0-2.42,0-3.12C219,115.76,228.57,79.2,229,77.64a2.24,2.24,0,0,0-1-2.47c-18-10.89-50.38-10.61-56.84-10.44-3-3.09-14.8-12.17-56.5-23.77a1.17,1.17,0,0,0,0-.37c-.74-4.4-1.48-8.43-2.22-12.13v-.08c0-.29-.12-.54-.17-.83s-.16-.78-.24-1.15c0-.12,0-.2-.08-.33-1.77-8.26-3.62-14.6-5.51-18.91-1.65-3.71-3.34-6-5.1-6.79h-.05a1.59,1.59,0,0,0-.41-.16s-.08,0-.16,0-.17,0-.25-.08a.7.7,0,0,0-.29,0H100c-.12,0-.25,0-.37,0a1.17,1.17,0,0,0-.37,0h0c-.12,0-.21,0-.33,0h0c-.21,0-.37.13-.54.17A30.85,30.85,0,0,0,92.7,3.58s-.08.08-.12.08L92,4.11c-.12.08-.2.17-.33.25s-.29.2-.45.33l-.53.41c-.09.08-.17.12-.25.2-.25.21-.54.42-.78.66C75.43,17.52,56.43,40.47,55.44,41.66a3.14,3.14,0,0,1-.24.33.14.14,0,0,1,0,.08,1.63,1.63,0,0,0-.13.29,78.17,78.17,0,0,0-7.4,3.78C31.18,55.76,17.94,72,9.3,92.82c0,0,0,0,0,.08a141.88,141.88,0,0,0-6.17,18.54A97.5,97.5,0,0,0,.17,130.49a2.37,2.37,0,0,0,0,.53,111,111,0,0,0,7,43.88,114.42,114.42,0,0,0,13.2,25.58c.05,4,.42,24,2.39,48.28a402.32,402.32,0,0,0-2.63,59c.61,18.46,2.75,34.58,6.29,47.87,4.52,16.86,11.43,29.28,20.52,37,4.57,3.7,14.31,7.28,23,7.28,4.52,0,8.76-1,11.76-3.46,3.29-2.71,6-8,2.22-18.05,3.25,1.52,6.37,2.84,9.25,3.9a127,127,0,0,0,22.46,6.3,17.27,17.27,0,0,0-2.64,8.22,2.47,2.47,0,0,0,.46,1.44c5.47,7.07,16.77,8.76,26.48,8.76a96.47,96.47,0,0,0,16.74-1.52,2,2,0,0,0,1.07-.54,119.74,119.74,0,0,0,14.92-16c2,.2,6.83.65,12.63.65,6.33,0,13.82-.53,19.9-2.55a7.84,7.84,0,0,0,2.26,3.42c3.42,3.08,11.23,4.56,23.77,4.56h2.55c10-.16,19.21-1.15,19.29-1.15a1.83,1.83,0,0,0,.91-.33c22.74-13.82,35.49-26.11,41.32-39.85,5.56-13.12,4.57-26.81,3.29-42.6a1.57,1.57,0,0,0,.42-.29c19-17.81,24.22-53.54,25.66-73.24,2-29.16-1.32-55.35-5.51-65.18ZM89.54,11.8l0,0c.24-.2.49-.45.74-.66a0,0,0,0,0,0,0c.49-.45,1-.86,1.52-1.27,0,0,.08-.08.12-.08l.62-.5s.08-.08.12-.08c.46-.37,1-.74,1.4-1.07a.83.83,0,0,0,.17-.12l.49-.37A.76.76,0,0,0,95,7.4,6.61,6.61,0,0,1,95.62,7s.08,0,.13-.08a4.86,4.86,0,0,1,.53-.37c.08,0,.16-.12.25-.17l.37-.24c.08,0,.16-.13.24-.17l.41-.24a2.75,2.75,0,0,0,.33-.21c.13-.08.25-.12.37-.21a1.77,1.77,0,0,0,.29-.16A2.3,2.3,0,0,0,98.83,5a1.46,1.46,0,0,0,.29-.17l.24-.12.25-.13c.91.74,4.4,4.86,8.51,25.17l.13.66c0,.08,0,.21,0,.29.41,2.18.86,4.52,1.31,7.07a69.15,69.15,0,0,0-18.26-2.22,112.36,112.36,0,0,0-15.42,1.15.36.36,0,0,0-.2,0A75.28,75.28,0,0,0,68.27,38c-1.76.37-3.41.7-4.81,1.07C69.47,32.08,80.36,19.86,89.54,11.8ZM78.64,393.06c-6.25,5.1-22.66,1.32-29-3.83-15.13-12.74-23.85-40.91-25.2-81.46-.46-12.91,0-25.21.53-35.2,4.69,38.94,12.17,65.14,22.29,77.93,8.84,11.18,19.86,19.16,30.14,24.75,3.17,6.17,5.84,14.07,1.28,17.81Zm212.32-41c-5.39,12.75-17.44,24.3-39.11,37.5-13.69,1.48-36.68,2.14-41.62-2.3-1.68-1.52-1.72-4.73-.12-8.59,2.92-7,12-16.45,23.69-16.91a11.74,11.74,0,0,0,2.67,0,2.23,2.23,0,0,0,1.85-2.34,2.2,2.2,0,0,0-2.1-2.1c-.74,0-1.52,0-2.26,0a8,8,0,0,1-4.36-2.3c-3.33-3.37-6.5-11.76-2.59-32.45,4.73-25.12,10.32-32,13.24-33.88a2.87,2.87,0,0,1,1.94-.62.38.38,0,0,0-.13,0l1.73-4.11a6.11,6.11,0,0,0-5.26.61c-6.58,3.54-11.93,16-15.92,37.26-3.41,18.14-2.14,30.35,3.78,36.4l.33.32A33.78,33.78,0,0,0,206,377a19.62,19.62,0,0,0-1.48,5.67c-9,3.34-22.62,2.76-28.91,2.23a136,136,0,0,0,17.93-35.37c6.08-17.77,9.33-37.88,9.7-59.71a264.4,264.4,0,0,0-7.61-67.24,2.24,2.24,0,1,0-4.31,1.19,260.66,260.66,0,0,1,7.48,66c-.53,33.35-8.6,79.73-43.76,111.65-8.59,1.56-30.1,3.33-37.71-5.06.33-2.51,2.18-10,11.93-10.41,2.43-.08,4.56-1.39,6.29-3.86,9.17-12.87,7.16-59.43,3.17-73a2.25,2.25,0,0,0-4.32,1.28c4.11,13.82,5.26,58.27-2.51,69.13-1.36,1.93-2.47,2-2.84,2a17.21,17.21,0,0,0-10,3.37,126.24,126.24,0,0,1-24.59-6.58c-12.79-4.85-30.72-14-43.68-30.43-14.26-18-20.72-63.29-23.64-99a.7.7,0,0,0,0-.29c-1.52-18.63-2.1-34.67-2.26-42.81,3.53,3.54,8.67,8.18,12.83,9.7a2.16,2.16,0,0,0,.78.13,2.24,2.24,0,0,0,.74-4.36c-4.65-1.69-12.3-9.62-14.93-12.67a108,108,0,0,1-13-25,106.76,106.76,0,0,1-6.79-41c2.51-1.15,8.51-3.87,14.85-6.42,15.75-6.33,18.62-5.84,18.91-5.75a2.23,2.23,0,1,0,1.48-4.2c-1.23-.41-4.07-1.44-21.92,5.76-5.05,2-9.91,4.15-13,5.55a91,91,0,0,1,2.55-14.68,7.94,7.94,0,0,1,.29-1c2.13-.49,8.92-2,16.08-3.12,15.91-2.6,19-1.2,19.45-.87a2.22,2.22,0,1,0,2.46-3.7c-1.8-1.19-6.12-2.51-22.65.16-5.52.91-10.78,2-13.95,2.64,1.16-3.75,2.39-7.32,3.79-10.82,11.59-1,29.89-1.19,33.68,2.14a2.22,2.22,0,0,0,1.48.58,2.27,2.27,0,0,0,1.68-.74,2.23,2.23,0,0,0-.2-3.17c-1.11-1-4.48-4-22.13-3.87-4.89,0-9.45.25-12.5.46C23,73,35.09,58.77,49.81,50.13a68.77,68.77,0,0,1,18-7.4c2.92-.62,6.34-1.24,10-1.73A84.9,84.9,0,0,1,108,43.84c50.75,13.53,59.84,23.89,60.29,24.47a2.12,2.12,0,0,0,1.93,1c.37,0,35.12-1.35,54,8.93-1.89,7-9.67,34-18.43,47.37-.61-2.1-1.27-4.36-2-6.62,5.26-5.39,8.47-13.57,10-18.22.17-.49,4-12.29,2.06-15.67-.87-1.56-2.67-2.75-17-3-7-.12-14,.13-14.06.13a2.25,2.25,0,0,0-2.06,1.52,2.29,2.29,0,0,0,.7,2.47c5.14,4.23,11.27,19.61,15.42,32.11a2.29,2.29,0,0,0,.54,1.65,139.18,139.18,0,0,1,3.91,14c0,11.76-1.36,46.26-16,56.92a2.23,2.23,0,1,0,2.63,3.61,31.34,31.34,0,0,0,9.46-12.13c9.25,17.19,26.44,35,43.14,52.19,24.46,25.21,49.71,51.28,51.28,76.2v0c1.27,15.42,2.34,28.91-2.88,41.25ZM202.21,114c-.28-.82-.57-1.64-.86-2.46-3-8.43-7.2-18.8-11.6-25,9.67-.16,19.54.17,22.21,1C212.21,91.17,208.75,105.73,202.21,114ZM320,237.32c-1.31,18.35-6,50.92-22.25,68.27-1.48-8.8-5.42-17.6-11-26.36a133.48,133.48,0,0,0,3.95-24.63A183.14,183.14,0,0,0,284.5,192c-6.62-23.81-3.86-33.84-.41-38.12s8.76-3.86,10.49-3.74c.24,0,.45,0,.57,0,1.65.29,11.89,5.68,19.74,24,4.07,9.42,7.08,35.65,5.1,63.16ZM94.06,226.22a2.27,2.27,0,0,1-1.89,2.55,31.93,31.93,0,0,1-4.4.33c-16.41,0-25.83-13.45-26.24-14.06a2.25,2.25,0,1,1,3.7-2.55c.41.57,10,14.18,26.28,11.84a2.22,2.22,0,0,1,2.55,1.89Zm25.45-103a19.07,19.07,0,0,0-7.07-1.32,19.7,19.7,0,0,0-8.14,1.73c-2.47-2.43-8.47-7.73-15.3-9.42a18.09,18.09,0,0,0-4.11-.45c-6.38,0-13.37,2.79-16.41,4.19l-10-10.48A2.19,2.19,0,0,0,55.9,107a2.27,2.27,0,0,0-1.24,2.35c.08.45,6.79,46.92,6.54,61.68,0,1.69-.08,3.29-.12,4.86-.29,8.84-.45,15.25,3.12,19,1.9,2,4.61,2.92,8.35,2.92,11.23,0,32,3,36.68,6.87a5.12,5.12,0,0,0,3.38,1.23c1.44,0,3.61-.57,5.88-3.33,2.59-3.12,5.92-9.87,7-24s-.5-32.24-4.57-53.71a2.48,2.48,0,0,0-1.36-1.6Zm-7.07,3.16h.08c-1.64,5.06-4.15,7.82-5.84,9.13-.2-2-.41-4.93-.53-7.77a15,15,0,0,1,6.29-1.36ZM60.05,115.64,66.14,122l-4.57,5c-.57-4.4-1.11-8.31-1.52-11.39ZM115,199.7c-1,1.23-1.93,1.68-2.43,1.68a.81.81,0,0,1-.49-.2c-6.17-5.19-29-7.94-39.56-7.94-2.43,0-4.11-.49-5.1-1.56-2.3-2.39-2.1-8.27-1.89-15.71,0-1.56.08-3.21.12-4.94.17-8-1.6-24.34-3.33-38.32a1.21,1.21,0,0,0,.41-.37l7-7.74a2.17,2.17,0,0,0,.32-2.5c2.59-1.2,9.13-3.87,14.77-3.87a13.48,13.48,0,0,1,3,.33c6.25,1.52,12,7,13.69,8.72.58,12.25,1.24,12.66,2.31,13.28a2.46,2.46,0,0,0,1.31.33,4.32,4.32,0,0,0,1.65-.37c3.12-1.28,7.52-5.39,9.91-12.87,10,54.4.29,69.54-1.77,72ZM38.54,74.43a2.25,2.25,0,1,1,2-4c.08,0,7.19,3.54,14.51,7.73C68.81,86,71.52,89.36,72.35,91.21a2.26,2.26,0,0,1-1.11,3,2.32,2.32,0,0,1-.91.21,2.25,2.25,0,0,1-2.06-1.32c-1.56-3.49-18.34-13-29.73-18.63Zm127.65,36.69c-.33-.13-28.17-10.37-47.54-1.77a2.25,2.25,0,1,1-1.81-4.11c21.1-9.38,49.72,1.19,50.91,1.64a2.28,2.28,0,0,1,1.32,2.88,2.22,2.22,0,0,1-2.1,1.44,1.74,1.74,0,0,1-.78-.08ZM76.42,101.7a2.22,2.22,0,0,1,.08-2,2.19,2.19,0,0,1,1.64-1.11,44.87,44.87,0,0,1,5.76-.37c5.39,0,12.67,1,16.82,5.35a2.27,2.27,0,0,1,.58,1.81,2.34,2.34,0,0,1-1,1.6c-.21.17-5.59,3.58-14.11,3.58a2.21,2.21,0,0,1-1.35-.45c-1.69-1.28-7.24-5.68-8.43-8.43Zm83.85,22.49c3.29,1,32.2,9.34,37.54,18.3a2.27,2.27,0,0,1-.78,3.09,2.39,2.39,0,0,1-1.15.33A2.15,2.15,0,0,1,194,144.8c-3.33-5.6-23.2-13-34.92-16.29a2.18,2.18,0,0,1-1.52-2.75,2.24,2.24,0,0,1,2.76-1.57ZM187,165.6a2.25,2.25,0,0,1-2.06-1.31C179,150.84,153.28,141,153,140.93a2.24,2.24,0,1,1,1.56-4.19c1.11.41,27.72,10.56,34.46,25.74a2.24,2.24,0,0,1-1.15,3A1.92,1.92,0,0,1,187,165.6Zm-11.93,15.84a2.22,2.22,0,0,1-1.48,2.79,1.69,1.69,0,0,1-.66.13,2.24,2.24,0,0,1-2.13-1.57c-1.69-5.42-16.54-23-22.09-29.36a2.24,2.24,0,0,1,3.37-3c2.1,2.39,20.69,23.69,23,31Z"/></g></g></svg>