<svg xmlns="http://www.w3.org/2000/svg" viewBox="0 0 454.65 412"><defs><style>.cls-1{fill:#f6ae2d;}.cls-2{fill:#f4bc62;}.cls-3{fill:#fcfdfd;}.cls-4{fill:#ccf;}.cls-5{fill:#2b2d42;}.cls-6{fill:#f29a19;}</style></defs><g id="Calque_2" data-name="Calque 2"><g id="Calque_1-2" data-name="Calque 1"><path class="cls-1" d="M395.06,375.36c1.56,1.7,5.64,15,5.64,17.58s-7.21,8.77-7.21,8.77c-165.76,18-344.14-.45-344.6-3.16s4.5-14,1.33-14.88S33.09,372,33.09,372a113.37,113.37,0,0,0,9-15.75c3.17-7.21-5-51.33-5-51.33s97.67-22.69,112.36-15.39l35.4-83.24,6-1.15L234,293.63l166.82-1.89s-6.43,56.76-4.54,59,6.88,9.78,7,12.16-9.82,10.8-8.21,12.45Z"/><path class="cls-2" d="M189,201.24l-4.09,5Zm-42.38,5.47-21.17,4L75,221.35s-47.48,11.16-54.18,15S1.36,307.68,2.65,309.88,125,279.3,149.49,289.49l35.4-83.24H159.68Zm255.89-1.84c-3.16-1.33-34.66-1.79-34.66-1.79.41,8.17-12.86,15.06-14.74,15.38s-14-1.61-14-1.61l-13-6.38-6-9.09-131-.14s43.94,89.17,44.27,91.42,216-.87,218.74-.41-46.46-86-49.59-87.38Z"/><path class="cls-3" d="M367.78,203.08c-16.76,34.8-47.84-1.7-47.84-1.7l-29.62-1.47s-103.59,0-104.51,3.17-39.21,3.58-39.21,3.58L117.76,213,88.7,220.39,75,223.1S89.85,190,122,170.16c-3.17-15.11-2.84-21.82-2.84-21.82s-24.52-28.65-34.4-69.42c0,0,51.94-5.42,62.45-.32,0,0,34.26-30.58,84.44-29.44l-2.52-.36S244.54,1,250.83,2.6,302,43.33,303.91,73.18c-4.55-5-13.18-9.23-23-12.67a160.53,160.53,0,0,1,23,12.67c4.55,5.1,58.73,60.06,25.16,115.57l4.14-5.65c36.82-2.25,36,17.77,34.57,20Z"/><path class="cls-4" d="M252.53,50.77s.73-30.12.64-31,34.35,19.65,35.54,43.16ZM120.66,135.3c.64-4.13,15.74-37.74,15.74-37.74-12.39-.83-24.79-1.51-36.77-4,2.57,15.79,21,41.73,21,41.73Z"/><path class="cls-4" d="M203.49,86.13c2.53,7.62-7.16,9.23-11.16,4.45s-27.87-23.42-27.87-23.42,6.84-8.26,15-7,21.49,18.32,24.06,26Zm-8.91-30.77s40.36,31.92,45.6,42.48c4.5,9.13,12.4,13.4,15.24,12.76S266.07,99,217.49,50.08Zm76.91,18.83c-2.84-7.16-14.64-19.1-22-21.49s-8.77-1.1-8.77-1.1,21.35,26.26,23.88,28.51,9.73,1.24,6.88-5.92Z"/><path class="cls-5" d="M166.43,361.49a2.44,2.44,0,0,1-2.34,2.62L49,370.45h-.13a2.48,2.48,0,0,1-.14-5l115.11-6.29a2.36,2.36,0,0,1,2.57,2.29Zm-13.72,25.12c-7.72,0-84.22-4.46-85-4.5a2.48,2.48,0,0,0-.27,5c3.17.18,77.41,4.5,85.27,4.5a2.48,2.48,0,0,0,0-5Zm229.17-21.35c-1.2-.88-3.63-2.62-62.82-10.24-29-3.72-57.67-7.07-58-7.12a2.5,2.5,0,1,0-.55,5c43.07,5,113.28,13.87,118.51,16.48a2.51,2.51,0,0,0,1.38.42,2.58,2.58,0,0,0,2-1,2.51,2.51,0,0,0-.55-3.49Zm-4.78,14.46c-4.41.55-72.64-.14-117.64-.73a2.48,2.48,0,0,0-2.52,2.48,2.51,2.51,0,0,0,2.48,2.52c.27,0,29.29.41,58.22.69,21,.18,34.71.27,43.67.27,16.11,0,16.76-.22,17.26-.41a2.53,2.53,0,0,0-1.47-4.82Zm-255.85-242a2.69,2.69,0,0,1-.59,0,2.39,2.39,0,0,1-2-1.05c-.79-1.1-18.83-26.63-21.45-42.8a2.43,2.43,0,0,1,.74-2.2,2.49,2.49,0,0,1,2.25-.64c10.65,2.2,21.94,3,32.87,3.67,1.2.09,2.39.14,3.58.23a2.47,2.47,0,0,1,2,1.19,2.56,2.56,0,0,1,.14,2.3c-7.26,16.16-15.2,34.62-15.57,37.1a2.55,2.55,0,0,1-1.93,2.16Zm11.44-37.93c-9.83-.64-20-1.33-29.76-3.08,3.12,11.16,12.31,26,17,33,3.08-8.08,9.55-22.73,12.77-29.94Zm42.15,46.28a2.41,2.41,0,0,0,.78-.13c.32-.09,33.52-11,49-6.52a2.49,2.49,0,1,0,1.38-4.78c-16.94-5-50.56,6.11-52,6.57a2.5,2.5,0,0,0,.83,4.86Zm92.8-17.54a2.3,2.3,0,0,0,1.33.37,2.44,2.44,0,0,0,2.11-1.19c7.39-12,31.87-20.34,32.14-20.44a2.49,2.49,0,1,0-1.61-4.72c-1.05.36-26.44,9-34.75,22.54A2.42,2.42,0,0,0,267.64,128.55Zm-23.19,23.28c.18,0,4.82.23,9.55.23,8.49,0,10.1-.68,11-1.37,2-1.52,8.31-7.81,9-8.5a2.44,2.44,0,0,0,.65-2.34,2.57,2.57,0,0,0-1.66-1.79,18.54,18.54,0,0,0-5.6-.83c-11.8,0-23.92,9.78-24.43,10.2a2.52,2.52,0,0,0-.78,2.71,2.42,2.42,0,0,0,2.21,1.69Zm-18.19,15.25a2.5,2.5,0,0,0-1.37,3.26,13.5,13.5,0,0,0,9.27,7.39,16.79,16.79,0,0,0,3.81.41c7.72,0,17.31-4.86,28.52-14.55,3.76.09,11.52.55,14.51,1.84,2.66,1.14,6.06.64,9.14-1.29A14.89,14.89,0,0,0,297,152.06a2.48,2.48,0,0,0-5-.18,9.92,9.92,0,0,1-4.59,8c-1.65,1-3.4,1.37-4.5.91-4.77-2.06-16.07-2.25-17.35-2.29a2.91,2.91,0,0,0-1.7.6c-15.06,13.22-23.83,14.73-28.52,13.68a8.62,8.62,0,0,1-5.92-4.5A2.51,2.51,0,0,0,226.26,167.08ZM454.52,292.89a2.6,2.6,0,0,1-2.8,1.84c-1.75-.09-23.24.09-48.81.32-2.71,24.2-5.05,50.32-4.46,54.41,1.75,2.21,7.12,9.87,7.26,13.27.09,2-1.56,3.95-4.69,7.58a43.44,43.44,0,0,0-3.49,4.36c2.25,4,5.61,15.57,5.61,18.23,0,3.07-4.41,7.53-8.08,10.7a2.49,2.49,0,0,1-1.38.59C339.13,410.12,284.35,412,236.55,412c-29,0-55.38-.69-77.55-1.61-38.34-1.6-66.4-3.95-79.72-5.19-9.18-.87-17-1.74-22.68-2.52-2.66-.37-4.73-.69-6.15-1-1.84-.37-3.77-.78-4.09-2.71-.23-1.47.23-3.35,1.1-6.61.51-1.89,1.38-5.15,1.29-6.57-4-1.74-14-9.41-17.22-11.85a2.5,2.5,0,0,1-.55-3.39c.05-.09,5.79-8.45,8.77-15.34.41-.92,1.47-5.51-1.47-27-1.38-10-3-19.43-3.49-22.14l-6.15,1.34c-7.39,1.6-13.78,3-18.28,3.9a48.69,48.69,0,0,1-7.25,1.15A2.64,2.64,0,0,1,.4,311c-.46-.83-.92-1.61,1-13.55,1.2-7.21,2.94-16.11,4.78-24.42,7.85-36,11.8-38.16,13.27-39,6.43-3.68,45.32-13,53.72-15,2.94-5.74,17.5-32.05,46-50.14-2.2-11.07-2.52-17.41-2.52-19.7-3.95-4.82-25.17-32-34.35-69.75a2.43,2.43,0,0,1,.37-2,2.49,2.49,0,0,1,1.79-1.06c.23,0,24.33-2.52,42.93-2.52,9.18,0,15.52.59,19.29,1.83a127.3,127.3,0,0,1,21.94-14.09c13-6.71,33.66-14.65,58.55-15,1.15-3.49,4.36-13.08,8.08-22.45a146.83,146.83,0,0,1,7.3-16.26C245,3.52,247.89-.79,251.47.12c4.09,1,17.59,12.13,29.48,25.44,10.84,12.17,24,30,25.44,46.52a.64.64,0,0,1,.18.23c13.78,14.92,23.79,30.58,29.8,46.46A104.41,104.41,0,0,1,340.83,134a2.54,2.54,0,0,1,.78,1.24,2.67,2.67,0,0,1-.23,1.79,79.59,79.59,0,0,1,.73,21.35v.37a1.47,1.47,0,0,1-.13.64,75.91,75.91,0,0,1-5.74,21c20.61-.59,29,6.07,32.32,11.94a16.16,16.16,0,0,1,2.21,8.22c10.69.19,29.7.69,32.69,2,1,.41,1.83.78,10.33,14.83,4.73,7.8,10.79,18.23,17.13,29.38s12.16,21.68,16.39,29.67c7.76,14.55,7.58,15.29,7.21,16.48ZM333.8,185.58a89.78,89.78,0,0,1-10.56,15.75c4,4.23,16.16,15.61,27.32,14.19,6-.78,11-5.28,14.92-13.41,0,0,0,0,0-.09s.05-.14.09-.18c.23-.64.65-4.23-2.06-8C360.43,189.44,352.72,184.48,333.8,185.58ZM232.56,46.73a125.11,125.11,0,0,1,17.54,1.75c.27-11.62.64-27.42.59-28.61a2.61,2.61,0,0,1,1.1-2.25,3.11,3.11,0,0,1,3.26.09c5.42,2.66,35,22.36,36.19,45.05q4.75,2.54,9.5,5.41C298.26,57,290.09,43.38,277.32,29.05,265.16,15.41,253.59,6.51,250.69,5.22c-.92.69-4.22,4.32-11.34,22.68C236.41,35.39,233.84,42.78,232.56,46.73Zm23.05-22.91c-.1,6.47-.42,18.55-.56,25.62a136.6,136.6,0,0,1,30.81,10.65c-2.89-16.48-22.4-31.27-30.25-36.27Zm-134.5,123a2.43,2.43,0,0,1,.6,1.75s-.23,6.61,2.76,21c.32.87,2,5.24,4.68,10.66,8.36-4.28,40.45-20.07,55.19-16.4a2.51,2.51,0,1,1-1.19,4.87c-11.57-2.89-39.4,9.6-51.52,15.89a148.11,148.11,0,0,0,9.18,12.07c8.27-6.06,32.37-23.14,42.38-23.14h.14a2.51,2.51,0,0,1,0,5h-.1c-6.88,0-26.08,12.39-39,21.9,1.52,1.7,2.81,3,3.54,3.76,2.71-.09,9.83-.41,17.22-.68a39.72,39.72,0,0,1,5.33-6.71c5.92-6.34,8.21-6.47,9.09-6.56a2.48,2.48,0,0,1,.41,4.95c-1.65.42-6,4.92-8.59,8,7.3-.28,13.69-.51,15-.55,3.58-.05,62.81-3.08,90.27-4.5a2.39,2.39,0,0,1,.83-1.47c2-1.65,9.18-11.53,13.31-17.31a2.5,2.5,0,0,1,4.09,2.89c-.92,1.29-7.53,10.61-11.66,15.57l7.25-.37h.28l28.37,1.42c10.61-12.58,16-25.34,17.91-37.74-4.08-.09-11.84-.18-16.71.73a1.44,1.44,0,0,1-.46,0,2.46,2.46,0,0,1-2.43-2,2.43,2.43,0,0,1,2-2.89c5.56-1.06,14.05-.92,18.18-.83a73.61,73.61,0,0,0-.64-16.9c-8.08,2.21-16.48,5-17.82,6.2a2.44,2.44,0,0,1-1.74.74,2.29,2.29,0,0,1-1.74-.74,2.5,2.5,0,0,1,0-3.53c2.52-2.53,14.09-5.88,20.43-7.58a96.73,96.73,0,0,0-5.19-16.48c-7.48,6-15.52,13-16.44,14.78A2.55,2.55,0,0,1,312,134a2.36,2.36,0,0,1-1.1-.28,2.45,2.45,0,0,1-1.1-3.35c1.83-3.63,14.19-13.64,18.82-17.26-7.53-16-18.13-29.21-25.62-37.33-.23-.23-.41-.46-.55-.6C278.7,59.63,254,51.74,229.11,51.74c-47.25,0-79.76,28.56-80.08,28.83a2.42,2.42,0,0,1-2.75.37C144.81,80.2,140.4,79,127.63,79,113.08,79,95,80.57,88.1,81.21c9.87,38.16,32.78,65.3,33,65.57ZM79.7,217.86l8.54-1.7,29-5.64,23.32-5.1c-5.92-5.24-11-13.36-14.64-20.39a56,56,0,0,1-5.42-10.93C98.29,188.75,84.89,209,79.7,217.86Zm68.41,68.51,33.43-78.61c-10,.37-32.19,1.29-34.57,1.38l-28.61,6.24h0L89.25,221l-13.69,2.71c-18.91,4.45-48.62,12-53.44,14.69-1.38,1.11-5.15,9.74-10.75,35-3.3,14.93-5.6,28.56-6.15,33.8,4-.65,13-2.62,22.41-4.69,48.44-10.6,101.29-21.39,120.48-16.16Zm15.71,119.25c8.91.36,18.55.64,28.74.92.09-28.52,0-69.75-.46-76.73a31.72,31.72,0,0,1-4.08-4.27c-4.41-5.19-4.41-6.66-4.41-7.35,0-2.29,4.22-10.19,6.1-13.64l-6.47-87.83L151.88,290.5a2.55,2.55,0,0,1-3.26,1.34c-15.2-6.3-71.54,5.14-108.82,13.22,1.6,8.72,7.89,44.86,4.68,52.21a107.19,107.19,0,0,1-7.94,14.19c6.1,4.63,12.9,9.45,14.41,9.87s3.26,1.83,2.8,6a53.07,53.07,0,0,1-1.37,6.34c-.23,1-.6,2.2-.78,3.17C60.18,398.59,102.7,403.23,163.82,405.62Zm230.55-53.27c-1-1.14-1.89-2.2,1-32.18.92-9.92,2-19.84,2.57-25-32.64.32-72.91.69-105.84.83-18.13.09-32.23,0-41.87-.05-5.42,0-9.65-.14-12.45-.27-4.36-.19-6.42-.28-6.88-2.39-1.34-3.72-25.07-52.3-41.33-85.36l-1.93.37,7.12,96.65a2.38,2.38,0,0,1-.28,1.38,117.67,117.67,0,0,0-5.78,11.75,43.08,43.08,0,0,0,6.7,7.95,3.45,3.45,0,0,1,.87.55c.92.92,1,1,1.2,14.6.09,6.66.14,15.93.18,27.46,0,16.39,0,32.87,0,38,54.6,1.15,125,.27,194.87-7.3,2.85-2.53,5.42-5.42,5.74-6.48-.09-2.25-3.67-14-5-15.79-2.34-2.57.5-5.83,4.13-10a37.67,37.67,0,0,0,3.44-4.31c-.55-1.89-4.36-8-6.42-10.43Zm54.18-62.63c-6.89-14.6-42.57-77.14-47.34-82.65-2.89-.69-17.91-1.28-31.91-1.51-4.64,8.91-10.75,13.91-18.14,14.83a25.65,25.65,0,0,1-2.57.18c-13.69,0-26.68-13.27-29.85-16.76l-28.42-1.42c-4.68.23-71.26,3.67-95.55,4.87,3.35,6.84,11.43,23.23,19.42,39.67,15,30.67,19.47,40.31,20.89,43.53,12,1.05,110,.14,163.79-.37a2.33,2.33,0,0,1,2.2-.87,2.68,2.68,0,0,1,1.61.87c27-.23,40.13-.37,45.87-.37Z"/><path class="cls-6" d="M261.5,321.92c-.5-.54-1-1.06-1.52-1.57-.21-.2-.22-.27.07-.6s.77-.85,1.15-1.27c.16-.18.32-.33.51-.28s.18.22.1.42l-.57,1.53c0,.05,0,.12,0,.14l.51.5c.27-.52.56-1,.75-1.45.47-1.15.9-2.3,1.33-3.44.15-.39,0-.47-.35-.28a32.54,32.54,0,0,0-3.79,2.22l-1.16.82.22.1a.27.27,0,0,1,.1.47.4.4,0,0,1-.53.15l-.09,0a10.43,10.43,0,0,0-6-.17c-.9.21-1.84.57-2.76.88-.22.07-.43.13-.42-.11s.18-.37.41-.47l.29-.13a.72.72,0,0,0-.05-.14,9.53,9.53,0,0,0-3-2.34c-.19-.1-.35,0-.44.28-.4,1.15-.8,2.3-1.16,3.45a13.17,13.17,0,0,0-.3,1.47c.35-.23.61-.4.87-.59a.54.54,0,0,0,.15-.21c.17-.51.33-1,.53-1.51a1,1,0,0,1,.41-.42c.19-.1.28,0,.32.17.09.4.2.8.29,1.2s0,.37-.37.62c-.91.61-1.82,1.24-2.73,1.87a1.07,1.07,0,0,0-.33.44q-2,5.67-4.06,11.34l-.15.47h0c-.05.12-.1.23-.14.34-.11.32-.07.39.24.36l13.91-1,2.89-.22a.48.48,0,0,0,.48-.31.84.84,0,0,0,.06-.14q2.18-6.06,4.33-12.12A.43.43,0,0,0,261.5,321.92Zm-4.19,7.7c.22,0,.37.05.28.29a.51.51,0,0,1-.5.34l-1.11.09h0l-1,.08c-.2,0-.39,0-.29-.28a.54.54,0,0,1,.51-.35Zm-1.59-4.26c1-.06,1.47.71,1.11,1.7a3.19,3.19,0,0,1-2.45,2c-.95.08-1.47-.72-1.11-1.72A3.13,3.13,0,0,1,255.72,325.36ZM250,329.77a.85.85,0,0,0-.07-.43c0-.11-.18-.15-.23-.26s-.09-.26,0-.35a.85.85,0,0,1,.42-.28,4.62,4.62,0,0,1,.73-.07h0a5.07,5.07,0,0,1,.66,0,.32.32,0,0,1,.27.24c0,.07-.18.25-.29.37a1.07,1.07,0,0,1-.22.15,1.57,1.57,0,0,0-.81,1.16.22.22,0,0,0,.11.23,2.15,2.15,0,0,0,.34.17c.12.06.18.18,0,.33a.7.7,0,0,1-.42.21c-.18,0-.3-.14-.46-.19a.55.55,0,0,0-.31,0c-.21.07-.42.18-.63.27s-.33.06-.34-.11a.44.44,0,0,1,.34-.4A1.18,1.18,0,0,0,250,329.77ZM247.91,326c1-.05,1.47.71,1.1,1.73a3.23,3.23,0,0,1-2.46,2c-1,.06-1.47-.75-1.1-1.74A3.15,3.15,0,0,1,247.91,326ZM243,330.71l2.1-.16h.13c.16,0,.26.1.17.31a.47.47,0,0,1-.41.3c-.38,0-.77.06-1.15.09v0l-1,.08c-.2,0-.37,0-.3-.27A.56.56,0,0,1,243,330.71Z"/><path class="cls-6" d="M279.21,314.42l-8.09.61-6.87,19.23L268,334l1.92-5.39a2.24,2.24,0,0,1,1.73-1.4l3.1-.23a10.36,10.36,0,0,0,8.94-6.78C285.09,316.2,283.47,314.1,279.21,314.42Zm-1,8.48a4.22,4.22,0,0,1-2.44,1.12l-3.1.24c-.7.05-1.05-.49-.8-1.21l1.45-4.06a2.23,2.23,0,0,1,1.73-1.4l3.1-.23a1.67,1.67,0,0,1,1.76.8,3,3,0,0,1-.09,2.31A5.89,5.89,0,0,1,278.22,322.9Z"/><path class="cls-6" d="M298.52,312.51A16,16,0,0,0,285,323.34c-2.19,6.11.31,9.77,6.36,9.31a15.94,15.94,0,0,0,13.57-10.82C307.08,315.71,304.58,312.05,298.52,312.51Zm-.9,14.68a9,9,0,0,1-5.14,2.24c-1.82.14-3.13-.4-3.79-1.56s-.61-2.81.11-4.82a11.89,11.89,0,0,1,3.43-5.08,9,9,0,0,1,5.14-2.24c1.82-.13,3.13.41,3.79,1.57s.61,2.81-.11,4.82A11.94,11.94,0,0,1,297.62,327.19Z"/><path class="cls-6" d="M310.29,327.22a.52.52,0,0,1-.08-.57l5.36-15-3.72.28L305,331.18l12-.91,1.05-2.94-7,.53C310.5,327.9,310.36,327.51,310.29,327.22Z"/><path class="cls-6" d="M321.58,314.07l4.27-.32c.69-.06,1,.49.79,1.2l-5.36,15,3.73-.28,5.36-15a2.22,2.22,0,0,1,1.73-1.4l4.26-.32,1.05-2.94-14.78,1.12Z"/><path class="cls-6" d="M346.69,321.17a7.55,7.55,0,0,1-2,3.16,5.25,5.25,0,0,1-3.11,1.39,2.12,2.12,0,0,1-2.26-1,4,4,0,0,1,.18-3l4.36-12.18-3.73.28L335.74,322c-1.72,4.83-.07,7.3,4.66,6.94s8.29-3.22,10-8.05l4.36-12.19-3.73.28Z"/><polygon class="cls-6" points="351.87 327.63 355.59 327.35 360.18 314.52 356.45 314.8 351.87 327.63"/><path class="cls-6" d="M359.25,312.05a3.61,3.61,0,0,0,2.81-2.28c.42-1.17-.16-2-1.29-2a3.63,3.63,0,0,0-2.82,2.28C357.53,311.25,358.11,312.14,359.25,312.05Z"/></g></g></svg>