<svg xmlns="http://www.w3.org/2000/svg" viewBox="0 0 350.88 421"><defs><style>.cls-1{fill:#fcfdfd;}.cls-2{fill:#e6e6ff;}.cls-3{fill:#ccf;}.cls-4{fill:#2b2d42;}</style></defs><g id="Calque_2" data-name="Calque 2"><g id="Calque_1-2" data-name="Calque 1"><path class="cls-1" d="M329.49,352.58c-2.17,22.41-26.28,39-45.16,55.75s-47.16,8.76-47.46,6.29c-.26-2-1.28-9.23,8.16-19.86-3.61,3.83-6.42,6.68-6.42,6.68l-55.41.42s7.1,14-8.89,15.57-50.39-16.29-50.39-16.29c-10.16,5.78-55.24,5.32-64.13,3.79s-1.53-15.65-1.53-15.65l.05,0-.05,0s-21.6-27.77-21-58.82S60,286.07,60,286.07s37.8-35.34,32.27-85.56l1.19-8.93s-11.31-43-5.18-57.75c0,0-24-32.28-26.12-61.45,0,0,52.57-8.59,61.45,1.23,0,0,54-33.13,87.82-24.58L242.52,1.4S283.73,29,286.2,79.27c0,0,45.46,31.25,22.11,111.75-.3,3.7,9.23,63.92,15.05,84.5s8.3,54.6,6.13,77.06Z"/><path class="cls-2" d="M66.81,202.34C45,225.09,18,250.56,43.46,305L37.3,330.46S-6.42,292.19,3.79,241.67c10-49.33,34.4-63.91,49.45-65.15S88.63,179.58,66.81,202.34ZM323.62,378.18l6,3.91s23.69-29.34,18-62.13-21.31-43.25-24.33-44.57c0,0,14.34,71.28-3.06,100.62l.05,0c-.05,0-.05,0-.05,0l-27.81,25.22s38.44,9.56,40.61-3.92c1.53-9.35-5.18-16-9.48-19.13Z"/><path class="cls-3" d="M173.12,79.1c1.53,5.82-10.46,5.23-16.58-4S148,63.75,148,63.75s4.93-9.23,11.35-5.83,12.29,15.35,13.82,21.18Zm6.13-26.71S190.3,63.15,193.71,74.8s7.69,14.46,12,14.76,11.05-12.89-7.06-38.4Zm55.45.51a15.73,15.73,0,0,0-12.38-1.53c4,4.68,11,19.18,18.25,13.91,1.1-1.7.47-8.68-5.87-12.38ZM85.52,249.5s-5.4,3.06-4.93,12.75S92.88,293,97.47,291.43s4.17-6.94-1.7-14.29S85.52,249.5,85.52,249.5ZM69.11,278.2,60.05,286s-.47,8.59,3.4,12.76,10.29-2.17,8.46-6.59S69.11,278.2,69.11,278.2Z"/><path class="cls-3" d="M105,90.32S93.81,116.6,93.22,122.43,73.1,85.26,72.34,82.16,104.27,86.16,105,90.32ZM273.4,68.76c4.55,5.66-.85-20-2.81-22.58s-22.37-28.45-22.37-28.45L240,52.26l14.93,3.49S268.8,63.15,273.4,68.76ZM220.11,251.2c-41.76-4.34-70.21,50.35-70.21,50.35-.12,65.15,33.3,100.31,33.3,100.31l55.41-.42,16.54-16.29c16.55-16.29,28.24-77.56,28.24-77.56,0-19.23-21.47-52.1-63.28-56.39Z"/><path class="cls-4" d="M92.88,82.33c-7.06-1.91-14.63-3.23-18.33-3.23-1.45,0-3.06.17-4,1.32a2.56,2.56,0,0,0-.46,2.29c.46,1.79,5.14,12.46,9.69,21.9,2.64,5.53,5,10.17,6.85,13.48,3.4,6.17,4.63,7.15,6.25,7.15a2.66,2.66,0,0,0,2.64-2.64c.42-4,7.18-21,11.65-31.43a2.37,2.37,0,0,0,.13-1.31c-.26-1.19-.73-3.79-14.46-7.53Zm-1,35.72c-4.51-7.65-13.69-27.43-16.5-34.28a91.24,91.24,0,0,1,15.18,2.77c7.15,1.87,10.51,3.4,11.82,4.21-2.08,4.76-8.12,19.26-10.5,27.3Zm86.28.43c-17.26-12.76-42.9,3-43.16,3.18a2.13,2.13,0,0,1-1.23.34,2.27,2.27,0,0,1-2-1.1,2.33,2.33,0,0,1,.72-3.19,68.69,68.69,0,0,1,16.5-7c12.63-3.45,23.65-2.09,31.9,4a2.36,2.36,0,0,1,.51,3.23A2.45,2.45,0,0,1,178.18,118.48Zm54.22-10.76a2.35,2.35,0,0,1-.17-3.28c15.06-16.5,40.1-10.33,41.17-10a2.3,2.3,0,1,1-1.15,4.46c-.21,0-23.43-5.74-36.57,8.68a2.34,2.34,0,0,1-3.28.17Zm-33.34,11.22a2.45,2.45,0,0,1-.76-2,2.27,2.27,0,0,1,1.15-1.75c.34-.17,8.08-4.67,17-4.67a21.53,21.53,0,0,1,10,2.29,2.34,2.34,0,0,1,1.19,1.49,2.41,2.41,0,0,1-.3,1.87c-.17.26-4.46,6.64-10.93,9.19a2,2,0,0,1-.85.17h-.08c-1.07-.09-9.7-.6-16.38-6.64Zm63.54,19.48a2.33,2.33,0,0,1-.22,3.27c-.38.34-9.9,8.47-16.88,2.47-3.57-3.06-18.54-4.59-27.13-4.8h-.26c-.59,0-7.05,0-22.45,11.09-5.36,3.87-10.42,5.83-15.09,5.83a16.22,16.22,0,0,1-3.49-.38,15.9,15.9,0,0,1-9.87-7.1,2.31,2.31,0,0,1,4-2.26,11.07,11.07,0,0,0,6.89,4.85c4.21.89,9.19-.68,14.76-4.68,16.67-12,24.15-12.08,25.64-12,2.85.09,24,.85,29.94,6,4,3.4,10.71-2.39,10.8-2.47a2.31,2.31,0,0,1,3.32.17Zm-25.14,32.7c-.08.68-2.21,16.33-18.54,21.14a1.74,1.74,0,0,1-.64.08,2.27,2.27,0,0,1-2.21-1.66,2.32,2.32,0,0,1,1.58-2.89c13.44-4,15.22-17.14,15.26-17.26a2.29,2.29,0,1,1,4.55.59ZM350,319.53c-5.62-32.53-20.59-43.33-24.67-45.71-5.61-20.67-14.63-77.06-14.71-82.5,5.78-17,8.25-33.64,7.27-49.24-.17-2.72-.47-5.45-.85-8.13a2.3,2.3,0,0,0,.21-1.19,2.17,2.17,0,0,0-.59-1.31,99.15,99.15,0,0,0-3.87-15.4,2.48,2.48,0,0,0,0-1.66,2.35,2.35,0,0,0-1.06-1.23c-.86-2.3-1.83-4.59-2.85-6.85-7.57-16.24-17.4-25.64-20.37-28.23C288.11,54.13,277.4,34.91,268.38,23,258.13,9.48,246.9.85,243,.09a2.79,2.79,0,0,0-3.31,1.53C238.7,3.87,221.18,30.28,210,47q-2.43-.06-5,0a154.11,154.11,0,0,0-47.54,7.78,130.64,130.64,0,0,0-33.09,16.67c-1.1-.38-27.47-9.65-62.77-1.32a2.33,2.33,0,0,0-1.78,2.51c.17,1.49,4.25,36.23,26,61.92a120.39,120.39,0,0,0-1,14.37,2.23,2.23,0,0,0-.38,1.87,3.31,3.31,0,0,0,.38.86c.05,2.72.13,5.65.39,8.8.21,2.85.55,6,1.06,9.31a2.41,2.41,0,0,0,0,1.79,3.77,3.77,0,0,0,.34.51,104.15,104.15,0,0,0,4.81,18.37v0a1.39,1.39,0,0,0-.17.38v.05a1,1,0,0,0-.09.38v.17c0,.59-5.31,59-18.2,75.69-3.66,4.72-8,9.66-12.16,14.46-5.83,6.68-11.78,13.48-16.33,20.16-22.24-49.67,1.23-74,21.94-95.6.68-.72,1.36-1.4,2-2.12,8.93-9.32,12-16.55,9.32-22.12-4.09-8.59-20-8-24.71-7.61-5.66.47-16.84,3.06-28.15,15.27C14,201.44,6.17,218.83,1.62,241.29c-4.38,21.13.17,43.63,13.14,64.89a119.63,119.63,0,0,0,21.05,26c0,16.21,3.74,38.28,19.69,57.33-1.62,2.89-4.42,9.06-2.13,13.52,1.41,2.72,4.25,4.21,8.46,4.38,9.36.43,17.7.64,25.09.64,18.63,0,30.92-1.36,36.66-4a72,72,0,0,0,8.76,6.25A66.65,66.65,0,0,0,167.51,420c2.3,0,4.68-.13,7-.34,1.23,0,9.65-.25,12.41-6,1.28-2.68,1.11-5.82-.51-9.57,17.78-.42,43.12-.85,50.06-.55a21,21,0,0,0-1.83,11.31v.09c.17,1.49,1.44,2.55,4.16,3.57A49.82,49.82,0,0,0,255.07,421c9.57,0,21.26-2.38,30.92-10.93,2.38-2.08,4.84-4.21,7.31-6.34A114.31,114.31,0,0,0,317,406.8c5.65,0,11-.77,14.41-3.07a8.91,8.91,0,0,0,4.09-6.12A19.46,19.46,0,0,0,331.91,383,102.87,102.87,0,0,0,343,364.23c4.81-10.68,10-27.13,7-44.7ZM243.12,5c3.27,1.74,12.42,8.67,21.52,20.79,7.95,10.59,17.35,27.09,19,47.55a46.12,46.12,0,0,0-7.45-5.83c2.13-9.19-3.06-20.54-8-28.7C261.7,28.19,254,19.82,250.6,17c-1-.81-2.85-2.34-4.63-1.28a2.62,2.62,0,0,0-1.15,2.9c.55,2.63-2.81,17.39-6.55,30.91a193.48,193.48,0,0,0-22.75-2.46C222.37,36.87,239,12,243.12,5ZM35.94,325.91a126.24,126.24,0,0,1-17.31-22.24C10.08,289.55,1,267.4,6.08,242.1c11.61-57.5,41.51-62.81,47.38-63.28,8.5-.68,18,.59,20.11,5,1.66,3.49-1.36,9.49-8.46,16.93-.68.68-1.36,1.4-2,2.13-10.59,11-22.54,23.43-28.45,39.63-6.76,18.63-4.59,39.38,6.72,63.45a1.85,1.85,0,0,0,.17.29c-2.72,4.68-4.6,9.27-5.11,13.65-.17,1.88-.34,3.87-.46,6Zm68.59,75.83a2.17,2.17,0,0,1,1.4.68A2.15,2.15,0,0,0,104.53,401.74Zm1.91,1c-.21-2.38-.42-8.34.17-9.66a2.32,2.32,0,0,0-4-2.42c-.55.85-1.15,2.55-1.06,7.95,0,1.45.08,3.11.21,4.42-6,.34-13.82.47-23.73.3.38-7.35,1.15-15.69,1.83-17.09a2.33,2.33,0,1,0-4.13-2.17c-1.36,2.59-2.08,13.56-2.38,19.18-3.57-.09-7.36-.26-11.44-.43-2.42-.13-4-.72-4.55-1.87-1.27-2.51,1.15-7.78,2.64-10.16,2.29-2.09,23.81-20.93,42.86-10.51.68,1.11,1.41,2.21,2.17,3.32a100.89,100.89,0,0,0,14.46,17.05,74.66,74.66,0,0,1-13.1,2.09Zm185.63-4.13a5.82,5.82,0,0,1-.56.47,2.55,2.55,0,0,0-.89.76c-2.64,2.22-5.27,4.51-7.82,6.72-9,8-19.91,9.7-27.48,9.78h-.72c1.15-2.46,6.13-8.88,10.59-14a2.32,2.32,0,0,0-3.53-3c-.13.13-3.06,3.53-6,7.32-4.25,5.44-5.57,8-5.91,9.52A33,33,0,0,1,239,413.64c-.68-9,7.44-17.94,14.5-23.9,17.35-14.67,31.47-78.92,32.06-81.64a2.33,2.33,0,1,0-4.55-1c-.13.64-14.37,65.44-30.53,79.09a58.66,58.66,0,0,0-11.78,12.93c-1.4-.21-6.25-.47-28.88-.08-11.65.17-23.17.46-26.06.51a56.82,56.82,0,0,0-4-5.4c-18.93-22.71-26.33-46.82-29.26-95.43a2.32,2.32,0,1,0-4.64.3c1.58,25.64,4.51,44.61,9.23,59.66a109.42,109.42,0,0,0,21.1,38.49c7.39,8.88,7.18,13,6.42,14.62-1.36,2.85-6.47,3.41-8.3,3.41h-.25c-1.15.12-2.3.17-3.45.25-1.31-2.17-6.12-10.08-9.69-12.88a2.33,2.33,0,1,0-2.89,3.65c2,1.62,5.1,6.08,7.18,9.32-14.54-.43-27.64-5.53-39.2-15.18a1.24,1.24,0,0,0-.26-.43,2.18,2.18,0,0,0-1.28-.89A97.11,97.11,0,0,1,109,381.2,139.84,139.84,0,0,1,90.79,342a2.3,2.3,0,1,0-4.46,1.15A139.81,139.81,0,0,0,99,373.8c-8.16-2.34-17.26-1.19-26.83,3.44a68.36,68.36,0,0,0-13.69,8.89C39.55,363,39.34,335.31,41,320.6c1.19-10.63,12.41-23.48,23.26-35.89,4.21-4.85,8.59-9.83,12.33-14.67,11.06-14.25,16.59-54.52,18.46-71a77.28,77.28,0,0,0,7.86,12.88c13.14,17.31,32.92,27.56,58.86,30.41H162a2.34,2.34,0,0,0,2.3-2.08,2.31,2.31,0,0,0-2-2.56C137.66,235,119,225.38,106.61,209.1a75.93,75.93,0,0,1-9.82-17.61c5.7-6,17.95-17.31,26.2-18.37a2.31,2.31,0,0,0-.6-4.59c-9.53,1.23-21.64,12.33-27.39,18.16a99,99,0,0,1-3.7-14.76c2.94-1.28,8.89-3.83,15.23-6.21,16.46-6.17,20.16-5.4,20.71-5.19a2.33,2.33,0,1,0,1.7-4.33c-2.17-.86-7-1.24-24,5.14-5.7,2.13-11.1,4.42-14.34,5.83-.34-2.43-.55-4.72-.72-6.85-.21-2.89-.34-5.61-.34-8.16,14-3,35.72-5.62,40.83-1a2.32,2.32,0,0,0,3.1-3.45c-4-3.65-13-4.59-27.51-2.93-6.64.76-12.8,1.91-16.42,2.64a105.26,105.26,0,0,1,1-13.1,2.29,2.29,0,0,0-.55-1.92C71.62,111.2,66,82.16,64.77,74.29a120.1,120.1,0,0,1,54.94.68,127.1,127.1,0,0,0-10.89,9.36A2.32,2.32,0,0,0,112,87.69c30.37-29.13,67.32-35.64,93-36a182.25,182.25,0,0,1,34.24,2.89s0,0,.08,0a1.88,1.88,0,0,0,.56.09,127.17,127.17,0,0,1,14.28,3.36,2.33,2.33,0,1,0,1.45-4.42,117.06,117.06,0,0,0-12.72-3.15c1.79-6.42,5.53-20.58,6.43-28.36,7.69,7.52,27,32.27,21.94,45.88,0,0,0,0,0,.09a2.26,2.26,0,0,0,.46,2.25c.05,0,.09.13.17.17a1.47,1.47,0,0,0,.17.13c.05,0,.13.08.17.12h0a.26.26,0,0,0,.17.09,0,0,0,0,1,0,0s.13,0,.17.09h0s0,0,0,0c2.9,1,8.81,6.51,11.87,9.82a1.23,1.23,0,0,0,.25.22c.13.08,11.53,9.31,19.91,27.25.85,1.79,1.65,3.7,2.42,5.79-2.64,1-6.93,2.72-11.31,4.59-14.89,6.38-16.25,8.55-16.8,9.48a2.3,2.3,0,0,0,.77,3.19,2.11,2.11,0,0,0,1.23.34,2.27,2.27,0,0,0,2-1.1c1.4-2,13.94-7.61,25.72-12.12a93.94,93.94,0,0,1,3.15,12.63c-6.34.76-20.62,2.85-25.51,6a2.31,2.31,0,0,0,1.27,4.25,2.52,2.52,0,0,0,1.28-.38c3.74-2.43,16.62-4.43,23.68-5.32a105.12,105.12,0,0,1,.73,19c-5.23-2.42-15.87-7.06-20.71-7.19a2.32,2.32,0,0,0-.13,4.64c4,.08,15.22,5,20.45,7.48a133.4,133.4,0,0,1-6.67,30.37c-1.58,2.5-16.63,25.55-33,33.85a2.28,2.28,0,0,0-1,3.1,2.34,2.34,0,0,0,2.08,1.28,2.43,2.43,0,0,0,1.06-.26c13.44-6.8,25.52-22.11,31.34-30.36,2.26,17.39,9.79,61.87,14.51,78.5,5.61,19.77,8.29,53.28,6.08,76.29-1.79,17.86-18.8,32.28-35.21,46.18Zm38.78-1.7a4.35,4.35,0,0,1-2,3c-6,3.95-21.77,1.91-31.13,0,8.08-6.85,16.07-13.86,22.33-21.48C322.73,380.18,332.47,386.89,330.85,396.93Zm-2.13-17.43a34.08,34.08,0,0,0-5.91-4.68c4.85-6.72,8.21-14,9-22,2.05-21.22,0-51.28-4.67-71.82,5.48,5,14.29,16.28,18.24,39.38C350.2,348.15,332.89,373.8,328.72,379.5Z"/></g></g></svg>