<svg xmlns="http://www.w3.org/2000/svg" viewBox="0 0 300.7 407"><defs><style>.cls-1{fill:#e6e6ff;}.cls-2{fill:#fcfdfd;}.cls-3{fill:#ccf;}.cls-4{fill:#7be0ad;}.cls-5{fill:#b1ddc6;}.cls-6{fill:#2b2d42;}</style></defs><g id="Calque_2" data-name="Calque 2"><g id="Calque_1-2" data-name="Calque 1"><path class="cls-1" d="M29.68,234.5c-5.59,3.09-21.25,4.28-17.8-14.09S9.17,173.06,3.58,158s8.51-20.87,8.51-20.87c20.63-8.31,25.69,14.92,26.63,33.16l0-3.7c38.27-33,45.42,9.87,45.42,9.87s-11.26,13.85-17.8,21.21-6.29,30.9-6.29,30.9L35.68,245.6c-2.22-.74-6-11.1-6-11.1Zm97,143.57c-6.17-17.23-33-.7-36-.29s-47,10.11-40.48-39.66c2.18-8.68,4.89-25,42-44.72,0,0,.87-3.86-10.15-3.17s-22.77,2.22-22.77,2.22-38,21.62-32.26,63.17,38.84,47.85,60.17,49S132.84,395.29,126.68,378.07Z"/><path class="cls-2" d="M94.29,169.73c-22.28-25.15,15.45-37.85,15.45-37.85,14.31-4.61,28.81,5.18,29.39,16.4s-10.65,13-21.66,13.15S94.29,169.73,94.29,169.73Zm203-128.19c-35.75,4.73-33.82,15.29-33.82,15.29-6.87-14.31-33.75-21.46-33.75-21.46-22.23-5.59-39.86-5-53.8-1,7.69-2.92,16-5.06,22.08-4.11-4.36-13.4-37.61-28-37.61-28-2.47,5.18-5.59,42.08-5.59,42.08s.7-.41,1.89-1.07c-25.48,17.14-31.15,46.57-31.15,46.57l13.81,21.46L158.53,125s-3.08,8.51,9.45,6c0,0,19,14.06,22.81,22.69l2.26-.25,2.14,8.59,1.64,8.88-13,2.84a33.89,33.89,0,0,0-6.94,12.37c-2.3,7.52,5.38,15.29,5.38,15.29l11.63,3.16-5.34,16.52S178.05,247.24,157,260.15c0,0-32.64,25.73-53.72,27.54s-10.32,4.11-10.32,4.11S96,299.4,96,303.47s5.79,11,10.89,10.6c13.44.13,32.63-8,44.8-14.42-1.24.94-2.51,1.89-3.83,2.83,0,0-33.25,13.94-37.11,12.74s6.37,4.07,6.37,4.07S168,334.17,191,299.77c0,0,19.31-31.69,21.66-43.48,0,0,17.38-27.09,18-32.31a25.28,25.28,0,0,1-8.18,3.78c26.76-10.4,29.72-64.15,25.19-65.68-2.26,2.22-7.6,3.38-13.72,3.79,43.07-6.25,45.25-61.41,45.25-61.41,26-22.68,18.12-62.92,18.12-62.92Z"/><path class="cls-3" d="M188.57,59c-5.22,11.6-10.07,4.24-8.88-1.93s13.73-25.52,13.73-25.52,19,1.15,13.73,1.93S193.79,47.37,188.57,59Zm47.6-20.34L223.3,34.51s-27.49,22.81-33.49,60c0,0-.7,5.75,2.75,6.28s4.77.42,9.58-15.16S234.81,38.62,236.17,38.62Zm17.38,7.23s-25,14.1-27.49,35c0,0-.87,3.78,4.11,2.75,4-.86,17.22-31.85,30.74-28.44Z"/><path class="cls-4" d="M193.79,204.58c-.12,3.13-5.34,16.52-5.34,16.52-11.22,26.23-31.57,39.09-31.57,39.09-21.86,21.21-53.71,27.54-53.71,27.54-3.66-2.59-12.87,1.93-12.87,1.93l-13.23.08c-28.61,6.33-57.42-5.18-63.21-10.4s4.72-6.82,4.72-6.82-6.82-4.36-9-5.47.82-3.53.82-3.53l49.77-35c13.4-4.64,41-27.62,52.24-37.44s16.16-29.8,16.16-29.8c26.5-19.68-4.36-29.51-4.36-29.51l15.33-20.38,19.15,13.68c-1.11,9.17,9.45,6,9.45,6,9.46,6,22.81,22.69,22.81,22.69l2.27-.24L197,171l-13,2.84c-11.43,11.71-7.73,21.9-1.6,27.66,5.95,5.71,11.46,3.12,11.46,3.12Z"/><path class="cls-5" d="M109.58,221.8s11.88-20.51,13.27-27.08S139.13,173.92,142,177,127.37,218,109.58,221.8Zm14.51-90.09,15.33-20.38S118.83,74,108.39,73.6c0,0-4.32,22.23-1.77,31.44,0,0-27.13,12.57-31,23.22,0,0,26.3,5.88,48.5,3.45Z"/><path class="cls-3" d="M111.1,161.92c1.52,0,17.34-.7,17.34-.7S121,200.27,60.09,228.5c-4.64-45.66,49.49-66.58,51-66.58Zm52-148.37c-.41,2.34-.53,25.89-.53,25.89s15.16-7.81,19.35-7.11C170,16.84,163.5,11.21,163.09,13.55ZM289.72,56.33S284,51.61,267.4,64.64c0,0,8.59,22.44,8.51,26C275.87,90.65,291.53,70.76,289.72,56.33Z"/><path class="cls-6" d="M299.54,41.13a2.27,2.27,0,0,0-2.5-1.81c-17.92,2.38-29.68,6.7-34,12.49-9.49-12.37-31.64-18.37-32.71-18.66A129.49,129.49,0,0,0,200,29C194.66,15,162.72.81,161.32.19a2.25,2.25,0,0,0-2.92,1.07c-2.42,5.14-5.21,36-5.75,42.17A78.53,78.53,0,0,0,129.84,71.5a86.73,86.73,0,0,0-5.42,13.81c-4.24-4.56-11.55-12.12-15-13.28a2.9,2.9,0,0,0-2.75.46c-1.4,1.07-2.83,3.41-2.79,18.08,0,5.34.24,10.6.37,13.07-6.37,3-28.9,14.47-30.91,24.17a2.27,2.27,0,0,0,.7,2.13c.94.83,5.42,3.13,26.14,3.83-5.8,3.33-12.62,8.71-14.63,16.23-1.65,6.25.24,12.78,5.59,19.48-1.73,1.15-3.58,2.39-5.43,3.78-2.92-11.42-8.14-18.37-15.54-20.67-11.3-3.53-24.2,5.1-30,9.7-1.27-10.52-4.31-21.21-11-26.22-4.81-3.62-10.89-4-18-1.11A20.64,20.64,0,0,0,4,140.38c-3,3.5-5.79,9.54-2.55,18.33C6.91,173.39,13,202.08,9.66,220c-1.8,9.54,1.32,14.06,4.28,16.2,4.27,3.08,10.31,2.75,14.47,1.31a41.49,41.49,0,0,0,3.78,7.73L29,247.41c-5.92,4.19-11.3,8.18-15.16,11.22-6.74,5.26-6.91,6.08-7.11,6.9a2.33,2.33,0,0,0,.37,1.89c.65.95,3.12,2.68,5.87,4.4l-2.63.78a2.27,2.27,0,0,0-1.44,3c4.57,10.61,19.69,16.57,45.05,17.72a79.34,79.34,0,0,0-14.71,13.77C31,317.16,21.71,333.76,24.79,356c2.63,19,11.14,32.88,25.32,41.26,9.57,5.67,21.66,8.84,37,9.62,1.1,0,2.21.08,3.32.08,15.42,0,30-5.43,36.13-13.73a16.35,16.35,0,0,0,2.26-15.86,13.13,13.13,0,0,0-7.27-8.1c-8.76-3.7-21.29,2-28,5.06-1.24.57-2.67,1.19-3.09,1.31a5.63,5.63,0,0,0-.65.13c-13.24,2.26-24,.12-30.38-6s-8.79-16.68-6.9-31.11a5.94,5.94,0,0,0,.2-.9c2-8.26,5.76-23.55,39.79-41.8a6.31,6.31,0,0,1,1.07,4.85,12.72,12.72,0,0,0,.61,6.37c2.59,7.07,10.24,8.92,12,9.21q20.52,9.12,38.1,9.12a58.61,58.61,0,0,0,23-4.52C195.31,309.14,207,277.29,212,263.68a47.67,47.67,0,0,1,2-5.17c4.11-4.24,17.06-30.42,18.54-33.38a2.14,2.14,0,0,0,.2-1.23c16.07-15,19.9-46.57,18.5-57.91a15.75,15.75,0,0,0-.66-3.12,52.33,52.33,0,0,0,5.1-3.25c9.9-7.28,17.47-19.11,21.9-34.16a98.59,98.59,0,0,0,3.66-19.72c10.69-9.7,17.22-23.8,19-40.9a88.92,88.92,0,0,0-.7-23.71ZM161.82,5.33c9.57,4.48,28.36,14.75,33.25,23.76a84.53,84.53,0,0,0-11.88,1.27c-15.91-20.55-18.87-19.85-20.26-19.52a2.78,2.78,0,0,0-2.06,2.26c-.41,2.22-.53,19.81-.57,25.31-1,.54-1.94,1.11-2.88,1.73C158.57,27.93,160.38,11.58,161.82,5.33Zm16.52,26.1a70.56,70.56,0,0,0-13.52,4.77c0-7.77.16-15.66.33-19.69,2.26,1.93,6.49,6.37,13.19,14.92ZM88.66,117.7h.08c10.77,1.44,22.89,3.41,24.62,4.23a2.07,2.07,0,0,0,1.19.33,2.24,2.24,0,0,0,1.32-4.07c-1.69-1.15-11.63-2.84-21.38-4.23a142.79,142.79,0,0,1,13-6.91,2,2,0,0,0,1.07-1.07c4.89,2.84,9.82,5.92,10.69,6.87a2.21,2.21,0,0,0,3,.65,2.21,2.21,0,0,0,.74-3.08c-1.11-1.81-8.39-6.2-14.43-9.62-.16-3.74-.24-7.56-.24-11,14.59,13.89,17.83,17.84,18.45,19a2.19,2.19,0,0,0,1.93,1.15,2.3,2.3,0,0,0,1.11-.29,2.27,2.27,0,0,0,.86-3c-1.39-2.47-8-9.29-20.75-21.42-.54-.53-1-.9-1.07-1a1,1,0,0,0-.33-.29l0,0a36,36,0,0,1,.74-6.87c3,2.1,9.45,8.51,14.71,14.47l.13.13c6,5.67,11,15.74,12.7,19.39a91,91,0,0,0-14,18.62C92.81,129.9,82,128,78.47,127c1.52-2.8,5.46-6.09,10.19-9.33Zm1.23,33.53c2.84-10.68,18.91-16.64,20.43-17.18,4,0,8.55,0,13.52,0,7.77,1.77,12.41,6.25,12.74,12.42A12.87,12.87,0,0,1,128,159.08c-4.6.21-15.78.66-16.93.66-1.36,0-7.77,2.71-14,6.21-.65.37-1.39.78-2.13,1.23-4.69-5.71-6.37-11.05-5.1-16ZM62.11,225.54c-.82-16.85,6.49-32,21.82-45,12.33-10.48,25.48-15.74,27.37-16.28,1.85,0,10.2-.37,14.55-.57-3.49,19.4-31.23,43.11-58.15,58.61C66,223.2,64.08,224.35,62.11,225.54Zm-30.33,8.18a2.1,2.1,0,0,0-1.32-1.31,2.22,2.22,0,0,0-1.85.12c-2.88,1.56-8.63,2.47-12,0-2.76-2-3.58-6-2.47-11.75,3.74-19.77-3.16-49.53-8.42-63.63-4.77-12.82,6.78-17.83,7.23-18,5.67-2.26,10.11-2.1,13.65.53,5.34,4,8.71,13.81,9.74,28.32a152.48,152.48,0,0,1-.17,21.62,2.23,2.23,0,1,0,4.44.41,145.28,145.28,0,0,0,.21-22.32c2.83-2.46,17-14.26,28.11-10.8,6.16,1.93,10.56,8.46,13,19.44a82.78,82.78,0,0,0-8.59,8.17c-11.76,13-16.94,27.66-15.5,43.61-6.74,4.23-14.34,9.21-21.95,14.47a48.35,48.35,0,0,1-4.06-8.84ZM14.31,276.1l4.85-1.4a2.24,2.24,0,0,0,.53-4.07c-2.71-1.6-5.79-3.53-7.56-4.77,3.33-3,12.86-10.15,24.29-18.08a2.19,2.19,0,0,0,1-.7C47.93,239.81,59.85,232,70,226.16,96.43,211,127.74,185.51,130.58,163a17.25,17.25,0,0,0,10.52-16.73c-.37-7.4-5.38-13.15-13.6-15.82a87,87,0,0,1,12.41-16.24l3.08,1.56c1,.7,8.22,6.37,13.2,10.36-.17,1.77-.13,4.32,1.11,5.71.49.54,1.76,2,10.35,1.61,5.1,2,15.74,14.3,21.37,21.78a2.23,2.23,0,0,0,2.59.74s.13,0,.21,0c.57,2.3,1.6,8.05,2.34,13v0a73.19,73.19,0,0,0-11,2.79c-2.92.78-7.77,5.22-9.46,11.63-1.27,4.81-1.11,12.17,7,19.77a1.78,1.78,0,0,0,.33.25,24.82,24.82,0,0,0,10.19,4.15v0c-.08,1.85-2.83,8.55-4.72,12.7a0,0,0,0,1,0,0c-10.81,25.24-30.5,38-30.71,38.1a4.22,4.22,0,0,0-.37.29c-19.85,19.24-48.58,26.06-52.19,26.88a24.31,24.31,0,0,0-13.48,2c-1,.13-4.16.46-8.64.79,11.43-15.62,10-30.91,6.54-41.23a59.37,59.37,0,0,0-11.3-19.81,2.24,2.24,0,0,0-3.29,3,56.57,56.57,0,0,1,10.4,18.33c4.72,14.31,2,27.66-8,39.71l-.24.37c-6,.28-13.24.45-20.59.16-21.34-1-35.1-5.42-40.24-12.86Zm79.77,14.46a20.48,20.48,0,0,1,4.61-.78c-.91,1.11-1.81,2.3-2.63,3.41-.54-.78-1.15-1.64-2-2.63Zm-45.74,46c-.08.32-.17.69-.25,1,0,.08,0,.17,0,.25-2.09,16,.66,27.74,8.22,35.06s19.36,9.74,34.2,7.19A4.29,4.29,0,0,1,91,380a20.09,20.09,0,0,0,4.28-1.69c5.67-2.59,17.5-7.93,24.45-5a8.58,8.58,0,0,1,4.81,5.46,11.9,11.9,0,0,1-1.65,11.68c-5.67,7.64-20.67,12.61-35.63,11.87-34.93-1.8-53.92-17.18-58-47-2.3-16.53,2.22-31.77,13.4-45.34a73.49,73.49,0,0,1,17.75-15.57,2.58,2.58,0,0,0,.91-.95A254.18,254.18,0,0,0,89.44,292l.25.25C54.5,311.36,50.52,327.76,48.34,336.6Zm50-31a8.33,8.33,0,0,1-.41-4.36,12.89,12.89,0,0,0,0-3c.82-1.32,3.7-5.06,6.37-8.35,5.22-1.15,33.37-8.13,53.8-27.7,2.71-1.31,10.11-4.15,13.44-2.09.49.28,2,1.23,1.89,5.09-.21,11.06-4.4,19.69-12.82,26.47-6.21,5-35.84,20.43-53.68,20.35-.95-.21-6.82-1.44-8.63-6.37Zm112.45-50.23c-.82.82-1.44,2.38-3,6.74-4.77,13-15.95,43.61-42.29,54.75-14.1,6-30.71,5.5-49.49-1.32C134.61,312,157.75,299.65,163.5,295c9.41-7.56,14.3-17.59,14.51-29.88.08-4.27-1.27-7.27-4-9a11.16,11.16,0,0,0-6.78-1.35,96.85,96.85,0,0,0,22.24-30.5c8.46,5,16.31,7.48,23.46,7.48a27.8,27.8,0,0,0,12.75-3c-5.51,10.89-12.7,24.37-14.88,26.59ZM277.59,102.9a2.45,2.45,0,0,0-.78,1.6c0,.37-1.68,35.19-23.79,51.46a41.25,41.25,0,0,1-14.39,6.78c-2.59-2.22-9.57-7.89-14.55-9a2.23,2.23,0,1,0-1,4.36c2.67.61,6.7,3.33,9.82,5.75q-12.33,1.67-27.7-2.46A2.24,2.24,0,1,0,204,165.7a83.8,83.8,0,0,0,21.61,3.08,57,57,0,0,0,12.62-1.35,1.76,1.76,0,0,0,.7-.17,49.25,49.25,0,0,0,7.56-2.5c.74,2.87.91,11.34-1.15,22.23-1.56,8.18-5.55,23.31-14.75,32.63-10,10.07-23.18,10.28-39.38.62,1.48-3.37,4.2-9.82,4.32-12.53v-.37a39.88,39.88,0,0,0,7-2.06c1.39-.49,2.83-1,4.44-1.52a2.23,2.23,0,0,0-1.32-4.27c-1.73.53-3.29,1.11-4.69,1.6-6.28,2.26-9.74,3.53-17.5-1.4-5-4.81-6.95-10.07-5.59-15.25s5.26-8.18,6.33-8.46l.16,0c13.77-4.61,24.7-4.44,32.47.49,9.7,6.16,11.18,18,11.22,18.12a2.23,2.23,0,1,0,4.44-.49c-.08-.57-1.69-14-13.19-21.37q-8.52-5.43-20.84-4.4v-.16c-.95-6.33-1.65-10.07-2.18-12.33,2.34,0,5.1-.29,6.58-1.15a2.23,2.23,0,0,0-2.22-3.87c-.79.45-4.32.66-7.57.5h0a5.15,5.15,0,0,0-1.4-.05c-3.61-4.68-15.9-20.09-23.05-22.31a1.62,1.62,0,0,0-.78-.08,33.39,33.39,0,0,1-7.24-.25,10.71,10.71,0,0,1,.13-3.17,2.25,2.25,0,0,0-.83-2.13C146,112.19,145.25,111.82,145,111.7l-3.95-2c-1.36-3-6.49-13.77-13.07-20.55,1.36-5.59,8.63-30.45,31.36-44.92C177.52,32.7,201,30.44,229.18,37.51c.25.08,25.93,7,32.3,20.26A2.31,2.31,0,0,0,264.36,59a2.07,2.07,0,0,0,1.36-2.55c0-.37.28-2.14,3.53-4.4,3.45-2.42,10.77-5.75,26.22-8,1.11,8.42,3.66,40-17.88,58.85Zm-168,121.16a1.57,1.57,0,0,0,.45,0c16-3.45,30.29-30.45,33.58-41.14,1.19-3.94,1.19-6.16,0-7.44a3.73,3.73,0,0,0-2.71-1.11c-3.87,0-9.54,5.26-11.8,7.52-1.73,1.73-7.44,7.73-8.42,12.46-1.07,5.09-9.75,20.79-13,26.38a2.19,2.19,0,0,0,.12,2.43,2.11,2.11,0,0,0,1.77.94ZM125,195.21c1-4.93,11.1-14.63,15-16.19-.49,3.08-3.49,11.1-9.2,20.26-5.22,8.34-10.81,14.55-16,17.88,3.66-6.7,9.29-17.35,10.23-21.95ZM174.6,117c-.13,0-.25,0-.37,0a2.27,2.27,0,0,1-2.22-1.89c-1.44-8.71-11.43-28.4-11.55-28.61a2.23,2.23,0,0,1,4-2c.41.82,10.44,20.51,12,29.92A2.18,2.18,0,0,1,174.6,117Zm25.11,12.33a2.23,2.23,0,0,1-3-1,2.2,2.2,0,0,1,1-3c16.11-8.14,37.48-6.2,38.38-6.12a2.23,2.23,0,1,1-.41,4.44C235.43,123.66,214.67,121.81,199.71,129.33Zm-19.77-10a2.32,2.32,0,0,0-2.18-.29,2.18,2.18,0,0,0-1.35,1.69c-.54,3.25,2.87,10,4.76,11.06a4.35,4.35,0,0,0,2.26.45s5.92,0,7.2-2.1a2.45,2.45,0,0,0,.12-2.26C190.46,127.44,190.22,126.94,179.94,119.38Zm3.45,8.51a4.44,4.44,0,0,1-.41-.62c.29.21.58.41.82.62Zm73.45,13.73a2.22,2.22,0,0,1-2.92,1.19c-10.48-4.44-32.88,1.81-33.13,1.85a3.19,3.19,0,0,1-.61.08A2.2,2.2,0,0,1,218,143.1a2.24,2.24,0,0,1,1.56-2.76c1-.28,24.13-6.7,36.05-1.68a2.28,2.28,0,0,1,1.19,3Zm-5,10.27a2.27,2.27,0,0,1,0,3.17,2.24,2.24,0,0,1-1.57.65,2.18,2.18,0,0,1-1.11-.28c-2-.62-14.71-2-26.18-3a2.23,2.23,0,0,1,.41-4.44c.09,0,6.62.57,13.2,1.27,14.09,1.48,14.55,1.93,15.25,2.63Zm39.25-97.32a7.75,7.75,0,0,0-4.77-1.32c-5.34,0-12.17,3.25-20.31,9.62a2.18,2.18,0,0,0-.69,2.55c4.15,10.77,8.38,23.14,8.34,25.15a2.25,2.25,0,0,0,1.48,2.18,2.39,2.39,0,0,0,.74.12,2.26,2.26,0,0,0,1.77-.86c.65-.86,16.23-20.84,14.3-36a2.38,2.38,0,0,0-.86-1.48ZM277,85.27c-1.77-6.08-5.14-15.17-6.91-19.85,8.8-6.66,13.94-7.69,16.24-7.69a5.24,5.24,0,0,1,1.31.13C288.08,67.31,281.09,79.19,277,85.27ZM42.13,270.75c-8.22,0-8.83,5.22-8.83,6.83,0,4.31,3.78,7.23,9.37,7.23,5.42,0,9.37-3.17,9.37-7.52,0-4.07-3.7-6.54-9.91-6.54Zm.54,9.62c-2.47,0-4.93-.86-4.93-2.75,0-.66,0-2.35,4.35-2.35,2.71,0,5.47.66,5.47,2.1,0,1.73-2,3-4.89,3Z"/></g></g></svg>