<svg xmlns="http://www.w3.org/2000/svg" viewBox="0 0 519.2 412"><defs><style>.cls-1{fill:#fcfdfd;}.cls-2{fill:#f76f8e;}.cls-3{fill:#ccf;}.cls-4{fill:#e6e6ff;}.cls-5{fill:#2b2d42;}</style></defs><g id="Calque_2" data-name="Calque 2"><g id="Calque_1-2" data-name="Calque 1"><path class="cls-1" d="M224.56,353.68c-46.05-1.46-71.11-17.56-84.64-36.29a97.67,97.67,0,0,0,6.19,9.81c6.24,23,13.58,21.55,13.58,21.55,19.24-.26,18.72,19.56,16.41,25.49s-33.4,4.83-39.64,4.83-13.59-6.51-37.66-22.4-37.91-38.86-37.91-38.86-20.25-.57-36.24-.78-2.78-19.09-2.78-19.09c-44-41.07,12.64-91.1,12.32-90.57,25.59-70.59,66.39-87.95,102.32-91.88C195.56,109,248.63,161.32,248.42,169c4.51-10.28,9.76-22,9.76-22,27.27,15.21,41.69,64.51,41.69,64.51,22.44,14.42,26.06,53.28,28.05,58.1s10.81,87.74-103.36,84.12Z"/><path class="cls-2" d="M470.94,360.5c-5.46,30.26-33.62,52.23-60.68,48.2-26.8-4-47.62-26.8-47.62-53.86s24.86-51.34,51.92-52.76c28.95-1.47,62,27.17,56.38,58.42Z"/><path class="cls-3" d="M148.83,216.86l-22.65,29.47s-16.05-34.87-17.05-49.87C109.13,196.46,145.42,211.46,148.83,216.86Z"/><path class="cls-4" d="M436.9,302l-11.22,2s-23.65-4-32.25,2.62A118.8,118.8,0,0,1,377,317.24L325.72,298s6.61-22.66-2-45.26-15-33.67-15-33.67,94,61.89,97.39,61.73S454.94,263.53,436.9,302ZM126.81,7.35c-23,16.15,7.34,38.55,26.9,63.19s3.67,44.79,3.67,44.79L181.77,119c18.72-11.12,23.33-38.75,19.82-64.29C197,20.83,149.78-8.8,126.81,7.35Z"/><path class="cls-3" d="M86.69,173c-3.1,8-5.72,8.49-9.6,7.39-3.09-.89-2.73-5-2.83-5,8.07-42.32,64.5-60.89,64.5-60.89l27.64,5.62c-33.2-4-76.62,45-79.71,52.86ZM232,184.14c-10.17-5.67-23.49-.27-23.49-.27s26.06,22,29.47,46.62c3.31,23.87,4.83,29.32,9.08,30.74s9.33-3.67,6.81-19.25S242.13,189.8,232,184.14Zm-55.53,7.34s26.06,28.63,28.63,37.13,6.24,9.07,9.65,8.76,10.17-7.08-20.14-50.46Zm88.78-.06-19.82-4.82s22,20.51,27.64,29.47c4.35,6.93,6.81,9.6,9.8,9.23s2.84-13.63-17.62-33.88Zm-42.32-30.67s8.08,3.09,9.76.83-.16-3.67-.16-3.67S162.36,122.78,121.82,165c0,0-3,3.41-1.57,6.66s8.08,1.68,13-1.83,43.58-25.33,89.62-9.07Z"/><path class="cls-5" d="M292.05,304.81c.16.68,1.37,6.81-2.09,10.38-1.31,1.36-3.73,2.78-8,2.05-7.23-1.26-19.09-.32-21.66.26a2.68,2.68,0,0,1-1,.31c-.53.16-4.78,1.37-19.83,9.34-5.08,2.67-9.7,4-13.68,4a15.4,15.4,0,0,1-5-.79,11.5,11.5,0,0,1-6.87-5.82l5.2-2.36v-.05a6.1,6.1,0,0,0,3.67,2.83c3.46,1.1,8.28.1,14-2.94,13.95-7.39,19.19-9.28,20.87-9.75,1.21-.53,3.78-1,9.7-1.32a74.67,74.67,0,0,1,15.53.58c1,.16,2.3.26,2.93-.37.95-1,.95-3.72.63-5.24a2.87,2.87,0,0,1,2.21-3.36,2.91,2.91,0,0,1,3.4,2.21Zm-41.37,4.87a16.45,16.45,0,0,0,7.39-1.83,51.44,51.44,0,0,0,5.45-3.52c3.05-2.2,4.83-3.72,4.25-5.92a3,3,0,0,0-3-2.26,7.05,7.05,0,0,0-2.25.48c-1.05.36-10.7,2.78-19.2,4.87a3,3,0,0,0-2.1,2.05,2.78,2.78,0,0,0,.79,2.78,12.53,12.53,0,0,0,8.71,3.35Zm-26.75-13.05a2.79,2.79,0,0,0,2.41-1.37,2.83,2.83,0,0,0-.94-3.93c-6.45-4-46.41-7.4-54.33-8a2.86,2.86,0,1,0-.47,5.71c17.88,1.47,47.72,4.67,51.81,7.19a2.83,2.83,0,0,0,1.52.42Zm46.57-8.34a3,3,0,0,0,1.31.31,2.89,2.89,0,0,0,2.52-1.52c2.2-4.19,20.45-15.68,32.72-22.5a2.85,2.85,0,0,0-2.78-5c-5.19,2.89-31.2,17.62-35,24.81a2.87,2.87,0,0,0,1.21,3.88ZM518,331.24a2.87,2.87,0,0,1-4-.68c-1.41-2-5.34-5.93-8.12-5.2-1.47.37-6.4,3.36-8.55,25.07-1.73,17.68-7.34,29.89-16.57,36.4a27.13,27.13,0,0,1-15.58,4.87,22.25,22.25,0,0,1-5.14-.52,3.36,3.36,0,0,1-.63-.26C448.54,403.77,432.92,412,416.66,412a43.6,43.6,0,0,1-6.87-.52c-28.48-4.2-50-28.53-50-56.64,0-12.64,5.14-24.86,13.48-34.62-13.17-3.4-37.6-14.15-45.1-17.51a61.08,61.08,0,0,1-2.73,7.13,3.06,3.06,0,0,1-.47,1.05,71,71,0,0,1-5.3,9.49c-7.24,10.81-17.41,19.35-30.36,25.38-15.42,7.19-34.83,10.86-57.64,10.86-2.36,0-4.77-.05-7.18-.1-19.51-.63-36.4-3.89-50.56-9.65a3,3,0,0,1-1.36-.58,88.29,88.29,0,0,1-21.56-13c4.15,11.43,8,12.42,8.4,12.48h.21c9.28-.11,14.16,4,16.62,7.55,4.82,6.92,4.41,16.94,2.52,21.82s-11,6.71-33.3,6.71c-2,0-4.09,0-6.3,0-1.15,0-2.1-.06-2.72-.06-5.51,0-10.76-3.62-23.55-12.32-4.2-2.83-9.44-6.4-15.68-10.54-21.29-14-34.56-33.2-38-38.39-5-.16-21.4-.58-34.72-.73-4.87-.06-8.18-1.68-9.8-4.78-2.73-5.35,1-12.9,3.35-16.73-12.64-12.48-18.72-26-18-40.38,1.21-26.43,25.28-47.25,31.68-52.34,11.74-32.09,27.9-56.11,48-71.42,15.79-12.06,34.25-19.09,56.43-21.5a98.58,98.58,0,0,1,19.72-.16c2.73-4.2,11.27-20.45-4.41-40.17-4.09-5.14-8.7-10.28-13.16-15.21C126,43.54,114.48,30.74,115.79,18.94c.58-5.3,3.73-10,9.34-13.9,9.33-6.61,23.07-6.71,37.65-.36,17.83,7.76,38.5,26.64,41.59,49.61,1.89,14.05,1.31,27.42-1.68,38.7-3.09,11.64-8.81,20.71-16.62,26.48C216.8,130.75,240.5,152,248,162.16c.05.05.05.11.11.16,3.14-7.19,6.24-14.06,7.34-16.52a2.63,2.63,0,0,1,1.73-1.52,3,3,0,0,1,2.31.21c26.06,14.58,40.43,57.79,42.69,65.19a44.52,44.52,0,0,1,7.76,6.92c.05.05.1.05.15.1,33.93,22.4,89.1,58.16,96,61.15.53-.1,1.42-.37,2.21-.58,8.34-2.25,25.75-6.87,32.83,1.58,4.19,5,3.62,12.95-1.73,24.38a2.77,2.77,0,0,1-.69.89A65,65,0,0,1,462,321.69c10,11.91,14.11,25.86,11.69,39.34v.05a62.69,62.69,0,0,1-10.38,24.8,21.29,21.29,0,0,0,14.26-3.82c7.77-5.51,12.49-16.37,14.06-32.2,1.83-18.41,6-28.27,12.74-30.05,7.34-1.95,13.53,6.45,14.21,7.39a2.76,2.76,0,0,1-.52,4ZM165.72,102.69a37.39,37.39,0,0,1-3.67,10.54,120.94,120.94,0,0,1,17.51,4,2.46,2.46,0,0,1,.79-.68c18.3-10.86,21.55-38.86,18.46-61.47C196,34.25,177,17.1,160.58,9.92c-12.69-5.56-24.44-5.61-32.1-.21-4.24,3-6.55,6.24-6.92,9.86-1,9.28,9.7,21.13,21.08,33.72,4.51,5,9.18,10.17,13.38,15.47,10.75,13.58,11.22,25.91,9.7,33.93ZM143.33,327.93a2.76,2.76,0,0,1,.1-1.73c-.94-1.05-1.89-2.09-2.78-3.2-12.53-15.15-16.89-32.56-18.25-44.52a92.78,92.78,0,0,1-.21-21.13C102,236.11,102,189.75,102,187.75a3,3,0,0,1,.26-1.2,2.91,2.91,0,0,1,2-1.58,33.92,33.92,0,0,1,6.82-.57c16.63,0,49.3,6.34,55.49,7.55a113.48,113.48,0,0,1,51.55-12.38,141.42,141.42,0,0,1,18.25,1.31c1.57.21,2.88.37,3.83.42,1-2.57,3.09-7.39,5.45-12.74-1.42-3.72-13.58-17.46-33.3-29.89-17.62-11.12-45-23.71-75.31-20.4-30,3.3-73.16,16.2-100,90a2.91,2.91,0,0,1-.94,1.26c-5,3.83-29.11,23.75-30.26,48.72-.58,12.9,5.14,25.27,17,36.71,4.46-.37,14.27-.68,18.2,2.67a2.89,2.89,0,0,1,.37,4,2.81,2.81,0,0,1-2.2,1,2.75,2.75,0,0,1-1.84-.69c-1.57-1.36-8.23-1.73-13.95-1.36-2.36,3.78-4.82,9.44-3.57,11.85.69,1.37,3,1.68,4.78,1.68,11.8.16,26,.53,32.62.68-6.19-29.31,4.09-47,14-56.79A60.35,60.35,0,0,1,96,243.5,2.85,2.85,0,0,1,97.44,249a55.79,55.79,0,0,0-22.29,13.27c-13.32,13.16-17.25,31.46-11.59,54.38,1.84,2.88,15.16,23.34,36.81,37.55,6.3,4.14,11.54,7.71,15.79,10.59,11.43,7.76,16.62,11.33,20.35,11.33.68,0,1.62,0,2.78.05,4.77.05,12.79.16,20.19-.31,11.59-.74,13.79-2.52,14.05-2.78,1.16-3.1,1.73-11.23-1.94-16.42-2.36-3.41-6.24-5.08-11.48-5.08h-.21c-2.31.21-10.33-.69-16.57-23.66ZM314,318.6a63.61,63.61,0,0,0,4.25-7c-3.94-.36-8.24-.57-9.71-.05a2.85,2.85,0,1,1-1.83-5.4c3.2-1.05,10.22-.47,14.05,0a66.4,66.4,0,0,0,3.78-12.59c-6.66,1.05-13.37,2.47-14.63,3.36a2.82,2.82,0,0,1-4-.58,2.85,2.85,0,0,1,.63-4c2.88-2.15,13.58-3.88,19-4.67a63.82,63.82,0,0,0,.16-14.53C316.07,280,306.27,287,304.8,288.5a2.82,2.82,0,0,1-2.36,1.2,2.66,2.66,0,0,1-1.1-.21,2.86,2.86,0,0,1-1.52-3.72c.36-.84.89-2.15,24.49-18.51-.16-.79-.37-1.73-.58-2.83-2.41-11.8-8.13-39.34-25.38-50.45a3,3,0,0,1-1.21-1.58c-.16-.47-13.42-45.05-37.65-61.2-2.57,5.77-5.61,12.64-8.24,18.62a4.51,4.51,0,0,1-.26.84,2.77,2.77,0,0,1-.42.68c-2,4.67-3.77,8.7-4.77,11.12,7.87,1.57,23.18,5,27.27,8.6a2.84,2.84,0,0,1,.26,4,2.9,2.9,0,0,1-2.15.94,2.64,2.64,0,0,1-1.89-.73c-2.83-2.47-18.35-6.19-28.47-8a1,1,0,0,1-.37-.1c-1.21-.06-2.78-.21-4.88-.47A141.1,141.1,0,0,0,218,185.45a107.64,107.64,0,0,0-49.82,12.22,3,3,0,0,1-1.88.26c-.37-.05-37.87-7.66-55.33-7.66-1.26,0-2.36,0-3.31.11,0,1,.06,2.2.16,3.67a2.93,2.93,0,0,1,2.47-.16c.1.05,9.23,3.83,18.67,8.23,19.71,9.23,21.55,12.07,22.34,13.32a2.86,2.86,0,0,1-.16,3.26l-22.66,29.47a2.85,2.85,0,0,1-2.25,1.1h-.32a2.82,2.82,0,0,1-2.25-1.63c-.47-1-9.23-20.19-14.11-36.23,2.21,14.68,7.08,32.72,17.62,43.05a2.87,2.87,0,0,1,.84,2.47c0,.31-4,27.21,9.81,52,10.49-1.1,48.09-4.67,56.79.36a2.84,2.84,0,1,1-2.83,4.93c-5.4-3.14-32.3-1.73-50.6.11,1.2,1.78,2.51,3.51,3.93,5.24a77.36,77.36,0,0,0,7.08,7.4c7.45-3,30.26-11.91,38.65-9.44a2.84,2.84,0,0,1-1.57,5.45c-4.93-1.41-20.61,3.62-32.05,8.13a85.48,85.48,0,0,0,16.58,9.65c5.76-5.61,11.69-11.64,12.69-13a2.84,2.84,0,0,1,5.35,1.84c-.21.89-.42,1.94-12.28,13.58,12.8,4.72,27.9,7.34,45.1,7.92,2.36.05,4.72.11,7,.11,39.49-.21,67.18-11.12,82.34-32.57ZM126.86,240.77l18.2-23.65c-4.57-3.41-18.67-10.22-32.36-16.1,2.41,12.17,10.44,31.26,14.16,39.75Zm202.85,56.38c6.76,3,37.23,16.57,48.14,18.25a64.19,64.19,0,0,1,4.93-4.2,2.58,2.58,0,0,1,.63-.47A59.77,59.77,0,0,1,401,301.66a3.7,3.7,0,0,1,.52-1.21c.37-.47,9.18-11.53,18.94-9.86a18,18,0,0,1,13.74,10.28v-.05c4.19-9,5.08-15.26,2.51-18.3-4.72-5.61-21.45-1.16-26.95.31a21.57,21.57,0,0,1-3.67.84c-1.52.11-3,.16-51.66-31.2-13.58-8.81-27.16-17.62-36.29-23.6,6.56,12.59,9.44,26.69,11.07,34.4.47,2.31.94,4.67,1.2,5.3.84,1.62,2.78,13.69-.73,28.58Zm89.89-.94c-3.05-.53-6.35,1.25-9,3.35,1.26-.15,2.57-.26,3.83-.36.79-.06,1.58-.06,2.31-.06a47.76,47.76,0,0,1,10.49,1.16,12.6,12.6,0,0,0-7.6-4.09Zm-54.13,58.63a50.09,50.09,0,0,0,7.35,26c43.73-21.61,61-64,63.77-71.33a49.1,49.1,0,0,0-19.88-4.56c-.68,0-1.36,0-2,0A51,51,0,0,0,388.55,314c4.67,7.65,15.26,22.28,24.7,24.28a2.88,2.88,0,0,1,2.2,3.41,2.8,2.8,0,0,1-2.78,2.25,2,2,0,0,1-.57-.05c-12.28-2.62-23.81-19.56-28.06-26.38a54.6,54.6,0,0,0-14.27,18.57c4,6.24,15.63,21.44,25.6,22.65a2.84,2.84,0,0,1-.32,5.66h-.31c-11.44-1.31-22.5-14.89-27.43-21.76a40.82,40.82,0,0,0-1.84,12.17Zm98.75,17.93a120.85,120.85,0,0,1-10.69,9.76c-16.21,13-34.09,19.87-51.87,19.87h-1.31a2.83,2.83,0,1,1,.1-5.66c38.34.73,64.46-32.83,67.76-37.34,1.63-10.07-1-20.51-7.45-29.95-7.44,11.33-36.92,54.28-62.51,62.62a2.54,2.54,0,0,1-.89.16,2.92,2.92,0,0,1-2.73-2,2.89,2.89,0,0,1,1.84-3.62c25-8.13,55.9-54.81,60.57-62A59.83,59.83,0,0,0,441.62,312a138.42,138.42,0,0,1-14.32,27.22c-9.49,14.21-26,33.51-51.34,46.25a53.62,53.62,0,0,0,34.61,20.35,37.93,37.93,0,0,0,6,.42c20.13.11,39.07-13.9,47.61-33.46Z"/></g></g></svg>