<svg xmlns="http://www.w3.org/2000/svg" viewBox="0 0 1108.19 500"><defs><style>.cls-1{fill:#fff;}</style></defs><g id="Calque_2" data-name="Calque 2"><g id="Calque_1-2" data-name="Calque 1"><path class="cls-1" d="M0,125.12H4V4H124.25V0H0ZM495.16,496H374.88v4H499.13V374.88h-4V496ZM603.94,74.2H598.6v53.42h23.15v-5.16H603.94V74.19Zm36.42,42.73L631.72,92h-5.61l11.49,32.59-.18.62q-2.4,8.64-5.25,12.11c-1.91,2.32-3.83,3.48-5.79,3.48h-.53a5.07,5.07,0,0,0-.54-.09v4.63a4.08,4.08,0,0,1,.8.09h.8q4.64,0,8.37-4.45t7-13.81L654.69,92h-5.61l-8.72,24.93Zm36.51,6.59q-5.26,0-7.57-3.42T667,109.81c0-5,.84-8.51,2.5-10.6a8.21,8.21,0,0,1,6.77-3.11,5.1,5.1,0,0,1,5.69,5.52v.71a3.45,3.45,0,0,0-.08.72h4.71a15.21,15.21,0,0,0,.18-2.32,9.38,9.38,0,0,0-2.71-6.9c-1.82-1.81-4.41-2.71-7.79-2.71q-6.78,0-10.69,4.53t-3.92,14.16q0,9.09,3.79,13.89a12.49,12.49,0,0,0,10.37,4.81,17.64,17.64,0,0,0,6.14-1.07,21.38,21.38,0,0,0,5.08-2.58v-5.79a12.23,12.23,0,0,1-4.72,3.21,14.49,14.49,0,0,1-5.43,1.24Zm45.67-52.8h-5.87L706.16,84h5.25Zm-.62,38.65a12.73,12.73,0,0,0,1.42-3.34,14.56,14.56,0,0,0,.54-4,13.62,13.62,0,0,0-.62-4.1,9.81,9.81,0,0,0-2-3.52A9.44,9.44,0,0,0,717.56,92a15.54,15.54,0,0,0-5.53-.88q-7,0-11.12,4.58t-4.1,14.11q0,9,3.92,13.85t10.86,4.85a19.23,19.23,0,0,0,6.45-1.07,24.3,24.3,0,0,0,5.39-2.58v-5.79a13.83,13.83,0,0,1-5,3.21,15.51,15.51,0,0,1-5.7,1.24q-5.52,0-8.06-3.42t-2.54-10.29v-.44Zm-16-11.31a9.42,9.42,0,0,1,6.1-2q3.38,0,5,1.56a5.17,5.17,0,0,1,1.61,3.87,7.2,7.2,0,0,1-.63,2.94H702.6c.59-3,1.7-5.1,3.34-6.41Zm43.85,25.46q-5.52,0-8.06-3.42t-2.54-10.29v-.44H759a12.73,12.73,0,0,0,1.42-3.34,14.56,14.56,0,0,0,.54-4,13.62,13.62,0,0,0-.62-4.1,9.81,9.81,0,0,0-2-3.52A9.44,9.44,0,0,0,754.6,92a15.52,15.52,0,0,0-5.52-.88q-7,0-11.13,4.58t-4.1,14.11q0,9,3.92,13.85t10.86,4.85a19.33,19.33,0,0,0,6.46-1.07,24.52,24.52,0,0,0,5.39-2.58v-5.79a14,14,0,0,1-5,3.21,15.51,15.51,0,0,1-5.7,1.24ZM743,98.06a9.42,9.42,0,0,1,6.1-2,7,7,0,0,1,5,1.56,5.2,5.2,0,0,1,1.6,3.87,7.2,7.2,0,0,1-.63,2.94h-15.4c.59-3,1.7-5.1,3.34-6.41Z"/><path class="cls-1" d="M24.3,91.6H38.13v70.92H24.3V313.77H45.91v25H24.3V475.11H474.52V165.26h-68v-25h68V112h-68V87h68V24.89H24.3V91.6ZM467.05,428.15H442v-71h25Zm-47.6-223.72h25v71h-25ZM172,440.66H101.1v-25H172ZM84.69,391.4v-71h25v71Zm102.42-32.1h-25V288.38h25V359.3Zm77,81.36h-71v-25h71Zm-44.86-51.37V318.37h25v70.92ZM264.11,250h-71V225h71v25Zm95.63,190.66h-71v-25h71Zm12.51-61.82H301.3v-25h70.95v25Zm-78.9-49.66V258.26h25v70.92Zm81.92,0h-25V258.26h25Zm4.37-106.79H308.69v-25h70.95Zm-76.16-52V99.47h25v70.95Zm56.26-70.95h25v70.95h-25ZM280.52,33.12h70.91v25H280.52ZM264.11,195.41h-71v-25h71Zm-35.48-133h25v70.91h-25ZM128,112.42H199v25H128Zm-26.9,58H172v25H101.1Zm0,54.55H172v25H101.1V225ZM68.84,62.44h26.1v70.91H68.84V62.44Zm-18,146.08h25v71h-25ZM640,295.72A59,59,0,0,0,654.88,294a60.14,60.14,0,0,0,13.55-5.43V263.79q0-6.51,1.2-8.72Q671.36,252,676,252h1.49V249.7H646.17V252q4.89,0,6.83,1a6.21,6.21,0,0,1,2.86,2.87q.93,1.88.93,8v23.4a34.46,34.46,0,0,1-8.06,3.34,32.69,32.69,0,0,1-8.65,1.14,28.22,28.22,0,0,1-14.9-4.45q-7.26-4.46-11.73-14A49.14,49.14,0,0,1,609,252.08q0-14.27,6.75-24.59,8.06-12.24,23.52-12.24,11.34,0,18.57,7,5,4.85,8.18,14.39h2.08L666,211.07h-2.21a8,8,0,0,1-1,4.09,2.37,2.37,0,0,1-1.94,1,16.29,16.29,0,0,1-4.48-1.25,73.43,73.43,0,0,0-10.24-3.16,41.07,41.07,0,0,0-8-.72q-12.14,0-21,5.2a45.6,45.6,0,0,0-21.85,38.38,40.18,40.18,0,0,0,9.14,26q12.18,15,35.64,15Zm93.39-80.59h3q4.6,0,6.93,2.63,1.67,1.91,1.67,9.49V260q0,12.89-2.3,18.29t-8.57,8.87a28.82,28.82,0,0,1-14.2,3.46,22.63,22.63,0,0,1-10.48-2.21,17,17,0,0,1-6.54-5.61,23.07,23.07,0,0,1-3.13-9.49,77.37,77.37,0,0,1-.87-10.81V227.25q0-6.81,1.5-8.95c1.43-2.12,3.81-3.17,7.16-3.17h3.1v-2.21h-35v2.21h3q4.61,0,6.66,2.33c1.37,1.55,2.06,4.82,2.06,9.79v31.64q0,14.63,1.91,19.94a24.92,24.92,0,0,0,9.73,12.36q6.87,4.59,20.12,4.59,12.18,0,19.25-4.8T748,279.46q2.43-6.72,2.42-18.9V227.73q0-6.75,1.26-8.6a8.2,8.2,0,0,1,7.34-4h3.05v-2.21H733.41v2.21Zm42.38,34.09a123,123,0,0,0,14.77,9.28,146.66,146.66,0,0,1,12.72,7.61,18,18,0,0,1,5.1,5.68,12.54,12.54,0,0,1,1.64,6,12.21,12.21,0,0,1-4.32,9.31q-4.34,3.93-11.79,3.94a24.78,24.78,0,0,1-11.85-2.87,20.14,20.14,0,0,1-8-7.19c-1.75-2.89-3.14-7.23-4.17-13.05h-2.21v27.76h2.21a7.17,7.17,0,0,1,1.28-3.7,3.14,3.14,0,0,1,2.36-.89q1.54,0,7.37,1.88a69,69,0,0,0,7.67,2.18,38.73,38.73,0,0,0,6.63.53q11.22,0,18.36-6.65a21,21,0,0,0,7.13-15.85,20.19,20.19,0,0,0-2.24-9.25,22.71,22.71,0,0,0-6.39-7.68q-4.14-3.24-15.49-9.34-13.9-7.45-17.61-11.94a10.23,10.23,0,0,1-2.57-6.74,11.56,11.56,0,0,1,4.06-8.63,14.45,14.45,0,0,1,10.27-3.79,21.89,21.89,0,0,1,10.63,2.8,20.13,20.13,0,0,1,7.91,7.58q2.78,4.78,3.85,12.84h2.21v-28h-2.21a7.43,7.43,0,0,1-1.58,3.73,3.57,3.57,0,0,1-2.54.93,14.15,14.15,0,0,1-4.72-1.49,34.1,34.1,0,0,0-13.67-3.17q-10.32,0-17,6.3a19.92,19.92,0,0,0-6.69,15,19,19,0,0,0,2.27,9.2,25,25,0,0,0,6.66,7.64Zm55.87-26a11.11,11.11,0,0,1,5.31-4.36A27.43,27.43,0,0,1,845,218h9.73v61.84c0,4.54-.43,7.45-1.31,8.72q-2.15,3.1-7.28,3.11H843.3v2.2h34.33v-2.2h-2.81q-4.71,0-7-2.51c-1.08-1.23-1.61-4.34-1.61-9.31V218h11.4a17.12,17.12,0,0,1,8.09,1.64,11.9,11.9,0,0,1,4.92,5.1,22.58,22.58,0,0,1,1.79,7.17h2.28l-.9-19H827.72l-1,19H829a17.61,17.61,0,0,1,2.62-8.72Zm125.15,55.22-28.18-67.34h-2.09l-28.47,66.62q-3.71,8.79-6.75,11.65c-1,1-3.18,1.73-6.57,2.33v2.2h25.49v-2.2c-3.9-.28-6.43-.89-7.61-1.83a4.08,4.08,0,0,1-1.76-3.25q0-2.32,2-7l5.49-12.78h31.35l4.89,11.64q2.39,5.67,2.39,8.3a4.16,4.16,0,0,1-1.7,3.34q-1.71,1.38-6.54,1.62v2.2h31.94v-2.2A12.68,12.68,0,0,1,963,289q-2.78-2.42-6.18-10.54Zm-46.57-16.05,14.1-32.72,13.72,32.72Zm195.57,11.22a45.86,45.86,0,0,1-7.59,11.16,14.94,14.94,0,0,1-6,3.76c-2.08.64-5.4.95-10,.95h-13.73a10.08,10.08,0,0,1-4.53-.68,3.73,3.73,0,0,1-1.67-1.85c-.32-.78-.48-2.95-.48-6.54V253.69h17.79q5.07,0,7.52,1.2a7.44,7.44,0,0,1,3.52,3.29q.84,1.67,1.68,7.58h2.2V237.58h-2.2q-.36,6.93-3.47,9.67c-1.55,1.39-4.64,2.09-9.25,2.09h-17.79v-32h22.2c4,0,6.83.3,8.42.9a9.58,9.58,0,0,1,4.51,3.63c1,1.6,1.94,4.53,2.78,8.78h2.33l-.9-17.73H1014v2.21l1,.18c2.74.44,4.7,1.18,5.85,2.24a4.5,4.5,0,0,1,1.73,3.31q0,2.69-2.8,9.61l-19.11,46.87-20.59-47.46q-2.76-6.33-2.75-9.31A4.38,4.38,0,0,1,979,217q1.66-1.36,7.28-1.91v-2.21H953.25v2.21a16.89,16.89,0,0,1,5.88,1.35,10.39,10.39,0,0,1,3.67,2.89,38.31,38.31,0,0,1,3.29,6.56l30.32,69.79h2.21l28.24-68.89a24.84,24.84,0,0,1,5.61-9,13.18,13.18,0,0,1,6.51-2.74h2.71q5,0,7.16,2.39c1,1.19,1.55,4.36,1.55,9.49V279.6c0,3.95-.23,6.55-.68,7.83a5,5,0,0,1-2.6,2.86,11.32,11.32,0,0,1-5.43,1.38h-2.87v2.2h62.39l7-20.29Zm-453,148.8a14.79,14.79,0,0,1-6,3.76q-3.11,1-10,1H623.18a10,10,0,0,1-4.53-.69,3.69,3.69,0,0,1-1.68-1.85q-.47-1.15-.47-6.53V391.34h17.78q5.09,0,7.53,1.19a7.54,7.54,0,0,1,3.52,3.29q.82,1.67,1.67,7.58h2.21V375.22H647q-.36,6.93-3.46,9.67c-1.55,1.4-4.64,2.09-9.25,2.09H616.5V355h22.21c4,0,6.82.3,8.41.9a9.54,9.54,0,0,1,4.51,3.64c1,1.59,1.94,4.52,2.78,8.77h2.32l-.89-17.73H593.45v2.21h2.87q5,0,7.16,2.39Q605,357,605,364.65v52.6q0,5.91-.69,7.82a5,5,0,0,1-2.59,2.87,11.43,11.43,0,0,1-5.43,1.37h-2.87v2.21h62.39l7-20.3h-2.39a45.39,45.39,0,0,1-7.58,11.16Zm11.67-69.61h2.86a11.26,11.26,0,0,1,5.49,1.44,5.35,5.35,0,0,1,2.45,2.56q.78,2,.78,8.12v52.3q0,7.29-1.43,9.19-2.28,2.92-7.29,2.93h-2.86v2.21H699.2v-2.21h-2.92a11,11,0,0,1-5.44-1.43,5.39,5.39,0,0,1-2.5-2.57c-.52-1.32-.78-4-.78-8.12v-52.3c0-4.85.5-7.92,1.49-9.19,1.52-1.95,3.92-2.93,7.23-2.93h2.92v-2.21H664.52v2.21ZM700,350.56v2.21h2.86a11,11,0,0,1,5.5,1.44,5.32,5.32,0,0,1,2.44,2.56q.78,2,.78,8.12v52.3q0,7.29-1.43,9.19c-1.52,1.95-3.94,2.93-7.29,2.93H700v2.21h34.74v-2.21h-2.92a11.36,11.36,0,0,1-5.5-1.43,5.39,5.39,0,0,1-2.5-2.57c-.52-1.32-.78-4-.78-8.12V391.76h14.75a13.45,13.45,0,0,1,6.12,1.1,7.77,7.77,0,0,1,3.22,3.32c.78,1.47,1.18,3.78,1.22,6.92h2.21V375.7h-2.21c-.51,4.42-1.56,7.37-3.13,8.86s-4.05,2.24-7.43,2.24H723V355h17.85q6.33,0,9.34,1.19a12,12,0,0,1,5.08,3.86,24.47,24.47,0,0,1,3.61,8.32H761l-.78-17.79Zm63.84,0v2.21h2.86a11,11,0,0,1,5.5,1.44,5.39,5.39,0,0,1,2.45,2.56q.76,2,.77,8.12v52.3q0,7.29-1.43,9.19-2.26,2.92-7.28,2.93h-2.87v2.21h34.74v-2.21h-2.92a11.35,11.35,0,0,1-5.49-1.43,5.37,5.37,0,0,1-2.51-2.57c-.52-1.32-.78-4-.78-8.12V391.76h14.75a13.4,13.4,0,0,1,6.12,1.1,7.71,7.71,0,0,1,3.22,3.32q1.17,2.2,1.23,6.92h2.21V375.7H812.2q-.78,6.63-3.14,8.86c-1.57,1.5-4,2.24-7.43,2.24H786.88V355h17.85q6.33,0,9.35,1.19a11.92,11.92,0,0,1,5.07,3.86,24.28,24.28,0,0,1,3.61,8.32h2.09l-.77-17.79Zm123.78,71.82a14.79,14.79,0,0,1-6,3.76q-3.1,1-10,1H858a10.13,10.13,0,0,1-4.54-.69,3.72,3.72,0,0,1-1.67-1.85q-.48-1.15-.48-6.53V391.34h17.79q5.07,0,7.52,1.19a7.56,7.56,0,0,1,3.53,3.29q.82,1.67,1.67,7.58H884V375.22h-2.21q-.36,6.93-3.47,9.67c-1.55,1.4-4.63,2.09-9.25,2.09H851.26V355h22.21c4,0,6.82.3,8.42.9a9.46,9.46,0,0,1,4.5,3.64c1,1.59,1.94,4.52,2.78,8.77h2.33l-.9-17.73H828.22v2.21h2.86c3.35,0,5.73.8,7.16,2.39q1.56,1.8,1.56,9.49v52.6q0,5.91-.69,7.82a5,5,0,0,1-2.6,2.87,11.4,11.4,0,0,1-5.43,1.37h-2.86v2.21H890.6l7-20.3H895.2a46,46,0,0,1-7.58,11.16Zm72.49-2.23a16.94,16.94,0,0,1-6.86,4.86q-3.76,1.38-13.07,1.37h-5.91c-5.22,0-8.32-.2-9.32-.59a4.33,4.33,0,0,1-2.21-1.85q-.94-1.86-1-6.81V366.27c0-4.82.32-7.86,1-9.14a7.35,7.35,0,0,1,3.55-3.16c1.74-.84,4.75-1.24,9.05-1.2v-2.21H898.69v2.21h3q4.59,0,6.93,2.63,1.67,1.92,1.67,9.49v52.24c0,4.62-.42,7.56-1.26,8.84q-2.21,3.34-7.34,3.34h-3.05v2.21h62.69l6.92-22-2-.42q-3.11,7.51-6.2,11Z"/></g></g></svg>