<svg xmlns="http://www.w3.org/2000/svg" viewBox="0 0 1422.66 500"><defs><style>.cls-1,.cls-2,.cls-3,.cls-5{isolation:isolate;}.cls-2,.cls-3,.cls-5{font-size:107.18px;font-family:Fellix-Bold, Fellix;font-weight:700;}.cls-2,.cls-3,.cls-5,.cls-6{fill:#fff;}.cls-2{letter-spacing:-0.01em;}.cls-4{letter-spacing:0em;}.cls-5{letter-spacing:-0.02em;}</style></defs><g id="Calque_2" data-name="Calque 2"><g id="Calque_1-2" data-name="Calque 1"><g class="cls-1"><text class="cls-2" transform="translate(0 475.56)">L</text><text class="cls-3" transform="translate(57.24 475.56)"><tspan class="cls-4">e</tspan><tspan x="58.41" y="0">a</tspan></text><text class="cls-3" transform="translate(170.62 475.56)">d</text><text class="cls-3" transform="translate(234.72 475.56)">er in <tspan class="cls-4" x="231.93" y="0">D</tspan><tspan x="304.38" y="0">a</tspan></text><text class="cls-5" transform="translate(589.9 475.56)">t</text><text class="cls-3" transform="translate(630.72 475.56)">a &amp; AI </text><text class="cls-5" transform="translate(929.86 475.56)">E</text><text class="cls-3" transform="translate(983.45 475.56)">ducation</text></g><path class="cls-6" d="M78.65,0V265.2H208.27v67.55H8.24V0Z"/><path class="cls-6" d="M446.49,231.78H278.92c6.21,31.75,28.17,48.46,59.92,48.46,21,0,42.72-9.55,50.84-23.88L442,288.11c-17.19,30.79-56.1,48.94-104.55,48.94-68.51,0-122.7-53.23-122.7-122.7,0-68,53.23-120.3,121.26-120.3,63.26,0,112.67,48.93,112.67,111.23A160,160,0,0,1,446.49,231.78Zm-64.93-42.73c-2.86-23.39-24.34-40.34-48.93-40.34-28.17,0-46.55,15.28-52.75,40.34Z"/><path class="cls-6" d="M711,106.44c0,62.3-47.5,107.89-112.66,107.89H541.73v118.4H471.32V0h127C663.47,0,711,44.64,711,106.44Zm-70.89,0c0-22.44-17.67-38.91-41.77-38.91H541.73v79.25h56.58c24.34,0,41.77-17.19,41.77-40.34Z"/><path class="cls-6" d="M944.18,216.24c0,69.46-52.75,121.26-121.26,121.26-69,0-121.26-51.8-121.26-121.26S753.94,94.5,822.92,94.5C891.43,94.5,944.18,146.8,944.18,216.24Zm-176.87,0c0,32.22,23.87,57.05,55.61,57.05,31.27,0,55.62-24.83,55.62-57.05,0-33.18-24.35-57.53-55.62-57.53C791.18,158.74,767.31,182.82,767.31,216.24Z"/><path class="cls-6" d="M1403.92,329.65c-8.59,4.29-22,6.68-34.13,6.68-54.67,0-93.1-34.61-93.1-95V162.79h-57.76V99.06h57.76V38h66.84V99.28h57.53V163h-57.53V238.2c0,22,16.71,35.57,36,35.57a70.35,70.35,0,0,0,21-3.35Z"/><path class="cls-6" d="M1202.94,332.51h-67.08V162.79H1027.25V332.51H960.18V99.28H1202.7l.23,233.21Z"/></g></g></svg>