<svg xmlns="http://www.w3.org/2000/svg" viewBox="0 0 1747.82 500"><defs><style>.cls-1{fill:#fcfdfd;}</style></defs><g id="Calque_2" data-name="Calque 2"><g id="Calque_1-2" data-name="Calque 1"><path class="cls-1" d="M140.45,109.86H245.94c31.06,0,55.25,6.21,72.1,18.67q25.56,18.67,25.59,53.68c0,13.36-3.05,24.94-9.17,34.64s-15.14,17.61-27.13,23.38q24.82,8.24,38.08,26.12t13.17,43.39c0,16.76-4.27,31.18-12.79,43.07q-12.78,18.07-36.52,27.9c-15.79,6.56-34.64,9.83-56.8,9.83h-112ZM0,500H499.38V.62H0ZM240.64,156.68c30.3,0,45.56,11.14,45.56,33.39q0,17.28-11.64,26.91c-7.77,6.43-19,9.61-33.7,9.61H197.78V156.68Zm7.24,113.92H197.32v75.84h49.62c17,0,30.18-3.21,39.33-9.61S300,321.19,300,309.14c0-25.65-17.45-38.38-52.43-38.38Z"/><path class="cls-1" d="M764.67,109.86H870.16c31.06,0,55.25,6.21,72.1,18.67q25.56,18.67,25.59,53.68c0,13.36-3.05,24.94-9.17,34.64s-15.17,17.61-27.13,23.38q24.83,8.24,38.08,26.12t13.17,43.39c0,16.76-4.27,31.18-12.79,43.07q-12.78,18.07-36.52,27.9c-15.79,6.56-34.64,9.83-56.8,9.83H764.64ZM624.22,500H1123.6V.62H624.22ZM864.86,156.68c30.3,0,45.56,11.14,45.56,33.39q0,17.28-11.64,26.91c-7.77,6.43-19,9.61-33.71,9.61H822V156.68ZM872.1,270.6H821.54v75.84h49.62c17,0,30.18-3.21,39.33-9.61s13.76-15.64,13.76-27.69c0-25.65-17.45-38.38-52.43-38.38Z"/><path class="cls-1" d="M1566.79,387.64a166.55,166.55,0,0,0,40.58-15.2V319.07a150.83,150.83,0,0,1-80.53,22.72q-28.56,0-48.69-10.77a71.09,71.09,0,0,1-30.52-31.52q-10.53-20.6-10.52-49.94c0-19.5,3.62-36.2,10.89-49.62a74.09,74.09,0,0,1,31.21-31.18Q1499.63,158,1528.53,158a140.41,140.41,0,0,1,40,5.59,129.18,129.18,0,0,1,35.27,16.35V125.31a164.31,164.31,0,0,0-38.71-14,195.57,195.57,0,0,0-44.32-4.81q-33.71,0-60.86,10c-18.1,6.68-33.71,16.29-46.5,28.87a126.12,126.12,0,0,0-29.75,45.26c-6.86,17.57-10.3,37.14-10.3,59q0,33.53,9.93,60.24a123.83,123.83,0,0,0,28.56,45.26q18.63,18.5,45.57,28.31c18,6.55,38.07,9.83,60.55,9.83a204.27,204.27,0,0,0,48.37-5.59Zm181,111.74H1248.44V0h499.38Z"/></g></g></svg>