<svg xmlns="http://www.w3.org/2000/svg" viewBox="0 0 1433.48 500"><defs><style>.cls-1,.cls-2{fill:#fff;}.cls-1{fill-rule:evenodd;}</style></defs><g id="Calque_2" data-name="Calque 2"><g id="Calque_1-2" data-name="Calque 1"><g id="surface1"><path class="cls-1" d="M1364.33,212.72c-9.6,30.32-34.19,54-62.35,67.6-35.89,17.79-77.51,20.73-116.8,15.78-38.21-5-76.11-22.43-100.09-53.37-9.9-13-16.09-28.31-19.81-44.09-3.71-30-2.63-61.73,9.91-89.73a95.9,95.9,0,0,1,35.27-41.15c43-28.62,97.62-36.05,147.74-26.61,34.19,6.81,68.38,22.74,89.73,51.52C1373,126.7,1377.17,173.11,1364.33,212.72Zm69.15-42.55v-3.4a158.66,158.66,0,0,0-10.21-54.92c-13.46-35.12-40.84-63.89-74-81.37C1309.72,9.13,1265.16.31,1220.3,0h-3.87A369.59,369.59,0,0,0,1164,3.87c-47.5,7.42-94.37,27.84-126.86,64-24,26.92-35.43,63-36.05,98.55-2,41.46,16.56,82.46,46.26,110.92,32.49,30.48,75.65,47.5,119.12,54.3,56.78,8.67,116.65,3.25,169.55-19.8,32.34-14.08,61.27-37.75,78.44-68.84a150.23,150.23,0,0,0,19-72.87"/><path class="cls-1" d="M283.57,5.72c27.69.16,55.23-.61,82.92.31-63.58,43.32-126.55,87.41-189.82,131q98.62,96.77,197.71,192.76c-26.61.77-53.22,0-80,.31-53.53-54.46-106.75-109.38-160.58-163.68-24.45,17.48-49.2,34.19-73.64,51.67.31,37.28,0,74.57.15,112H.15Q-.07,167.93,0,5.72c20.27,0,40.38-.15,60.49,0-.31,53.22-.16,106.59-.16,160q111.86-79.83,223.24-160"/><path class="cls-1" d="M433.32,5.72c20.27-.15,40.38,0,60.65-.15q-.24,162.21,0,324.57c-20.27-.16-40.38,0-60.65,0q.24-162.21,0-324.42"/><path class="cls-1" d="M595.92,5.57c20.26.15,40.37,0,60.64.15-.31,53.38-.16,106.75,0,160.12,74.1-53.68,149-106.43,223.24-160.12,27.53.16,55.07-.61,82.61.31-63.59,43.32-126.4,87.41-189.67,131q98.4,96.77,197.56,192.6c-26.61.93-53.22.16-79.83.47C836.79,275.68,783.57,220.92,730,166.46c-24.59,17.17-49.35,34-73.64,51.52.16,37.43-.15,74.72.16,112.16H595.92V5.57"/><path class="cls-2" d="M493.81,498.14H473.24l-4.8-32c-.31-2.17-.46-4.64-.77-7.43s-.62-5.87-.78-9.12a69.66,69.66,0,0,1-3.09,11.75c-.31.93-.46,1.71-.62,2.17l-11,34.65H437.5l-11-34.65a12,12,0,0,1-.62-2.17,73.63,73.63,0,0,1-3.1-11.6c-.15,2.79-.46,5.42-.77,8.2s-.62,5.57-1.08,8.2l-4.64,32H395.73l12.53-73.94h21.81l12.23,38.05a7.24,7.24,0,0,0,.31,1.39,41.93,41.93,0,0,1,2.16,8.67,28.33,28.33,0,0,1,.93-4.33c.31-1.55.93-3.56,1.55-5.73l12.37-38.05h21.82Zm47.19,0V424.2h22.27v73.94Zm74.87,0V424.2h22v56.62h27.38v17.32Zm116.18-27.69h21.82l-8.2-24.29c-.16-.77-.62-2-.93-3.55-.46-1.71-1.08-3.87-1.86-6.35-.46,1.7-.92,3.56-1.39,5.11s-.93,3.25-1.39,4.79Zm-30.94,27.69,28-73.94h27.53l27.85,73.94H762.69l-4.18-13.3H727.26l-4.18,13.3Zm125.93,0V424.2h21.2l30.47,38.05a54.73,54.73,0,0,1,2.94,4.64c1.39,2.32,2.79,5.11,4.49,8.36-.47-3.1-.77-5.73-1.08-8.2-.16-2.32-.31-4.49-.31-6.34V424.2h21.19v73.94H884.75l-30.48-38.21a53.07,53.07,0,0,1-2.94-4.64c-1.39-2.32-2.78-5.1-4.33-8.2.46,3.1.77,5.73.93,8.2a46.75,46.75,0,0,1,.31,6.34v36.51Zm214-36.82a34.33,34.33,0,0,1-3.25,14.86,40.21,40.21,0,0,1-9.28,12.53,46.8,46.8,0,0,1-14.24,8.35,47.63,47.63,0,0,1-33,0,43.51,43.51,0,0,1-13.92-8.35,38.75,38.75,0,0,1-9.59-12.53,37.14,37.14,0,0,1,0-29.71,42.68,42.68,0,0,1,23.51-20.88,45.54,45.54,0,0,1,16.55-2.94,46.13,46.13,0,0,1,16.56,2.94,40.52,40.52,0,0,1,14.08,8.35,36.94,36.94,0,0,1,9.28,12.53A34.77,34.77,0,0,1,1041,461.32ZM997.83,483a20.19,20.19,0,0,0,15.17-6.19,21.65,21.65,0,0,0,5.87-15.47,21.38,21.38,0,0,0-6-15.47,21.5,21.5,0,0,0-30.17,0,21.14,21.14,0,0,0-6,15.47A22,22,0,0,0,982.52,477a20.75,20.75,0,0,0,15.31,6"/></g></g></g></svg>