<svg xmlns="http://www.w3.org/2000/svg" viewBox="0 0 953.83 500"><defs><style>.cls-1{fill:#fcfdfd;}</style></defs><g id="Calque_2" data-name="Calque 2"><g id="Calque_1-2" data-name="Calque 1"><path class="cls-1" d="M945,199.45C673.21,25.26,266.65,0,82.26,0,55.8,0,33.93.53,17.59,1.19h-.08C6.9,1.64,0,6.54,0,17V484.48C0,492.63,5.84,500,14.84,500H849.38c7.5,0,13.48-.68,17-10.57,0,0,84.58-264.69,86-269.48C955.57,210,953.53,204.88,945,199.45ZM257.32,382.55c-16.59,34.85-58,51-122.06,49.49-34.09-.78-74-13-93.41-22l15.67-33.87c26.34,13.26,59.76,20.95,86.57,21.58,30.95.7,52.23-5.83,58.73-19.61,8.36-17.76-15.41-31.33-45.49-45.59-37.88-18-81.6-39.75-66.19-78.51,13-32.68,63.58-48.11,119.53-46.82a236.46,236.46,0,0,1,42.41,4.46l-10.15,31.9a162.69,162.69,0,0,0-35.63-4.8c-27.91-.64-58.71,6-64.65,23.67-5,14.87,15.85,22.6,46.48,37.39C228.25,318.72,277,341.29,257.32,382.55ZM869.21,243.72H747.7l-17.6,54.9h102L821.71,331h-102l-26.55,83.63C683,420.09,642.06,432,596.77,432c-70.06,0-119.5-33.41-127.2-83.12-.11-.74-.68-1-1.57-1s-1.4.17-1.68,1L441,428H389.74C373,365.54,341.82,306.37,310.38,261.4L279.23,358c-.24.77-.66,1-1.53,1s-1.44-.17-1.72-1c-4.69-13.71-10.38-23.35-28.33-36.7l35.72-111.19h47.77c39,48.39,70.87,107.67,86.36,152.75l48.69-152.75h44.49l-15.22,47.73c-.25.83.38,1,1.32,1a3.05,3.05,0,0,0,2.52-1c30.38-32.7,77.24-51.25,131.13-51.25,17.4,0,35.15.95,49.79,3.2l-12,35.21a305.85,305.85,0,0,0-37.82-2.31c-60.77,0-106.19,29.5-113.07,76.17-2.88,19.57,1.74,37.12,13.42,50.73,15.49,18.13,42.87,26.25,77.06,26.25,15.88,0,31.08-1.52,43.37-4.62l57.94-181.11H879.8Z"/></g></g></svg>