<svg xmlns="http://www.w3.org/2000/svg" viewBox="0 0 1624.6 500"><defs><style>.cls-1{fill:#fcfdfd;}</style></defs><g id="Calque_2" data-name="Calque 2"><g id="Calque_1-2" data-name="Calque 1"><path class="cls-1" d="M163.51,0c-53.32,0-81.75,3.56-94.2,3.56C48.58,3.56,30.22,3,11.84,3,1.78,3,0,3.56,0,7.71c0,7.1,2.37,7.7,29,7.7,16.58,0,26.07,5.33,26.07,52.13V340.07c0,8.88-1.19,10.07-27.85,10.07-13,0-16.59,1.18-16.59,7.11s4.15,6.51,10.08,6.51c19,0,32-2.36,56.87-2.36,26.06,0,51,5.91,75.83,5.91,82.36,0,137.46-31.39,137.46-97.74,0-51.54-35-71.69-62.81-85.92-11.85-5.92-23.11-8.88-23.11-10.06,0-1.77,13-8.3,24.3-16,19-13,44.44-33.78,44.44-75.84S240.54,0,163.51,0Zm1015.1.68c-3.09,0-22.67,8.76-62.87,11.34-8.75.51-12.88,0-12.88,6.18,0,5.67,5.16,6.7,14.43,6.7,23.18,0,26.28,0,26.28,32.46V341.29c0,9.28-8.76,8.76-29.89,8.76-12.37,0-12.88,3.1-12.88,6.71,0,4.12,1,5.15,12.88,5.15,7.21,0,34.53-1,52-1,9.29,0,20.62,1,28.35,1,18.55,0,22.16,0,22.16-5.15,0-4.13,1-7.22-24.74-7.22-9.27,0-12.88-5.67-12.88-48.44,0-15,2.58-55.65,2.58-252,0-15.46,2.57-34,2.57-40.21,0-5.66-2.58-8.24-5.15-8.24ZM750.8,1.19c-4.64,0-35,11.33-72.15,11.33-5.67,0-6.7,2.07-6.7,7.22,0,3.61,2.06,5.16,23.18,5.16,13.92,0,18,4.64,18,41.22,0,108.74-1.55,261.26-1.55,276.2,0,7.73-4.63,7.73-22.15,7.73-12.37,0-14.94,2.58-14.94,6.71,0,4.63,3.09,5.15,14.94,5.15,7.21,0,26.28-1,43.81-1,16.49,0,40.18,1,47.91,1,11.34,0,13.92,0,13.92-5.15,0-4.13-2.06-6.71-13.92-6.71-31.94,0-30.91,0-30.91-24.21V293.38c0-4.64,7.21-8.25,15.46-13.41,8.75-5.67,16-10.82,18-10.82,3.09,0,24.74,32.47,46.38,57.21S856.43,364,865.72,364c7.21,0,22.67-.51,28.85-.51,4.64,0,11.33.51,17.52.51,11.33,0,14.94-1,14.94-4.64,0-4.12-4.12-6.7-16.48-6.7-17.52,0-34-25.25-51.54-46.37-36.07-43.29-45.34-53.08-45.34-57.72,0-3.61,32-26.27,57.72-51.53,16-15.46,33.48-37.61,33.48-42.25,0-1.55-2.06-2.07-6.18-2.07-6.18,0-36.07,1.54-42.77,1.54-6.19,0-16-1.54-21.12-1.54-6.7,0-9.28,1-9.28,5.16,0,4.64,2.58,5.67,10.31,5.67,22.66,0,24.21,1,24.21,9.27,0,10.82-4.64,19.59-24.73,38.65-16.49,15.46-70.09,62.87-83,62.87-1.55,0-2.06-1.55-2.06-3.61,0-84,3.08-141.71,3.08-220,0-16.49,1-38.15,1-44.84,0-3.09-1-4.64-3.6-4.64Zm-605.07,13c53.91,0,78.8,56.88,78.8,86.5,0,46.8-19.55,58.06-36.73,71.1,0,0-24.89-3.56-61-3.56-14.22,0-21.92,1.18-21.92-8.3V31.41c0-11.85,1.78-17.19,40.88-17.19ZM405.54,147.54c-46.89,0-95.85,43.29-95.85,115.94,0,86.06,62.87,106.68,105.12,106.68,41.74,0,85.54-32.48,85.54-35.05,0-1-1.54-4.12-4.12-4.12-3.09,0-21.64,12.37-55.65,12.37-39.16,0-94.31-19.07-94.31-90.18,0-11.85,1.55-14.43,9.81-14.94,58.73-3.61,110.26-14.94,123.66-18,13.92-3.09,21.14-5.15,21.14-7.22,0-4.12-8.26-16.49-17-26.79-18.55-21.64-51.52-38.65-78.32-38.65Zm600.86,0c-46.89,0-95.85,43.29-95.85,115.94,0,86.06,62.86,106.68,105.12,106.68,41.73,0,85.54-32.48,85.54-35.05,0-1-1.55-4.12-4.12-4.12-3.09,0-21.65,12.37-55.66,12.37-39.16,0-94.29-19.07-94.29-90.18,0-11.85,1.54-14.43,9.78-14.94,58.75-3.61,110.27-14.94,123.68-18,13.91-3.09,21.13-5.15,21.13-7.22,0-4.12-8.24-16.49-17-26.79-18.55-21.64-51.53-38.65-78.33-38.65Zm297.22,0c-46.9,0-95.85,43.29-95.85,115.94,0,86.06,62.87,106.68,105.12,106.68,41.74,0,85.54-32.48,85.54-35.05,0-1-1.55-4.12-4.12-4.12-3.09,0-21.64,12.37-55.65,12.37-39.16,0-94.3-19.07-94.3-90.18,0-11.85,1.55-14.43,9.79-14.94,58.74-3.61,110.27-14.94,123.67-18,13.91-3.09,21.13-5.15,21.13-7.22,0-4.12-8.24-16.49-17-26.79-18.55-21.64-51.54-38.65-78.33-38.65Zm-718.76,3.6c-8.25,0-18,2.58-26.28,2.58-10.31,0-20.1-1-37.62-1-8.77,0-8.25,1.56-8.25,7.74,0,5.67,0,5.16,9.28,5.16,28.86,0,27.82,1,27.82,36.06v141.2c0,7.21-1.54,7.73-22.67,7.73-12.37,0-12.88,1-12.88,6.19s1,5.15,12.88,5.15c7.22,0,24.74-2.58,42.26-2.58,16.49,0,51,2.58,58.23,2.58,13.4,0,13.91.52,13.91-5.15,0-4.65-.51-6.19-13.91-6.19-38.13,0-39.67,0-39.67-25.25V219.16c0-21.64,11.33-34,41.21-34,25.77,0,32,21.13,39.17,21.13,3.09,0,11.33-22.67,11.33-27.83,0-13.39-23.7-24.74-33-24.74-24.22,0-48.43,26.8-56.16,26.8-2.06,0-2.57-3.6-2.57-8.24,0-1.55,1-12.88,1-15.46,0-4.13-2.06-5.67-4.12-5.67Zm1028.92.51c-7.21,0-21.12,2.07-28.85,2.07-13.92,0-23.2-1-37.11-1-9.27,0-10.82,0-10.82,6.7,0,5.15,2.06,5.16,18,5.16,17.51,0,17.51,3.09,17.51,18.54,0,7.22-18.55,60.81-30.91,97.91-8.24,24.23-11.34,31.44-14.94,31.44-2.07,0-8.25-8.76-12.38-19.58-30.91-79.37-44.31-97.4-44.31-112.35,0-11.84,3.09-14.94,15.45-14.94,10.82,0,12.89-.51,12.89-5.15,0-5.68-2.07-7.73-12.89-7.73-16.48,0-34.52,1.54-49,1.54-12.36,0-16-1-30.4-1-9.27,0-10.81,2.58-10.81,7.22s.51,5.15,10.81,5.15c9.28,0,12.89,2.58,25.77,33.5,28.34,67,69.56,162.32,69.56,168,0,15.45-44.3,76.26-62.86,99.44-17.52,22.16-41.74,25.26-41.74,28.35,0,2.58,5.15,5.15,13.91,5.15,11.34,0,14.94-4.12,30.4-6.18,11.34-1.55,17.52-2.06,23.19-13.4,16.49-34,39.68-75.75,72.15-154.59,40.7-98.93,63.38-160.77,74.72-160.77,6.18,0,13.39-2.58,13.39-7.22,0-5.67-2.58-6.19-10.82-6.19Zm-1213.4,6.71c23.71,0,54.11,38.13,54.11,51,0,3.09-.51,4.12-6.18,5.15-38.65,6.19-66.47,12.9-93.27,12.9-6.19,0-6.19-.52-6.19-3.1,0-7.22,12.38-66,51.53-66Zm600.85,0c23.71,0,54.12,38.13,54.12,51,0,3.09-.52,4.12-6.19,5.15-38.65,6.19-66.47,12.9-93.26,12.9-6.19,0-6.19-.52-6.19-3.1,0-7.22,12.36-66,51.52-66Zm297.22,0c23.71,0,54.12,38.13,54.12,51,0,3.09-.52,4.12-6.19,5.15-38.65,6.19-66.47,12.9-93.27,12.9-6.18,0-6.19-.52-6.19-3.1,0-7.22,12.37-66,51.53-66ZM126.22,179.5c64.57,0,108.41,41.48,108.41,94.8,0,51.54-33.17,82.36-78.19,82.36-19,0-37.92-4.15-44.44-11.27-5.33-5.92-7.11-39.09-7.11-44.43V194.9c0-13,4.75-15.4,21.34-15.4ZM420,421.35c-12.17,0-22.32,7.35-22.32,19.52,0,23.12,30.47,19,30.47,31.87,0,5.13-3.93,9.55-11.87,9.55-5.33,0-12.06-2.5-17.7-6.32l-5,8.85c5.63,3.91,13.27,7.64,22.72,7.64,13.18,0,24.14-8.46,24.14-20.12,0-23.43-30.47-16.39-30.47-32,0-5.13,3.42-8.84,10.06-8.84,5.93,0,10.55,2,15.68,4.62l4.33-8.65a38.43,38.43,0,0,0-20-6.13Zm242.92,0c-20.71,0-30,14.79-30,35.51,0,19.71,9.15,35.6,30,35.6s30-15.89,30-35.6C692.89,436.14,683.64,421.35,662.92,421.35Zm161.49,0c-20.72,0-30.88,14.89-30.88,35.61,0,21.12,9.26,35.5,30.47,35.5,9.26,0,17.91-3.83,24.94-10.26l-6.13-7.84c-5.63,5.13-12.07,7.93-18.2,7.93-12.78,0-18.81-9.14-18.81-25.43s6.44-25.34,18.61-25.34c6.53,0,11.36,2.31,16.69,6.73l6.23-8c-7.24-5.94-14.38-8.85-22.92-8.85Zm261.82,0c-20.72,0-30,14.79-30,35.51,0,19.71,9.14,35.6,30,35.6s30-15.89,30-35.6C1116.2,436.14,1106.94,421.35,1086.23,421.35Zm-962.31,1-11.57,1.21v67.78h12V445.1h.2l29.06,46.25h10.66V422.46h-12v45.27H152l-28-45.37Zm153.52,0v69h41.84l.91-10.16H289.41v-19.5h25.85V451.53H289.41v-19h29.07V422.36Zm430.85,0v69h12V461.69H745.6V451.53H720.25v-19h28.26V422.36Zm185,0-14,1.11-24.24,67.88h11.16l5.73-16.6h27.76l5.73,16.6h12.28l-24.45-69Zm115,0v69h12V461.69h25.34V451.53h-25.34v-19h28.26V422.36Zm188.43,0-11.57,1.21v67.78h12V445.1h.21l29.05,46.25h10.66V422.46h-12v45.27h-.31l-28-45.37Zm115.32,0-14,1.11-24.24,67.88H1285l5.73-16.6h27.75l5.73,16.6h12.28l-24.44-69Zm-1267.33.1v45c0,15.49,8.55,25,25.45,25s25.34-9.56,25.34-25.14V422.46h-12v45.66c0,8.55-3.62,14.17-13.37,14.17S56.71,476.67,56.71,468V422.46Zm136.55,0v68.89h12V422.46Zm23.72,0,23.74,68.89h13.16l23.84-68.89H254L240.81,461s-1.3,3.92-4.72,15.69h-.61c-3.32-11.77-4.62-15.79-4.62-15.79l-13.18-38.42Zm131,0v68.89h12V463.79h5.73c4.33,0,6.84,4,8.85,8.16l9.55,19.4H385.3l-13.18-24.84a10.86,10.86,0,0,0-4.22-4.73v-.2c9.05-3.42,13-10.45,13-18.7,0-12-7.55-20.42-22.74-20.42Zm118.65,0v68.89h12V422.46Zm25.73,0v10.26h18.21v58.63h12V432.62H528l.91-10.16Zm56.31,0,21.73,39.42v29.47h12V461.88l21.73-39.42H578.94l-9.75,19.62s-1.2,2.51-4.62,10.15h-.3c-3.62-7.64-4.93-10.15-4.93-10.15l-9.15-19.62Zm390.73,0v68.89h40.73l.91-10.16H939.41V422.46Zm53.29,0v68.89h12V422.46Zm145.79,0v68.89h12V463.79h5.73c4.32,0,6.84,4,8.85,8.16l9.55,19.4h13.18l-13.18-24.84a10.86,10.86,0,0,0-4.22-4.73v-.2c9-3.42,13-10.45,13-18.7,0-12-7.55-20.42-22.74-20.42Zm125.59,0v68.89h12V422.46ZM662.9,431.52c11.87,0,17.6,10.35,17.6,25.34s-5.82,25.43-17.6,25.43-17.69-10.45-17.69-25.54,5.83-25.23,17.69-25.23Zm423.3,0c11.87,0,17.6,10.35,17.6,25.34s-5.83,25.43-17.6,25.43-17.69-10.45-17.69-25.54,5.82-25.23,17.69-25.23ZM348,432.72h9.85c8.15,0,10.77,3.82,10.77,10.26s-3.32,10.76-10.57,10.76H348v-21Zm790.5,0h9.85c8.15,0,10.77,3.82,10.77,10.26s-3.32,10.76-10.57,10.76h-10v-21Zm-252.88,1.81h.2c4.73,14.28,5.53,16.49,5.53,16.49l5.33,15.19H874.85L880.18,451S881,448.81,885.61,434.53Zm418.77,0h.2c4.73,14.28,5.54,16.49,5.54,16.49l5.32,15.19h-21.82L1299,451S1299.76,448.81,1304.38,434.53Z"/></g></g></svg>