<svg xmlns="http://www.w3.org/2000/svg" viewBox="0 0 890.03 500"><defs><style>.cls-1{fill:#fff;}</style></defs><g id="Calque_2" data-name="Calque 2"><g id="Calque_1-2" data-name="Calque 1"><path class="cls-1" d="M890,285.3c-1.74-.13-3.48-.36-5.22-.36H.06V107.33H890ZM261.15,209.87c-.87-1.28-1.15-1.68-1.42-2.09q-23.61-36.47-47.26-72.93c-.71-1.1-1.79-2.74-2.75-2.77-7.13-.24-14.28-.13-21.38-.13V260.1H213.4V182.24l2.57,3.89q23.06,35.72,46.16,71.4c.73,1.13,2,2.62,3.13,2.66,7,.24,14,.12,21.06.12V132.21H261.15Zm164.44,50.31c17.45,0,34.63.73,51.72-.18,23.51-1.24,38.73-15.89,40.64-39.31a323,323,0,0,0,.47-46.45c-1.62-25.94-17.14-41-42.87-42.15-16.37-.74-32.81-.11-49.21-.08-.21,0-.42.24-.75.44Zm-33.5-75.8H341.7v-30.1h59.39V132.16H316.54v128h84.39V237.59H341.68V206.93h50.41Zm-224.72-13c-2.36-6.21-3.91-12.26-6.82-17.56-10-18.22-26.55-24.21-46.23-22.82-19.17,1.35-38.85,14.69-41.39,38.29a236.08,236.08,0,0,0,.26,55.09,38.18,38.18,0,0,0,10.72,22.42c11.73,12,26.14,15.87,42.47,14.23,21-2.1,38.29-19.44,39.84-40.25H141c-.41,1.22-.71,2.18-1,3.13-3.61,10.24-12.26,16-22.3,15-11.36-1.22-18.7-7.55-19.26-19.11-.78-16.07-.66-32.22.1-48.3.47-10,8-16.84,17.47-17.94,10.94-1.27,19.2,3.28,23.22,12.84.71,1.7,1.31,3.44,1.91,5Z"/><path class="cls-1" d="M0,500V411.32H810.28V500Z"/><path class="cls-1" d="M744.78,0V88.29H0V0Z"/><path class="cls-1" d="M638.94,303.87V392.3H0V303.87Z"/><path class="cls-1" d="M450.79,154.41c7.22,0,14-.21,20.84.05,11.92.45,19.72,7.5,21.07,20.08a178.79,178.79,0,0,1-.47,45.64c-1.48,9.89-8.74,16.71-18.62,17.31-7.52.45-15.09.09-22.82.09Z"/></g></g></svg>