<svg xmlns="http://www.w3.org/2000/svg" viewBox="0 0 1320.56 500"><defs><style>.cls-1{fill:#fff;}</style></defs><g id="Calque_2" data-name="Calque 2"><g id="Calque_1-2" data-name="Calque 1"><polygon class="cls-1" points="1320.57 179.34 1261.81 179.37 1202.32 76.13 1202.32 178.54 1143.24 178.54 1143.24 1.14 1202.79 1 1261.44 104.68 1261.44 1.59 1320.57 1.59 1320.57 179.34"/><polygon class="cls-1" points="588.02 105.66 588.02 178.51 528.97 178.51 528.97 1.41 587.99 1.41 587.99 75.14 646.8 1.45 712.15 1.45 638.11 90.24 712.14 179.49 646.77 179.49 588.02 105.66"/><polygon class="cls-1" points="905.9 1.36 905.9 30.61 787.9 30.61 787.9 75.45 876.25 75.45 876.25 105.29 787.86 105.29 787.86 149.38 905.88 149.38 905.88 178.66 728.48 178.66 728.48 1.36 905.9 1.36"/><path class="cls-1" d="M935.61,1.21H1113V30.88H995.2V75.45h88.26v29.69h-88.2v44H1113v29.39H935.61Z"/><path class="cls-1" d="M693.07,430c0-14.6.22-29.2-.07-43.79-.19-9.89,4.53-16.23,13.22-19.77,4.31-1.76,9-3.56,13.57-3.58q43.69-.22,87.38.58c4.47.08,9.1,2.39,13.27,4.45,6.78,3.36,10.3,9.18,10.3,16.85q0,45.48,0,91c0,8.93-4.59,15.37-12.67,18s-17,4.91-25.54,5.09c-22.88.5-45.78-.1-68.67-.54A49.68,49.68,0,0,1,711.33,496c-14.05-4-18.25-9.72-18.25-24.15Q693.07,450.93,693.07,430Zm46.3-45.23v91h44.94v-91Z"/><path class="cls-1" d="M1059.16,475.88H1105c0-6.51.3-13.17-.23-19.76-.11-1.47-2.91-3.43-4.8-3.94-18.61-5.06-37.4-9.49-55.91-14.89-8.32-2.43-16.24-6.38-24.11-10.11-4.79-2.28-7-6.39-6.77-12.09.36-9.64.2-19.32.07-29-.12-9.13,4-15.58,12.24-19.07,4.29-1.81,8.94-3.86,13.45-3.9,29.58-.24,59.17-.17,88.74.38,4.65.08,9.49,2.63,13.81,4.86,6.22,3.22,9.48,8.7,9.46,15.91,0,7.4,0,14.8,0,22.69h-45.7v-22.1h-45.7v22.47c18.38,4.68,36.72,8.95,54.8,14.1,9.65,2.75,19,6.74,28.23,10.67,6.1,2.59,9,7.34,8.52,14.49.05,10.85.05,17.41-.07,27.62.34,10.21-4.49,17.05-13.73,20-7.83,2.46-16.16,4.48-24.3,4.63-22.89.42-45.8-.13-68.7-.53a49.75,49.75,0,0,1-11.91-2.07c-14.5-3.94-19.1-10.08-19.1-25,0-5.83,0-11.65,0-17.9h45.85Z"/><path class="cls-1" d="M670,362.1V498.85H624.56V442.31h-46v56.51H533.08v-137h45.44v56.83h45.65V362.1Z"/><path class="cls-1" d="M990.85,362c0,38.43,0,76.39,0,114.36,0,9-5.05,15.09-13.13,17.66-7.84,2.48-16.14,4.63-24.28,4.78-23.34.43-46.71-.11-70.07-.56-4.18-.08-8.44-1.25-12.5-2.46-13.43-4-17.75-10-17.75-24,0-36.4,0-72.8,0-109.68h46.11V475.76h45.32V362Z"/><path class="cls-1" d="M1288.37,418.86V442H1220.1v34h91.06v22.87H1174.34v-137H1311v22.33h-90.85v34.6Z"/><path class="cls-1" d="M954.4,279.84c4.18-16.89,7.93-32,11.67-47.18H991c4.68,15.24,9.33,30.35,14.51,47.21,4.15-16.87,7.83-31.81,11.58-47h24.06c-.4,1.67-.64,3.3-1.17,4.84-8.08,23.78-26.33,76.86-26.33,76.86l-26.15-.27s-9.79-28.88-11.89-35.7c-3.62,10.05-12.2,35.7-12.2,35.7l-27.66.27s-18.54-56.22-24.91-75.85c-.61-1.88-1.06-3.82-1.67-6H939C943.93,247.75,948.91,263,954.4,279.84Z"/><path class="cls-1" d="M1197.63,273.12c12.43,4.25,14.11,6.57,14.13,17.26v23.33h-27.25V280.32H1157.6V313.8h-26.91V232.38h10.2c15.29,0,30.57-.09,45.86.13a63.29,63.29,0,0,1,14,1.7c8.29,2,10.88,5.89,11,14.45,0,2.55,0,3.78,0,5.39C1212,268,1210.17,271.05,1197.63,273.12Zm-13.3-26.58h-26.41v19.38h26.41Z"/><path class="cls-1" d="M534.48,287h27.27v13h26.49c.31-.53.69-.87.71-1.23.54-11.64.5-11.53-10.56-14.54q-17.17-4.68-34.23-9.82c-7-2.12-9.28-6.31-9.78-14.47a96.44,96.44,0,0,1,.1-10.77c.32-9,3.11-14.45,12-14.93a546.68,546.68,0,0,1,57.68,0c9.28.49,12.16,5.8,12.18,15.38,0,3.11,0,6.21,0,9.7H589.3V246.48H562.8c-.26.43-.64.78-.67,1.16-.73,11.86-.68,11.71,10.94,14.81q16.89,4.51,33.6,9.6c6.92,2.12,10,4.86,9.78,14.47a66.77,66.77,0,0,1-.1,10.76c-.72,9.33-2.51,14.36-11.81,14.91a494.83,494.83,0,0,1-58.28,0c-9.26-.55-11.74-5.57-11.78-15C534.47,293.9,534.48,290.59,534.48,287Z"/><path class="cls-1" d="M630,273c0-8.53.12-17.07,0-25.61-.12-6.29,3-10.12,8.58-12.24a17.48,17.48,0,0,1,5.81-1.55c17.69-.13,35.43-.9,53,.21,11.51.72,14.41,5.54,14.41,16.94q0,23.25,0,46.49c0,9.39-2.64,12.77-11.77,15.29a17.74,17.74,0,0,1-4.6.93c-16.37.07-32.78.66-49.12-.15-12.69-.64-16.32-5.54-16.32-18.07Zm54.12-26.4H657.63V300h26.49Z"/><path class="cls-1" d="M1307.11,300.23v13.49H1226V232.64H1307V245.9h-53.5v20.42h40v13.81h-40v20.1Z"/><path class="cls-1" d="M1123.67,314.2c-9.65,0-30.3.06-30.3.06l-5.54-13.61-17.56-.09-4.21,13.7s-16.51.06-24.22.06l27.88-81.9,26.71,0S1114.94,287.38,1123.67,314.2Zm-39.18-27.53c-2.1-6.58-4-12.43-6.38-20l-4.87,20Z"/><path class="cls-1" d="M725.51,232.54h80.88v13.35H752.88v20.45h40v13.77H752.58v33.74H725.51Z"/><path class="cls-1" d="M875.34,246.09v67.54H848V246.28H820.89V232.85H902v13.24Z"/><polygon class="cls-1" points="49.7 247.13 33.82 249.19 49.7 247.13 49.7 247.13"/><polygon class="cls-1" points="16.91 249.16 49.7 244.9 49.7 242.66 33.25 244.8 0 249.12 33.23 253.59 49.7 255.8 49.7 253.56 16.91 249.16"/><polygon class="cls-1" points="33.82 249.19 49.7 247.13 49.7 244.9 16.91 249.16 49.7 253.56 49.7 251.33 33.82 249.19"/><polygon class="cls-1" points="250.46 16.91 254.62 49.01 256.86 49.01 254.81 33.25 250.49 0 246.02 33.23 243.9 49.01 246.14 49.01 250.46 16.91"/><polygon class="cls-1" points="250.42 33.82 252.39 49.01 254.62 49.01 250.46 16.91 246.14 49.01 248.37 49.01 250.42 33.82"/><polygon class="cls-1" points="249.76 466.18 249.76 466.18 251.96 449.84 251.95 449.84 249.76 466.18"/><polygon class="cls-1" points="249.72 483.09 245.4 449.84 243.17 449.84 245.36 466.75 249.68 500 254.15 466.77 256.43 449.84 254.19 449.84 249.72 483.09"/><polygon class="cls-1" points="249.76 466.18 249.76 466.18 249.76 466.18 247.63 449.84 245.4 449.84 249.72 483.09 254.19 449.84 251.96 449.84 249.76 466.18"/><polygon class="cls-1" points="466.2 249.19 450.53 247.16 450.53 247.16 466.2 249.19"/><polygon class="cls-1" points="500.03 249.12 466.77 244.8 450.53 242.69 450.53 244.92 483.12 249.16 450.53 253.54 450.53 255.78 466.79 253.59 500.03 249.12"/><polygon class="cls-1" points="466.2 249.19 450.53 251.3 450.53 253.54 483.12 249.16 450.53 244.92 450.53 247.16 466.2 249.19"/><polygon class="cls-1" points="413.15 87.09 345.73 175.16 348.52 175.16 405.97 100.12 423.86 76.76 399.88 93.82 324.38 147.54 324.38 150.26 413.15 87.09"/><polygon class="cls-1" points="402.45 97.43 342.94 175.16 345.73 175.16 413.15 87.09 324.38 150.26 324.38 152.98 402.45 97.43"/><polygon class="cls-1" points="87.17 87.39 175.86 150.5 175.86 147.78 100.44 94.12 76.46 77.06 94.35 100.42 151.57 175.16 154.37 175.16 87.17 87.39"/><polygon class="cls-1" points="97.87 97.73 175.86 153.22 175.86 150.5 87.17 87.39 154.37 175.16 157.16 175.16 97.87 97.73"/><polygon class="cls-1" points="413.3 410.62 324.38 347.34 324.38 350.06 400.03 403.89 424.01 420.95 406.12 397.59 349.54 323.68 346.75 323.68 413.3 410.62"/><polygon class="cls-1" points="402.6 400.28 324.38 344.62 324.38 347.34 413.3 410.62 346.75 323.68 343.95 323.68 402.6 400.28"/><polygon class="cls-1" points="87.32 410.32 153.64 323.68 150.85 323.68 94.5 397.29 76.61 420.65 100.59 403.59 175.86 350.04 175.86 347.32 87.32 410.32"/><polygon class="cls-1" points="98.02 399.98 156.43 323.68 153.64 323.68 87.32 410.32 175.86 347.32 175.86 344.6 98.02 399.98"/><path class="cls-1" d="M334.56,271.37V227.63l5,.65L446.1,242.12V179.6h-101l-1.92,2.5-1.33,1.74H314.11l.23-4.64L315.46,156l.1-2.15,1.76-1.24,2.62-1.87V53.44H257.43l13.9,107,.65,5H228.25l.67-5,14.39-107h-63v97.49l2.71,1.94,1.76,1.24.1,2.15L186,179.49l.23,4.65H158.45l-1.33-1.74L155,179.6H54.13v62.49l106.33-13.81,5-.65v43.74l-5-.68L54.13,256.4v62.85H154.25l3-3.94,1.34-1.74h27.76l-.23,4.65L185,341.45l-.1,2.15-1.76,1.25-2.86,2V445.4h62.3L228.84,339.54l-.65-5h43.74l-.68,5L257,445.4h62.92V346.91l-2.47-1.76-1.76-1.25-.1-2.15-1.12-23.23-.23-4.65H342l1.33,1.74,2.79,3.64h100V256.37L339.58,270.69Zm-84.25,50.32a72.29,72.29,0,1,1,72.28-72.29A72.3,72.3,0,0,1,250.31,321.69Z"/><polygon class="cls-1" points="161.03 232.67 161.03 232.67 54.13 246.56 54.13 246.56 161.03 232.67"/><polygon class="cls-1" points="165.47 271.37 165.47 266.3 165.47 232.67 165.47 227.63 160.46 228.28 54.13 242.09 54.13 244.32 163.25 230.15 163.25 268.83 54.13 254.16 54.13 256.4 160.44 270.69 165.47 271.37"/><polygon class="cls-1" points="163.25 230.15 54.13 244.32 54.13 246.56 161.03 232.67 161.03 232.67 161.03 266.3 54.13 251.93 54.13 254.16 163.25 268.83 163.25 230.15"/><polygon class="cls-1" points="228.25 165.47 233.31 165.47 266.94 165.47 271.98 165.47 271.33 160.46 257.43 53.44 255.2 53.44 269.46 163.25 230.78 163.25 245.54 53.44 243.31 53.44 228.92 160.44 228.25 165.47"/><polygon class="cls-1" points="269.46 163.25 255.2 53.44 252.96 53.44 266.94 161.03 233.31 161.03 247.78 53.44 245.54 53.44 230.78 163.25 269.46 163.25"/><polygon class="cls-1" points="252.55 445.4 252.55 445.4 266.86 338.97 252.55 445.4"/><polygon class="cls-1" points="271.93 334.53 266.86 334.53 233.24 334.53 228.19 334.53 228.84 339.54 242.59 445.4 244.82 445.4 230.71 336.75 269.39 336.75 254.79 445.4 257.02 445.4 271.25 339.56 271.93 334.53"/><polygon class="cls-1" points="230.71 336.75 244.82 445.4 247.06 445.4 233.24 338.97 266.86 338.97 252.55 445.4 254.79 445.4 269.39 336.75 230.71 336.75"/><polygon class="cls-1" points="338.99 232.67 446.1 246.58 446.1 246.58 338.99 232.67 338.99 232.67"/><polygon class="cls-1" points="336.78 230.15 446.1 244.35 446.1 242.12 339.56 228.28 334.56 227.63 334.56 232.67 334.56 266.3 334.56 271.37 339.58 270.69 446.1 256.37 446.1 254.13 336.78 268.83 336.78 230.15"/><polygon class="cls-1" points="338.99 232.67 338.99 232.67 446.1 246.58 446.1 244.35 336.78 230.15 336.78 268.83 446.1 254.13 446.1 251.9 338.99 266.3 338.99 232.67"/><polygon class="cls-1" points="318.76 179.41 319.94 179.41 319.94 156.14 319.89 156.18 318.76 179.41"/><polygon class="cls-1" points="315.56 153.81 315.46 155.96 314.34 179.19 314.11 183.84 318.76 183.84 339.69 183.84 341.87 183.84 343.2 182.1 345.12 179.6 342.33 179.6 340.78 181.63 316.44 181.63 317.72 155 319.94 153.42 319.94 150.7 317.32 152.57 315.56 153.81"/><polygon class="cls-1" points="316.44 181.63 340.78 181.63 342.33 179.6 319.94 179.6 319.94 179.41 318.76 179.41 319.89 156.18 319.94 156.14 319.94 153.42 317.72 155 316.44 181.63"/><polygon class="cls-1" points="181.56 179.71 180.43 156.48 180.29 156.37 180.29 179.6 160.55 179.6 160.63 179.71 181.56 179.71"/><polygon class="cls-1" points="158.45 184.14 160.63 184.14 181.56 184.14 186.21 184.14 185.98 179.5 184.86 156.26 184.76 154.11 183 152.87 180.29 150.93 180.29 153.65 182.59 155.29 183.88 181.92 159.54 181.92 157.76 179.6 154.97 179.6 157.12 182.4 158.45 184.14"/><polygon class="cls-1" points="183.88 181.92 182.59 155.29 180.29 153.65 180.29 156.37 180.43 156.48 181.56 179.71 160.63 179.71 160.55 179.6 157.76 179.6 159.54 181.92 183.88 181.92"/><polygon class="cls-1" points="318.91 318.3 319.94 339.65 319.94 319.25 340.56 319.25 339.83 318.3 318.91 318.3"/><polygon class="cls-1" points="342.02 313.87 339.83 313.87 318.91 313.87 314.26 313.87 314.49 318.52 315.61 341.75 315.71 343.9 317.46 345.14 319.94 346.91 319.94 344.19 317.87 342.72 316.58 316.09 340.93 316.09 343.35 319.25 346.14 319.25 343.35 315.61 342.02 313.87"/><polygon class="cls-1" points="316.58 316.09 317.87 342.72 319.94 344.19 319.94 339.65 318.91 318.3 339.83 318.3 340.56 319.25 343.35 319.25 340.93 316.09 316.58 316.09"/><polygon class="cls-1" points="181.71 318 160.78 318 159.83 319.25 180.29 319.25 180.29 341.44 180.58 341.24 181.71 318"/><polygon class="cls-1" points="184.91 343.6 185.01 341.45 186.13 318.22 186.36 313.57 181.71 313.57 160.78 313.57 158.59 313.57 157.26 315.31 154.25 319.25 157.03 319.25 159.69 315.79 184.03 315.79 182.74 342.42 180.29 344.17 180.29 346.88 183.15 344.85 184.91 343.6"/><polygon class="cls-1" points="184.03 315.79 159.69 315.79 157.03 319.25 159.83 319.25 160.78 318 181.71 318 180.58 341.24 180.29 341.44 180.29 344.17 182.74 342.42 184.03 315.79"/><polygon class="cls-1" points="51.92 321.47 51.92 256.1 49.7 255.8 49.7 319.25 49.7 323.68 54.13 323.68 150.85 323.68 152.55 321.47 51.92 321.47"/><polygon class="cls-1" points="322.16 447.62 256.72 447.62 256.43 449.84 319.94 449.84 324.38 449.84 324.38 445.4 324.38 350.06 322.16 348.49 322.16 447.62"/><polygon class="cls-1" points="178.07 51.23 243.6 51.23 243.9 49.01 180.29 49.01 175.86 49.01 175.86 53.44 175.86 147.78 178.07 149.36 178.07 51.23"/><polygon class="cls-1" points="178.07 447.62 178.07 348.46 175.86 350.04 175.86 445.4 175.86 449.84 180.29 449.84 243.17 449.84 242.88 447.62 178.07 447.62"/><polygon class="cls-1" points="448.31 321.47 347.84 321.47 349.54 323.68 446.1 323.68 450.53 323.68 450.53 319.25 450.53 255.78 448.31 256.07 448.31 321.47"/><polygon class="cls-1" points="448.31 177.38 448.31 242.4 450.53 242.69 450.53 179.6 450.53 175.16 446.1 175.16 348.52 175.16 346.82 177.38 448.31 177.38"/><polygon class="cls-1" points="51.92 177.38 153.27 177.38 151.57 175.16 54.13 175.16 49.7 175.16 49.7 179.6 49.7 242.66 51.92 242.38 51.92 177.38"/><polygon class="cls-1" points="322.16 51.23 322.16 149.12 324.38 147.54 324.38 53.44 324.38 49.01 319.94 49.01 256.86 49.01 257.14 51.23 322.16 51.23"/><polygon class="cls-1" points="51.92 246.84 51.92 246.84 49.7 247.13 49.7 247.13 51.92 246.84"/><polygon class="cls-1" points="51.92 244.61 51.92 242.38 49.7 242.66 49.7 244.9 51.92 244.61"/><polygon class="cls-1" points="51.92 253.86 49.7 253.56 49.7 255.8 51.92 256.1 51.92 253.86"/><polygon class="cls-1" points="49.7 251.33 49.7 253.56 51.92 253.86 51.92 251.63 49.7 251.33"/><polygon class="cls-1" points="51.92 246.84 51.92 244.61 49.7 244.9 49.7 247.13 51.92 246.84"/><polygon class="cls-1" points="254.91 51.23 257.14 51.23 256.86 49.01 254.62 49.01 254.91 51.23"/><polygon class="cls-1" points="245.84 51.23 246.14 49.01 243.9 49.01 243.6 51.23 245.84 51.23"/><polygon class="cls-1" points="248.37 49.01 246.14 49.01 245.84 51.23 248.08 51.23 248.37 49.01"/><polygon class="cls-1" points="252.68 51.23 254.91 51.23 254.62 49.01 252.39 49.01 252.68 51.23"/><polygon class="cls-1" points="251.95 449.84 251.96 449.84 252.25 447.62 252.25 447.62 251.95 449.84"/><polygon class="cls-1" points="245.11 447.62 242.88 447.62 243.17 449.84 245.4 449.84 245.11 447.62"/><polygon class="cls-1" points="254.49 447.62 254.19 449.84 256.43 449.84 256.72 447.62 254.49 447.62"/><polygon class="cls-1" points="247.35 447.62 245.11 447.62 245.4 449.84 247.63 449.84 247.35 447.62"/><polygon class="cls-1" points="251.96 449.84 254.19 449.84 254.49 447.62 252.25 447.62 251.96 449.84"/><polygon class="cls-1" points="450.53 247.16 450.53 247.16 448.31 246.87 448.31 246.87 450.53 247.16"/><polygon class="cls-1" points="448.31 253.84 448.31 256.07 450.53 255.78 450.53 253.54 448.31 253.84"/><polygon class="cls-1" points="448.31 244.64 450.53 244.92 450.53 242.69 448.31 242.4 448.31 244.64"/><polygon class="cls-1" points="448.31 251.6 448.31 253.84 450.53 253.54 450.53 251.3 448.31 251.6"/><polygon class="cls-1" points="448.31 246.87 450.53 247.16 450.53 244.92 448.31 244.64 448.31 246.87"/><polygon class="cls-1" points="341.24 177.38 342.94 175.16 324.38 175.16 324.38 152.98 322.16 154.56 322.16 177.38 341.24 177.38"/><polygon class="cls-1" points="344.03 177.38 346.82 177.38 348.52 175.16 345.73 175.16 344.03 177.38"/><polygon class="cls-1" points="322.16 151.84 324.38 150.26 324.38 147.54 322.16 149.12 322.16 151.84"/><polygon class="cls-1" points="324.38 152.98 324.38 150.26 322.16 151.84 322.16 154.56 324.38 152.98"/><polygon class="cls-1" points="341.24 177.38 344.03 177.38 345.73 175.16 342.94 175.16 341.24 177.38"/><polygon class="cls-1" points="178.07 154.8 175.86 153.22 175.86 175.16 157.16 175.16 158.85 177.38 178.07 177.38 178.07 154.8"/><polygon class="cls-1" points="178.07 152.08 178.07 149.36 175.86 147.78 175.86 150.5 178.07 152.08"/><polygon class="cls-1" points="156.06 177.38 154.37 175.16 151.57 175.16 153.27 177.38 156.06 177.38"/><polygon class="cls-1" points="157.16 175.16 154.37 175.16 156.06 177.38 158.85 177.38 157.16 175.16"/><polygon class="cls-1" points="178.07 154.8 178.07 152.08 175.86 150.5 175.86 153.22 178.07 154.8"/><polygon class="cls-1" points="322.16 343.05 324.38 344.62 324.38 323.68 343.95 323.68 342.26 321.47 322.16 321.47 322.16 343.05"/><polygon class="cls-1" points="345.05 321.47 346.75 323.68 349.54 323.68 347.84 321.47 345.05 321.47"/><polygon class="cls-1" points="322.16 345.77 322.16 348.49 324.38 350.06 324.38 347.34 322.16 345.77"/><polygon class="cls-1" points="322.16 343.05 322.16 345.77 324.38 347.34 324.38 344.62 322.16 343.05"/><polygon class="cls-1" points="343.95 323.68 346.75 323.68 345.05 321.47 342.26 321.47 343.95 323.68"/><polygon class="cls-1" points="158.13 321.47 156.43 323.68 175.86 323.68 175.86 344.6 178.07 343.02 178.07 321.47 158.13 321.47"/><polygon class="cls-1" points="155.34 321.47 152.55 321.47 150.85 323.68 153.64 323.68 155.34 321.47"/><polygon class="cls-1" points="178.07 345.74 175.86 347.32 175.86 350.04 178.07 348.46 178.07 345.74"/><polygon class="cls-1" points="158.13 321.47 155.34 321.47 153.64 323.68 156.43 323.68 158.13 321.47"/><polygon class="cls-1" points="175.86 344.6 175.86 347.32 178.07 345.74 178.07 343.02 175.86 344.6"/><polygon class="cls-1" points="319.94 53.44 319.94 150.7 322.16 149.12 322.16 51.23 257.14 51.23 257.43 53.44 319.94 53.44"/><polygon class="cls-1" points="180.29 445.4 180.29 346.88 178.07 348.46 178.07 447.62 242.88 447.62 242.59 445.4 180.29 445.4"/><polygon class="cls-1" points="180.29 53.44 243.31 53.44 243.6 51.23 178.07 51.23 178.07 149.36 180.29 150.93 180.29 53.44"/><polygon class="cls-1" points="446.1 319.25 346.14 319.25 347.84 321.47 448.31 321.47 448.31 256.07 446.1 256.37 446.1 319.25"/><polygon class="cls-1" points="319.94 445.4 257.02 445.4 256.72 447.62 322.16 447.62 322.16 348.49 319.94 346.91 319.94 445.4"/><polygon class="cls-1" points="54.13 319.25 54.13 256.4 51.92 256.1 51.92 321.47 152.55 321.47 154.25 319.25 54.13 319.25"/><polygon class="cls-1" points="446.1 179.6 446.1 242.12 448.31 242.4 448.31 177.38 346.82 177.38 345.12 179.6 446.1 179.6"/><polygon class="cls-1" points="54.13 179.6 154.97 179.6 153.27 177.38 51.92 177.38 51.92 242.38 54.13 242.09 54.13 179.6"/><polygon class="cls-1" points="54.13 246.56 54.13 246.56 51.92 246.84 51.92 246.84 54.13 246.56"/><polygon class="cls-1" points="54.13 254.16 51.92 253.86 51.92 256.1 54.13 256.4 54.13 254.16"/><polygon class="cls-1" points="54.13 242.09 51.92 242.38 51.92 244.61 54.13 244.32 54.13 242.09"/><polygon class="cls-1" points="54.13 251.93 51.92 251.63 51.92 253.86 54.13 254.16 54.13 251.93"/><polygon class="cls-1" points="54.13 246.56 54.13 244.32 51.92 244.61 51.92 246.84 54.13 246.56"/><polygon class="cls-1" points="257.43 53.44 257.14 51.23 254.91 51.23 255.2 53.44 257.43 53.44"/><polygon class="cls-1" points="245.54 53.44 245.84 51.23 243.6 51.23 243.31 53.44 245.54 53.44"/><polygon class="cls-1" points="247.78 53.44 248.08 51.23 245.84 51.23 245.54 53.44 247.78 53.44"/><polygon class="cls-1" points="252.96 53.44 255.2 53.44 254.91 51.23 252.68 51.23 252.96 53.44"/><polygon class="cls-1" points="252.25 447.62 252.25 447.62 252.55 445.4 252.55 445.4 252.25 447.62"/><polygon class="cls-1" points="254.79 445.4 254.49 447.62 256.72 447.62 257.02 445.4 254.79 445.4"/><polygon class="cls-1" points="242.59 445.4 242.88 447.62 245.11 447.62 244.82 445.4 242.59 445.4"/><polygon class="cls-1" points="247.06 445.4 244.82 445.4 245.11 447.62 247.35 447.62 247.06 445.4"/><polygon class="cls-1" points="252.55 445.4 252.25 447.62 254.49 447.62 254.79 445.4 252.55 445.4"/><polygon class="cls-1" points="446.1 246.58 448.31 246.87 448.31 246.87 446.1 246.58 446.1 246.58"/><polygon class="cls-1" points="446.1 244.35 448.31 244.64 448.31 242.4 446.1 242.12 446.1 244.35"/><polygon class="cls-1" points="446.1 256.37 448.31 256.07 448.31 253.84 446.1 254.13 446.1 256.37"/><polygon class="cls-1" points="446.1 246.58 448.31 246.87 448.31 244.64 446.1 244.35 446.1 246.58"/><polygon class="cls-1" points="446.1 251.9 446.1 254.13 448.31 253.84 448.31 251.6 446.1 251.9"/><polygon class="cls-1" points="339.69 179.41 341.24 177.38 322.16 177.38 322.16 154.56 319.94 156.14 319.94 179.41 339.69 179.41"/><polygon class="cls-1" points="319.94 153.42 322.16 151.84 322.16 149.12 319.94 150.7 319.94 153.42"/><polygon class="cls-1" points="345.12 179.6 346.82 177.38 344.03 177.38 342.33 179.6 345.12 179.6"/><polygon class="cls-1" points="339.69 179.41 319.94 179.41 319.94 179.6 342.33 179.6 344.03 177.38 341.24 177.38 339.69 179.41"/><polygon class="cls-1" points="319.94 156.14 322.16 154.56 322.16 151.84 319.94 153.42 319.94 156.14"/><polygon class="cls-1" points="180.29 156.37 178.07 154.8 178.07 177.38 158.85 177.38 160.55 179.6 180.29 179.6 180.29 156.37"/><polygon class="cls-1" points="180.29 150.93 178.07 149.36 178.07 152.08 180.29 153.65 180.29 150.93"/><polygon class="cls-1" points="157.76 179.6 156.06 177.38 153.27 177.38 154.97 179.6 157.76 179.6"/><polygon class="cls-1" points="180.29 156.37 180.29 153.65 178.07 152.08 178.07 154.8 180.29 156.37"/><polygon class="cls-1" points="160.55 179.6 158.85 177.38 156.06 177.38 157.76 179.6 160.55 179.6"/><polygon class="cls-1" points="319.94 339.65 320.04 341.53 322.16 343.05 322.16 321.47 342.26 321.47 340.56 319.25 319.94 319.25 319.94 339.65"/><polygon class="cls-1" points="319.94 346.91 322.16 348.49 322.16 345.77 319.94 344.19 319.94 346.91"/><polygon class="cls-1" points="343.35 319.25 345.05 321.47 347.84 321.47 346.14 319.25 343.35 319.25"/><polygon class="cls-1" points="340.56 319.25 342.26 321.47 345.05 321.47 343.35 319.25 340.56 319.25"/><polygon class="cls-1" points="320.04 341.53 319.94 339.65 319.94 344.19 322.16 345.77 322.16 343.05 320.04 341.53"/><polygon class="cls-1" points="159.83 319.25 158.13 321.47 178.07 321.47 178.07 343.02 180.29 341.44 180.29 319.25 159.83 319.25"/><polygon class="cls-1" points="180.29 344.17 178.07 345.74 178.07 348.46 180.29 346.88 180.29 344.17"/><polygon class="cls-1" points="154.25 319.25 152.55 321.47 155.34 321.47 157.03 319.25 154.25 319.25"/><polygon class="cls-1" points="180.29 341.44 178.07 343.02 178.07 345.74 180.29 344.17 180.29 341.44"/><polygon class="cls-1" points="159.83 319.25 157.03 319.25 155.34 321.47 158.13 321.47 159.83 319.25"/><path class="cls-1" d="M250.31,190A59.39,59.39,0,1,0,309.7,249.4,59.39,59.39,0,0,0,250.31,190ZM215.18,291.83l24.89-41.31L215,209.21l88.82,40.7Z"/></g></g></svg>