<svg xmlns="http://www.w3.org/2000/svg" viewBox="0 0 728.59 500"><defs><style>.cls-1{fill:#fff;fill-rule:evenodd;}</style></defs><g id="Calque_2" data-name="Calque 2"><g id="Calque_1-2" data-name="Calque 1"><path class="cls-1" d="M177.05,0C95.47,0,.07,273.36,0,500H75.08c0-237.47,58.15-451.53,99.93-451.53,35.15,0,66.51,93.47,77.62,273.12h83.63c11.16-179.65,42.59-273.13,77.57-273.12,30.89,0,70.62,116.6,89.34,273.12H571.9C540.78,151.07,472.41,0,411.9,0,342.15,0,305.57,148,294.47,230,283.29,148,246.7,0,177.05,0Zm79.21,409c.44,20,.68,40.75.68,62.39h75c0-21.64.28-42.37.74-62.39ZM511,409c1.8,29.67,2.83,60.15,2.83,91H589c0-29.77-1.65-60.37-4.7-91Z"/><path class="cls-1" d="M556.38,400.21h21.77v-71.6H556.38Zm101.8-71.6H673l-5,19.51H657.2Zm40.36,10.61c14.48,0,28.09,3.65,28.15,17.86H706c0-4.89-2.86-7.12-7.68-7.12-2.86,0-6.73,1.19-6.73,5.68,0,7.44,11.78,5.95,21.77,8.92,9,2.67,15.21,8,15.21,16.68,0,13.25-10.4,20.59-30.05,20.66-20.6.09-28.35-7.34-28.42-20.66h20.94c0,5,3.13,8,7.55,8,5.29,0,7.68-2,7.68-5.75,0-7.78-14.43-7.58-22.95-10.36-5.78-1.9-11.05-6.19-11.05-15.3,0-7.62,5.72-18.63,26.25-18.63M252.82,378.51C249.2,392.75,237.4,402,222.67,402c-17.78,0-31.31-13.46-31.29-32.93s12-32.9,31.29-32.92c16,0,27,9.26,30.25,23.52H232.56C231,355.36,228,352,222.67,352c-9,0-11.36,9.52-11.35,17s2.36,17,11.35,17c5.3,0,8.3-3.31,9.86-7.57ZM102.67,328.62h26L140,370.92l11.32-42.3h26L188.7,402H167.25l-5.67-42.87L149.85,402H130.13L118.4,359.11,112.73,402H91.26Zm333.52,36.52v35.08H414.68V337.67h21.51v4.89c5.45-4.25,10.37-6.43,21.54-6.43,12.12,0,21.89,8.11,21.9,16.61v47.49H458V365.79c0-5.72-5.12-10.38-10.69-10.38-7.17,0-10.74,6.35-11.08,9.73m192-21.27V328.61h21.76v71.6H628.15v-3.47c-2.86,2.58-6.61,5.22-16,5.22-10.55,0-27.32-5.87-27.33-31.06s16.76-31.68,28.69-31.68c8.67,0,12.76,3,14.63,4.65Zm-22.58,27c0,9.79,4.55,16.05,12,16.05a11.53,11.53,0,0,0,10.55-6V362.13c-1.16-4.15-5.19-7.2-10.55-7.2-7.5,0-12,6.18-12,16m-263.13-1.84c0-19.44,12.63-32.9,32.82-32.92s32.81,13.48,32.83,32.92S395.46,402,375.26,402,342.42,388.53,342.44,369.06Zm45.29,0c0-7.51-2.6-17-12.47-17s-12.47,9.52-12.47,17,2.6,17,12.47,17,12.47-9.53,12.47-17M260.4,328.62h37.39c23.39,0,39.33,14.53,39.33,36.68S321.19,402,297.79,402H260.4Zm24.73,56h11.31c7.32,0,16.24-4.47,16.24-19.34S303.76,346,296.44,346H285.13Zm233.31-48.5c15.44,0,28.18,5.67,29.17,18.14v45.94H525.83V394c-5.29,4.53-10.56,7.93-20.08,7.93-11.09,0-20-8.76-20-19s6.33-21.69,31.66-21.68c6.53,0,8.43-2.57,8.44-5.63,0-3.76-4.33-5.86-8-5.86s-7.75,1.51-7.75,5.44h-20.4c0-9.22,6.2-19,28.71-19Zm-1.2,35.25c-5,0-9.68,2.68-9.68,7.82,0,3.33,2,6.2,7.1,6.2,4.92,0,10.16-2.92,11.17-9v-5.72c-1.66.91-5.42.66-8.59.66m105,79.77h13.38c6.61,0,11,3.56,11,8.26,0,4.33-3.34,7.18-7.47,7.54v.14c6.33,2.13,7.26,6.54,7.33,12.52h-6c-.22-7.18-1.78-10.31-8.11-10.31h-4.91v10.31h-5.27Zm5.27,13.59h6.26c4.91,0,6.9-1.71,6.9-4.91,0-2.42-1.5-4.12-6-4.12h-7.11Zm5.69-23.47a24.42,24.42,0,0,1,24.47,24.37v.1a24.47,24.47,0,1,1-24.57-24.47Zm0,46.31a21.84,21.84,0,1,0-21.84-21.84,21.85,21.85,0,0,0,21.84,21.84"/></g></g></svg>