<svg xmlns="http://www.w3.org/2000/svg" viewBox="0 0 391 413"><defs><style>.cls-1{fill:#fcfdfd;}.cls-2{fill:#7f7eff;}.cls-3{fill:#ccf;}.cls-4{opacity:0.1;}.cls-5{fill:#7372e6;}</style></defs><g id="Calque_2" data-name="Calque 2"><g id="Calque_1-2" data-name="Calque 1"><path class="cls-1" d="M387.82,18.27c-.45-.94-.95-1.86-1.49-2.75a32.35,32.35,0,0,0-5.89-7.14,29.73,29.73,0,0,0-2.39-2c-.42-.31-.84-.61-1.27-.9-.85-.58-1.74-1.12-2.65-1.62-.46-.25-.93-.48-1.4-.71a31,31,0,0,0-4.39-1.73c-.5-.16-1-.3-1.53-.43a30.14,30.14,0,0,0-3.14-.65A33.29,33.29,0,0,0,358.76,0H32.24a32.06,32.06,0,0,0-18,5.51c-.43.29-.85.59-1.27.9a29.73,29.73,0,0,0-2.39,2c-.76.69-1.49,1.42-2.18,2.18a29.73,29.73,0,0,0-2,2.39c-.31.42-.61.84-.9,1.27A32.18,32.18,0,0,0,0,32.24V380.76a32.06,32.06,0,0,0,5.51,18c.29.43.59.85.9,1.27a29.73,29.73,0,0,0,2,2.39c.69.76,1.42,1.49,2.18,2.18a29.73,29.73,0,0,0,2.39,2c.42.31.84.61,1.27.9a32.18,32.18,0,0,0,18,5.51H358.76a33.29,33.29,0,0,0,4.91-.37,30.14,30.14,0,0,0,3.14-.65c.52-.13,1-.27,1.53-.43a31,31,0,0,0,4.39-1.73c.47-.23.94-.46,1.4-.71.91-.5,1.8-1,2.65-1.62.43-.29.85-.59,1.27-.9a29.73,29.73,0,0,0,2.39-2,32.35,32.35,0,0,0,5.89-7.14c.54-.89,1-1.81,1.49-2.75a32.28,32.28,0,0,0,3.18-14V32.24a32.28,32.28,0,0,0-3.18-14ZM359,380.76a.2.2,0,0,1,0,.08.28.28,0,0,1-.15.15H32.16a.28.28,0,0,1-.15-.15.2.2,0,0,1,0-.08V32.24a.2.2,0,0,1,0-.08.28.28,0,0,1,.15-.15H358.84a.28.28,0,0,1,.15.15.2.2,0,0,1,0,.08Z"/><path class="cls-2" d="M359,32.25a.2.2,0,0,0,0-.08.29.29,0,0,0-.15-.16H32.16a.29.29,0,0,0-.15.16.2.2,0,0,0,0,.08V381H359Z"/><path class="cls-1" d="M32,380.76a.2.2,0,0,0,0,.08.28.28,0,0,0,.15.15h2.56a12.35,12.35,0,0,1-2.72-.35Z"/><path class="cls-1" d="M358.76,381h.08a.28.28,0,0,0,.15-.15.2.2,0,0,0,0-.08v-.31A9.47,9.47,0,0,1,356,381Z"/><path class="cls-1" d="M299.94,381h0Z"/><path class="cls-3" d="M354.81,381c.39,0,.77,0,1.14,0H339.24C344.43,381,349.62,381,354.81,381Z"/><path class="cls-3" d="M35.89,381l207.67,0H34.72Z"/><path class="cls-4" d="M32,368v14.6a11,11,0,0,0,2.72.4H299.94q19.65,0,39.3,0H356a8.7,8.7,0,0,0,3.05-.63V368Z"/><path class="cls-5" d="M194.88,289.54h-54l-40.06,0c-18,0-26.76-8.8-26.81-26.86-.07-29.5,0-58.75,0-83.47a29.67,29.67,0,0,1,1-9,10.4,10.4,0,0,1,10-7.6c3.25,0,6.44,1.36,10.54,3.54q12.26,6.56,24.53,13.07c20.78,11.05,42.26,22.48,63.29,34a22.69,22.69,0,0,0,24.12,0c21.43-11.71,43.33-23.36,64.5-34.64l23.85-12.71c3.14-1.68,6.51-3.23,9.93-3.23a10.4,10.4,0,0,1,10,7.19c.8,2.18,1.14,4.84,1.14,8.88,0,33,0,60.09-.05,85.34-.05,16.44-9.11,25.5-25.53,25.52l-41.77,0Z"/><path class="cls-1" d="M85.07,170.59c1.48,0,3.64.93,6.77,2.6,29.27,15.63,58.63,31.09,87.76,47a30.61,30.61,0,0,0,31.79,0c29.3-16,58.83-31.58,88.28-47.32,2.77-1.47,4.75-2.28,6.16-2.28,2.46,0,3.15,2.46,3.15,8.08q0,42.65-.05,85.3c0,12-5.62,17.54-17.53,17.55l-41.67,0H140.62l-39.77,0c-13.46,0-18.77-5.27-18.81-18.88q-.09-41.71,0-83.44c0-6,.57-8.62,3-8.62m0-16A18.41,18.41,0,0,0,67.4,167.75,37.44,37.44,0,0,0,66,179.19c0,24.83-.07,54.16,0,83.5.06,22.45,12.42,34.83,34.8,34.84l39.78,0H249.73l41.68,0c10.32,0,18.57-3,24.51-9s9-14.2,9-24.54c.07-25.37.09-52.5.05-85.37A34.07,34.07,0,0,0,323.36,167a18.36,18.36,0,0,0-17.53-12.44c-5.18,0-9.65,2-13.7,4.17l-23.82,12.7c-21.2,11.29-43.12,23-64.59,34.69a14.82,14.82,0,0,1-16.46,0c-21.08-11.5-42.61-22.95-63.42-34l-24.46-13c-4.07-2.17-8.86-4.49-14.31-4.49Z"/><path class="cls-5" d="M195.55,209.29a37.67,37.67,0,0,1-18.33-5.08c-15.46-8.56-31.22-17.2-46.47-25.55-13.55-7.43-27.57-15.11-41.33-22.72a35.84,35.84,0,0,1-10.51-8.44c-5.46-6.69-4.38-12.34-3.26-15.12,1.93-4.77,6.68-7.93,13-8.67A36.42,36.42,0,0,1,93,123.5H240.37q28.35,0,56.68,0h0c.52,0,1,0,1.57,0,.77,0,1.56-.07,2.34-.07,10,0,13.32,6.17,14.41,9.84,1.4,4.69,1.9,13.59-10.42,20.62-11.68,6.66-23.64,13.22-35.21,19.56l-9.53,5.24q-8,4.38-15.95,8.72c-10,5.43-20.3,11.06-30.34,16.72A37.36,37.36,0,0,1,195.55,209.29Z"/><path class="cls-1" d="M301,131.45c2.92,0,5.68.56,6.75,4.13,1.65,5.57-2.57,9-6.73,11.38-14.77,8.43-29.72,16.54-44.63,24.74-15.45,8.49-31,16.82-46.36,25.47a29.16,29.16,0,0,1-14.44,4.12,29.57,29.57,0,0,1-14.45-4.07c-29.21-16.2-58.58-32.12-87.81-48.28a28.35,28.35,0,0,1-8.18-6.5c-4.45-5.46-2.41-10,4.51-10.78A28.52,28.52,0,0,1,93,131.5l2.87,0H240.48q28.28,0,56.55.05h0c1.24,0,2.58-.11,3.89-.11m0-16c-1,0-1.94,0-2.69.07l-1.2,0c-20.06,0-39.86,0-56.59,0H93a45.64,45.64,0,0,0-5.2.26c-9.35,1.1-16.46,6.06-19.52,13.62s-1.42,16,4.47,23.18a43.71,43.71,0,0,0,12.84,10.38c13.78,7.62,27.81,15.31,41.37,22.74,15.23,8.35,31,17,46.42,25.53a43.48,43.48,0,0,0,44.5-.09c10-5.63,20.28-11.24,30.22-16.66,5.24-2.85,10.67-5.81,16-8.74l9.52-5.23c11.6-6.36,23.59-12.93,35.33-19.63A33,33,0,0,0,319.4,152,23.34,23.34,0,0,0,323,131c-1.09-3.65-5.89-15.56-22.08-15.56Z"/></g></g></svg>