<svg xmlns="http://www.w3.org/2000/svg" viewBox="0 0 391.42 413.39"><defs><style>.cls-1{fill:#fcfdfd;}.cls-2{fill:#7f7eff;}.cls-3{fill:#ccf;}.cls-4{opacity:0.1;}.cls-5{fill:#6161c1;}</style></defs><g id="Calque_2" data-name="Calque 2"><g id="Calque_1-2" data-name="Calque 1"><path class="cls-1" d="M387.8,18.23c-.45-.94-.95-1.85-1.49-2.74a32.44,32.44,0,0,0-5.9-7.14c-.77-.69-1.56-1.35-2.39-2-.42-.31-.84-.61-1.27-.89-.86-.58-1.74-1.12-2.66-1.62-.46-.24-.92-.48-1.39-.71a33.32,33.32,0,0,0-4.39-1.72c-.51-.16-1-.3-1.53-.43a29.77,29.77,0,0,0-3.15-.64A31.79,31.79,0,0,0,358.72,0L32.21.39a32.22,32.22,0,0,0-18,5.53c-.42.29-.85.59-1.26.9-.83.62-1.62,1.28-2.38,2S9,10.22,8.35,11s-1.35,1.56-2,2.39c-.31.42-.61.84-.89,1.27A31.62,31.62,0,0,0,1,24.61a32.48,32.48,0,0,0-1,8.06L.42,381.18a32.07,32.07,0,0,0,3.19,14,31.63,31.63,0,0,0,2.33,4c.29.43.59.85.9,1.27.62.82,1.28,1.62,2,2.38A30.17,30.17,0,0,0,11,405c.76.69,1.56,1.35,2.39,2,.41.3.83.6,1.26.89a31.84,31.84,0,0,0,10,4.48,32.48,32.48,0,0,0,8.06,1L359.21,413a31.79,31.79,0,0,0,4.91-.38,29.8,29.8,0,0,0,3.15-.65c.51-.13,1-.27,1.53-.43a31.45,31.45,0,0,0,4.38-1.74c.47-.22.94-.46,1.39-.71.92-.5,1.8-1,2.66-1.62q.64-.44,1.26-.9c.83-.62,1.63-1.28,2.39-2a32.74,32.74,0,0,0,5.89-7.16c.53-.88,1-1.8,1.48-2.74a31.69,31.69,0,0,0,2.16-5.92,32.48,32.48,0,0,0,1-8.06L391,32.21a31.87,31.87,0,0,0-3.2-14ZM359.42,380.75a.24.24,0,0,1,0,.09.36.36,0,0,1-.15.15h-.09l-326.51.39h-.08a.33.33,0,0,1-.16-.15v-.09L32,32.63a.2.2,0,0,1,0-.08.28.28,0,0,1,.15-.15h.08L358.75,32h.09a.28.28,0,0,1,.15.15.2.2,0,0,1,0,.08Z"/><path class="cls-2" d="M359,32.25a.2.2,0,0,0,0-.08.29.29,0,0,0-.15-.16h-.09l-326.51.39h-.08a.29.29,0,0,0-.15.16.2.2,0,0,0,0,.08l.42,348.75,327-.39Z"/><path class="cls-1" d="M32.42,381.14v.09a.33.33,0,0,0,.16.15h2.55a12.25,12.25,0,0,1-2.71-.35Z"/><path class="cls-1" d="M359.17,381h.09a.36.36,0,0,0,.15-.15.24.24,0,0,0,0-.09v-.3a9.42,9.42,0,0,1-3.05.55Z"/><path class="cls-1" d="M300.36,381.06l-56.38.08,95.67-.12Q320,381,300.36,381.06Z"/><path class="cls-3" d="M355.22,381q.58,0,1.14,0l-16.71,0C344.84,381,350,381,355.22,381Z"/><path class="cls-3" d="M36.31,381.41,244,381.14l-208.85.25Z"/><path class="cls-4" d="M32.4,368.39l0,14.6a11.44,11.44,0,0,0,2.71.4L244,383.14l56.38-.08q19.65,0,39.3,0l16.7,0a8.54,8.54,0,0,0,3.06-.63l0-14.37Z"/><polygon class="cls-5" points="96.17 238.56 115.55 190.1 282.47 194.41 301.86 250.41 271.7 294.56 198.47 303.18 128.48 298.87 96.17 274.1 96.17 238.56"/><path class="cls-1" d="M167.29,245c0,11-5.75,29-19.35,29s-19.35-18-19.35-29S134.34,216,147.94,216,167.29,234,167.29,245Zm155-26.62c0,16.81-1.68,34.63-9.22,50.08-20,40.39-74.92,39.44-114.25,39.44-40,0-98.17,1.42-119-39.44-7.69-15.29-10.65-33.27-10.65-50.08a90.71,90.71,0,0,1,21.88-59.9A82.57,82.57,0,0,1,87,132.77c0-11.33,2.59-17,7.7-27.31,23.88,0,39.17,4.75,57.36,19a202.38,202.38,0,0,1,46.77-5.27A182,182,0,0,1,241.21,124C259.13,110,274.42,105.46,298,105.46c5.17,10.28,7.7,16,7.7,27.31a81.41,81.41,0,0,1-4.06,25.42c14.5,17.08,20.56,38.11,20.56,60.21ZM288.34,245c0-23.14-14.08-43.55-38.75-43.55-10,0-19.51,1.79-29.52,3.17a155.37,155.37,0,0,1-23.78,1.68,156.18,156.18,0,0,1-23.78-1.68c-9.86-1.38-19.51-3.17-29.53-3.17-24.67,0-38.75,20.41-38.75,43.55,0,46.29,42.39,53.41,79.3,53.41h25.41C246,298.43,288.34,291.36,288.34,245ZM244.79,216c-13.6,0-19.35,18-19.35,29.05s5.75,29,19.35,29,19.35-18,19.35-29S258.39,216,244.79,216Z"/></g></g></svg>