<svg width="217" height="109" viewBox="0 0 217 109" fill="none" xmlns="http://www.w3.org/2000/svg">
<path d="M25.5412 9.35189L25.3541 8.36954L24.3718 8.55658L15.5306 10.2399C6.30745 11.996 0.254176 20.8964 2.01023 30.1195L8.36948 63.5195C10.1255 72.7427 19.0259 78.796 28.2491 77.0399L37.0903 75.3566L38.0726 75.1695L37.8856 74.1872L25.5412 9.35189Z" fill="#6161C1" stroke="#FCFDFD" stroke-width="2"/>
<rect x="23.3892" y="8.7435" width="28" height="68" transform="rotate(-10.7799 23.3892 8.7435)" fill="#FCFDFD" stroke="#FCFDFD" stroke-width="2"/>
<path d="M49.9126 3.69367L48.9302 3.88071L49.1173 4.86306L61.4617 69.6984L61.6487 70.6807L62.6311 70.4937L71.4722 68.8103C80.6954 67.0543 86.7487 58.1539 84.9926 48.9307L78.6334 15.5307C76.8773 6.30757 67.9769 0.254286 58.7537 2.01034L49.9126 3.69367Z" fill="#F76F8E" stroke="#FCFDFD" stroke-width="2"/>
<rect x="158.707" y="-1.22474" width="60.8963" height="53.8287" rx="17" transform="rotate(15 158.707 -1.22474)" fill="#FCFDFD" stroke="#FCFDFD" stroke-width="2"/>
<rect x="184.445" y="6.70728" width="7.06755" height="51.8287" transform="rotate(15 184.445 6.70728)" fill="#F76F8E"/>
<rect x="151.894" y="28.0654" width="7.06755" height="58.8963" transform="rotate(-75 151.894 28.0654)" fill="#F76F8E"/>
<rect x="120.104" y="54.7641" width="40.9434" height="45" rx="17" transform="rotate(15.9158 120.104 54.7641)" fill="#FCFDFD" stroke="#FCFDFD" stroke-width="2"/>
<path d="M116.787 70.0439C118.998 62.2877 127.079 57.793 134.835 60.0047L144.198 62.6745C151.954 64.8862 156.449 72.9669 154.237 80.7232L116.787 70.0439Z" fill="#FCFDFD"/>
<rect x="112.782" y="84.0879" width="14.6038" height="38.9434" transform="rotate(-74.0842 112.782 84.0879)" fill="#6161C1"/>
<path d="M123.044 101.356C115.288 99.1445 110.793 91.0639 113.005 83.3076L150.455 93.9868C148.244 101.743 140.163 106.238 132.407 104.026L123.044 101.356Z" fill="#F76F8E"/>
</svg>
