<svg xmlns="http://www.w3.org/2000/svg" viewBox="0 0 2151.92 360.56"><defs><style>.cls-1{fill:#7f7eff;}</style></defs><g id="Calque_2" data-name="Calque 2"><g id="Calque_1-2" data-name="Calque 1"><path class="cls-1" d="M321.91,121.5q-19.53-15.87-39.61-31c-5.25-4-6-5.28-2.63-10.94,4.34-7.27,8.82-14.47,13.12-21.76,1.85-3.11,4-5.5,8-4.42s4.76,4.24,4.7,7.84c-.17,9.16-.36,18.32-.48,27.48a3.64,3.64,0,0,0,.71,2.57c4,3.15,8.08,6.13,13,9.77,1.63-9.05,4-17.3,4.44-25.65,1.13-20.44,1.47-40.93,1.95-61.4.17-7-2.42-8.57-8.55-5.53A336.18,336.18,0,0,0,259.45,43.9C254,48.13,248.8,52.67,243,57.47c2.24.94,3.59,1.49,4.92,2.08,4.62,2,6.73,5.54,5,8.85-2.15,4-5.55,3.51-9,1.92-.61-.28-1.24-.47-1.86-.69C204.68,55.9,166.29,51.52,127.11,58.2c-15.77,2.68-31.11,8-46.58,12.28-3.67,1-7.16,2-8.71-2.47-1.38-4,.92-6.59,4.6-8.1,1.49-.61,2.94-1.32,4.65-2.1a17.17,17.17,0,0,0-2-2.51A327.87,327.87,0,0,0,6.64,8.06C2.36,6,0,7.6.05,12.55c.33,20.65.48,41.32,1.47,62,.41,8.63,2.73,17.18,4.32,26.58,5-3.75,8.88-6.54,12.55-9.63.87-.73,1.24-2.47,1.24-3.75,0-9-.53-18-.06-27,.14-2.53,2.56-5.82,4.85-7.12,2.91-1.65,5.58.63,7.3,3.48,4.55,7.55,9.24,15,13.71,22.61,3.41,5.78,2.7,6.8-2.73,10.88q-19.91,15-39.29,30.61a10.89,10.89,0,0,0-3.32,7.59q-.22,101.5,0,203c0,2.82.15,5.65.23,8.47h0c-.09,2-.27,4-.27,6,0,5.77,1.34,7.06,7.05,7.06l257.37,0c17.82,0,35.65,0,53.47,0,3.71,0,6.62-.68,7-5.07.07-.83.2-1.65.2-2.48q0-108.5-.1-217C325,126.27,323.74,123,321.91,121.5ZM294.75,257.42c3.91,0,7.22,1.43,7.31,5.76.09,4.62-3.54,5.48-7.33,5.49-6.82,0-13.64,0-20.46,0v.22c-6.49,0-13,.06-19.46,0-3.73-.05-7.43-.9-7.3-5.55.11-4.3,3.36-5.7,7.31-5.72C268.13,257.55,281.44,257.46,294.75,257.42Zm-59.28-80.64c17.87.21,32.75,15.17,32.67,32.83-.08,17.84-15.26,33-33.13,33.07-17.6.08-32.84-15.39-32.79-33.27A32.91,32.91,0,0,1,235.47,176.78Zm-79.28,73.07a20.76,20.76,0,0,0-4.17-7.93c-1.61-2-4.43-3.09-6.08-5.1-1.52-1.85-3.51-4.9-2.89-6.51.79-2.08,3.81-4.21,6.15-4.6,4.38-.73,9-.21,13.47-.21v-.11c4.16,0,8.44-.56,12.45.21a10.45,10.45,0,0,1,6.68,4.71c.68,1.31-1.71,4.39-3.05,6.46a8.15,8.15,0,0,1-3.17,2.39c-8.7,4.47-8.16,12.47-7.48,20.28.13,1.56,2,3.32,3.56,4.3,2.34,1.51,5.08,2.4,7.64,3.59,2.75,1.27,4.78,3.64,3,6.23-1.27,1.83-4.63,3.46-6.74,3.14-3.46-.54-6.59-3-10-4.14a10.17,10.17,0,0,0-5.81-.13c-3.47,1-6.75,2.69-10.14,4-3,1.18-5.87.62-7.12-2.46-1.35-3.34.33-6,3.72-6.93C155.35,264.62,158.08,258.42,156.19,249.85ZM91,176.81a32.88,32.88,0,0,1,32.61,33.26c-.23,17.81-15.82,33.08-33.45,32.77s-33-16-32.7-33.58A33.22,33.22,0,0,1,91,176.81ZM29.77,257.55c13-.07,25.89-.07,38.84-.09a12,12,0,0,1,2.48.13c3.24.69,5.56,2.35,5.37,6s-2.64,4.89-5.73,4.95c-7.13.14-14.27,0-21.41,0v.32c-6.47,0-13,0-19.42,0-3.69,0-7.19-.64-7.57-5.3C22,259.88,24.91,257.57,29.77,257.55Z"/><path class="cls-1" d="M607.77,8.19H458.19V352.37h68.94V256a23.37,23.37,0,0,1,23.34-23.35h57.3c91.53,0,124-60.46,124-112.23C731.77,49.09,686.58,8.19,607.77,8.19Zm38.92,154.6c-9.57,11.15-23.39,17.3-38.92,17.3h-57.3a23.37,23.37,0,0,1-23.34-23.35V84.1a23.37,23.37,0,0,1,23.34-23.35h57.3c15.53,0,29.35,6.15,38.92,17.3,9.22,10.75,14.1,25.4,14.1,42.37S655.91,152,646.69,162.79Z"/><path class="cls-1" d="M962.17,0C850.17,0,777.8,70.76,777.8,180.28s72.37,180.28,184.37,180.28,184.37-70.77,184.37-180.28S1074.17,0,962.17,0Zm82.64,268.82c-20.41,22.28-49,34.05-82.64,34.05s-62.23-11.77-82.64-34.05c-20.11-22-30.75-52.58-30.75-88.54s10.64-66.58,30.75-88.54c20.41-22.28,49-34.06,82.64-34.06s62.23,11.78,82.64,34.06c20.11,22,30.75,52.57,30.75,88.54S1064.92,246.86,1044.81,268.82Z"/><path class="cls-1" d="M1286,287a13.09,13.09,0,0,1-5.34-10.56V8.19h-68.94V352.37h222.42V299.8H1304C1294.62,299.8,1289.22,292.49,1286,287Z"/><path class="cls-1" d="M1411.2,60.75h79a23.38,23.38,0,0,1,23.35,23.35V352.37h68.93V84.1a23.38,23.38,0,0,1,23.35-23.35h79V8.19H1411.2Z"/><path class="cls-1" d="M1937.12,226.32c0,23.31-5.76,41.93-17.11,55.35-11.74,13.87-28.93,21.2-49.72,21.2s-38-7.33-49.73-21.2c-11.35-13.42-17.1-32-17.1-55.35V8.19h-68.94V226.32c0,86.56,48.21,134.24,135.77,134.24s135.76-47.68,135.76-134.24V8.19h-68.93Z"/><rect class="cls-1" x="2079.4" y="122.78" width="68.94" height="229.58"/><path class="cls-1" d="M2113.87,76.1a38.05,38.05,0,1,0-38-38A38.09,38.09,0,0,0,2113.87,76.1Z"/></g></g></svg>