<svg xmlns="http://www.w3.org/2000/svg" viewBox="0 0 2211.1 413.84"><defs><style>.cls-1{fill:#2b2d42;}.cls-2{fill:#c72e2e;}.cls-3{fill:#7f7eff;}.cls-4{fill:#6161c1;}.cls-5{fill:none;}</style></defs><g id="Calque_2" data-name="Calque 2"><g id="Calque_1-2" data-name="Calque 1"><path class="cls-1" d="M361.76,413.65l-.3-.13-.28.15q-88.49.09-177,.16-77,0-154,0C14.86,410,4.7,400.75,1,385.09a34.47,34.47,0,0,1-.68-7.93C.22,264,.49,150.87,0,37.73c-.11-26,26.28-47,53.65-33.53A428,428,0,0,1,129,52.06c3.75,2.94,7,3.65,11.77,2.49,36.54-8.91,73.17-9.15,109.69.21a10.35,10.35,0,0,0,10-2c24-18.63,49.32-35.21,76.82-48.27,16.54-7.86,32.82-5,44.22,7.66,7.37,8.19,9.26,18.13,9.24,28.76q-.09,61.74,0,123.47,0,71.49,0,143c0,22.49-.37,45-.15,67.47.19,19.09-8.76,31.48-26.29,38.16ZM33.25,366.89c-.1,2-.28,4-.27,6,0,5.76,1.33,7.05,7.05,7.05l257.37,0c17.82,0,35.64,0,53.47,0,3.71,0,6.62-.68,7-5.07.07-.82.2-1.65.2-2.48q0-108.5-.11-217a10.39,10.39,0,0,0-3.11-7.23q-19.51-15.85-39.61-31c-5.24-4-6-5.27-2.62-10.94,4.34-7.27,8.81-14.46,13.12-21.75,1.84-3.12,4.05-5.5,8-4.43s4.77,4.25,4.7,7.85c-.17,9.16-.36,18.31-.47,27.47a3.64,3.64,0,0,0,.71,2.57c4,3.15,8.08,6.13,13,9.78,1.63-9.06,4-17.3,4.44-25.65,1.14-20.45,1.48-40.93,2-61.41.16-7-2.42-8.57-8.55-5.52a336.13,336.13,0,0,0-57.06,35.46C287,74.77,281.76,79.31,276,84.12c2.23.94,3.59,1.48,4.92,2.07,4.62,2,6.72,5.54,5,8.85-2.14,4-5.54,3.51-9,1.92-.6-.27-1.24-.46-1.86-.69-37.31-13.73-75.7-18.11-114.88-11.43-15.77,2.69-31.1,8-46.57,12.28-3.68,1-7.17,2-8.71-2.47-1.38-4,.92-6.59,4.59-8.09,1.49-.61,2.95-1.33,4.66-2.1a17.31,17.31,0,0,0-2-2.52A327.37,327.37,0,0,0,39.59,34.71c-4.28-2.08-6.66-.47-6.58,4.48.33,20.66.48,41.32,1.46,62,.42,8.64,2.73,17.18,4.32,26.59,5-3.76,8.89-6.55,12.55-9.63.87-.74,1.25-2.48,1.25-3.76,0-9-.54-18-.06-27,.13-2.53,2.55-5.81,4.85-7.12,2.91-1.65,5.58.64,7.3,3.49,4.55,7.54,9.24,15,13.71,22.6,3.4,5.78,2.7,6.81-2.73,10.89q-19.9,15-39.3,30.61c-1.93,1.56-3.31,5-3.32,7.59q-.21,101.49,0,203C33,361.24,33.17,364.06,33.25,366.89Z"/><path class="cls-2" d="M361.76,413.65l2.46-.72Z"/><path class="cls-3" d="M33.25,366.89c-.08-2.83-.23-5.65-.24-8.48q-.06-101.49,0-203c0-2.58,1.39-6,3.32-7.59q19.35-15.68,39.3-30.61c5.43-4.08,6.13-5.11,2.73-10.89-4.47-7.59-9.16-15.06-13.71-22.6-1.72-2.85-4.39-5.14-7.3-3.49-2.3,1.31-4.72,4.59-4.85,7.12-.48,9,0,18,.06,27,0,1.28-.38,3-1.25,3.76-3.66,3.08-7.58,5.87-12.55,9.63-1.59-9.41-3.9-18-4.32-26.59-1-20.63-1.13-41.29-1.46-61.95-.08-4.95,2.3-6.56,6.58-4.48a327.37,327.37,0,0,1,72.47,47.23,17.31,17.31,0,0,1,2,2.52c-1.71.77-3.17,1.49-4.66,2.1-3.67,1.5-6,4.13-4.59,8.09,1.54,4.43,5,3.5,8.71,2.47,15.47-4.31,30.8-9.59,46.57-12.28,39.18-6.68,77.57-2.3,114.88,11.43.62.23,1.26.42,1.86.69,3.5,1.59,6.9,2.13,9-1.92,1.76-3.31-.34-6.82-5-8.85-1.33-.59-2.69-1.13-4.92-2.07,5.8-4.81,11-9.35,16.45-13.58a336.13,336.13,0,0,1,57.06-35.46c6.13-3,8.71-1.48,8.55,5.52-.48,20.48-.82,41-2,61.41-.46,8.35-2.81,16.59-4.44,25.65-4.88-3.65-9-6.63-13-9.78a3.64,3.64,0,0,1-.71-2.57c.11-9.16.3-18.31.47-27.47.07-3.6-.8-6.78-4.7-7.85s-6.13,1.31-8,4.43c-4.31,7.29-8.78,14.48-13.12,21.75-3.38,5.67-2.62,7,2.62,10.94q20.08,15.15,39.61,31a10.39,10.39,0,0,1,3.11,7.23q.24,108.5.11,217c0,.83-.13,1.66-.2,2.48-.85-2.46-1.69-4.93-2.74-7.95ZM123.9,203.46A33.19,33.19,0,0,0,90.37,235.9c-.27,17.61,15,33.27,32.7,33.58s33.22-15,33.44-32.77A32.87,32.87,0,0,0,123.9,203.46Zm111.28,32.59c-.06,17.89,15.18,33.35,32.78,33.27,17.88-.08,33.06-15.23,33.14-33.06.08-17.67-14.81-32.63-32.67-32.84A32.92,32.92,0,0,0,235.18,236.05Zm-39.56,16v.1c-4.5,0-9.08-.51-13.46.21-2.35.39-5.36,2.52-6.16,4.6-.61,1.61,1.38,4.66,2.9,6.51,1.65,2,4.47,3.07,6.08,5.1a20.67,20.67,0,0,1,4.16,7.93c1.9,8.58-.83,14.77-10,17.2-3.38.9-5.06,3.59-3.71,6.94,1.24,3.08,4.08,3.64,7.12,2.45,3.39-1.32,6.67-3,10.14-4a10.14,10.14,0,0,1,5.8.13c3.43,1.16,6.56,3.59,10,4.13,2.11.33,5.47-1.31,6.74-3.13,1.8-2.59-.22-5-3-6.24-2.56-1.18-5.3-2.08-7.65-3.59-1.52-1-3.42-2.74-3.56-4.29-.67-7.82-1.21-15.82,7.49-20.29a8.11,8.11,0,0,0,3.16-2.38c1.34-2.08,3.73-5.16,3.06-6.47a10.51,10.51,0,0,0-6.68-4.71C204.06,251.47,199.79,252,195.62,252Zm111.61,43.5v-.21c6.82,0,13.64,0,20.46,0,3.79,0,7.42-.88,7.32-5.5-.09-4.32-3.39-5.76-7.31-5.75-13.31,0-26.61.12-39.92.18-3.95,0-7.2,1.41-7.32,5.72-.12,4.64,3.58,5.49,7.3,5.54C294.25,295.61,300.74,295.54,307.23,295.54Zm-224.95,0v-.31c7.13,0,14.27.09,21.41-.05,3.08-.06,5.55-1.42,5.73-4.95s-2.13-5.33-5.37-6a12,12,0,0,0-2.48-.14c-12.95,0-25.9,0-38.85.09-4.85,0-7.73,2.34-7.43,6.05.38,4.67,3.87,5.27,7.56,5.3C69.33,295.6,75.8,295.56,82.28,295.56Z"/><path class="cls-4" d="M33.25,366.89H355.14c1.05,3,1.89,5.49,2.74,7.95-.39,4.39-3.3,5.09-7,5.07-17.83-.07-35.65,0-53.47,0L40,379.91c-5.72,0-7-1.29-7.05-7.05C33,370.87,33.15,368.88,33.25,366.89Z"/><path class="cls-1" d="M123.9,203.46a32.87,32.87,0,0,1,32.61,33.25c-.22,17.81-15.81,33.08-33.44,32.77s-33-16-32.7-33.58A33.19,33.19,0,0,1,123.9,203.46Z"/><path class="cls-1" d="M235.18,236.05a32.92,32.92,0,0,1,33.25-32.63c17.86.21,32.75,15.17,32.67,32.84-.08,17.83-15.26,33-33.14,33.06C250.36,269.4,235.12,253.94,235.18,236.05Z"/><path class="cls-1" d="M195.62,252c4.17,0,8.44-.57,12.46.2a10.51,10.51,0,0,1,6.68,4.71c.67,1.31-1.72,4.39-3.06,6.47a8.11,8.11,0,0,1-3.16,2.38c-8.7,4.47-8.16,12.47-7.49,20.29.14,1.55,2,3.32,3.56,4.29,2.35,1.51,5.09,2.41,7.65,3.59,2.75,1.27,4.77,3.65,3,6.24-1.27,1.82-4.63,3.46-6.74,3.13-3.46-.54-6.59-3-10-4.13a10.14,10.14,0,0,0-5.8-.13c-3.47,1-6.75,2.68-10.14,4-3,1.19-5.88.63-7.12-2.45-1.35-3.35.33-6,3.71-6.94,9.19-2.43,11.92-8.62,10-17.2a20.67,20.67,0,0,0-4.16-7.93c-1.61-2-4.43-3.09-6.08-5.1-1.52-1.85-3.51-4.9-2.9-6.51.8-2.08,3.81-4.21,6.16-4.6,4.38-.72,9-.21,13.46-.21Z"/><path class="cls-4" d="M307.23,295.54c-6.49,0-13,.07-19.47,0-3.72-.05-7.42-.9-7.3-5.54.12-4.31,3.37-5.71,7.32-5.72,13.31-.06,26.61-.15,39.92-.18,3.92,0,7.22,1.43,7.31,5.75.1,4.62-3.53,5.48-7.32,5.5-6.82,0-13.64,0-20.46,0Z"/><path class="cls-4" d="M82.28,295.56c-6.48,0-13,0-19.43,0-3.69,0-7.18-.63-7.56-5.3-.3-3.71,2.58-6,7.43-6.05,13-.07,25.9-.07,38.85-.09a12,12,0,0,1,2.48.14c3.24.68,5.56,2.34,5.37,6s-2.65,4.89-5.73,4.95c-7.14.14-14.28.05-21.41.05Z"/><ellipse class="cls-5" cx="995.13" cy="206.92" rx="87.16" ry="96.37"/><path class="cls-5" d="M640.73,113.62H586.31v66.89h54.42c16.78,0,26.79-12.5,26.79-33.45S657.51,113.62,640.73,113.62Z"/><path class="cls-3" d="M640.73,34.83H491.15V379h68.93V282.64a23.37,23.37,0,0,1,23.35-23.34h57.3c91.52,0,124-60.46,124-112.24C764.73,75.74,719.53,34.83,640.73,34.83Zm38.92,154.6c-9.58,11.16-23.4,17.3-38.92,17.3h-57.3a23.37,23.37,0,0,1-23.35-23.34V110.74A23.37,23.37,0,0,1,583.43,87.4h57.3c15.52,0,29.34,6.14,38.92,17.3,9.22,10.74,14.1,25.39,14.1,42.36S688.87,178.69,679.65,189.43Z"/><path class="cls-3" d="M995.13,26.64c-112,0-184.37,70.77-184.37,180.28S883.13,387.2,995.13,387.2s184.37-70.76,184.37-180.28S1107.13,26.64,995.13,26.64Zm82.63,268.82c-20.41,22.28-49,34.06-82.63,34.06s-62.23-11.78-82.64-34.06c-20.12-22-30.75-52.58-30.75-88.54s10.63-66.58,30.75-88.54c20.41-22.28,49-34,82.64-34s62.22,11.77,82.63,34.05c20.12,22,30.75,52.58,30.75,88.54S1097.88,273.5,1077.76,295.46Z"/><path class="cls-1" d="M640.73,87.4h-57.3a23.37,23.37,0,0,0-23.35,23.34v72.65a23.37,23.37,0,0,0,23.35,23.34h57.3c15.52,0,29.34-6.14,38.92-17.3,9.22-10.74,14.1-25.39,14.1-42.37s-4.88-31.62-14.1-42.36C670.07,93.54,656.25,87.4,640.73,87.4Zm0,93.11H586.31V113.62h54.42c16.78,0,26.79,12.5,26.79,33.44S657.51,180.51,640.73,180.51Z"/><path class="cls-1" d="M995.13,84.33c-33.66,0-62.23,11.77-82.64,34.05-20.12,22-30.75,52.58-30.75,88.54s10.63,66.58,30.75,88.54c20.41,22.28,49,34.06,82.64,34.06s62.22-11.78,82.63-34.06c20.12-22,30.75-52.58,30.75-88.54s-10.63-66.58-30.75-88.54C1057.35,96.1,1028.78,84.33,995.13,84.33Zm0,219c-53.77,0-87.17-36.92-87.17-96.37s33.4-96.37,87.17-96.37,87.16,36.93,87.16,96.37S1048.89,303.29,995.13,303.29Z"/><path class="cls-3" d="M1318.94,313.66a13.07,13.07,0,0,1-5.34-10.56V34.83h-68.93V379h222.41V326.45H1337C1327.58,326.45,1322.17,319.14,1318.94,313.66Z"/><path class="cls-3" d="M1444.16,87.4h79a23.37,23.37,0,0,1,23.34,23.34V379h68.94V110.74a23.37,23.37,0,0,1,23.35-23.34h79V34.83H1444.16Z"/><path class="cls-3" d="M1970.07,253c0,23.31-5.75,41.93-17.11,55.34-11.73,13.87-28.93,21.21-49.72,21.21s-38-7.34-49.72-21.21c-11.35-13.41-17.11-32-17.11-55.34V34.83h-68.94V253c0,86.56,48.22,134.23,135.77,134.23S2039,339.53,2039,253V34.83h-68.94Z"/><rect class="cls-3" x="2112.35" y="149.43" width="68.94" height="229.58"/><path class="cls-3" d="M2184.87,64.69a38,38,0,1,0-38,38.05A38.09,38.09,0,0,0,2184.87,64.69Z"/><path class="cls-4" d="M525.18,386.38c-8.21,0-16.42.12-24.62,0-4.71-.09-9.4-1.52-9.24-9.33.15-7.23,4.26-9.58,9.25-9.61,16.84-.09,33.67-.25,50.5-.3,4.95,0,9.13,2.4,9.25,9.67.12,7.77-4.48,9.21-9.26,9.24-8.63.05-17.26,0-25.88,0Z"/><path class="cls-4" d="M1353.74,388.82c-26.52,0-53,.12-79.57,0-15.21-.09-30.35-1.52-29.84-9.32.48-7.24,13.76-9.59,29.9-9.62q81.6-.13,163.21-.3c16,0,29.51,2.4,29.87,9.67.39,7.77-14.45,9.21-29.93,9.24-27.88.06-55.76,0-83.64,0Z"/><path class="cls-4" d="M1580.18,388.82c-8.21,0-16.42.12-24.62,0-4.71-.09-9.4-1.52-9.24-9.32.15-7.24,4.26-9.59,9.25-9.62,16.84-.09,33.67-.24,50.5-.3,5,0,9.13,2.4,9.25,9.67.12,7.77-4.48,9.21-9.26,9.24-8.63.06-17.26,0-25.88,0Z"/><path class="cls-4" d="M2146.32,386.82c-8.21,0-16.42.12-24.62,0-4.71-.09-9.39-1.52-9.23-9.32.14-7.24,4.25-9.59,9.24-9.62,16.84-.09,33.67-.24,50.51-.3,5,0,9.13,2.4,9.24,9.67.12,7.77-4.47,9.21-9.26,9.24-8.63.06-17.25,0-25.88,0Z"/><path class="cls-4" d="M2146.36,112.82c-5.83,0-11.65.12-17.48,0-3.35-.09-6.67-1.52-6.56-9.32.11-7.24,3-9.59,6.57-9.62,12-.09,23.91-.24,35.86-.3,3.52,0,6.49,2.4,6.57,9.67.08,7.77-3.18,9.21-6.58,9.24-6.13.06-12.25,0-18.38,0Z"/><path class="cls-4" d="M1902.2,396.82c-14.27,0-28.55.12-42.82,0-8.18-.09-16.33-1.52-16.05-9.32.25-7.24,7.4-9.59,16.08-9.62,29.28-.09,58.55-.24,87.83-.3,8.61,0,15.88,2.4,16.07,9.67.21,7.77-7.77,9.21-16.1,9.24-15,.06-30,0-45,0Z"/><path class="cls-4" d="M994.07,396.82c-15.94,0-31.88.12-47.81,0-9.15-.09-18.24-1.52-17.93-9.32.28-7.24,8.27-9.59,18-9.62q49-.13,98.07-.3c9.62,0,17.74,2.4,18,9.67.24,7.77-8.68,9.21-18,9.24-16.75.06-33.51,0-50.26,0Z"/><path class="cls-1" d="M2184.17,123.21h-10.76a64.28,64.28,0,1,0-53.17,0h-10.77a23.37,23.37,0,0,0-23.34,23.34V381.89a23.37,23.37,0,0,0,23.34,23.34h74.7a23.37,23.37,0,0,0,23.34-23.34V146.55A23.37,23.37,0,0,0,2184.17,123.21Zm-71.82,26.22h68.94V379h-68.94Zm-3.57-84.74a38,38,0,1,1,38,38.05A38.09,38.09,0,0,1,2108.78,64.69Z"/><path class="cls-1" d="M2041.89,8.61h-74.7A23.37,23.37,0,0,0,1943.85,32V253c0,33.39-13.66,50.32-40.61,50.32s-40.61-16.93-40.61-50.32V32a23.37,23.37,0,0,0-23.34-23.34H1764.6a23.38,23.38,0,0,0-22,15.51,23.38,23.38,0,0,0-22-15.51H1441.28A23.37,23.37,0,0,0,1417.94,32V90.27a23.37,23.37,0,0,0,23.34,23.35h79V381.89a23.37,23.37,0,0,0,23.34,23.35h74.7a23.37,23.37,0,0,0,23.34-23.35V113.62h79a23.35,23.35,0,0,0,20.63-12.44V253c0,49.52,14.81,90.36,42.84,118.1s69.19,42.35,119.15,42.35,91.17-14.65,119.16-42.35,42.83-68.58,42.83-118.1V32A23.37,23.37,0,0,0,2041.89,8.61ZM1717.74,87.4h-79a23.37,23.37,0,0,0-23.35,23.34V379h-68.94V110.74a23.37,23.37,0,0,0-23.34-23.34h-79V34.83h273.58ZM2039,253c0,86.56-48.22,134.23-135.77,134.23S1767.47,339.53,1767.47,253V34.83h68.94V253c0,23.31,5.76,41.93,17.11,55.34,11.74,13.87,28.93,21.21,49.72,21.21s38-7.34,49.72-21.21c11.36-13.41,17.11-32,17.11-55.34V34.83H2039Z"/><path class="cls-1" d="M1470,300.23h-128.5c-.4-.69-.78-1.38-1-1.85s-.4-.72-.6-1.06V32a23.37,23.37,0,0,0-23.34-23.34h-74.69A23.37,23.37,0,0,0,1218.44,32V381.89a23.38,23.38,0,0,0,23.35,23.35H1470a23.38,23.38,0,0,0,23.35-23.35V323.57A23.37,23.37,0,0,0,1470,300.23ZM1467.08,379H1244.67V34.83h68.93V303.1a13.07,13.07,0,0,0,5.34,10.56c3.23,5.48,8.64,12.79,18,12.79h130.13Z"/><path class="cls-1" d="M1147.93,56.73C1110.25,19.89,1057.41.42,995.13.42S880,19.89,842.33,56.73c-25.41,24.84-42.76,56.45-51.41,93.12q0-1.4,0-2.79c0-43-14.41-78.51-41.68-102.78C723.05,20.94,685.52,8.61,640.73,8.61H488.27A23.37,23.37,0,0,0,464.93,32V381.89h0a23.38,23.38,0,0,0,23.35,23.35H563a23.38,23.38,0,0,0,23.35-23.35V285.52h54.42c46.31,0,85-14.24,112-41.19a129,129,0,0,0,32.45-55.58c-.4,6-.62,12-.62,18.17,0,61.3,20,113.23,57.8,150.2s90.51,56.3,152.8,56.3,115.12-19.47,152.8-56.3,57.79-88.9,57.79-150.2S1185.73,93.69,1147.93,56.73ZM640.73,259.3h-57.3a23.37,23.37,0,0,0-23.35,23.34V379H491.15V34.83H640.73c78.8,0,124,40.91,124,112.23C764.73,198.84,732.25,259.3,640.73,259.3Zm354.4,127.9c-112,0-184.37-70.76-184.37-180.28S883.13,26.64,995.13,26.64,1179.5,97.41,1179.5,206.92,1107.13,387.2,995.13,387.2Z"/></g></g></svg>