<svg xmlns="http://www.w3.org/2000/svg" viewBox="0 0 3826.87 2492.8"><defs><style>.cls-1,.cls-3{fill:#2b2d42;}.cls-2{fill:#6161c1;}.cls-3{opacity:0.1;}</style></defs><g id="Calque_2" data-name="Calque 2"><g id="Calque_1-2" data-name="Calque 1"><path class="cls-1" d="M177.72,2331.38c-265-195.34-216.63-680.82,32.59-986.05,248.91-302.84,698.37-423,1210.8-674.78,515-249.22,1090.07-630.12,1584-560.76,491.07,69.22,901.27,586.32,808.6,1014.4-92.37,425.69-690.78,764.62-1143.16,952s-761.9,225.35-1204.26,290.63C1021.08,2431.92,442.72,2526.72,177.72,2331.38Z"/><path class="cls-2" d="M2791.9,422.12c223.61,246,250.71,792.49,81.65,1230.39-167,435.88-531.84,763-864.79,827.67-334.73,64.51-638.14-129.07-990.3-335.95-352.48-204.7-756.1-418.5-758.63-692.95C255.52,1176.67,653.48,845.93,964.94,640c312.94-203.61,538.77-278.07,862.79-343.55C2150,230.78,2568.3,176.12,2791.9,422.12Z"/><path class="cls-2" d="M3647.62,1478.47c-11,82.76-75,142.45-131.45,189.85-56.22,47-105,81.07-156,81.78-50.39.52-103.41-32.54-127.83-76.7s-20.45-99-5.18-148.35c15.5-49.75,41.88-94.21,101.65-149.85,59.59-56.27,152.17-123.94,219.51-104.85C3616.05,1289.65,3658.39,1395.08,3647.62,1478.47Z"/><path class="cls-2" d="M3380.87,1056c19.65-57.45,26.93-119.86,52.2-130,25.15-10.29,68.08,31.88,110.24,59.85,42.08,28.3,83.19,42.55,98.83,76.58,15.43,34.19,5.14,87.79-25.74,104.83-30.66,16.89-81.92-2.79-138.4-.52s-118.26,26.82-133.42,12.91C3329.64,1165.66,3361.44,1113.32,3380.87,1056Z"/><path class="cls-2" d="M3229,1.91c101.15,12.75,184,95.75,220.06,173.73,36.37,77.46,26.43,150.26,42.31,264.25s58.28,270.41.68,342.89c-58,73-215.92,62.08-295-11.62s-80-210-118.62-331.63c-38-121.28-113.31-228.42-91.33-311.18C3008.76,46.12,3128.18-11.37,3229,1.91Z"/><path class="cls-3" d="M2812.54,699.13c-8.61,38.64-64.37,56.92-110.06,44.34-45.41-12.67-80.48-56.27-133.07-100.4-52.45-44.54-122.3-89.29-138.68-147-16.25-57.38,20.7-127.64,72.29-138.25,51.32-10.53,117.69,38.83,160.28,79.49s61.82,72.86,90.5,118.35C2782.61,601.47,2821.15,660.48,2812.54,699.13Z"/><path class="cls-3" d="M3405.84,195.5c-8.8,19.22-48,32.28-77.91,29.76-29.76-2.59-50.14-20.83-82.35-38-32.07-17.35-75.91-33.46-82.56-59.91s23.83-62.88,59.57-71.95c35.54-9,76.67,9.59,102.37,25.84s36.24,30.23,52.16,49.87S3414.64,176.28,3405.84,195.5Z"/><path class="cls-3" d="M2801.32,921.39c-8.31,7.42-23.7,2.35-31.74-8.11s-8.52-26.24-12.87-45.07-12.32-40.74-6.39-56.67,25.74-25.8,38.94-19.67,19.66,28.42,22.36,44.8,1.64,26.94.46,42.12S2809.64,914,2801.32,921.39Z"/><path class="cls-3" d="M3596.07,1448c-13.41,6.24-40.19-4.55-55-19.49s-17.27-33.85-26.65-57.59c-9.21-23.8-25.26-52.27-16.8-69.38s41.22-22.7,64.37-11.31,36.5,39.89,42.83,60.21,5.59,32.55,5.16,50.23S3609.48,1441.75,3596.07,1448Z"/><path class="cls-3" d="M3424.87,958.8c10.58-10.33,39.42-9,58.35.17s27.51,26.21,44.23,45.51,41.15,41,38.84,59.89-31.38,35.07-57,32-47.65-25.55-60.35-42.62-16.06-28.86-21.51-45.68S3414.28,969.14,3424.87,958.8Z"/></g></g></svg>