<?xml version="1.0" encoding="utf-8"?>
<!-- Generator: Adobe Illustrator 24.1.2, SVG Export Plug-In . SVG Version: 6.00 Build 0)  -->
<svg version="1.1" id="Calque_1" xmlns="http://www.w3.org/2000/svg" xmlns:xlink="http://www.w3.org/1999/xlink" x="0px" y="0px"
	 viewBox="0 0 516.3 242.2" style="enable-background:new 0 0 516.3 242.2;" xml:space="preserve">
<style type="text/css">
	.st0{opacity:0.6;}
	.st1{fill:#FCFDFD;}
</style>
<g id="Calque_2_1_" class="st0">
	<g id="Calque_1-2">
		<path class="st1" d="M0,128.4c0,0.3,0,0.5,0,0.8h0.1c0-1.5,0.1-3,0.2-4.5v117.5h516v-178H516c0,0.1,0,0.2,0,0.3
			c-0.4,35.6-29.7,64.1-65.3,63.7c-35-0.4-63.2-28.7-63.7-63.7c0-0.1,0-0.2,0-0.3H387c0-35.6-28.9-64.4-64.5-64.4
			c-35.6,0-64.4,28.9-64.4,64.4H258c0,0.1,0,0.2,0,0.3c-0.4,35.6-29.7,64.1-65.3,63.7c-35-0.4-63.2-28.7-63.7-63.7
			c0-0.1,0-0.2,0-0.3H129c0-35.6-28.9-64.4-64.5-64.4C29-0.2,0.1,28.6,0.1,64.2H0c0,0.1,0,0.2,0,0.3V128.4z"/>
	</g>
</g>
</svg>
