<svg xmlns="http://www.w3.org/2000/svg" viewBox="0 0 516.29 192.91"><defs><style>.cls-1{fill:#7f7eff;}</style></defs><g id="Calque_2" data-name="Calque 2"><g id="Calque_1-2" data-name="Calque 1"><path class="cls-1" d="M516.27,64.45c0-.24,0-.49,0-.74h-.12a64.45,64.45,0,0,1-128.89,0h-.16a64.44,64.44,0,0,0-128.87,0h-.09c0,.25,0,.5,0,.74a64.45,64.45,0,0,1-59.62,64.26h-9.67a64.44,64.44,0,0,1-59.62-64.26c0-.24,0-.49,0-.74h-.13a64.44,64.44,0,0,0-128.87,0H0v65H.28a2.26,2.26,0,0,1,0-.26,64.46,64.46,0,0,1,128.91,0c0,.09,0,.17,0,.26h.09a64.45,64.45,0,0,0,128.89,0h.13a2.26,2.26,0,0,1,0-.26,64.46,64.46,0,0,1,128.91,0c0,.09,0,.17,0,.26h.05a64.45,64.45,0,0,0,128.9,0h.16a2.26,2.26,0,0,1,0-.26Z"/></g></g></svg>