<svg xmlns="http://www.w3.org/2000/svg" viewBox="0 0 516.29 242.2"><defs><style>.cls-1{fill:#2b2d42;}</style></defs><g id="Calque_2" data-name="Calque 2"><g id="Calque_1-2" data-name="Calque 1"><path class="cls-1" d="M0,128.45c0,.25,0,.5,0,.75H.12c0-1.5.06-3,.17-4.46V242.2h516V64.2H516c0,.08,0,.17,0,.25a64.46,64.46,0,0,1-128.91,0c0-.08,0-.17,0-.25H387a64.45,64.45,0,0,0-128.9,0H258c0,.08,0,.17,0,.25a64.46,64.46,0,0,1-128.91,0c0-.08,0-.17,0-.25h-.05a64.45,64.45,0,0,0-128.9,0H0c0,.08,0,.17,0,.25Z"/></g></g></svg>