<svg xmlns="http://www.w3.org/2000/svg" viewBox="0 0 516.29 242.2"><defs><style>.cls-1{fill:#7f7eff;}</style></defs><g id="Calque_2" data-name="Calque 2"><g id="Calque_1-2" data-name="Calque 1"><path class="cls-1" d="M516.27,113.74c0-.24,0-.49,0-.74h-.12c0,1.5-.06,3-.17,4.46V0H0V178H.28a2.26,2.26,0,0,1,0-.26,64.46,64.46,0,0,1,128.91,0c0,.09,0,.17,0,.26h.09a64.45,64.45,0,0,0,128.89,0h.13a2.26,2.26,0,0,1,0-.26,64.46,64.46,0,0,1,128.91,0c0,.09,0,.17,0,.26h.05a64.45,64.45,0,0,0,128.9,0h.16a2.26,2.26,0,0,1,0-.26Z"/></g></g></svg>