<svg xmlns="http://www.w3.org/2000/svg" viewBox="0 0 1158.43 549.72"><defs><style>.cls-1{fill:#333;opacity:0.14;}</style></defs><g id="Calque_2" data-name="Calque 2"><g id="Calque_1-2" data-name="Calque 1"><path class="cls-1" d="M106.25,196.17c11.56-3.44,23.12-6.84,34.78-9.94,14.58-3.89,29.3-7.23,44.07-10.31,23.55-4.91,47.27-8.91,71.11-12.17,53.88-7.36,108.18-11,162.51-12.8,107.13-3.6,214.36-.14,321.5-3.43,52.08-1.6,104.12-4.62,155.87-10.75,27.37-3.25,54.68-7.25,81.73-12.51,17.34-3.38,34.66-7,51.68-11.78,30.79-8.61,61.11-21.22,85.5-42.36a148.83,148.83,0,0,0,24.19-26.51,126,126,0,0,0,11.2-19.44,57.59,57.59,0,0,0,3.48-8.32,83.22,83.22,0,0,0,4.06-13,38.52,38.52,0,0,0-3.84,1c-.48.16-3.41.76-3.66,1.52a161.55,161.55,0,0,1-6,16.22,111,111,0,0,1-10.82,18.56,142,142,0,0,1-23.25,25.54c-23.5,20.36-52.69,32.71-82.33,41.17-18.75,5.35-37.89,9.58-57,13.11q-36,6.63-72.37,11.1C844,137.72,789,141,734,142.47c-104.21,2.85-208.5,0-312.7,3.5-54.54,1.82-109.11,5.4-163.22,12.67-23.93,3.22-47.79,7.15-71.45,12-29.49,6-58.46,13.85-87.46,21.83a1.09,1.09,0,0,0,.64.6c.91.53,1.84,1,2.78,1.52C103.18,194.89,105.35,196.44,106.25,196.17Z"/><path class="cls-1" d="M105.4,198.44c11.61-3.44,23.22-6.83,34.91-9.94,14.59-3.87,29.32-7.23,44.1-10.3,23.57-4.91,47.31-8.91,71.17-12.17,53.91-7.36,108.25-11,162.61-12.79,107.16-3.58,214.4-.12,321.56-3.41,52.06-1.61,104.09-4.63,155.83-10.77,27.35-3.25,54.65-7.26,81.68-12.53,17.32-3.38,34.62-7,51.61-11.78,30.71-8.6,60.92-21.21,85.21-42.34a148,148,0,0,0,24-26.38,124.67,124.67,0,0,0,11.11-19.31,56.73,56.73,0,0,0,3.45-8.26,82.86,82.86,0,0,0,4-12.91,1.83,1.83,0,0,0-1.15.11c-1.37.37-2.74.77-4.1,1.2s-2.72.85-4.07,1.31a1.74,1.74,0,0,0-1,.55A159.82,159.82,0,0,1,1140,24.47a110.69,110.69,0,0,1-11.16,17.93,141.62,141.62,0,0,1-23.55,24.52c-23.7,19.52-52.92,31.31-82.27,39.41-18.74,5.18-37.83,9.33-57,12.78q-36,6.48-72.28,10.83c-54.6,6.52-109.59,9.65-164.54,11.11-104.26,2.77-208.61,0-312.85,3.88-54.62,2-109.25,5.83-163.41,13.37-23.95,3.33-47.82,7.38-71.5,12.3C152,176.73,123,184.67,93.93,192.41a2.48,2.48,0,0,0,1.1.84q2.23,1.26,4.5,2.43t4.56,2.33A2.52,2.52,0,0,0,105.4,198.44Z"/><path class="cls-1" d="M105.89,195.39c14.42-4.25,28.85-8.39,43.43-12.06q17.55-4.41,35.27-8.09c26.49-5.51,53.2-9.91,80-13.37,54-7,108.31-10.18,162.66-11.87,113.3-3.53,226.7.52,340-4.09,36.81-1.5,73.59-3.91,110.23-7.76,27.41-2.88,54.74-6.54,81.9-11.26,21.55-3.76,43.05-8,64.21-13.64C1055,105,1085.94,93,1111.24,72.17a150,150,0,0,0,27.67-29.44,140.55,140.55,0,0,0,9.3-15.4,88.23,88.23,0,0,0,5.37-12.44,83.17,83.17,0,0,0,4-13c.07-.22-3.13.75-3,.72-.45.15-2.65.59-2.86,1.26A145.43,145.43,0,0,1,1146,20.29a117.56,117.56,0,0,1-8.2,15.29,139.86,139.86,0,0,1-25.59,29.64,163.17,163.17,0,0,1-13.71,10.88,165.74,165.74,0,0,1-15.81,9.8,236.26,236.26,0,0,1-42,18,498.17,498.17,0,0,1-50,13c-23.87,5.14-48.08,9.06-72.26,12.41l-18.17,2.38-72.79,7.07q-18.32,1.35-36.65,2.3c-27.56,1.45-55.14,2.32-82.73,2.86-101.08,2-202.23-.67-303.27,3.34-48.4,1.92-96.8,5.36-144.84,11.71q-40.38,5.34-80.27,13.68-17.76,3.75-35.34,8.21c-14.6,3.7-29.1,7.81-43.63,11.79-.12,0,2.53,1.65,2.49,1.63C103.7,194.58,105.14,195.62,105.89,195.39Z"/><path class="cls-1" d="M105,196.55c11.55-3.44,23.1-6.83,34.75-9.93,14.58-3.89,29.31-7.24,44.07-10.31,23.56-4.92,47.29-8.92,71.13-12.18,53.88-7.38,108.19-11,162.52-12.83,107.14-3.6,214.37-.15,321.51-3.44,52.07-1.6,104.11-4.61,155.87-10.74,27.35-3.24,54.67-7.24,81.72-12.5,17.33-3.38,34.65-7,51.67-11.78,30.77-8.59,61.08-21.18,85.46-42.29a148.81,148.81,0,0,0,24.19-26.45,125.74,125.74,0,0,0,11.21-19.41,57,57,0,0,0,3.48-8.31,82.58,82.58,0,0,0,4.07-13,33,33,0,0,0-3.68.92c-.47.16-3.26.73-3.5,1.47a162.09,162.09,0,0,1-6,16.24,111.11,111.11,0,0,1-10.9,18.57,141.5,141.5,0,0,1-23.38,25.51c-23.59,20.29-52.87,32.58-82.55,41-18.76,5.32-37.92,9.53-57.09,13q-36,6.61-72.4,11.06c-54.65,6.66-109.7,9.88-164.71,11.38-104.2,2.83-208.48,0-312.66,3.57-54.53,1.86-109.07,5.47-163.15,12.79-23.92,3.23-47.76,7.18-71.41,12-29.47,6-58.42,13.87-87.4,21.84a1.1,1.1,0,0,0,.65.6c.92.53,1.86,1.05,2.81,1.54C101.88,195.26,104.07,196.82,105,196.55Z"/><path class="cls-1" d="M106,195c14.43-4.35,28.87-8.53,43.49-12.2q17.56-4.39,35.27-8.07c26.49-5.51,53.21-9.9,80-13.34,53.94-6.94,108.31-10.2,162.65-11.81,110.23-3.27,220.56.53,330.77-3.69,52.06-2,104.07-5.57,155.72-12.48,27.34-3.65,54.59-8.17,81.58-13.88a454.89,454.89,0,0,0,50.19-13.29c23.64-7.92,46.34-18.75,65.67-34.7A149.72,149.72,0,0,0,1139,42a141.17,141.17,0,0,0,9.27-15.44,86.69,86.69,0,0,0,5.35-12.47,83,83,0,0,0,4-13.08c.08-.26-2.67.6-2.57.56-.43.15-2.21.5-2.4,1.12a144.82,144.82,0,0,1-5.62,16.61A128.33,128.33,0,0,1,1139,34.74c-6.77,11.23-15.73,21.27-25.44,30a161.6,161.6,0,0,1-13.68,11.06,166.27,166.27,0,0,1-15.81,10,107.76,107.76,0,0,1-20.73,9.59,162.93,162.93,0,0,1-26.58,10.35q-11,3.34-22.12,6.13c-19.34,4.82-38.93,8.68-58.57,12.07-27.1,4.68-54.38,8.3-81.74,11.14-51.79,5.39-103.84,8-155.89,9.09-101.08,2.2-202.23-.43-303.29,3.08-51.43,1.78-102.86,5.15-153.91,11.83-26.9,3.52-53.69,8-80.24,13.55q-17.76,3.74-35.34,8.16c-14.5,3.66-28.84,7.8-43.2,12-.62.18.75.85.75.85C103.72,193.94,105.37,195.15,106,195Z"/><path class="cls-1" d="M104.93,197.58c11.61-3.42,23.22-6.79,34.91-9.9,14.59-3.88,29.31-7.24,44.08-10.32,23.57-4.91,47.31-8.92,71.16-12.18,53.9-7.38,108.23-11,162.58-12.84,107.15-3.6,214.39-.15,321.54-3.44,52.07-1.59,104.1-4.61,155.84-10.74,27.35-3.25,54.66-7.24,81.7-12.51,17.32-3.37,34.62-7,51.63-11.76,30.72-8.59,61-21.17,85.32-42.26a148.63,148.63,0,0,0,24.1-26.38A125.49,125.49,0,0,0,1149,25.92a58.08,58.08,0,0,0,3.47-8.27,82.47,82.47,0,0,0,4-12.93c0-.11-4.73,1.16-4.65,1.14-.5.15-4.19.86-4.47,1.69a160.92,160.92,0,0,1-6.21,15.92,110.41,110.41,0,0,1-11.05,18.17,141.56,141.56,0,0,1-23.48,24.88c-23.67,19.81-52.91,31.78-82.37,40-18.75,5.22-37.87,9.39-57,12.87q-36,6.52-72.33,10.91c-54.61,6.57-109.63,9.74-164.6,11.21-104.24,2.79-208.56,0-312.78,3.77-54.59,1.95-109.19,5.7-163.32,13.16-23.94,3.3-47.8,7.31-71.47,12.2-29.48,6.09-58.48,14-87.54,21.83a1.85,1.85,0,0,0,.91.74c1.26.72,2.53,1.41,3.82,2.07s2.57,1.34,3.87,2A1.91,1.91,0,0,0,104.93,197.58Z"/><path class="cls-1" d="M107,194.43c14.38-4.4,28.78-8.58,43.37-12.24q17.55-4.4,35.26-8.06c26.49-5.49,53.21-9.86,80-13.3,54-6.9,108.32-10.08,162.67-11.74,113.3-3.45,226.71.62,340-4,55.1-2.26,110.14-6.56,164.7-14.72,25-3.74,50-8.13,74.66-13.87a381.1,381.1,0,0,0,49.79-14.7c15.4-5.89,30.42-13.14,44-22.62a161.56,161.56,0,0,0,27.1-23.8,134.92,134.92,0,0,0,11.31-14.18,153.32,153.32,0,0,0,9.25-15.49,88.2,88.2,0,0,0,5.33-12.51,84.18,84.18,0,0,0,4-13.12c.08-.29-2.3.51-2.21.48-.43.15-1.85.44-2,1a147.31,147.31,0,0,1-5.52,16.76,120.16,120.16,0,0,1-8,15.6l-21.94,27.25-6.52,6a147.36,147.36,0,0,1-17.56,13.18c-25.41,16.48-54.56,26-83.83,33-47.22,11.28-95.51,18.21-143.8,23-51.83,5.1-103.9,7.36-156,8.39-101.07,2-202.2-.71-303.24,3.1C359.43,149.58,311,152.9,263,159.11c-26.9,3.48-53.68,7.9-80.23,13.44q-17.76,3.7-35.33,8.12c-14.46,3.64-28.72,7.79-43,12.12-.54.16.46.7.49.72C105.33,193.76,106.51,194.59,107,194.43Z"/><path class="cls-1" d="M106.47,194.92c14.47-4.2,28.94-8.34,43.55-12q17.55-4.41,35.27-8.09c26.49-5.51,53.21-9.9,80-13.35,53.95-6.94,108.32-10.22,162.66-11.83,110.24-3.28,220.57.52,330.78-3.7,52.06-2,104.06-5.57,155.71-12.47,27.34-3.65,54.58-8.16,81.57-13.87,9.47-2,18.89-4.27,28.25-6.75,31.37-8.31,62.33-20.34,87.62-41.16a149.89,149.89,0,0,0,27.65-29.49,140.12,140.12,0,0,0,9.29-15.42,87.32,87.32,0,0,0,5.37-12.46,83.58,83.58,0,0,0,4-13.06c.07-.24-3,.71-2.93.68-.44.14-2.55.57-2.75,1.23a146.31,146.31,0,0,1-5.7,16.51A128.54,128.54,0,0,1,1138.74,35C1132,46.17,1123,56.13,1113.29,64.81c-21.89,19.62-49,32.12-76.84,40.76l-11,3.2-33.4,8.06c-11.95,2.55-24,4.77-36,6.84-27.1,4.67-54.36,8.28-81.7,11.11-51.78,5.38-103.83,7.94-155.86,9.07-101.1,2.19-202.26-.43-303.34,3.11-51.46,1.8-102.92,5.2-154,11.9-26.92,3.54-53.72,8-80.29,13.61q-17.76,3.74-35.35,8.18c-14.59,3.69-29.07,7.79-43.6,11.71-.65.18,1.34,1.18,1.51,1.27C104.1,194,105.61,195.17,106.47,194.92Z"/><path class="cls-1" d="M105.29,195.9l17.2-5.15,70.23-16.9q17.68-3.53,35.51-6.38c23.74-3.84,47.63-6.87,71.56-9.28,57.38-5.78,115.06-7.94,172.69-8.8,101.16-1.52,202.42,1.2,303.51-3.49,49-2.27,97.87-6.06,146.41-12.9,24.27-3.42,48.5-7.48,72.46-12.64,15-3.23,30-6.81,44.71-11.42a250.37,250.37,0,0,0,42.75-17.5,169.78,169.78,0,0,0,35-24.64,144.25,144.25,0,0,0,23.35-27.24,122.2,122.2,0,0,0,8.74-15.7,57.24,57.24,0,0,0,3.48-8.33,83.55,83.55,0,0,0,4.06-13,20.49,20.49,0,0,0-3.25.78c-.45.15-2.84.64-3.06,1.33L1148,13a83.56,83.56,0,0,1-5.19,11.93A121.18,121.18,0,0,1,1134,39.78a148,148,0,0,1-26.55,28.72,139.38,139.38,0,0,1-17.65,12.6,203.19,203.19,0,0,1-24,12.68,315.71,315.71,0,0,1-48.68,16.45c-21.16,5.42-42.58,9.7-64.11,13.37-27.09,4.61-54.36,8.17-81.7,11-57.88,5.92-116.08,8.34-174.24,9.28-98,1.57-195.95-.56-293.85,3.28-57.45,2.26-114.89,6.87-171.7,15.81-20.93,3.29-41.81,7.09-62.48,11.76-23.44,5.3-46.58,11.67-69.73,18.11a.79.79,0,0,0,.52.52c.75.46,1.52.88,2.31,1.28C102.78,194.91,104.49,196.14,105.29,195.9Z"/><path class="cls-1" d="M64.13,547.4C183.41,491.2,300.32,430,413.68,362.66q82.29-48.92,162-102C632.42,222.87,688,183.43,742.75,142.83a1.06,1.06,0,0,0-.83-.29c-1.07-.13-2.15-.24-3.22-.31-.8-.07-3.3-.63-4.11,0Q656,200.28,574.87,254.73q-83.11,55.54-169.23,106.43-82.26,48.73-166.88,93.31-42.84,22.61-86.17,44.22c-31.76,15.85-63.61,31.56-96.05,46a1.08,1.08,0,0,0,.72.5q1.47.62,3,1.14C60.88,546.55,63.29,547.8,64.13,547.4Z"/><path class="cls-1" d="M63.15,549.7c119.4-55.89,236.26-117.34,349.6-184.7q82.28-48.92,162-102c56.72-37.78,112.29-77.21,167-117.8a2.16,2.16,0,0,0-1.25-.34c-1.58-.2-3.17-.37-4.76-.5s-3.18-.29-4.78-.38a2.08,2.08,0,0,0-1.28.11q-78.63,58-159.81,112.28-83.15,55.39-169.28,106.15-82.3,48.6-166.93,93.07-42.84,22.54-86.18,44.12-23.9,11.91-47.94,23.53c-15.94,7.7-32,15.11-48.2,22.17a2.29,2.29,0,0,0,1.16.66q2.31.92,4.65,1.75t4.69,1.63A2.27,2.27,0,0,0,63.15,549.7Z"/><path class="cls-1" d="M63.78,546.59q163.4-76.53,319.69-167.16,90.18-52.49,177.32-109.94C622.58,228.74,683,186.06,742.46,142a.74.74,0,0,0-.63-.28q-1.22-.16-2.43-.24c-.7-.06-2.42-.45-3.1.05C683.93,180.26,630.82,218,576.6,254.17q-76,50.67-154.32,97.69t-158.6,90Q225,462.55,185.94,482.49q-39.43,20.14-79.33,39.42l-16.14,7.78q-16,7.84-32.34,14.87c-.11.05,2.78,1.3,2.73,1.29C61.45,546.06,63.07,546.92,63.78,546.59Z"/><path class="cls-1" d="M62.84,547.81C182.1,491.62,299,430.47,412.35,363.1q82.31-48.9,162-102c56.73-37.79,112.31-77.22,167.07-117.81a1.1,1.1,0,0,0-.82-.3q-1.58-.19-3.15-.3c-.78-.06-3.21-.6-4,0Q654.84,200.76,573.7,255.21q-83.15,55.53-169.26,106.42-82.29,48.71-166.93,93.29-42.82,22.6-86.17,44.22c-31.76,15.84-63.61,31.54-96,46a1.06,1.06,0,0,0,.71.5c1,.4,2,.78,3,1.13C59.62,547,62,548.2,62.84,547.81Z"/><path class="cls-1" d="M63.9,546.08c58.82-27.88,117.15-56.71,174.77-87q88.61-46.6,174.71-97.81,82.29-48.93,162-102C632.11,221.43,687.7,182,742.45,141.37c.56-.42-1.23-.51-1.17-.5-.69-.08-2.87-.6-3.5-.13q-78.56,58.2-159.67,112.76Q495,309.17,408.94,360.17,326.7,409,242.08,453.68c-60,31.71-120.61,62.19-182.15,90.69-.59.27.89.75.9.75C61.38,545.35,63.28,546.37,63.9,546.08Z"/><path class="cls-1" d="M62.72,548.88q179.22-83.55,349.65-184.67,82.28-48.9,162-102c56.73-37.78,112.3-77.21,167-117.8a1.69,1.69,0,0,0-1.08-.33c-1.36-.17-2.74-.32-4.11-.43s-2.75-.24-4.13-.32a1.72,1.72,0,0,0-1.12.13q-78.62,58-159.79,112.37Q488,311.31,401.9,362.12,319.61,410.75,235,455.27q-42.83,22.56-86.17,44.15C117,515.26,85.17,531,52.64,545.24a1.74,1.74,0,0,0,1,.59q2,.79,4,1.5c1.33.49,2.67.95,4,1.38A1.73,1.73,0,0,0,62.72,548.88Z"/><path class="cls-1" d="M64.87,545.44c32.17-15.39,64.33-30.79,96.2-46.77q39.44-19.76,78.46-40.29,88.61-46.61,174.7-97.83,82.29-48.94,162-102.06c56.73-37.81,112.3-77.27,167-117.89.51-.38-1-.48-.94-.47-.61-.07-2.31-.45-2.85,0q-78.56,58.23-159.64,112.84Q496.78,308.63,410.7,359.67q-82.24,48.87-166.85,93.59C183.92,485,123.17,515.06,61.9,544.08c-.52.25.6.66.64.67C63,545,64.38,545.68,64.87,545.44Z"/><path class="cls-1" d="M64.42,546.12c119.41-55.7,236.2-117.33,349.47-184.67q82.29-48.92,162-102Q661,202.73,743,141.58c.6-.44-1.43-.52-1.36-.51-.89-.09-1.78-.16-2.68-.21a4.38,4.38,0,0,0-1.4,0Q659,199.05,577.85,253.61q-83.08,55.62-169.16,106.61Q326.45,409,241.83,453.69,199,476.32,155.69,498c-31.9,15.94-63.89,31.78-96.46,46.28a22.06,22.06,0,0,0,2.49,1.21C62.3,545.67,63.74,546.43,64.42,546.12Z"/><path class="cls-1" d="M63.18,547.12C182.4,490.8,299.32,429.76,412.69,362.37q82.29-48.92,162-102,85.11-56.7,167.07-117.83a.82.82,0,0,0-.69-.29c-.89-.11-1.78-.2-2.67-.26-.73-.06-2.69-.5-3.41,0q-78.59,58.11-159.73,112.61Q492.15,310.21,406,361.14q-82.27,48.75-166.9,93.37Q196.29,477.13,153,498.76c-31.78,15.86-63.66,31.56-96.08,46.09a.82.82,0,0,0,.58.45c.81.34,1.64.66,2.47,1C60.54,546.47,62.43,547.47,63.18,547.12Z"/><path class="cls-1" d="M55.49,423.84c17.15-14.15,34.62-27.74,53-40.22,16-10.88,32.57-21,49.47-30.44a825.91,825.91,0,0,1,113.19-52.25c73.41-27.63,150-46.18,227.3-59.15C676.76,211.85,858,210,1038.28,214.14a1,1,0,0,0-.5-.71c-.77-.72-1.57-1.42-2.39-2.09-.64-.54-2.24-2.35-3.26-2.37-180.59-3.91-362.36-1.76-540.83,29.08-77.58,13.4-154.45,32.51-228,60.83a858.73,858.73,0,0,0-106.2,49.32c-19.47,10.74-38.43,22.51-56.76,35.1s-35.57,26.18-52.92,39.89a1.08,1.08,0,0,0,.83.3c1.06.13,2.12.24,3.18.32C52.15,423.86,54.77,424.44,55.49,423.84Z"/><path class="cls-1" d="M54.29,426.29c17.23-14.11,34.74-27.73,53.19-40.24,16-10.89,32.59-21,49.51-30.48a828,828,0,0,1,113.33-52.33c73.47-27.65,150.17-46.21,227.51-59.18,178.35-29.92,359.67-31.72,540-27.6a2.82,2.82,0,0,0-.94-1.12c-1.33-1.22-2.69-2.42-4.06-3.6s-2.74-2.37-4.14-3.51a2.68,2.68,0,0,0-1.24-.78c-180.73-3.7-362.75-1.21-541.24,30.4-77.64,13.75-154.53,33.29-228,62.1a860.55,860.55,0,0,0-106,50.05c-19.43,10.87-38.34,22.76-56.63,35.45s-35.54,26.29-53,39.89a2.1,2.1,0,0,0,1.21.33c1.54.17,3.09.32,4.63.43s3.1.24,4.65.32A2,2,0,0,0,54.29,426.29Z"/><path class="cls-1" d="M55.16,423q19-16.08,39.25-30.57,13.52-9.69,27.52-18.66c14-9,28.29-17.33,42.83-25.34,34-18.73,69.66-34.4,106-48.17,36.6-13.89,74.15-25.2,112-35,40.71-10.51,82-18.73,123.5-25.47,85.37-13.86,171.61-21.53,258-25.17,91.12-3.84,182.32-3.16,273.49-1.07.75,0-.88-1.28-.8-1.21q-1-.87-2-1.71a4.67,4.67,0,0,0-1.15-.78c-180.51-4-362.13-2-540.57,28.5-77.52,13.24-154.36,32.14-227.92,60.2A858.28,858.28,0,0,0,159,347.46c-19.5,10.67-38.47,22.37-56.82,34.92S66.42,408.66,49,422.45c-.08.07,3.11.54,3.06.54C52.7,423,54.54,423.46,55.16,423Z"/><path class="cls-1" d="M54.19,424.29c17.15-14.14,34.61-27.72,53-40.2,16-10.88,32.57-21,49.47-30.46a827.94,827.94,0,0,1,113.2-52.28c73.41-27.65,150-46.21,227.32-59.2,178.28-30,359.56-31.77,539.83-27.67a1.19,1.19,0,0,0-.53-.74c-.82-.75-1.66-1.48-2.51-2.19-.66-.55-2.36-2.47-3.41-2.49-180.55-3.87-362.28-1.64-540.69,29.3-77.52,13.45-154.34,32.61-227.82,61A856.84,856.84,0,0,0,156,348.68c-19.46,10.74-38.4,22.51-56.72,35.1S63.7,410,46.37,423.66a1,1,0,0,0,.8.3c1,.13,2.06.23,3.09.31C51,424.33,53.48,424.88,54.19,424.29Z"/><path class="cls-1" d="M55.22,422.33q12.66-10.79,25.91-20.81t27.08-19.4c16-10.86,32.57-20.94,49.48-30.4A826.84,826.84,0,0,1,270.9,299.56c73.4-27.56,150-46.06,227.27-59C676.43,210.74,857.66,209,1037.89,213.1c.66,0-.59-1-.53-1-.48-.44-1.67-1.81-2.4-1.83-180.47-4-362-2.13-540.43,28.1C417,251.52,340.2,270.28,266.62,298.18a859,859,0,0,0-106.3,48.7c-19.51,10.63-38.5,22.29-56.86,34.79s-35.67,26.07-52.86,40c-.52.43,1.17.51,1.15.51C52.39,422.27,54.66,422.8,55.22,422.33Z"/><path class="cls-1" d="M54,425.5c17.25-14.09,34.75-27.73,53.19-40.24,16-10.88,32.58-21,49.49-30.48a826.64,826.64,0,0,1,113.26-52.33C343.36,274.78,420,256.2,497.34,243.21c178.32-30,359.63-31.79,539.94-27.68a2,2,0,0,0-.77-1q-1.68-1.56-3.43-3c-1.15-1-2.31-2-3.5-3a2.05,2.05,0,0,0-1.07-.62c-180.66-3.76-362.59-1.37-541,30C409.87,251.58,333,271,259.52,299.63a859.94,859.94,0,0,0-106.06,49.8C134,360.25,115.1,372.1,96.8,384.75S61.22,411,43.8,424.67a1.64,1.64,0,0,0,1.05.32c1.34.15,2.67.28,4,.38s2.68.21,4,.27A1.6,1.6,0,0,0,54,425.5Z"/><path class="cls-1" d="M56.08,421.5Q68.71,410.73,82,400.71T109,381.32c16-10.85,32.58-20.92,49.48-30.37a825.88,825.88,0,0,1,113.23-52.06c73.42-27.51,150-46,227.29-58.85,178.28-29.74,359.51-31.5,539.76-27.34.55,0-.29-.79-.28-.78-.33-.36-1.16-1.29-1.7-1.3-180.5-4.12-362-2.25-540.52,27.75C418.82,251.4,342,270,268.39,297.78A858.28,858.28,0,0,0,162,346.26c-19.53,10.59-38.53,22.21-56.9,34.69s-35.66,26-52.82,40c-.48.39.93.48.93.48C53.8,421.49,55.59,421.91,56.08,421.5Z"/><path class="cls-1" d="M55.79,422.43c17.15-14.07,34.57-27.63,53-40.08,16-10.87,32.56-21,49.46-30.42a827.44,827.44,0,0,1,113.2-52.19c73.41-27.59,150-46.1,227.28-59,178.26-29.86,359.51-31.65,539.74-27.52.71,0-.73-1.15-.65-1.08-.58-.51-1.17-1-1.77-1.49a3.52,3.52,0,0,0-1-.66c-180.52-4-362.12-2.09-540.6,28.23-77.54,13.18-154.41,32-228,60A858,858,0,0,0,160.06,347c-19.5,10.65-38.49,22.34-56.85,34.87S67.39,408.17,49.93,422c-.1.07,3,.52,2.9.52C53.47,422.54,55.18,422.93,55.79,422.43Z"/><path class="cls-1" d="M54.55,423.52a596.46,596.46,0,0,1,52.81-40.08l13.87-9.15c16.24-10.52,33.06-20.16,50.14-29.25a834,834,0,0,1,90.83-41.31c65.31-25.25,133.26-43.17,202-56.27,188.62-35.92,381.72-37.94,573.07-33.58a.85.85,0,0,0-.4-.63c-.65-.61-1.32-1.2-2-1.76s-1.87-1.94-2.78-2c-106.82-2.32-213.76-2.64-320.45,4-65,4-129.76,10.76-194.13,20.66C434,247.06,351,266.35,271.74,295.92c-44.38,16.56-87.61,36.37-128.53,60.27-14.47,8.45-28.61,17.45-42.46,26.87C82.46,395.49,65.14,409.22,47.84,423a.81.81,0,0,0,.68.29c.88.12,1.77.21,2.65.27C51.83,423.59,53.9,424.06,54.55,423.52Z"/><path class="cls-1" d="M1025.79,201.82c-16.31,6-33.33,9.71-50.32,13.24q-10,2.08-20,4c-20.83,3.94-41.76,7.39-62.71,10.57-41.43,6.3-83,11.68-124.6,16.64-100,11.9-200.28,21.42-300.59,30.2-95.26,8.34-190.59,15.86-285.93,23.12q-53.39,4.06-106.75,8.09c-24.56,1.88-49.13,3.8-73.65,6.09a.87.87,0,0,0,.46.6c.72.55,1.45,1.08,2.2,1.59s2.08,1.78,3,1.71c11.92-1,23.88-1.74,35.79-2.87,6-.57,12-1.25,18.09-1.7l26.78-2q59.3-4.44,118.59-8.91c106.55-8.12,213.08-16.67,319.5-26.41S738.31,255.51,844.09,241c39.23-5.37,78.44-11.24,117.3-18.92,10.69-2.11,21.36-4.4,32-6.64,7.26-1.53,14.45-3.63,21.58-5.69q8.49-2.44,16.9-5.19a.79.79,0,0,0-.55-.5c-.78-.4-1.58-.78-2.39-1.14C1028.36,202.65,1026.58,201.53,1025.79,201.82Z"/><path class="cls-1" d="M1026.55,204.84a344.48,344.48,0,0,1-35.8,10.07c-15.12,3.53-30.42,6.43-45.7,9.21-41.66,7.56-83.62,13.53-125.61,19C716.21,256.44,612.58,266.64,508.93,276c-102.54,9.25-205.17,17.45-307.82,25.3q-59.36,4.54-118.7,9c-26.91,2.05-53.82,4.13-80.69,6.62a1.36,1.36,0,0,0,.66.74c1,.74,1.93,1.46,2.93,2.16.7.5,2.83,2.51,3.92,2.42q16.53-1.35,33.06-2.61c7-.54,13.85-1.46,20.8-2l23.26-1.73q61.05-4.53,122.09-9.14c102.68-7.81,205.32-16,307.87-25.34,103.8-9.42,207.59-19.64,310.92-33.31,41-5.42,81.88-11.38,122.51-18.94,15.64-2.91,31.2-6.29,46.78-9.51,7.33-1.52,14.57-3.77,21.76-5.84,5.7-1.64,11.4-3.29,17-5.09a1.43,1.43,0,0,0-.82-.62c-1.14-.56-2.29-1.1-3.45-1.6s-2.32-1-3.5-1.5A1.45,1.45,0,0,0,1026.55,204.84Z"/><path class="cls-1" d="M1025,200.81a311.62,311.62,0,0,1-38.31,10.68c-15.4,3.45-30.92,6.39-46.45,9.15-43.8,7.8-87.89,13.91-132,19.52-103.82,13.21-208,23.32-312.27,32.64-101.83,9.1-203.75,17.2-305.69,25Q132.14,302.21,74,306.6c-24.55,1.88-49.12,3.78-73.64,6.08a.78.78,0,0,0,.44.59c.7.54,1.41,1.06,2.14,1.55s2,1.74,2.92,1.66c11.93-1,23.88-1.81,35.81-2.87,7.09-.63,14.15-1.39,21.25-1.93l23.61-1.77q64.16-4.8,128.3-9.66C324,291.9,433.18,283.09,542.21,273c106.74-9.91,213.53-20.59,319.67-35.76,37.41-5.34,74.83-11.14,111.81-19,9.92-2.11,19.86-4.1,29.67-6.67,9.22-2.42,18.38-5.16,27.43-8.12a.76.76,0,0,0-.51-.49c-.75-.39-1.52-.75-2.29-1.09C1027.39,201.58,1025.72,200.53,1025,200.81Z"/><path class="cls-1" d="M1025,202.42a322.41,322.41,0,0,1-35.71,10.07c-15.13,3.5-30.41,6.4-45.68,9.16C901.93,229.18,860,235.13,818,240.56c-103.22,13.33-206.84,23.52-310.49,32.87C405,282.69,302.36,290.88,199.7,298.73q-59.34,4.54-118.7,9c-26.9,2.05-53.82,4.11-80.69,6.62a1.15,1.15,0,0,0,.58.68c.87.66,1.76,1.3,2.66,1.91.68.48,2.53,2.19,3.56,2.11q16.53-1.37,33.07-2.62c6.94-.54,13.85-1.44,20.8-2l23.26-1.73q61.05-4.54,122.09-9.14c102.67-7.82,205.3-16,307.84-25.34C617.93,268.86,721.68,258.65,825,245c40.91-5.4,81.78-11.34,122.36-18.86,15.6-2.89,31.09-6.26,46.62-9.44,7.3-1.5,14.51-3.7,21.67-5.77,5.66-1.63,11.32-3.31,16.94-5.11a1.17,1.17,0,0,0-.71-.57c-1-.49-2-1-3-1.4C1028.22,203.55,1025.87,202.09,1025,202.42Z"/><path class="cls-1" d="M1024.57,200a320,320,0,0,1-38.35,10.67c-15.4,3.44-30.92,6.38-46.45,9.14-43.79,7.79-87.88,13.9-132,19.51-103.82,13.2-208,23.31-312.26,32.63-101.83,9.1-203.75,17.2-305.69,25q-58.1,4.44-116.18,8.83c-24.56,1.88-49.13,3.77-73.65,6.08a.76.76,0,0,0,.42.58c.67.52,1.36,1,2.06,1.49s1.94,1.66,2.81,1.59c28.09-2.4,56.18-4.74,84.29-6.85q62.36-4.67,124.69-9.39c103.31-7.91,206.6-16.23,309.79-25.67s206.13-19.66,308.72-33.43c37.48-5,74.92-10.55,112.13-17.37,15.54-2.85,31-6.15,46.44-9.4,13.08-2.76,26-6.8,38.71-10.92.11,0-2.66-1.51-2.62-1.49C1026.85,200.66,1025.32,199.7,1024.57,200Z"/><path class="cls-1" d="M1025.94,203.93A344.48,344.48,0,0,1,990.14,214c-15.13,3.51-30.42,6.42-45.7,9.19-41.66,7.55-83.61,13.51-125.6,18.94C715.62,255.49,612,265.68,508.34,275c-102.54,9.25-205.17,17.45-307.82,25.3q-59.36,4.55-118.7,9C54.91,311.39,28,313.47,1.13,316a1.31,1.31,0,0,0,.63.74c.94.72,1.89,1.42,2.86,2.1.7.49,2.76,2.44,3.83,2.35Q25,319.8,41.53,318.53c6.94-.53,13.84-1.44,20.78-1.95l23.27-1.73q61.05-4.55,122.1-9.15c102.67-7.82,205.31-16,307.86-25.34,103.79-9.42,207.56-19.64,310.88-33.3,41-5.41,81.85-11.36,122.46-18.91,15.64-2.91,31.18-6.28,46.74-9.51,7.33-1.51,14.55-3.74,21.73-5.81,5.7-1.65,11.4-3.32,17.05-5.12a1.31,1.31,0,0,0-.79-.6c-1.09-.55-2.2-1.06-3.32-1.55C1029.58,205.24,1026.92,203.59,1025.94,203.93Z"/><path class="cls-1" d="M1024.59,198.8A302.05,302.05,0,0,1,989,208.87c-15.1,3.47-30.35,6.38-45.6,9.13-41.64,7.49-83.56,13.44-125.51,18.85C714.7,250.17,611.1,260.36,507.47,269.71,404.94,279,302.31,287.15,199.67,295q-59.35,4.54-118.7,9c-26.91,2.05-53.83,4.1-80.7,6.63-.73.06.93,1.12.86,1.06.68.49,1.37,1,2.08,1.41a4,4,0,0,0,1.16.61C70.75,308,137.21,303.27,203.64,298.2c102.64-7.84,205.25-16.05,307.77-25.34,103.68-9.39,207.34-19.58,310.57-33.14,40.79-5.35,81.54-11.24,122-18.63,15.5-2.83,30.9-6.09,46.31-9.36a322.79,322.79,0,0,0,38.2-10.87c.63-.22-.88-.84-.86-.84C1027.1,199.75,1025.25,198.56,1024.59,198.8Z"/><path class="cls-1" d="M1025.29,200.22a331.68,331.68,0,0,1-35.55,10c-15.11,3.49-30.38,6.4-45.64,9.15-41.64,7.51-83.57,13.46-125.53,18.88-103.21,13.32-206.82,23.51-310.46,32.86-102.53,9.25-205.15,17.44-307.8,25.3q-59.35,4.53-118.71,9C54.7,307.43,27.78,309.48.91,312c-.75.07,1,1.2.94,1.15.74.53,1.49,1.05,2.25,1.55a4.82,4.82,0,0,0,1.25.7C71.73,309.66,138.2,305,204.63,299.88,307.28,292,409.9,283.83,512.42,274.54,616.12,265.15,719.8,255,823,241.38c40.82-5.36,81.59-11.26,122.09-18.67,15.52-2.84,31-6.12,46.41-9.38,13-2.75,25.89-6.76,38.57-10.8.64-.2-1.44-1.1-1.62-1.19C1027.75,201,1026.14,199.92,1025.29,200.22Z"/><path class="cls-1" d="M1024.73,201.49a305.5,305.5,0,0,1-35.66,10.09c-15.12,3.49-30.4,6.4-45.67,9.15-41.66,7.51-83.6,13.46-125.57,18.88C714.61,252.94,611,263.13,507.35,272.48c-102.53,9.25-205.16,17.45-307.81,25.3q-59.35,4.53-118.71,9c-26.9,2-53.82,4.1-80.69,6.62a1,1,0,0,0,.53.64c.8.61,1.61,1.2,2.44,1.77.67.46,2.33,2,3.31,1.93Q23,316.37,39.5,315.1c6.94-.53,13.85-1.41,20.79-1.92l23.27-1.74q61.05-4.56,122.1-9.16c102.66-7.83,205.29-16,307.82-25.34C617.22,267.53,721,257.32,824.23,243.7c40.89-5.39,81.72-11.32,122.28-18.81,15.57-2.88,31-6.23,46.55-9.43,7.28-1.51,14.48-3.66,21.61-5.73,5.66-1.63,11.31-3.34,16.91-5.17a1,1,0,0,0-.62-.53c-.88-.45-1.78-.87-2.69-1.27C1027.64,202.48,1025.58,201.18,1024.73,201.49Z"/></g></g></svg>