<svg xmlns="http://www.w3.org/2000/svg" viewBox="0 0 817.38 817.38"><defs><style>.cls-1,.cls-4,.cls-6{fill:#7f7eff;}.cls-2,.cls-3{fill:none;stroke:#7f7eff;stroke-miterlimit:10;}.cls-2{stroke-width:45px;}.cls-3{stroke-width:8px;stroke-dasharray:81.5 81.5;}.cls-4{font-size:47px;}.cls-4,.cls-6{font-family:Reef-Bold, Reef;font-weight:700;}.cls-5{letter-spacing:-0.05em;}.cls-6{font-size:62px;}.cls-7{opacity:0.7;}</style></defs><g id="Calque_2" data-name="Calque 2"><g id="Calque_1-2" data-name="Calque 1"><path class="cls-1" d="M274.75,487.45h-29V554.1h13.35V535.44a4.53,4.53,0,0,1,4.52-4.52h11.1c17.72,0,24-11.71,24-21.74C298.76,495.37,290,487.45,274.75,487.45Zm7.54,29.94a9.75,9.75,0,0,1-7.54,3.35h-11.1a4.53,4.53,0,0,1-4.52-4.52V502.15a4.53,4.53,0,0,1,4.52-4.52h11.1a9.75,9.75,0,0,1,7.54,3.35,13.7,13.7,0,0,1,0,16.41Z"/><path class="cls-1" d="M343.38,485.86c-21.69,0-35.7,13.71-35.7,34.91s14,34.92,35.7,34.92,35.71-13.71,35.71-34.92S365.07,485.86,343.38,485.86Zm16,52.06c-3.95,4.32-9.48,6.6-16,6.6s-12.05-2.28-16-6.6-6-10.18-6-17.15,2.06-12.89,6-17.14,9.48-6.6,16-6.6,12.05,2.28,16,6.6,6,10.18,6,17.14S363.28,533.67,359.38,537.92Z"/><path class="cls-1" d="M406.09,541.45a2.54,2.54,0,0,1-1-2.05V487.45H391.71V554.1h43.07V543.92h-25.2A4.2,4.2,0,0,1,406.09,541.45Z"/><path class="cls-1" d="M430.34,497.63h15.29a4.52,4.52,0,0,1,4.52,4.52v52h13.36v-52a4.52,4.52,0,0,1,4.52-4.52h15.29V487.45h-53Z"/><path class="cls-1" d="M532.19,529.69c0,4.52-1.12,8.12-3.32,10.72a13.34,13.34,0,0,1-19.26,0c-2.19-2.6-3.31-6.2-3.31-10.72V487.45H493v42.24c0,16.76,9.34,26,26.29,26s26.3-9.24,26.3-26V487.45H532.19Z"/><rect class="cls-1" x="559.74" y="509.64" width="13.35" height="44.46"/><path class="cls-1" d="M566.41,500.6a7.37,7.37,0,1,0-7.36-7.37A7.38,7.38,0,0,0,566.41,500.6Z"/><path class="cls-1" d="M568,225.89q-19.53-15.87-39.61-31c-5.25-4-6-5.28-2.62-10.94,4.33-7.28,8.81-14.47,13.12-21.76,1.84-3.11,4-5.5,8-4.42s4.77,4.24,4.7,7.84c-.17,9.16-.36,18.32-.48,27.48a3.64,3.64,0,0,0,.71,2.57c4,3.15,8.08,6.13,13,9.77,1.63-9.05,4-17.3,4.44-25.65,1.13-20.44,1.47-40.93,1.95-61.4.17-7-2.42-8.57-8.55-5.53a336.09,336.09,0,0,0-57.05,35.47c-5.45,4.23-10.66,8.77-16.46,13.57,2.24.94,3.59,1.49,4.93,2.07,4.62,2,6.72,5.55,5,8.86-2.15,4.05-5.54,3.51-9,1.92-.6-.28-1.24-.47-1.86-.69-37.31-13.73-75.7-18.11-114.88-11.43-15.77,2.68-31.11,8-46.58,12.28-3.67,1-7.16,1.95-8.71-2.47-1.38-4,.92-6.59,4.6-8.1,1.49-.61,2.94-1.32,4.66-2.1a17.88,17.88,0,0,0-2-2.51,327.87,327.87,0,0,0-72.47-47.24c-4.28-2.07-6.67-.46-6.59,4.49.33,20.65.49,41.32,1.47,61.95.41,8.63,2.73,17.18,4.32,26.58,5-3.75,8.88-6.54,12.55-9.63.87-.73,1.25-2.47,1.24-3.75,0-9-.53-18-.05-27,.13-2.53,2.55-5.82,4.85-7.12,2.9-1.65,5.58.63,7.29,3.48,4.55,7.55,9.24,15,13.71,22.61,3.41,5.78,2.71,6.8-2.72,10.88q-19.92,15-39.3,30.61a10.89,10.89,0,0,0-3.32,7.59q-.22,101.5,0,203c0,2.82.15,5.65.23,8.47h0c-.09,2-.27,4-.27,6,0,5.76,1.34,7.06,7.05,7.06l257.37,0c17.83,0,35.65,0,53.47,0,3.72,0,6.62-.68,7-5.07.06-.83.19-1.65.19-2.48q0-108.5-.1-217C571.13,230.66,569.86,227.38,568,225.89ZM540.87,361.81c3.91,0,7.22,1.43,7.31,5.76.09,4.62-3.54,5.48-7.32,5.49-6.82,0-13.65,0-20.47,0v.22c-6.48,0-13,.06-19.46,0-3.72-.05-7.43-.91-7.3-5.55.12-4.3,3.36-5.7,7.31-5.72C514.25,361.94,527.56,361.85,540.87,361.81Zm-59.28-80.64c17.87.21,32.76,15.17,32.68,32.83-.09,17.84-15.27,33-33.14,33.07-17.6.08-32.84-15.39-32.79-33.27A32.92,32.92,0,0,1,481.59,281.17Zm-79.28,73.07a20.62,20.62,0,0,0-4.17-7.93c-1.61-2-4.43-3.09-6.08-5.1-1.51-1.85-3.51-4.91-2.89-6.51.79-2.08,3.81-4.21,6.15-4.6,4.38-.73,9-.21,13.47-.21v-.11c4.16,0,8.44-.56,12.46.21a10.43,10.43,0,0,1,6.67,4.71c.68,1.31-1.71,4.39-3.05,6.46a8.11,8.11,0,0,1-3.16,2.39C413,348,413.54,356,414.22,363.83c.13,1.56,2,3.32,3.56,4.3,2.35,1.51,5.08,2.4,7.64,3.59,2.75,1.27,4.78,3.64,3,6.23-1.26,1.83-4.63,3.46-6.74,3.14-3.46-.54-6.58-3-10-4.14a10.17,10.17,0,0,0-5.81-.13c-3.47,1-6.75,2.69-10.13,4-3,1.18-5.88.62-7.13-2.46-1.35-3.34.33-6,3.72-6.93C401.47,369,404.2,362.81,402.31,354.24Zm-65.24-73a32.88,32.88,0,0,1,32.61,33.26c-.23,17.81-15.82,33.08-33.45,32.77s-33-16-32.7-33.58A33.22,33.22,0,0,1,337.07,281.2Zm-61.18,80.74c12.95-.07,25.89-.07,38.84-.1a12,12,0,0,1,2.48.14c3.24.69,5.56,2.34,5.38,6-.19,3.53-2.65,4.89-5.74,4.95-7.13.14-14.27,0-21.41,0v.32c-6.47,0-12.95,0-19.42,0-3.69,0-7.19-.64-7.57-5.3C268.15,364.27,271,362,275.89,361.94Z"/><circle class="cls-2" cx="408.69" cy="408.69" r="386.19"/><circle class="cls-3" cx="408.69" cy="408.69" r="337.23"/><text class="cls-4" transform="translate(172.25 606.32)">Paul <tspan class="cls-5" x="93.17" y="0">T</tspan><tspan x="112.7" y="0">uillet / Поль </tspan><tspan class="cls-5" x="345.48" y="0">Т</tspan><tspan x="365.01" y="0">вилле</tspan></text><text class="cls-6" transform="translate(281.16 662.68)">poltui.com</text><g class="cls-7"><path class="cls-1" d="M648.3,326.4c-.78,6.61-1.67,13.2-2.5,19.8L643.12,366c-.93,6.59-1.51,13.23-2.89,19.73-.68,3.26-1.39,6.51-2.23,9.74s-1.72,6.45-2.83,9.63l-.39-.07c0-3.37.18-6.7.45-10s.64-6.63,1-9.93c.81-6.6,2.41-13.07,3.68-19.59l3.87-19.57c1.36-6.51,2.66-13,4.07-19.53Z"/></g><g class="cls-7"><path class="cls-1" d="M633.63,317.84c-1.13,8.35-2.37,16.69-3.55,25l-3.74,25c-1.27,8.33-2.2,16.72-3.94,25-.86,4.13-1.74,8.25-2.75,12.35s-2.07,8.19-3.35,12.24l-.4-.07c.16-4.25.53-8.46,1-12.66s1-8.37,1.58-12.54c1.16-8.35,3.11-16.56,4.73-24.83l4.92-24.78c1.71-8.26,3.37-16.52,5.12-24.76Z"/></g><g class="cls-7"><path class="cls-1" d="M617.92,313.91c-.94,7.25-2,14.49-3,21.74l-3.14,21.71c-1.08,7.23-1.81,14.52-3.35,21.67-.76,3.58-1.54,7.16-2.45,10.71s-1.87,7.09-3.06,10.59l-.4-.06c.06-3.7.33-7.36.68-11s.8-7.28,1.29-10.91c1-7.25,2.71-14.36,4.13-21.54l4.33-21.5c1.52-7.16,3-14.32,4.53-21.47Z"/></g><g class="cls-7"><path class="cls-1" d="M166.29,347.32c2.62,8.75,5.13,17.53,7.7,26.3L181.5,400c2.48,8.79,5.29,17.49,7.31,26.4,1,4.45,2,8.91,2.89,13.4s1.7,9,2.3,13.55l-.39.11c-1.71-4.28-3.21-8.6-4.63-12.95s-2.75-8.72-4-13.1c-2.59-8.76-4.39-17.72-6.54-26.6l-6.34-26.65c-2.05-8.9-4.15-17.78-6.15-26.7Z"/></g><g class="cls-7"><path class="cls-1" d="M157,374.33c2.12,7,4.13,14,6.19,21.06l6,21.1c2,7,4.28,14,5.8,21.15.76,3.58,1.51,7.16,2.13,10.77s1.19,7.24,1.53,10.92l-.38.1c-1.46-3.4-2.71-6.85-3.88-10.32s-2.24-7-3.28-10.48c-2.09-7-3.39-14.23-5-21.35l-4.83-21.4c-1.54-7.15-3.14-14.28-4.64-21.45Z"/></g><g class="cls-7"><path class="cls-1" d="M138.29,367.32c2.34,7.83,4.58,15.68,6.87,23.51l6.68,23.56c2.19,7.86,4.73,15.64,6.48,23.61.88,4,1.73,8,2.47,12s1.41,8.06,1.87,12.15l-.38.1c-1.57-3.81-2.93-7.67-4.22-11.55s-2.47-7.79-3.62-11.71c-2.31-7.83-3.84-15.86-5.7-23.81l-5.52-23.86c-1.77-8-3.59-15.93-5.31-23.91Z"/></g></g></g></svg>