<svg xmlns="http://www.w3.org/2000/svg" viewBox="0 0 391.42 413.39"><defs><style>.cls-1{fill:#fcfdfd;}.cls-2{fill:#7f7eff;}.cls-3{fill:#ccf;}.cls-4{opacity:0.1;}.cls-5{fill:#7372e6;}</style></defs><g id="Calque_2" data-name="Calque 2"><g id="Calque_1-2" data-name="Calque 1"><path class="cls-1" d="M387.8,18.23c-.45-.94-.95-1.85-1.49-2.74a32.44,32.44,0,0,0-5.9-7.14c-.77-.69-1.56-1.35-2.39-2-.42-.31-.84-.61-1.27-.89-.86-.58-1.74-1.12-2.66-1.62-.46-.24-.92-.48-1.39-.71a33.32,33.32,0,0,0-4.39-1.72c-.51-.16-1-.3-1.53-.43a29.77,29.77,0,0,0-3.15-.64A31.79,31.79,0,0,0,358.72,0L32.21.39a32.22,32.22,0,0,0-18,5.53c-.42.29-.85.59-1.26.9-.83.62-1.62,1.28-2.38,2S9,10.22,8.35,11s-1.35,1.56-2,2.39c-.31.42-.61.84-.89,1.27A31.62,31.62,0,0,0,1,24.61a32.48,32.48,0,0,0-1,8.06L.42,381.18a32.07,32.07,0,0,0,3.19,14,31.63,31.63,0,0,0,2.33,4c.29.43.59.85.9,1.27.62.82,1.28,1.62,2,2.38A30.17,30.17,0,0,0,11,405c.76.69,1.56,1.35,2.39,2,.41.3.83.6,1.26.89a31.84,31.84,0,0,0,10,4.48,32.48,32.48,0,0,0,8.06,1L359.21,413a31.79,31.79,0,0,0,4.91-.38,29.8,29.8,0,0,0,3.15-.65c.51-.13,1-.27,1.53-.43a31.45,31.45,0,0,0,4.38-1.74c.47-.22.94-.46,1.39-.71.92-.5,1.8-1,2.66-1.62q.64-.44,1.26-.9c.83-.62,1.63-1.28,2.39-2a32.74,32.74,0,0,0,5.89-7.16c.53-.88,1-1.8,1.48-2.74a31.69,31.69,0,0,0,2.16-5.92,32.48,32.48,0,0,0,1-8.06L391,32.21a31.87,31.87,0,0,0-3.2-14ZM359.42,380.75a.24.24,0,0,1,0,.09.36.36,0,0,1-.15.15h-.09l-326.51.39h-.08a.33.33,0,0,1-.16-.15v-.09L32,32.63a.2.2,0,0,1,0-.08.28.28,0,0,1,.15-.15h.08L358.75,32h.09a.28.28,0,0,1,.15.15.2.2,0,0,1,0,.08Z"/><path class="cls-2" d="M359,32.25a.2.2,0,0,0,0-.08.29.29,0,0,0-.15-.16h-.09l-326.51.39h-.08a.29.29,0,0,0-.15.16.2.2,0,0,0,0,.08l.42,348.75,327-.39Z"/><path class="cls-1" d="M32.42,381.14v.09a.33.33,0,0,0,.16.15h2.55a12.25,12.25,0,0,1-2.71-.35Z"/><path class="cls-1" d="M359.17,381h.09a.36.36,0,0,0,.15-.15.24.24,0,0,0,0-.09v-.3a9.42,9.42,0,0,1-3.05.55Z"/><path class="cls-1" d="M300.36,381.06l-56.38.08,95.67-.12Q320,381,300.36,381.06Z"/><path class="cls-3" d="M355.22,381q.58,0,1.14,0l-16.71,0C344.84,381,350,381,355.22,381Z"/><path class="cls-3" d="M36.31,381.41,244,381.14l-208.85.25Z"/><path class="cls-4" d="M32.4,368.39l0,14.6a11.44,11.44,0,0,0,2.71.4L244,383.14l56.38-.08q19.65,0,39.3,0l16.7,0a8.54,8.54,0,0,0,3.06-.63l0-14.37Z"/><path class="cls-5" d="M270.82,310.62a29.48,29.48,0,0,1-6.27-.71c-7.74-1.69-14.06-5.47-19.22-8.93q-9.47-6.35-18.87-12.77-8.61-5.85-17.26-11.68c-4-2.68-8-5.31-12-7.95-4.78-3.15-9.71-6.41-14.55-9.69-7.48-5.07-9.69-11-10.23-15.15s0-10.42,5.92-17.22a89.23,89.23,0,0,1,7.71-7.63c.91-.83,1.82-1.66,2.71-2.5l28.74-27.12c-15,10.35-30.55,21-45.89,31.47a154.71,154.71,0,0,1-18.87,10.92A35.7,35.7,0,0,1,137,235.34a42.42,42.42,0,0,1-12-1.82c-6.14-1.82-12.5-3.46-18.66-5.05-4.44-1.15-9-2.33-13.55-3.59a63.75,63.75,0,0,1-11.56-4.36c-7.31-3.65-9-9-9.34-11.88s0-8.46,6.15-13.76a39.25,39.25,0,0,1,10.26-6.17c50-21.59,99-42.74,149-64.1,15.92-6.8,32.18-13.25,46-18.65a51.66,51.66,0,0,1,14.37-3.32c.7,0,1.4-.08,2.08-.08,10.93,0,18.57,7.39,19.47,18.82.05.73.07,1.41.07,2.05a8,8,0,0,1,.32,3.55c-.43,3.14-.84,6.28-1.26,9.42-.9,6.8-1.83,13.83-2.87,20.76q-5.11,33.84-10.31,67.67-2.71,17.85-5.44,35.69c-.4,2.58-.76,5.16-1.12,7.75-.75,5.34-1.52,10.86-2.57,16.35a48.42,48.42,0,0,1-4.63,13C287,306,279.7,310.62,270.82,310.62Z"/><path class="cls-1" d="M299.66,110.56c6.8,0,10.93,4.3,11.49,11.44.1,1.28,0,2.57,0,3.86l.42,0c-1.36,10-2.61,20.06-4.11,30.06q-7.82,51.69-15.75,103.36c-1.21,7.93-2.13,15.92-3.64,23.79a40.35,40.35,0,0,1-3.88,10.82c-3,5.84-7.57,8.69-13.39,8.69a21.31,21.31,0,0,1-4.56-.53c-6.08-1.33-11.39-4.34-16.48-7.75-12.06-8.11-24.05-16.34-36.11-24.45-8.8-5.92-17.71-11.66-26.49-17.62-8.05-5.46-9.13-13.12-2.75-20.52a136.79,136.79,0,0,1,9.86-9.54q26.37-24.9,52.73-49.81a79.14,79.14,0,0,0,6.16-6.77c1.73-2.06,1.9-4.24.59-5.7a4.06,4.06,0,0,0-3.12-1.51,5.31,5.31,0,0,0-2.59.75c-3.08,1.72-6.09,3.58-9,5.58-24,16.45-47.86,33-71.91,49.38a148.69,148.69,0,0,1-17.89,10.35,27.61,27.61,0,0,1-12.32,2.86,34.06,34.06,0,0,1-9.73-1.5c-10.7-3.16-21.59-5.69-32.34-8.67a55.88,55.88,0,0,1-10.13-3.8c-6-3-6.7-8-1.55-12.42a32.49,32.49,0,0,1,8.22-4.9Q165.84,163.92,240.35,132c15.14-6.47,30.44-12.56,45.77-18.56a43.51,43.51,0,0,1,12.12-2.79c.48,0,1-.06,1.42-.06m0-16h0c-.9,0-1.82,0-2.74.11a60.09,60.09,0,0,0-16.63,3.84c-13.87,5.43-30.21,11.9-46.23,18.75-49.81,21.29-98.9,42.47-149,64.1a47.33,47.33,0,0,0-12.3,7.45C66.19,194.46,63,202,63.89,209.62s5.93,14.17,13.7,18.06a72.2,72.2,0,0,0,13,4.91c4.59,1.28,9.21,2.47,13.68,3.62,6.37,1.65,12.39,3.2,18.39,5a50.33,50.33,0,0,0,14.27,2.15,43.68,43.68,0,0,0,19.36-4.49q4.57-2.25,9-4.73a27,27,0,0,0-.74,10.66c1.07,8.11,5.93,15.48,13.68,20.73,4.88,3.32,9.85,6.59,14.65,9.76,3.91,2.58,8,5.25,11.89,7.89C210.49,287,216.33,291,222,294.84c6.17,4.2,12.56,8.54,18.88,12.78,5.44,3.66,12.87,8.11,22,10.1a37.05,37.05,0,0,0,8,.9c11.85,0,21.91-6.32,27.61-17.35a55.88,55.88,0,0,0,5.37-15.15c1.09-5.68,1.88-11.3,2.64-16.75.37-2.64.72-5.13,1.1-7.65L313,226.18c3.4-22.23,6.91-45.21,10.33-67.83,1.05-7,2-14.06,2.89-20.88q.62-4.71,1.26-9.41a16.31,16.31,0,0,0-.26-5.75c0-.49,0-1-.09-1.55a28.8,28.8,0,0,0-8-18.43,27.07,27.07,0,0,0-19.44-7.77Z"/></g></g></svg>