<svg width="178" height="178" viewBox="0 0 178 178" fill="none" xmlns="http://www.w3.org/2000/svg">
<g clip-path="url(#clip0_211_18)">
<path d="M130.615 6.84958C130.093 4.06833 128.216 1.73903 125.609 0.6613C123.001 -0.416434 120.011 -0.103544 117.682 1.49568L89.0005 21.2425L60.3189 1.46091C57.9896 -0.138309 54.9997 -0.4512 52.3923 0.626534C49.7849 1.70427 47.9075 4.03357 47.3861 6.81482L41.0935 41.059L6.84934 47.3863C4.06809 47.9078 1.73879 49.7851 0.661056 52.3926C-0.416678 55 -0.103788 57.9898 1.49543 60.3191L21.2423 89.0007L1.46067 117.682C-0.138554 120.012 -0.451444 123.002 0.62629 125.609C1.70402 128.216 4.03332 130.128 6.81457 130.615L41.0587 136.908L47.3513 171.152C47.8728 173.933 49.7501 176.262 52.3575 177.34C54.965 178.418 57.9548 178.105 60.2841 176.506L89.0005 156.759L117.682 176.541C120.011 178.14 123.001 178.453 125.609 177.375C128.216 176.297 130.093 173.968 130.615 171.187L136.908 136.943L171.152 130.65C173.933 130.128 176.262 128.251 177.34 125.644C178.418 123.036 178.105 120.046 176.506 117.717L156.759 89.0007L176.54 60.3191C178.14 57.9898 178.452 55 177.375 52.3926C176.297 49.7851 173.968 47.9078 171.186 47.3863L136.942 41.0937L130.615 6.84958ZM93.7286 38.2429L116.535 22.5289L121.541 49.7504C122.167 53.1574 124.844 55.8343 128.251 56.4601L155.472 61.4664L139.758 84.2726C137.777 87.1234 137.777 90.8781 139.758 93.7289L155.472 116.535L128.251 121.541C124.844 122.167 122.167 124.844 121.541 128.251L116.535 155.473L93.7286 139.759C90.8779 137.777 87.1232 137.777 84.2724 139.759L61.4661 155.473L56.4599 128.251C55.8341 124.844 53.1572 122.167 49.7501 121.541L22.5286 116.535L38.2427 93.7289C40.2243 90.8781 40.2243 87.1234 38.2427 84.2726L22.5286 61.4664L49.7501 56.4601C53.1572 55.8343 55.8341 53.1574 56.4599 49.7504L61.4661 22.5289L84.2724 38.2429C87.1232 40.2246 90.8779 40.2246 93.7286 38.2429ZM89.0005 127.938C99.3274 127.938 109.231 123.836 116.533 116.534C123.836 109.232 127.938 99.3276 127.938 89.0007C127.938 78.6739 123.836 68.77 116.533 61.4678C109.231 54.1656 99.3274 50.0633 89.0005 50.0633C78.6736 50.0633 68.7697 54.1656 61.4675 61.4678C54.1653 68.77 50.063 78.6739 50.063 89.0007C50.063 99.3276 54.1653 109.232 61.4675 116.534C68.7697 123.836 78.6736 127.938 89.0005 127.938ZM66.7505 89.0007C66.7505 83.0997 69.0947 77.4403 73.2674 73.2676C77.4401 69.0949 83.0994 66.7508 89.0005 66.7508C94.9016 66.7508 100.561 69.0949 104.734 73.2676C108.906 77.4403 111.251 83.0997 111.251 89.0007C111.251 94.9018 108.906 100.561 104.734 104.734C100.561 108.907 94.9016 111.251 89.0005 111.251C83.0994 111.251 77.4401 108.907 73.2674 104.734C69.0947 100.561 66.7505 94.9018 66.7505 89.0007Z" fill="#FCFDFD" fill-opacity="0.08"/>
</g>
<g clip-path="url(#clip1_211_18)">
<path d="M141.305 25.4036C141.237 24.0381 140.491 22.8001 139.314 22.1133C138.136 21.4265 136.685 21.3803 135.465 21.9932L120.441 29.5658L108.008 18.217C106.998 17.2988 105.588 16.9531 104.269 17.2981C102.95 17.6431 101.899 18.635 101.467 19.9322L96.2103 35.9117L79.4036 36.6962C78.0381 36.7635 76.8001 37.5095 76.1133 38.687C75.4265 39.8645 75.3803 41.3161 75.9932 42.5359L83.5658 57.5595L72.217 69.9923C71.2988 71.0025 70.9531 72.4132 71.2981 73.7319C71.6431 75.0507 72.6327 76.1186 73.9322 76.5339L89.9117 81.7904L90.6795 98.5948C90.7469 99.9603 91.4929 101.198 92.6703 101.885C93.8478 102.572 95.2995 102.618 96.5193 102.005L111.559 94.4348L123.992 105.784C125.003 106.702 126.413 107.048 127.732 106.703C129.051 106.358 130.102 105.366 130.534 104.069L135.79 88.0889L152.595 87.3212C153.96 87.2538 155.198 86.5078 155.885 85.3303C156.572 84.1529 156.618 82.7012 156.005 81.4814L148.435 66.4412L159.784 54.0084C160.702 52.9982 161.048 51.5875 160.703 50.2687C160.358 48.95 159.366 47.8987 158.069 47.4668L142.089 42.2103L141.305 25.4036ZM121.59 38.0135L133.537 31.9862L134.149 45.3447C134.226 47.0166 135.332 48.4734 136.921 48.9963L149.624 53.1767L140.607 63.0637C139.472 64.2985 139.225 66.0958 139.987 67.5903L146.015 79.5371L132.656 80.1494C130.984 80.2256 129.527 81.3316 129.004 82.9214L124.824 95.6237L114.937 86.607C113.702 85.4716 111.905 85.2255 110.41 85.9872L98.4636 92.0145L97.8513 78.656C97.7751 76.9841 96.6691 75.5273 95.0793 75.0044L82.377 70.8239L91.3937 60.9369C92.5291 59.7022 92.7752 57.9049 92.0135 56.4104L85.9862 44.4636L99.3447 43.8513C101.017 43.7751 102.473 42.6691 102.996 41.0793L107.177 28.377L117.064 37.3937C118.298 38.5291 120.096 38.7752 121.59 38.0135ZM113.448 80.6389C118.392 81.3158 123.401 80.0012 127.375 76.9843C131.349 73.9675 133.962 69.4956 134.639 64.5523C135.316 59.609 134.001 54.5994 130.984 50.6254C127.968 46.6514 123.496 44.0386 118.552 43.3617C113.609 42.6849 108.599 43.9995 104.625 47.0164C100.651 50.0332 98.0386 54.5051 97.3617 59.4484C96.6849 64.3916 97.9995 69.4013 101.016 73.3753C104.033 77.3493 108.505 79.9621 113.448 80.6389ZM105.35 60.5421C105.736 57.7174 107.23 55.162 109.5 53.4381C111.771 51.7142 114.634 50.963 117.459 51.3497C120.283 51.7365 122.839 53.2295 124.563 55.5004C126.287 57.7712 127.038 60.6339 126.651 63.4586C126.264 66.2833 124.771 68.8387 122.5 70.5626C120.229 72.2865 117.367 73.0377 114.542 72.651C111.717 72.2642 109.162 70.7712 107.438 68.5003C105.714 66.2295 104.963 63.3668 105.35 60.5421Z" fill="#FCFDFD"/>
</g>
<defs>
<clipPath id="clip0_211_18">
<rect width="178" height="178" fill="white"/>
</clipPath>
<clipPath id="clip1_211_18">
<rect width="86" height="86" fill="white" transform="translate(79.2305 13.5645) rotate(7.79633)"/>
</clipPath>
</defs>
</svg>
