<svg width="224" height="224" viewBox="0 0 224 224" fill="none" xmlns="http://www.w3.org/2000/svg">
<g filter="url(#filter0_bd_53_731)">
<rect x="49" y="49" width="125" height="125" rx="20" fill="#2B2D42" fill-opacity="0.8" shape-rendering="crispEdges"/>
<rect x="49.5" y="49.5" width="124" height="124" rx="19.5" stroke="white" stroke-opacity="0.1" shape-rendering="crispEdges"/>
</g>
<g opacity="0.4" filter="url(#filter1_f_53_731)">
<circle cx="112" cy="112" r="42" fill="#7F7EFF"/>
</g>
<path d="M124.706 122.824C124.588 135.831 114.182 146 101.057 145.882C88.2872 145.764 78 135.476 78 122.706C78 109.818 88.642 99.1756 101.412 99.2939C114.301 99.4121 124.706 109.936 124.706 122.824Z" fill="url(#paint0_linear_53_731)"/>
<path d="M129.199 90.071C134.047 90.071 138.895 90.071 143.743 90.071C145.162 90.071 145.635 90.3074 145.635 91.8446C145.635 109.226 145.635 126.726 145.635 144.108C145.635 145.527 145.28 146 143.743 146C139.486 145.882 135.348 145.882 131.091 146C129.436 146 129.081 145.409 129.081 143.872C129.317 125.899 129.199 107.926 129.199 90.071Z" fill="url(#paint1_linear_53_731)"/>
<path d="M129.199 90.071C115.838 90.071 102.476 90.071 89.1145 90.071C87.8138 90.071 87.2227 89.8345 87.2227 88.2973C87.3409 84.75 87.3409 81.2027 87.2227 77.6554C87.2227 76.473 87.3408 76 88.7597 76C101.767 76 114.773 76 127.78 76C128.844 76 129.317 76.2364 129.317 77.4189C129.199 81.6756 129.199 85.8142 129.199 90.071Z" fill="url(#paint2_linear_53_731)"/>
<defs>
<filter id="filter0_bd_53_731" x="39" y="39" width="145" height="145" filterUnits="userSpaceOnUse" color-interpolation-filters="sRGB">
<feFlood flood-opacity="0" result="BackgroundImageFix"/>
<feGaussianBlur in="BackgroundImageFix" stdDeviation="5"/>
<feComposite in2="SourceAlpha" operator="in" result="effect1_backgroundBlur_53_731"/>
<feColorMatrix in="SourceAlpha" type="matrix" values="0 0 0 0 0 0 0 0 0 0 0 0 0 0 0 0 0 0 127 0" result="hardAlpha"/>
<feOffset dy="4"/>
<feGaussianBlur stdDeviation="2"/>
<feComposite in2="hardAlpha" operator="out"/>
<feColorMatrix type="matrix" values="0 0 0 0 0 0 0 0 0 0 0 0 0 0 0 0 0 0 0.25 0"/>
<feBlend mode="normal" in2="effect1_backgroundBlur_53_731" result="effect2_dropShadow_53_731"/>
<feBlend mode="normal" in="SourceGraphic" in2="effect2_dropShadow_53_731" result="shape"/>
</filter>
<filter id="filter1_f_53_731" x="0" y="0" width="224" height="224" filterUnits="userSpaceOnUse" color-interpolation-filters="sRGB">
<feFlood flood-opacity="0" result="BackgroundImageFix"/>
<feBlend mode="normal" in="SourceGraphic" in2="BackgroundImageFix" result="shape"/>
<feGaussianBlur stdDeviation="35" result="effect1_foregroundBlur_53_731"/>
</filter>
<linearGradient id="paint0_linear_53_731" x1="123.83" y1="145.434" x2="86.0823" y2="99.8865" gradientUnits="userSpaceOnUse">
<stop stop-color="#FFBFC4"/>
<stop offset="0.463542" stop-color="#FFF1CD"/>
<stop offset="1" stop-color="white"/>
</linearGradient>
<linearGradient id="paint1_linear_53_731" x1="145.324" y1="145.462" x2="116.167" y2="135.074" gradientUnits="userSpaceOnUse">
<stop stop-color="#FFBFC4"/>
<stop offset="0.463542" stop-color="#FFF1CD"/>
<stop offset="1" stop-color="white"/>
</linearGradient>
<linearGradient id="paint2_linear_53_731" x1="128.528" y1="89.9355" x2="122.545" y2="68.3925" gradientUnits="userSpaceOnUse">
<stop stop-color="#FFBFC4"/>
<stop offset="0.463542" stop-color="#FFF1CD"/>
<stop offset="1" stop-color="white"/>
</linearGradient>
</defs>
</svg>
