<svg width="224" height="224" viewBox="0 0 224 224" fill="none" xmlns="http://www.w3.org/2000/svg">
<g filter="url(#filter0_bd_53_734)">
<rect x="49" y="49" width="125" height="125" rx="20" fill="#2B2D42" fill-opacity="0.8" shape-rendering="crispEdges"/>
<rect x="49.5" y="49.5" width="124" height="124" rx="19.5" stroke="white" stroke-opacity="0.1" shape-rendering="crispEdges"/>
</g>
<g opacity="0.4" filter="url(#filter1_f_53_734)">
<circle cx="112" cy="112" r="42" fill="#7F7EFF"/>
</g>
<path d="M135.566 126.824C132.396 130.058 127.961 131.887 123.158 131.894C118.351 131.903 113.913 130.087 110.743 126.862C109.193 125.29 108.057 123.487 107.351 121.558C106.661 119.665 106.398 117.64 106.575 115.635C106.745 113.677 107.322 111.775 108.275 110.055C109.203 108.373 110.477 106.855 112.049 105.572C115.129 103.059 119.051 101.702 123.158 101.696C127.265 101.689 131.183 103.04 134.267 105.54C135.836 106.82 137.11 108.331 138.034 110.01C138.987 111.73 139.568 113.629 139.738 115.587C139.914 117.595 139.648 119.617 138.958 121.513C138.252 123.439 137.113 125.245 135.566 126.824Z" fill="white"/>
<path d="M112.909 115.84C113.053 113.225 114.337 110.918 116.269 109.284C118.165 107.677 120.719 106.698 123.501 106.698C126.286 106.701 128.837 107.68 130.734 109.284C132.666 110.921 133.949 113.225 134.097 115.84C134.244 118.529 133.163 121.029 131.267 122.88C129.335 124.764 126.582 125.948 123.501 125.948C120.421 125.948 117.664 124.764 115.733 122.88C113.839 121.029 112.761 118.529 112.909 115.84Z" fill="#005385"/>
<path d="M96.0338 121.135C96.053 122.155 96.3803 124.144 96.8681 125.701C97.8981 128.99 99.6437 132.035 102.076 134.718C104.572 137.474 107.64 139.688 111.189 141.257C114.921 142.91 118.961 143.754 123.155 143.744C127.349 143.738 131.389 142.881 135.117 141.215C138.663 139.627 141.731 137.407 144.224 134.644C146.653 131.948 148.395 128.9 149.425 125.611C149.939 123.971 150.269 122.28 150.404 120.57C150.532 118.901 150.478 117.22 150.243 115.561C149.781 112.307 148.655 109.256 146.922 106.474C145.334 103.919 143.293 101.68 140.864 99.7928L140.867 99.7896L116.358 80.9731C116.339 80.957 116.317 80.9378 116.297 80.9217C114.683 79.6896 111.982 79.6928 110.214 80.9314C108.423 82.1828 108.221 84.2525 109.809 85.5585L109.803 85.5617L120.026 93.8789L88.8589 93.911H88.8172C86.2437 93.9142 83.7665 95.6053 83.2755 97.7391C82.775 99.9147 84.5238 101.718 87.2031 101.731L87.1999 101.741L102.997 101.708L74.8075 123.345C74.7722 123.374 74.7337 123.4 74.7016 123.426C72.0447 125.46 71.1847 128.849 72.8565 130.992C74.5572 133.171 78.1703 133.174 80.8593 131.002L96.2423 118.414C96.2423 118.414 96.0177 120.114 96.0338 121.135ZM135.566 126.824C132.396 130.058 127.961 131.887 123.158 131.894C118.351 131.903 113.913 130.087 110.743 126.862C109.193 125.29 108.057 123.487 107.351 121.558C106.661 119.665 106.398 117.64 106.575 115.635C106.745 113.677 107.322 111.775 108.275 110.055C109.203 108.373 110.477 106.855 112.049 105.572C115.129 103.059 119.051 101.702 123.158 101.696C127.265 101.689 131.183 103.04 134.267 105.54C135.836 106.82 137.11 108.331 138.034 110.01C138.987 111.73 139.568 113.629 139.738 115.587C139.914 117.595 139.648 119.617 138.958 121.513C138.252 123.439 137.113 125.245 135.566 126.824Z" fill="#FF7021"/>
<defs>
<filter id="filter0_bd_53_734" x="39" y="39" width="145" height="145" filterUnits="userSpaceOnUse" color-interpolation-filters="sRGB">
<feFlood flood-opacity="0" result="BackgroundImageFix"/>
<feGaussianBlur in="BackgroundImageFix" stdDeviation="5"/>
<feComposite in2="SourceAlpha" operator="in" result="effect1_backgroundBlur_53_734"/>
<feColorMatrix in="SourceAlpha" type="matrix" values="0 0 0 0 0 0 0 0 0 0 0 0 0 0 0 0 0 0 127 0" result="hardAlpha"/>
<feOffset dy="4"/>
<feGaussianBlur stdDeviation="2"/>
<feComposite in2="hardAlpha" operator="out"/>
<feColorMatrix type="matrix" values="0 0 0 0 0 0 0 0 0 0 0 0 0 0 0 0 0 0 0.25 0"/>
<feBlend mode="normal" in2="effect1_backgroundBlur_53_734" result="effect2_dropShadow_53_734"/>
<feBlend mode="normal" in="SourceGraphic" in2="effect2_dropShadow_53_734" result="shape"/>
</filter>
<filter id="filter1_f_53_734" x="0" y="0" width="224" height="224" filterUnits="userSpaceOnUse" color-interpolation-filters="sRGB">
<feFlood flood-opacity="0" result="BackgroundImageFix"/>
<feBlend mode="normal" in="SourceGraphic" in2="BackgroundImageFix" result="shape"/>
<feGaussianBlur stdDeviation="35" result="effect1_foregroundBlur_53_734"/>
</filter>
</defs>
</svg>
