<svg width="224" height="224" viewBox="0 0 224 224" fill="none" xmlns="http://www.w3.org/2000/svg">
<g filter="url(#filter0_bd_53_737)">
<rect x="49" y="49" width="125" height="125" rx="20" fill="#2B2D42" fill-opacity="0.8" shape-rendering="crispEdges"/>
<rect x="49.5" y="49.5" width="124" height="124" rx="19.5" stroke="white" stroke-opacity="0.1" shape-rendering="crispEdges"/>
</g>
<g opacity="0.4" filter="url(#filter1_f_53_737)">
<circle cx="112" cy="112" r="42" fill="#7F7EFF"/>
</g>
<path fill-rule="evenodd" clip-rule="evenodd" d="M85.0678 132.37V127.257C85.0678 126.585 85.4878 126.045 86.1834 126.045H86.3759C87.0712 126.045 87.4893 126.586 87.4893 127.257V138.022C87.4893 140.647 86.1925 142.735 83.9325 144.066C82.8972 144.679 81.7155 145.002 80.5122 144.999H80.0318C77.4062 144.999 75.3203 143.701 73.9875 141.442C73.3732 140.407 73.051 139.225 73.055 138.022V137.542C73.055 134.916 74.3525 132.828 76.6106 131.495C77.6457 130.881 78.8281 130.558 80.0318 130.562H80.5122C82.289 130.562 83.7965 131.251 85.0678 132.37ZM75.4762 137.781C75.4762 139.677 76.3953 141.103 78.0568 142.012C78.7287 142.38 79.4581 142.577 80.2247 142.577C82.0859 142.577 83.4665 141.699 84.4187 140.122C84.8615 139.388 85.0678 138.586 85.0678 137.732C85.0678 136.088 84.2897 134.806 82.965 133.853C82.1618 133.275 81.2578 132.986 80.2718 132.986C78.2431 132.986 76.7831 134.011 75.9068 135.831C75.6112 136.447 75.4762 137.1 75.4762 137.781ZM95.89 130.562H96.2256C99.0312 130.562 101.165 131.923 102.517 134.372C103.058 135.352 103.347 136.422 103.347 137.542V138.022C103.347 140.647 102.053 142.738 99.7893 144.066C98.7415 144.681 97.584 144.999 96.3697 144.999H95.89C93.2643 144.999 91.1778 143.701 89.8456 141.442C89.2311 140.407 88.9085 139.225 88.9122 138.022V137.542C88.9122 134.916 90.215 132.835 92.4675 131.496C93.5147 130.874 94.6731 130.562 95.89 130.562ZM91.3337 137.781C91.3337 139.622 92.2368 140.976 93.7915 141.928C94.5215 142.375 95.3256 142.577 96.1784 142.577C97.9972 142.577 99.3415 141.655 100.277 140.12C100.723 139.388 100.925 138.584 100.925 137.732C100.925 136.021 100.101 134.713 98.6915 133.766C97.9193 133.246 97.0597 132.986 96.1297 132.986C94.1009 132.986 92.6409 134.011 91.765 135.831C91.4687 136.447 91.3337 137.1 91.3337 137.781ZM113.414 133.179C113.048 133.008 112.364 132.951 111.969 132.936C109.946 132.86 108.482 133.999 107.623 135.784C107.327 136.399 107.191 137.051 107.191 137.732C107.191 139.806 108.28 141.258 110.132 142.144C110.808 142.467 111.681 142.528 112.42 142.528C113.07 142.528 113.989 142.13 114.566 141.856L114.666 141.808H115.113L115.163 141.818C115.713 141.933 116.129 142.282 116.129 142.875V143.114C116.129 144.589 113.435 144.926 112.407 144.998C108.778 145.249 106.065 143.257 105.031 139.796C104.851 139.195 104.77 138.598 104.77 137.972V137.493C104.77 134.867 106.073 132.787 108.325 131.449C109.372 130.827 110.531 130.515 111.747 130.515H112.227C113.518 130.515 114.707 130.881 115.772 131.609L115.86 131.67L115.915 131.761C116.03 131.952 116.129 132.172 116.129 132.399V132.639C116.129 133.257 115.667 133.589 115.108 133.697L115.062 133.705H114.919C114.558 133.705 113.736 133.331 113.414 133.179ZM121.268 134.819C122.209 133.877 123.152 132.937 124.107 132.011C124.373 131.752 125.38 130.658 125.777 130.658H126.211L126.26 130.669C126.812 130.783 127.226 131.133 127.226 131.727V131.966C127.226 132.371 126.752 132.842 126.49 133.119C125.934 133.709 125.348 134.279 124.779 134.857L121.853 137.827C123.113 139.089 124.372 140.352 125.621 141.625C125.967 141.976 126.311 142.33 126.652 142.686C126.773 142.812 126.95 142.97 127.051 143.145C127.16 143.31 127.226 143.495 127.226 143.693V143.943L127.212 144.001C127.076 144.553 126.726 144.999 126.113 144.999H125.921C125.52 144.999 125.067 144.546 124.793 144.287C124.227 143.753 123.682 143.193 123.127 142.648L121.268 140.823V143.74C121.268 144.412 120.847 144.952 120.153 144.952H119.962C119.267 144.952 118.847 144.412 118.847 143.74V127.304C118.847 126.632 119.267 126.094 119.962 126.094H120.153C120.847 126.094 121.268 126.632 121.268 127.304V134.819ZM151.448 130.658H151.689C152.415 130.658 152.9 131.148 152.9 131.87C152.9 132.872 151.942 133.129 151.112 133.129C150.025 133.129 148.987 133.787 148.237 134.526C147.302 135.447 146.893 136.628 146.893 137.925V143.787C146.893 144.459 146.473 144.999 145.777 144.999H145.586C144.89 144.999 144.471 144.46 144.471 143.787V137.589C144.471 135.208 145.63 133.265 147.562 131.902C148.715 131.088 150.036 130.658 151.448 130.658ZM134.238 142.276C135.119 142.584 136.124 142.54 137.028 142.382C137.49 142.186 138.673 141.67 139.108 141.745L139.176 141.757L139.238 141.787C139.504 141.916 139.757 142.098 139.893 142.369C140.21 143.002 140.057 143.639 139.435 143.999L139.228 144.118C136.931 145.444 134.488 145.26 132.198 144.022C131.103 143.43 130.266 142.552 129.648 141.481L129.504 141.231C128.029 138.677 128.228 135.991 129.891 133.562C130.465 132.723 131.216 132.074 132.093 131.567L132.425 131.376C134.588 130.127 136.906 130.212 139.128 131.308C140.322 131.898 141.29 132.776 141.957 133.932L142.077 134.14C142.562 134.979 141.934 135.71 141.286 136.21C140.534 136.79 139.775 137.488 139.055 138.11C137.448 139.497 135.843 140.888 134.238 142.276ZM132.158 140.815C133.955 139.275 135.752 137.732 137.545 136.185C138.157 135.657 138.829 135.109 139.436 134.554C138.949 133.939 138.134 133.497 137.442 133.232C136.046 132.7 134.668 132.879 133.387 133.618C131.711 134.587 130.997 136.128 131.059 138.047C131.084 138.802 131.287 139.53 131.688 140.173C131.83 140.4 131.987 140.612 132.158 140.815ZM119.09 92.2912H126.236V99.5959H129.848C131.517 99.5959 133.233 99.2987 134.813 98.7634C135.59 98.5 136.461 98.1337 137.227 97.6728C136.218 96.3559 135.703 94.6931 135.552 93.0541C135.346 90.8244 135.796 87.9225 137.304 86.1775L138.056 85.3087L138.951 86.0284C141.204 87.8387 143.099 90.3687 143.433 93.2528C146.147 92.4547 149.333 92.6434 151.724 94.0237L152.706 94.59L152.189 95.5981C150.167 99.5456 145.937 100.769 141.803 100.552C135.617 115.961 122.147 123.256 105.817 123.256C97.379 123.256 89.6384 120.102 85.2303 112.617L85.1581 112.495L84.5159 111.188C83.0259 107.893 82.5309 104.283 82.8665 100.676L82.9675 99.5959H89.0781V92.2912H96.2234V85.1456H110.515V78H119.09V92.2912Z" fill="#FCFDFD"/>
<path fill-rule="evenodd" clip-rule="evenodd" d="M142.241 94.9937C142.72 91.27 139.933 88.3453 138.205 86.9565C136.214 89.259 135.904 95.2934 139.029 97.834C137.285 99.3828 133.611 100.787 129.849 100.787H84.0532C83.6876 104.714 84.377 108.33 85.9516 111.426L86.4726 112.379C86.8024 112.938 87.1629 113.479 87.5523 113.999C89.4351 114.12 91.171 114.161 92.7591 114.126H92.7598C95.8807 114.057 98.4273 113.689 100.357 113.02C100.494 112.978 100.641 112.99 100.769 113.054C100.896 113.119 100.994 113.23 101.041 113.365C101.087 113.5 101.08 113.648 101.02 113.778C100.959 113.907 100.851 114.008 100.718 114.059C100.461 114.149 100.193 114.232 99.917 114.311H99.916C98.3963 114.745 96.7666 115.037 94.6641 115.167C94.7891 115.169 94.5341 115.185 94.5335 115.185C94.462 115.19 94.372 115.2 94.3001 115.204C93.4726 115.251 92.5795 115.26 91.6663 115.26C90.6676 115.26 89.6841 115.242 88.5845 115.185L88.5563 115.204C92.372 119.493 98.3382 122.065 105.817 122.065C121.644 122.065 135.069 115.049 141.014 99.2972C145.232 99.73 149.285 98.6544 151.129 95.055C148.192 93.3603 144.415 93.9006 142.241 94.9937Z" fill="#22A0C8"/>
<path fill-rule="evenodd" clip-rule="evenodd" d="M142.241 94.9937C142.72 91.27 139.933 88.3453 138.205 86.9565C136.213 89.259 135.904 95.2934 139.028 97.834C137.285 99.3828 133.611 100.787 129.848 100.787H86.765C86.5781 106.801 88.81 111.366 92.7588 114.126H92.7597C95.8806 114.057 98.4272 113.689 100.357 113.02C100.494 112.978 100.641 112.99 100.769 113.054C100.896 113.119 100.994 113.23 101.041 113.365C101.087 113.5 101.08 113.648 101.02 113.778C100.959 113.907 100.851 114.008 100.718 114.059C100.461 114.149 100.193 114.232 99.9169 114.311H99.916C98.3963 114.745 96.6266 115.074 94.5241 115.204C94.5235 115.204 94.4731 115.156 94.4725 115.156C99.8591 117.919 107.669 117.909 116.624 114.469C126.665 110.612 136.008 103.263 142.527 94.8575C142.429 94.9019 142.333 94.9472 142.241 94.9937Z" fill="#37B1D9"/>
<path fill-rule="evenodd" clip-rule="evenodd" d="M84.1392 105.558C84.4235 107.662 85.0392 109.632 85.9517 111.426L86.4726 112.379C86.8024 112.938 87.1628 113.479 87.5523 113.999C89.4354 114.12 91.1713 114.161 92.7598 114.126C95.8807 114.057 98.4273 113.689 100.357 113.02C100.494 112.978 100.641 112.99 100.769 113.054C100.896 113.119 100.994 113.23 101.041 113.365C101.087 113.5 101.08 113.648 101.02 113.778C100.959 113.907 100.851 114.008 100.718 114.059C100.461 114.149 100.193 114.232 99.917 114.311H99.916C98.3963 114.745 96.636 115.056 94.5335 115.186C94.4613 115.19 94.3354 115.191 94.2626 115.195C93.4357 115.241 92.5517 115.27 91.6382 115.27C90.6398 115.27 89.6185 115.251 88.5195 115.195C92.3351 119.483 98.3382 122.065 105.817 122.065C119.367 122.065 131.156 116.922 137.998 105.558H84.1392Z" fill="#1B81A5"/>
<path fill-rule="evenodd" clip-rule="evenodd" d="M87.1772 105.558C87.9872 109.252 89.9338 112.152 92.7597 114.126C95.8807 114.057 98.4272 113.689 100.357 113.02C100.494 112.978 100.641 112.99 100.769 113.054C100.896 113.119 100.994 113.23 101.041 113.365C101.087 113.5 101.08 113.648 101.02 113.778C100.959 113.907 100.851 114.008 100.718 114.059C100.461 114.149 100.193 114.232 99.9169 114.311H99.916C98.3963 114.745 96.5988 115.056 94.496 115.186C99.8822 117.948 107.67 117.908 116.624 114.469C122.041 112.388 127.254 109.29 131.932 105.558H87.1772Z" fill="#1D91B4"/>
<path fill-rule="evenodd" clip-rule="evenodd" d="M90.2688 93.4822H96.4619V99.6753H90.2688V93.4822ZM90.7847 93.9984H91.2735V99.1594H90.7847V93.9984ZM91.7035 93.9984H92.2119V99.1594H91.7038L91.7035 93.9984ZM92.6416 93.9984H93.1501V99.1594H92.6416V93.9984ZM93.5804 93.9984H94.0885V99.1594H93.5804V93.9984ZM94.5188 93.9984H95.0269V99.1594H94.5188V93.9984ZM95.4569 93.9984H95.946V99.1594H95.4569V93.9984ZM97.4144 86.3365H103.608V92.5294H97.4141L97.4144 86.3365ZM97.9307 86.8528H98.4191V92.0134H97.9307V86.8528ZM98.8494 86.8528H99.3575V92.0134H98.8497L98.8494 86.8528ZM99.7875 86.8528H100.296V92.0134H99.7875V86.8528ZM100.726 86.8528H101.234V92.0134H100.726V86.8528ZM101.664 86.8528H102.173V92.0134H101.664V86.8528ZM102.603 86.8528H103.092V92.0134H102.603V86.8528Z" fill="#23A3C2"/>
<path fill-rule="evenodd" clip-rule="evenodd" d="M97.4144 93.4822H103.608V99.6753H97.4141L97.4144 93.4822ZM97.9306 93.9984H98.4191V99.1594H97.9306V93.9984ZM98.8494 93.9984H99.3575V99.1594H98.8497L98.8494 93.9984ZM99.7875 93.9984H100.296V99.1594H99.7875V93.9984ZM100.726 93.9984H101.234V99.1594H100.726V93.9984ZM101.664 93.9984H102.173V99.1594H101.664V93.9984ZM102.602 93.9984H103.092V99.1594H102.602V93.9984Z" fill="#34BBDE"/>
<path fill-rule="evenodd" clip-rule="evenodd" d="M104.56 93.4822H110.753V99.6753H104.56V93.4822ZM105.076 93.9984H105.565V99.1594H105.076V93.9984ZM105.995 93.9984H106.503V99.1594H105.995V93.9984ZM106.933 93.9984H107.442V99.1594H106.933V93.9984ZM107.872 93.9984H108.38V99.1594H107.872V93.9984ZM108.81 93.9984H109.319V99.1594H108.81V93.9984ZM109.748 93.9984H110.237V99.1594H109.748V93.9984Z" fill="#23A3C2"/>
<path fill-rule="evenodd" clip-rule="evenodd" d="M104.56 86.3365H110.753V92.5294H104.56V86.3365ZM105.076 86.8528H105.565V92.0134H105.076V86.8528ZM105.995 86.8528H106.503V92.0134H105.995V86.8528ZM106.933 86.8528H107.442V92.0134H106.933V86.8528ZM107.872 86.8528H108.38V92.0134H107.872V86.8528ZM108.81 86.8528H109.319V92.0134H108.81V86.8528ZM109.748 86.8528H110.237V92.0134H109.748V86.8528ZM111.706 93.4822H117.899V99.6753H111.706V93.4822ZM112.222 93.9984H112.711V99.1594H112.222V93.9984ZM113.141 93.9984H113.649V99.1594H113.141V93.9984ZM114.079 93.9984H114.587V99.1594H114.079V93.9984ZM115.017 93.9984H115.526V99.1594H115.017V93.9984ZM115.956 93.9984H116.464V99.1594H115.956V93.9984ZM116.894 93.9984H117.383V99.1594H116.894V93.9984Z" fill="#34BBDE"/>
<path fill-rule="evenodd" clip-rule="evenodd" d="M111.706 86.3365H117.899V92.5294H111.706V86.3365ZM112.222 86.8528H112.711V92.0134H112.222V86.8528ZM113.141 86.8528H113.649V92.0134H113.141V86.8528ZM114.079 86.8528H114.587V92.0134H114.079V86.8528ZM115.018 86.8528H115.526V92.0134H115.018V86.8528ZM115.956 86.8528H116.464V92.0134H115.956V86.8528ZM116.894 86.8528H117.383V92.0134H116.894V86.8528Z" fill="#23A3C2"/>
<path fill-rule="evenodd" clip-rule="evenodd" d="M111.706 79.1906H117.899V85.3844H111.706V79.1906ZM112.222 79.7066H112.711V84.8678H112.222V79.7066ZM113.141 79.7066H113.649V84.8678H113.141V79.7066ZM114.079 79.7066H114.587V84.8678H114.079V79.7066ZM115.018 79.7066H115.526V84.8678H115.018V79.7066ZM115.956 79.7066H116.464V84.8678H115.956V79.7066ZM116.894 79.7066H117.383V84.8678H116.894V79.7066Z" fill="#34BBDE"/>
<path fill-rule="evenodd" clip-rule="evenodd" d="M118.852 93.4822H125.045V99.6753H118.852V93.4822ZM119.367 93.9984H119.856V99.1594H119.368V93.9984H119.367ZM120.286 93.9984H120.794V99.1594H120.286L120.286 93.9984ZM121.225 93.9984H121.733V99.1594H121.225V93.9984ZM122.163 93.9984H122.671V99.1594H122.163V93.9984ZM123.102 93.9984H123.61V99.1594H123.102V93.9984ZM124.04 93.9984H124.528V99.1594H124.04V93.9984Z" fill="#23A3C2"/>
<path fill-rule="evenodd" clip-rule="evenodd" d="M103.22 109.716C103.446 109.713 103.671 109.755 103.881 109.84C104.091 109.924 104.282 110.05 104.443 110.209C104.604 110.368 104.732 110.557 104.819 110.766C104.907 110.975 104.951 111.199 104.951 111.425C104.951 111.651 104.906 111.876 104.819 112.084C104.732 112.293 104.604 112.483 104.443 112.641C104.281 112.8 104.09 112.926 103.88 113.01C103.67 113.095 103.446 113.137 103.219 113.133C102.77 113.127 102.341 112.944 102.026 112.625C101.711 112.305 101.534 111.874 101.534 111.425C101.534 110.975 101.711 110.544 102.026 110.225C102.342 109.905 102.771 109.722 103.22 109.716Z" fill="#D3ECEC"/>
<path fill-rule="evenodd" clip-rule="evenodd" d="M103.22 110.201C103.376 110.201 103.525 110.23 103.663 110.284C103.568 110.339 103.494 110.424 103.452 110.525C103.41 110.626 103.403 110.739 103.431 110.845C103.46 110.951 103.522 111.044 103.609 111.111C103.696 111.178 103.802 111.215 103.912 111.215C104.101 111.215 104.265 111.11 104.35 110.955C104.451 111.198 104.471 111.466 104.407 111.721C104.344 111.975 104.2 112.203 103.997 112.37C103.794 112.536 103.543 112.633 103.281 112.646C103.019 112.659 102.76 112.588 102.541 112.442C102.323 112.296 102.157 112.084 102.069 111.837C101.98 111.59 101.973 111.321 102.049 111.07C102.126 110.818 102.28 110.598 102.491 110.442C102.702 110.286 102.958 110.201 103.22 110.201ZM73 106.176H152.477C150.747 105.737 147.002 105.144 147.62 102.876C144.473 106.517 136.884 105.43 134.969 103.635C132.837 106.728 120.421 105.552 119.555 103.142C116.881 106.28 108.597 106.28 105.923 103.142C105.056 105.552 92.6409 106.728 90.5081 103.635C88.5931 105.43 81.005 106.517 77.8581 102.876C78.4756 105.144 74.7309 105.737 73 106.176Z" fill="#FCFDFD"/>
<path fill-rule="evenodd" clip-rule="evenodd" d="M107.762 122.028C103.53 120.02 101.208 117.291 99.916 114.311C98.3441 114.76 96.4551 115.047 94.2598 115.17C93.4329 115.216 92.5629 115.24 91.6504 115.24C90.5979 115.24 89.4888 115.208 88.3245 115.147C92.2048 119.025 96.9782 122.011 105.817 122.065C106.469 122.065 107.117 122.053 107.762 122.028Z" fill="#BDD9D7"/>
<path fill-rule="evenodd" clip-rule="evenodd" d="M101.488 117.061C100.902 116.266 100.334 115.267 99.917 114.311C98.3451 114.76 96.4554 115.047 94.2598 115.17C95.7679 115.988 97.9241 116.747 101.488 117.061Z" fill="#D3ECEC"/>
<defs>
<filter id="filter0_bd_53_737" x="39" y="39" width="145" height="145" filterUnits="userSpaceOnUse" color-interpolation-filters="sRGB">
<feFlood flood-opacity="0" result="BackgroundImageFix"/>
<feGaussianBlur in="BackgroundImageFix" stdDeviation="5"/>
<feComposite in2="SourceAlpha" operator="in" result="effect1_backgroundBlur_53_737"/>
<feColorMatrix in="SourceAlpha" type="matrix" values="0 0 0 0 0 0 0 0 0 0 0 0 0 0 0 0 0 0 127 0" result="hardAlpha"/>
<feOffset dy="4"/>
<feGaussianBlur stdDeviation="2"/>
<feComposite in2="hardAlpha" operator="out"/>
<feColorMatrix type="matrix" values="0 0 0 0 0 0 0 0 0 0 0 0 0 0 0 0 0 0 0.25 0"/>
<feBlend mode="normal" in2="effect1_backgroundBlur_53_737" result="effect2_dropShadow_53_737"/>
<feBlend mode="normal" in="SourceGraphic" in2="effect2_dropShadow_53_737" result="shape"/>
</filter>
<filter id="filter1_f_53_737" x="0" y="0" width="224" height="224" filterUnits="userSpaceOnUse" color-interpolation-filters="sRGB">
<feFlood flood-opacity="0" result="BackgroundImageFix"/>
<feBlend mode="normal" in="SourceGraphic" in2="BackgroundImageFix" result="shape"/>
<feGaussianBlur stdDeviation="35" result="effect1_foregroundBlur_53_737"/>
</filter>
</defs>
</svg>
