<svg width="224" height="224" viewBox="0 0 224 224" fill="none" xmlns="http://www.w3.org/2000/svg">
<g filter="url(#filter0_bd_53_718)">
<rect x="49" y="49" width="125" height="125" rx="20" fill="#2B2D42" fill-opacity="0.8" shape-rendering="crispEdges"/>
<rect x="49.5" y="49.5" width="124" height="124" rx="19.5" stroke="white" stroke-opacity="0.1" shape-rendering="crispEdges"/>
</g>
<g opacity="0.4" filter="url(#filter1_f_53_718)">
<circle cx="112" cy="112" r="42" fill="#7F7EFF"/>
</g>
<path d="M81.2602 104C83.3347 104 84.9566 104.604 86.0505 105.433C86.2013 105.546 86.239 105.735 86.1636 105.924L85.2961 108.564C85.2207 108.828 84.9189 108.903 84.6926 108.715C83.9382 108.111 82.8067 107.583 81.4488 107.583C78.8463 107.583 77.149 109.431 77.149 112.26C77.149 115.089 78.9217 116.937 81.6751 116.937C82.6558 116.937 83.2593 116.598 83.2593 115.881V115.504C83.2593 115.278 83.0707 115.051 82.8067 115.051H80.4305C80.2042 115.051 79.9778 114.863 79.9778 114.599V112.109C79.9778 111.883 80.1664 111.657 80.4305 111.657H86.8802C87.1065 111.657 87.3328 111.845 87.3328 112.109V118.333C87.3328 118.748 87.1442 118.936 86.9557 119.087C86.0881 119.691 84.3154 120.521 81.6751 120.521C76.4323 120.521 73 117.277 73 112.26C73.0377 107.244 76.3946 104 81.2602 104Z" fill="white"/>
<path d="M89.1812 119.728V104.754C89.1812 104.528 89.3698 104.302 89.6338 104.302H99.6291C99.8554 104.302 100.082 104.49 100.082 104.754V107.244C100.082 107.47 99.8931 107.696 99.6291 107.696H93.7073C93.481 107.696 93.2547 107.885 93.2547 108.149V111.242C93.2547 111.468 93.4433 111.694 93.7073 111.694H99.1764C99.4027 111.694 99.6291 111.883 99.6291 112.147V114.636C99.6291 114.863 99.4405 115.089 99.1764 115.089H93.7073C93.481 115.089 93.2547 115.278 93.2547 115.542V116.409C93.2547 116.636 93.4433 116.862 93.7073 116.862H99.6291C99.8554 116.862 100.082 117.05 100.082 117.314V119.804C100.082 120.03 99.8931 120.256 99.6291 120.256H89.6338C89.3698 120.181 89.1812 119.992 89.1812 119.728Z" fill="white"/>
<path d="M101.364 112.26C101.364 107.244 104.683 104 109.813 104C114.942 104 118.261 107.244 118.261 112.26C118.261 117.277 114.942 120.521 109.813 120.521C104.683 120.521 101.364 117.277 101.364 112.26ZM109.813 116.937C112.415 116.937 114.112 115.089 114.112 112.26C114.112 109.431 112.415 107.583 109.813 107.583C107.21 107.583 105.513 109.431 105.513 112.26C105.513 115.089 107.21 116.937 109.813 116.937Z" fill="white"/>
<path d="M119.921 119.728V104.754C119.921 104.528 120.11 104.302 120.374 104.302H123.58C123.806 104.302 124.033 104.49 124.033 104.754V119.728C124.033 119.955 123.844 120.181 123.58 120.181H120.374C120.11 120.181 119.921 119.992 119.921 119.728Z" fill="white"/>
<path d="M126.258 104.792C126.258 104.566 126.446 104.339 126.71 104.339H130.935C131.123 104.339 131.274 104.453 131.387 104.566L134.744 109.13C134.782 109.205 134.82 109.205 134.858 109.205C134.895 109.205 134.933 109.167 134.933 109.13V104.792C134.933 104.566 135.122 104.339 135.386 104.339H138.592C138.818 104.339 139.044 104.528 139.044 104.792V119.766C139.044 119.992 138.856 120.219 138.592 120.219H135.386C135.159 120.219 134.933 120.03 134.933 119.766V115.315C134.933 115.165 134.895 114.976 134.82 114.863L130.633 109.167C130.595 109.092 130.558 109.054 130.482 109.054C130.407 109.054 130.369 109.092 130.369 109.167V119.728C130.369 119.955 130.18 120.181 129.916 120.181H126.71C126.484 120.181 126.258 119.992 126.258 119.728V104.792Z" fill="white"/>
<path d="M144.551 108.149C144.551 107.923 144.363 107.696 144.099 107.696H140.591C140.365 107.696 140.138 107.508 140.138 107.244V104.754C140.138 104.528 140.327 104.302 140.591 104.302H152.547C152.774 104.302 153 104.49 153 104.754V107.244C153 107.47 152.811 107.696 152.547 107.696H149.04C148.813 107.696 148.587 107.885 148.587 108.149V119.728C148.587 119.955 148.398 120.181 148.134 120.181H144.928C144.702 120.181 144.476 119.992 144.476 119.728V108.149H144.551Z" fill="white"/>
<defs>
<filter id="filter0_bd_53_718" x="39" y="39" width="145" height="145" filterUnits="userSpaceOnUse" color-interpolation-filters="sRGB">
<feFlood flood-opacity="0" result="BackgroundImageFix"/>
<feGaussianBlur in="BackgroundImageFix" stdDeviation="5"/>
<feComposite in2="SourceAlpha" operator="in" result="effect1_backgroundBlur_53_718"/>
<feColorMatrix in="SourceAlpha" type="matrix" values="0 0 0 0 0 0 0 0 0 0 0 0 0 0 0 0 0 0 127 0" result="hardAlpha"/>
<feOffset dy="4"/>
<feGaussianBlur stdDeviation="2"/>
<feComposite in2="hardAlpha" operator="out"/>
<feColorMatrix type="matrix" values="0 0 0 0 0 0 0 0 0 0 0 0 0 0 0 0 0 0 0.25 0"/>
<feBlend mode="normal" in2="effect1_backgroundBlur_53_718" result="effect2_dropShadow_53_718"/>
<feBlend mode="normal" in="SourceGraphic" in2="effect2_dropShadow_53_718" result="shape"/>
</filter>
<filter id="filter1_f_53_718" x="0" y="0" width="224" height="224" filterUnits="userSpaceOnUse" color-interpolation-filters="sRGB">
<feFlood flood-opacity="0" result="BackgroundImageFix"/>
<feBlend mode="normal" in="SourceGraphic" in2="BackgroundImageFix" result="shape"/>
<feGaussianBlur stdDeviation="35" result="effect1_foregroundBlur_53_718"/>
</filter>
</defs>
</svg>
