<svg width="224" height="224" viewBox="0 0 224 224" fill="none" xmlns="http://www.w3.org/2000/svg">
<g filter="url(#filter0_bd_53_730)">
<rect x="49" y="49" width="125" height="125" rx="20" fill="#2B2D42" fill-opacity="0.8" shape-rendering="crispEdges"/>
<rect x="49.5" y="49.5" width="124" height="124" rx="19.5" stroke="white" stroke-opacity="0.1" shape-rendering="crispEdges"/>
</g>
<g opacity="0.4" filter="url(#filter1_f_53_730)">
<circle cx="112" cy="112" r="42" fill="#7F7EFF"/>
</g>
<path d="M114.433 101.781C114.92 101.294 114.92 100.516 114.433 100.126C113.946 99.6398 113.168 99.6398 112.779 100.126C112.292 100.613 112.292 101.392 112.779 101.781C113.265 102.17 114.044 102.17 114.433 101.781ZM110.248 102.56C109.762 103.046 109.762 103.825 110.248 104.214C110.735 104.701 111.513 104.701 111.903 104.214C112.389 103.727 112.389 102.949 111.903 102.56C111.513 102.073 110.735 102.073 110.248 102.56ZM117.645 103.241C116.866 102.462 115.698 102.462 115.017 103.241L113.46 104.798C112.681 105.577 112.681 106.744 113.46 107.426L115.212 109.178C115.99 109.956 117.158 109.956 117.839 109.178L119.397 107.62C120.175 106.842 120.175 105.674 119.397 104.993L117.645 103.241ZM132.438 97.4015C134.384 93.6058 131.659 91.4647 129.713 89.6156C126.598 86.6958 123.582 85.4307 120.078 89.5183C116.574 93.5085 118.813 98.18 122.024 100.516C125.139 102.754 130.491 101.197 132.438 97.4015ZM127.085 95.8443C125.82 94.3844 128.156 91.6593 129.616 93.3138C132.341 96.2335 128.35 97.3041 127.085 95.8443ZM112 72C89.9075 72 72 89.9075 72 112C72 134.092 89.9075 152 112 152C134.092 152 152 134.092 152 112C152 89.9075 134.19 72 112 72ZM133.703 118.521C129.518 115.796 127.183 113.46 125.041 109.275C123.582 112.195 120.273 116.38 114.725 119.689C111.903 128.35 98.6667 144.993 94.3844 142.657C93.1192 141.976 92.8272 141.002 93.1192 140.127C93.4112 137.791 98.3747 132.341 98.3747 132.341C98.3747 132.341 98.472 133.509 100.029 135.942C97.9853 129.518 103.435 121.538 104.895 118.813C107.231 118.131 107.328 115.114 107.328 115.114C107.426 111.416 106.063 107.912 103.435 105.285C104.895 107.036 105.285 109.664 105.382 112C105.382 112.292 105.382 112.584 105.382 112.779C105.285 114.725 104.701 117.45 103.435 117.45C102.073 117.353 100.516 117.645 99.0559 118.131L95.8443 118.91C95.8443 118.91 97.5961 118.813 98.472 119.591C97.4014 121.246 95.163 123.387 92.6326 124.555C88.9343 126.307 87.8637 122.803 89.7129 120.662C90.1022 120.175 90.5888 119.689 91.0754 119.299C90.7834 119.007 90.5888 118.618 90.5888 118.131C90.2968 116.963 90.4915 115.504 92.0486 113.168C92.4379 112.584 92.8272 112.097 93.2165 111.611C93.2165 111.611 93.2165 111.611 93.2165 111.513C93.2165 111.513 93.2166 111.513 93.3139 111.416C93.4112 111.319 93.5085 111.124 93.7031 111.027C95.6496 109.08 98.6666 107.036 103.435 105.187C108.983 97.0122 111.027 95.455 111.027 95.455C111.611 94.871 112.681 93.9951 113.071 93.8004C110.151 88.7396 109.567 81.6349 110.346 79.6885C110.248 79.7858 110.248 79.8832 110.151 79.9805C110.443 79.2992 110.637 79.1046 110.929 78.8127C111.708 77.8394 114.433 77.3528 115.406 79.3966C115.893 80.4671 115.99 81.8296 115.99 82.9002C113.849 82.8029 111.903 85.236 111.903 85.236C111.903 85.236 113.655 84.3601 115.893 84.3601C115.893 84.3601 116.477 84.8467 117.158 85.8199C116.185 87.6691 114.53 91.562 115.698 95.6496C115.893 96.4282 116.185 97.1095 116.574 97.7908V97.8881L116.672 97.9854C118.618 100.905 122.122 101.197 122.122 101.197C120.467 100.321 119.105 99.056 118.229 97.4015C117.839 96.7202 117.547 95.9415 117.353 95.2603C116.38 91.6593 117.839 89.5183 118.618 88.0584C120.467 85.236 123.776 83.4841 127.377 83.9707C132.341 84.5547 135.942 89.0316 135.455 94.0924C135.163 97.0121 133.411 99.6398 130.784 101.1C131.367 102.754 130.784 104.701 130.784 104.701C132.341 106.647 132.341 107.718 132.341 108.691C130.394 108.399 128.545 109.664 128.545 109.664C128.545 109.664 132.243 108.788 134.482 110.735C135.844 112.195 136.818 113.654 137.401 114.628C138.18 116.088 141.878 116.185 141.489 118.715C141.002 121.44 138.18 121.538 133.703 118.521Z" fill="white"/>
<defs>
<filter id="filter0_bd_53_730" x="39" y="39" width="145" height="145" filterUnits="userSpaceOnUse" color-interpolation-filters="sRGB">
<feFlood flood-opacity="0" result="BackgroundImageFix"/>
<feGaussianBlur in="BackgroundImageFix" stdDeviation="5"/>
<feComposite in2="SourceAlpha" operator="in" result="effect1_backgroundBlur_53_730"/>
<feColorMatrix in="SourceAlpha" type="matrix" values="0 0 0 0 0 0 0 0 0 0 0 0 0 0 0 0 0 0 127 0" result="hardAlpha"/>
<feOffset dy="4"/>
<feGaussianBlur stdDeviation="2"/>
<feComposite in2="hardAlpha" operator="out"/>
<feColorMatrix type="matrix" values="0 0 0 0 0 0 0 0 0 0 0 0 0 0 0 0 0 0 0.25 0"/>
<feBlend mode="normal" in2="effect1_backgroundBlur_53_730" result="effect2_dropShadow_53_730"/>
<feBlend mode="normal" in="SourceGraphic" in2="effect2_dropShadow_53_730" result="shape"/>
</filter>
<filter id="filter1_f_53_730" x="0" y="0" width="224" height="224" filterUnits="userSpaceOnUse" color-interpolation-filters="sRGB">
<feFlood flood-opacity="0" result="BackgroundImageFix"/>
<feBlend mode="normal" in="SourceGraphic" in2="BackgroundImageFix" result="shape"/>
<feGaussianBlur stdDeviation="35" result="effect1_foregroundBlur_53_730"/>
</filter>
</defs>
</svg>
