<svg width="224" height="224" viewBox="0 0 224 224" fill="none" xmlns="http://www.w3.org/2000/svg">
<g filter="url(#filter0_bd_53_720)">
<rect x="49" y="49" width="125" height="125" rx="20" fill="#2B2D42" fill-opacity="0.8" shape-rendering="crispEdges"/>
<rect x="49.5" y="49.5" width="124" height="124" rx="19.5" stroke="white" stroke-opacity="0.1" shape-rendering="crispEdges"/>
</g>
<g opacity="0.4" filter="url(#filter1_f_53_720)">
<circle cx="112" cy="112" r="42" fill="#7F7EFF"/>
</g>
<path d="M82.8493 142.726L77 71L146.856 71.1441L140.671 142.726L112.192 151L82.8493 142.726Z" fill="#E34F26"/>
<path d="M112.191 144.073V77.831L140.959 77.9271L135.829 137.193L112.191 144.073Z" fill="#EF652A"/>
<path d="M133.048 94.3796L133.863 85.624H89.6094L92.0543 112.467H122.595L121.398 123.916L111.617 126.562L101.692 123.676L101.165 116.845H92.3901L93.5889 130.795L111.616 135.846L129.787 130.795L132.232 103.568H100.158L99.2467 94.3796H133.048Z" fill="white"/>
<defs>
<filter id="filter0_bd_53_720" x="39" y="39" width="145" height="145" filterUnits="userSpaceOnUse" color-interpolation-filters="sRGB">
<feFlood flood-opacity="0" result="BackgroundImageFix"/>
<feGaussianBlur in="BackgroundImageFix" stdDeviation="5"/>
<feComposite in2="SourceAlpha" operator="in" result="effect1_backgroundBlur_53_720"/>
<feColorMatrix in="SourceAlpha" type="matrix" values="0 0 0 0 0 0 0 0 0 0 0 0 0 0 0 0 0 0 127 0" result="hardAlpha"/>
<feOffset dy="4"/>
<feGaussianBlur stdDeviation="2"/>
<feComposite in2="hardAlpha" operator="out"/>
<feColorMatrix type="matrix" values="0 0 0 0 0 0 0 0 0 0 0 0 0 0 0 0 0 0 0.25 0"/>
<feBlend mode="normal" in2="effect1_backgroundBlur_53_720" result="effect2_dropShadow_53_720"/>
<feBlend mode="normal" in="SourceGraphic" in2="effect2_dropShadow_53_720" result="shape"/>
</filter>
<filter id="filter1_f_53_720" x="0" y="0" width="224" height="224" filterUnits="userSpaceOnUse" color-interpolation-filters="sRGB">
<feFlood flood-opacity="0" result="BackgroundImageFix"/>
<feBlend mode="normal" in="SourceGraphic" in2="BackgroundImageFix" result="shape"/>
<feGaussianBlur stdDeviation="35" result="effect1_foregroundBlur_53_720"/>
</filter>
</defs>
</svg>
