<svg width="224" height="224" viewBox="0 0 224 224" fill="none" xmlns="http://www.w3.org/2000/svg">
<g filter="url(#filter0_bd_53_735)">
<rect x="49" y="49" width="125" height="125" rx="20" fill="#2B2D42" fill-opacity="0.8" shape-rendering="crispEdges"/>
<rect x="49.5" y="49.5" width="124" height="124" rx="19.5" stroke="white" stroke-opacity="0.1" shape-rendering="crispEdges"/>
</g>
<g opacity="0.4" filter="url(#filter1_f_53_735)">
<circle cx="112" cy="112" r="42" fill="#7F7EFF"/>
</g>
<path d="M79.9165 79.9167H144.083V142.333H79.9165V79.9167Z" fill="url(#paint0_radial_53_735)"/>
<path d="M79.9166 79.9166H144.083V142.333H79.9166V79.9166ZM77 145.25H147V77H77V145.25ZM122.85 101.325C122.85 101.092 122.937 100.975 123.2 100.975H127.779C128.012 100.975 128.129 101.062 128.129 101.325V124.338C128.129 124.571 128.071 124.688 127.779 124.688H123.258C122.967 124.688 122.879 124.542 122.879 124.308V101.325H122.85ZM122.529 94.7041C122.529 92.8375 123.842 91.7292 125.504 91.7292C127.283 91.7292 128.479 92.925 128.479 94.7041C128.479 96.6291 127.225 97.6791 125.446 97.6791C123.754 97.6792 122.529 96.6291 122.529 94.7041ZM109.404 110.921C108.588 107.683 106.663 100.625 105.933 97.2125H105.875C105.262 100.625 103.717 106.4 102.492 110.921H109.404ZM101.296 115.646L98.9916 124.396C98.9333 124.629 98.8458 124.687 98.5542 124.687H94.2667C93.9751 124.687 93.9166 124.6 93.9751 124.25L102.258 95.2582C102.404 94.7333 102.492 94.2666 102.55 92.8375C102.55 92.6333 102.637 92.5459 102.783 92.5459H108.908C109.112 92.5459 109.2 92.6042 109.258 92.8375L118.533 124.308C118.592 124.542 118.533 124.687 118.3 124.687H113.458C113.225 124.687 113.079 124.629 113.021 124.425L110.629 115.646H101.296Z" fill="#FF7F18"/>
<defs>
<filter id="filter0_bd_53_735" x="39" y="39" width="145" height="145" filterUnits="userSpaceOnUse" color-interpolation-filters="sRGB">
<feFlood flood-opacity="0" result="BackgroundImageFix"/>
<feGaussianBlur in="BackgroundImageFix" stdDeviation="5"/>
<feComposite in2="SourceAlpha" operator="in" result="effect1_backgroundBlur_53_735"/>
<feColorMatrix in="SourceAlpha" type="matrix" values="0 0 0 0 0 0 0 0 0 0 0 0 0 0 0 0 0 0 127 0" result="hardAlpha"/>
<feOffset dy="4"/>
<feGaussianBlur stdDeviation="2"/>
<feComposite in2="hardAlpha" operator="out"/>
<feColorMatrix type="matrix" values="0 0 0 0 0 0 0 0 0 0 0 0 0 0 0 0 0 0 0.25 0"/>
<feBlend mode="normal" in2="effect1_backgroundBlur_53_735" result="effect2_dropShadow_53_735"/>
<feBlend mode="normal" in="SourceGraphic" in2="effect2_dropShadow_53_735" result="shape"/>
</filter>
<filter id="filter1_f_53_735" x="0" y="0" width="224" height="224" filterUnits="userSpaceOnUse" color-interpolation-filters="sRGB">
<feFlood flood-opacity="0" result="BackgroundImageFix"/>
<feBlend mode="normal" in="SourceGraphic" in2="BackgroundImageFix" result="shape"/>
<feGaussianBlur stdDeviation="35" result="effect1_foregroundBlur_53_735"/>
</filter>
<radialGradient id="paint0_radial_53_735" cx="0" cy="0" r="1" gradientUnits="userSpaceOnUse" gradientTransform="translate(101.05 93.9043) scale(48.7667 47.215)">
<stop stop-color="#423325" stop-opacity="0.98"/>
<stop offset="1" stop-color="#1C0A00"/>
</radialGradient>
</defs>
</svg>
