<svg width="224" height="224" viewBox="0 0 224 224" fill="none" xmlns="http://www.w3.org/2000/svg">
<g filter="url(#filter0_bd_53_719)">
<rect x="49" y="49" width="125" height="125" rx="20" fill="#2B2D42" fill-opacity="0.8" shape-rendering="crispEdges"/>
<rect x="49.5" y="49.5" width="124" height="124" rx="19.5" stroke="white" stroke-opacity="0.1" shape-rendering="crispEdges"/>
</g>
<g opacity="0.4" filter="url(#filter1_f_53_719)">
<circle cx="112" cy="112" r="42" fill="#7F7EFF"/>
</g>
<path d="M77 76H147V146H77V76Z" fill="#F0DB4F"/>
<path d="M141.271 129.305C140.759 126.111 138.676 123.43 132.508 120.928C130.365 119.943 127.976 119.238 127.264 117.614C127.012 116.669 126.978 116.137 127.138 115.565C127.597 113.708 129.813 113.129 131.57 113.662C132.701 114.041 133.772 114.913 134.417 116.303C137.438 114.347 137.432 114.36 139.541 113.016C138.769 111.819 138.357 111.266 137.851 110.754C136.034 108.724 133.559 107.68 129.6 107.76C128.915 107.846 128.223 107.939 127.537 108.026C125.561 108.525 123.678 109.563 122.573 110.953C119.26 114.713 120.205 121.294 124.237 124.002C128.209 126.983 134.045 127.662 134.79 130.45C135.515 133.863 132.282 134.968 129.068 134.575C126.699 134.083 125.381 132.878 123.957 130.689C121.336 132.206 121.336 132.206 118.641 133.757C119.28 135.154 119.952 135.786 121.023 136.997C126.093 142.141 138.782 141.888 141.058 134.103C141.151 133.836 141.764 132.053 141.271 129.305ZM115.054 108.172H108.507C108.507 113.828 108.48 119.444 108.48 125.1C108.48 128.7 108.667 132 108.081 133.011C107.123 135.001 104.641 134.755 103.51 134.369C102.359 133.803 101.773 132.998 101.094 131.86C100.908 131.534 100.768 131.281 100.722 131.261C98.9451 132.346 97.1751 133.437 95.3984 134.522C96.2835 136.338 97.5876 137.915 99.2578 138.94C101.753 140.437 105.107 140.896 108.613 140.091C110.896 139.426 112.865 138.048 113.897 135.952C115.387 133.204 115.068 129.877 115.054 126.198C115.088 120.196 115.054 114.194 115.054 108.172Z" fill="#323330"/>
<defs>
<filter id="filter0_bd_53_719" x="39" y="39" width="145" height="145" filterUnits="userSpaceOnUse" color-interpolation-filters="sRGB">
<feFlood flood-opacity="0" result="BackgroundImageFix"/>
<feGaussianBlur in="BackgroundImageFix" stdDeviation="5"/>
<feComposite in2="SourceAlpha" operator="in" result="effect1_backgroundBlur_53_719"/>
<feColorMatrix in="SourceAlpha" type="matrix" values="0 0 0 0 0 0 0 0 0 0 0 0 0 0 0 0 0 0 127 0" result="hardAlpha"/>
<feOffset dy="4"/>
<feGaussianBlur stdDeviation="2"/>
<feComposite in2="hardAlpha" operator="out"/>
<feColorMatrix type="matrix" values="0 0 0 0 0 0 0 0 0 0 0 0 0 0 0 0 0 0 0.25 0"/>
<feBlend mode="normal" in2="effect1_backgroundBlur_53_719" result="effect2_dropShadow_53_719"/>
<feBlend mode="normal" in="SourceGraphic" in2="effect2_dropShadow_53_719" result="shape"/>
</filter>
<filter id="filter1_f_53_719" x="0" y="0" width="224" height="224" filterUnits="userSpaceOnUse" color-interpolation-filters="sRGB">
<feFlood flood-opacity="0" result="BackgroundImageFix"/>
<feBlend mode="normal" in="SourceGraphic" in2="BackgroundImageFix" result="shape"/>
<feGaussianBlur stdDeviation="35" result="effect1_foregroundBlur_53_719"/>
</filter>
</defs>
</svg>
