<svg width="224" height="224" viewBox="0 0 224 224" fill="none" xmlns="http://www.w3.org/2000/svg">
<g filter="url(#filter0_bd_53_726)">
<rect x="49" y="49" width="125" height="125" rx="20" fill="#2B2D42" fill-opacity="0.8" shape-rendering="crispEdges"/>
<rect x="49.5" y="49.5" width="124" height="124" rx="19.5" stroke="white" stroke-opacity="0.1" shape-rendering="crispEdges"/>
</g>
<g opacity="0.4" filter="url(#filter1_f_53_726)">
<circle cx="112" cy="112" r="42" fill="#7F7EFF"/>
</g>
<path d="M150.11 85.0014C148.876 85.0411 149.266 85.3967 146.599 86.0528C143.906 86.7156 140.616 86.5122 137.716 87.7286C129.059 91.3595 127.322 103.769 119.452 108.214C113.569 111.537 107.634 111.802 102.297 113.474C98.7906 114.574 94.9544 116.829 91.7772 119.567C89.3112 121.693 89.2468 123.562 86.6699 126.229C83.9139 129.081 75.7156 126.277 72 130.642C73.1968 131.852 73.7217 132.191 76.0802 131.877C75.5922 132.803 72.7134 133.583 73.2768 134.944C73.8698 136.377 80.8292 137.348 87.1558 133.529C90.102 131.75 92.449 129.186 97.0373 128.574C102.975 127.783 109.816 129.082 116.69 130.073C115.671 133.112 113.624 135.133 111.985 137.554C111.477 138.1 113.005 138.162 114.747 137.831C117.881 137.056 120.14 136.432 122.505 135.055C125.411 133.364 125.851 129.027 129.417 128.088C131.403 131.142 136.806 131.863 140.159 129.421C137.217 128.588 136.404 122.326 137.397 119.567C138.338 116.955 139.267 112.777 140.215 109.324C141.232 105.616 141.607 100.943 142.837 99.0538C144.689 96.2122 146.735 95.2363 148.512 93.634C150.289 92.0313 151.915 90.4718 151.861 86.805C151.844 85.6238 151.233 84.9658 150.11 85.0014Z" fill="#2B2D42"/>
<path d="M74.5557 134.683C79.0609 135.329 81.8006 134.683 85.4184 133.114C88.4969 131.779 91.4697 129.027 95.105 127.86C100.444 126.147 106.298 127.862 112.005 128.204C113.395 128.288 114.776 128.289 116.139 128.14C118.264 126.834 118.221 121.946 120.29 121.499C120.229 128.356 117.418 132.464 114.478 136.443C120.674 135.349 124.382 131.764 126.886 126.978C127.646 125.526 128.295 123.965 128.869 122.328C129.756 123.009 129.253 125.08 129.699 126.203C133.967 123.825 136.411 118.399 138.029 112.912C139.902 106.561 140.668 100.13 141.876 98.2508C143.055 96.4166 144.889 95.286 146.563 94.1118C148.466 92.7766 150.163 91.3852 150.456 88.8413C148.449 88.6557 147.985 88.1914 147.689 87.1802C146.684 87.7464 145.76 87.8677 144.717 87.8989C143.811 87.9264 142.816 87.8861 141.601 88.0108C131.552 89.0429 130.275 100.119 123.834 106.398C123.359 106.858 122.854 107.286 122.323 107.68C120.067 109.361 117.3 110.562 114.755 111.535C110.636 113.109 106.72 113.221 102.855 114.58C100.018 115.577 97.1348 117.023 94.8047 118.618C94.242 119.001 93.6959 119.408 93.168 119.837C91.8006 120.956 90.9029 122.198 90.0349 123.475C89.1393 124.79 88.2747 126.144 86.9567 127.437C84.8213 129.534 76.842 128.049 74.0329 129.993C73.7198 130.21 73.4711 130.469 73.3018 130.781C74.8347 131.478 75.8584 131.05 77.6217 131.245C77.8529 132.918 73.9839 133.913 74.5557 134.683V134.683ZM135.438 122.63C135.558 124.549 136.672 128.357 137.656 129.283C135.729 129.752 132.41 128.978 131.559 127.619C131.996 125.656 134.273 123.863 135.438 122.63Z" fill="white"/>
<path d="M138.26 92.1666C139.683 93.4015 142.668 92.4104 142.134 89.9531C139.924 89.77 138.643 90.5202 138.26 92.1666ZM148.178 89.2947C147.8 90.0884 147.075 91.1117 147.075 93.1319C147.072 93.4787 146.812 93.7165 146.807 93.1819C146.827 91.207 147.349 90.3537 147.905 89.2319C148.163 88.7723 148.318 88.9619 148.178 89.2947Z" fill="#2B2D42"/>
<path d="M147.797 88.996C147.35 89.7531 146.276 91.1345 146.098 93.1472C146.065 93.4921 145.785 93.7059 145.827 93.1725C146.021 91.2077 146.88 89.9778 147.532 88.9088C147.828 88.4742 147.967 88.6767 147.797 88.996ZM147.449 88.5998C146.941 89.3166 145.287 90.9755 144.941 92.9666C144.878 93.3072 144.581 93.4971 144.668 92.9691C145.027 91.0271 146.453 89.5006 147.192 88.491C147.523 88.0817 147.644 88.2958 147.449 88.5998ZM147.139 88.158C146.535 88.796 144.563 90.9114 143.941 92.8338C143.831 93.1622 143.51 93.3087 143.671 92.7981C144.299 90.9258 146.026 88.9088 146.9 88.0136C147.286 87.6552 147.375 87.8839 147.139 88.158Z" fill="#2B2D42"/>
<defs>
<filter id="filter0_bd_53_726" x="39" y="39" width="145" height="145" filterUnits="userSpaceOnUse" color-interpolation-filters="sRGB">
<feFlood flood-opacity="0" result="BackgroundImageFix"/>
<feGaussianBlur in="BackgroundImageFix" stdDeviation="5"/>
<feComposite in2="SourceAlpha" operator="in" result="effect1_backgroundBlur_53_726"/>
<feColorMatrix in="SourceAlpha" type="matrix" values="0 0 0 0 0 0 0 0 0 0 0 0 0 0 0 0 0 0 127 0" result="hardAlpha"/>
<feOffset dy="4"/>
<feGaussianBlur stdDeviation="2"/>
<feComposite in2="hardAlpha" operator="out"/>
<feColorMatrix type="matrix" values="0 0 0 0 0 0 0 0 0 0 0 0 0 0 0 0 0 0 0.25 0"/>
<feBlend mode="normal" in2="effect1_backgroundBlur_53_726" result="effect2_dropShadow_53_726"/>
<feBlend mode="normal" in="SourceGraphic" in2="effect2_dropShadow_53_726" result="shape"/>
</filter>
<filter id="filter1_f_53_726" x="0" y="0" width="224" height="224" filterUnits="userSpaceOnUse" color-interpolation-filters="sRGB">
<feFlood flood-opacity="0" result="BackgroundImageFix"/>
<feBlend mode="normal" in="SourceGraphic" in2="BackgroundImageFix" result="shape"/>
<feGaussianBlur stdDeviation="35" result="effect1_foregroundBlur_53_726"/>
</filter>
</defs>
</svg>
