<svg width="224" height="224" viewBox="0 0 224 224" fill="none" xmlns="http://www.w3.org/2000/svg">
<g filter="url(#filter0_bd_53_732)">
<rect x="49" y="49" width="125" height="125" rx="20" fill="#2B2D42" fill-opacity="0.8" shape-rendering="crispEdges"/>
<rect x="49.5" y="49.5" width="124" height="124" rx="19.5" stroke="white" stroke-opacity="0.1" shape-rendering="crispEdges"/>
</g>
<g opacity="0.4" filter="url(#filter1_f_53_732)">
<circle cx="112" cy="112" r="42" fill="#7F7EFF"/>
</g>
<path d="M103.462 121.125C102.096 128.558 100.294 133.967 98.0565 137.326C96.3131 139.924 94.4036 141.222 92.3243 141.222C91.7694 141.222 91.0867 141.055 90.2748 140.722V138.929C90.6706 138.989 91.1357 139.018 91.6702 139.018C92.6399 139.018 93.4219 138.751 94.0174 138.214C94.73 137.56 95.0863 136.825 95.0863 136.011C95.0863 135.455 94.8077 134.313 94.2541 132.587L90.5713 121.12H93.8679L96.5104 129.697C97.1047 131.643 97.3522 133.003 97.253 133.778C98.6998 129.906 99.7089 125.687 100.283 121.127H103.461M88.9093 135.954H85.5542C85.4358 130.274 85.1094 124.935 84.5737 119.931H84.5462L79.4369 135.954H76.8805L71.8023 119.931H71.7725C71.3958 124.736 71.1591 130.075 71.0598 135.954H68C68.1973 128.806 68.6935 122.108 69.4839 115.854H73.6425L78.484 130.621H78.5138L83.3852 115.854H87.3645C88.2349 123.179 88.7503 129.88 88.9069 135.954" fill="#FCFDFD"/>
<path d="M148.134 135.951H138.601V115.852H141.809V133.476H148.134V135.949M124.16 131.928C123.347 130.617 122.942 128.515 122.942 125.616C122.942 120.554 124.477 118.022 127.545 118.022C129.15 118.022 130.328 118.628 131.08 119.838C131.89 121.149 132.297 123.234 132.297 126.093C132.297 131.195 130.762 133.748 127.693 133.748C126.09 133.748 124.911 133.143 124.16 131.93M136.099 136.436L132.414 134.613C132.742 134.343 133.054 134.051 133.335 133.717C134.901 131.872 135.683 129.142 135.683 125.527C135.683 118.877 133.079 115.55 127.872 115.55C125.318 115.55 123.327 116.393 121.901 118.083C120.335 119.929 119.554 122.65 119.554 126.242C119.554 129.776 120.248 132.368 121.632 134.014C122.895 135.503 124.805 136.248 127.362 136.248C128.316 136.248 129.192 136.131 129.987 135.895L134.785 138.696L136.093 136.436M118.158 130.379C118.158 132.085 117.534 133.484 116.288 134.579C115.042 135.668 113.366 136.216 111.27 136.216C109.309 136.216 107.408 135.586 105.567 134.338L106.429 132.612C108.013 133.406 109.447 133.802 110.734 133.802C111.941 133.802 112.886 133.533 113.57 133C114.251 132.464 114.661 131.716 114.661 130.768C114.661 129.575 113.83 128.555 112.308 127.699C110.898 126.912 109.492 126.115 108.092 125.31C106.57 124.195 105.806 123.001 105.806 121.033C105.806 119.404 106.375 118.088 107.512 117.087C108.652 116.082 110.123 115.58 111.923 115.58C113.785 115.58 115.477 116.079 117.001 117.072L116.227 118.798C114.923 118.243 113.637 117.964 112.368 117.964C111.34 117.964 110.546 118.213 109.993 118.711C109.437 119.204 109.094 119.841 109.094 120.615C109.094 121.806 109.943 122.839 111.508 123.712C112.931 124.486 115.812 126.132 115.812 126.132C117.378 127.244 118.159 128.429 118.159 130.382M150.418 135.951H150.95V133.907H151.645V133.488H149.696V133.907H150.418V135.951ZM154.463 135.951H154.964V133.488H154.211L153.597 135.167L152.929 133.488H152.203V135.951H152.678V134.077H152.704L153.404 135.951H153.765L154.463 134.077V135.951Z" fill="#F6AE2D"/>
<path d="M121.469 82.0024C120.622 81.9904 119.883 82.3097 119.501 83.2483C118.847 84.8278 120.47 86.3811 121.028 87.1834C121.439 87.7418 121.973 88.3743 122.262 89.0044C122.432 89.417 122.481 89.8558 122.651 90.2922C123.038 91.3612 123.4 92.5509 123.91 93.5481C124.175 94.0587 124.466 94.5932 124.805 95.0523C125 95.3214 125.339 95.4409 125.412 95.8798C125.073 96.364 125.047 97.0934 124.854 97.702C123.982 100.446 124.321 103.847 125.556 105.863C125.944 106.469 126.864 107.806 128.101 107.295C129.191 106.859 128.95 105.474 129.263 104.26C129.336 103.966 129.287 103.774 129.433 103.579V103.629C129.771 104.308 130.112 104.962 130.426 105.645C131.178 106.834 132.485 108.072 133.576 108.897C134.156 109.336 134.616 110.088 135.343 110.356V110.282H135.295C135.149 110.064 134.932 109.966 134.738 109.798C134.302 109.36 133.819 108.826 133.479 108.339C132.463 106.981 131.565 105.474 130.767 103.92C130.379 103.165 130.04 102.34 129.725 101.588C129.58 101.298 129.58 100.859 129.337 100.714C128.972 101.247 128.44 101.71 128.175 102.363C127.715 103.409 127.667 104.696 127.496 106.031C127.4 106.056 127.448 106.031 127.4 106.079C126.625 105.885 126.359 105.084 126.067 104.405C125.34 102.68 125.218 99.9093 125.849 97.9196C126.017 97.4103 126.746 95.808 126.454 95.3214C126.308 94.8574 125.824 94.592 125.557 94.2273C125.22 93.7372 124.929 93.2168 124.687 92.6729C124.106 91.3134 123.814 89.8068 123.185 88.4472C122.895 87.8135 122.384 87.1595 121.974 86.5772C121.512 85.9207 121.005 85.4592 120.641 84.6832C120.521 84.4153 120.351 83.9777 120.545 83.6871C120.592 83.4922 120.69 83.4193 120.885 83.3703C121.197 83.1036 122.095 83.442 122.409 83.5879C123.306 83.9514 124.057 84.2934 124.807 84.8015C125.145 85.0455 125.508 85.507 125.945 85.629H126.454C127.229 85.7988 128.102 85.6768 128.829 85.8956C130.112 86.3081 131.274 86.9155 132.317 87.5708C135.526 89.6226 138.133 92.489 139.872 95.8774C140.164 96.4358 140.286 96.9463 140.552 97.5274C141.061 98.7208 141.691 99.9344 142.199 101.099C142.707 102.241 143.193 103.407 143.921 104.354C144.282 104.863 145.736 105.131 146.39 105.398C146.875 105.615 147.625 105.81 148.062 106.077C148.887 106.586 149.707 107.17 150.483 107.729C150.871 108.021 152.081 108.627 152.154 109.114C150.217 109.066 148.715 109.26 147.454 109.795C147.092 109.94 146.511 109.94 146.462 110.402C146.657 110.595 146.68 110.911 146.851 111.179C147.141 111.665 147.648 112.32 148.11 112.661C148.619 113.05 149.127 113.438 149.661 113.777C150.605 114.363 151.671 114.701 152.59 115.284C153.124 115.623 153.657 116.061 154.19 116.426C154.455 116.619 154.624 116.936 154.965 117.056V116.982C154.794 116.764 154.746 116.448 154.577 116.204C154.336 115.963 154.093 115.744 153.85 115.501C153.141 114.561 152.291 113.734 151.332 113.05C150.556 112.513 148.859 111.784 148.546 110.888L148.497 110.839C149.029 110.79 149.661 110.595 150.17 110.448C150.991 110.229 151.743 110.278 152.591 110.061C152.979 109.963 153.366 109.841 153.756 109.722V109.501C153.317 109.066 153.004 108.481 152.545 108.069C151.311 107.001 149.952 105.957 148.547 105.081C147.794 104.595 146.826 104.281 146.027 103.867C145.737 103.721 145.253 103.649 145.082 103.406C144.647 102.871 144.403 102.168 144.09 101.535C143.374 100.153 142.711 98.7426 142.104 97.3086C141.667 96.3616 141.401 95.4158 140.868 94.5406C138.372 90.4106 135.66 87.9104 131.494 85.4568C130.597 84.9462 129.532 84.7274 128.395 84.4608C127.787 84.4357 127.184 84.389 126.577 84.3651C126.189 84.1929 125.8 83.7314 125.462 83.5126C124.599 82.9661 122.884 82.0215 121.472 82L121.469 82.0024ZM127.445 88.006C127.034 88.006 126.745 88.0563 126.453 88.128V88.1758H126.5C126.695 88.5644 127.034 88.8335 127.275 89.173C127.469 89.5616 127.639 89.9491 127.833 90.3377L127.881 90.2898C128.222 90.0471 128.391 89.6585 128.391 89.075C128.244 88.904 128.222 88.7354 128.1 88.5644C127.955 88.3229 127.639 88.2009 127.445 88.006Z" fill="#FCFDFD"/>
<defs>
<filter id="filter0_bd_53_732" x="39" y="39" width="145" height="145" filterUnits="userSpaceOnUse" color-interpolation-filters="sRGB">
<feFlood flood-opacity="0" result="BackgroundImageFix"/>
<feGaussianBlur in="BackgroundImageFix" stdDeviation="5"/>
<feComposite in2="SourceAlpha" operator="in" result="effect1_backgroundBlur_53_732"/>
<feColorMatrix in="SourceAlpha" type="matrix" values="0 0 0 0 0 0 0 0 0 0 0 0 0 0 0 0 0 0 127 0" result="hardAlpha"/>
<feOffset dy="4"/>
<feGaussianBlur stdDeviation="2"/>
<feComposite in2="hardAlpha" operator="out"/>
<feColorMatrix type="matrix" values="0 0 0 0 0 0 0 0 0 0 0 0 0 0 0 0 0 0 0.25 0"/>
<feBlend mode="normal" in2="effect1_backgroundBlur_53_732" result="effect2_dropShadow_53_732"/>
<feBlend mode="normal" in="SourceGraphic" in2="effect2_dropShadow_53_732" result="shape"/>
</filter>
<filter id="filter1_f_53_732" x="0" y="0" width="224" height="224" filterUnits="userSpaceOnUse" color-interpolation-filters="sRGB">
<feFlood flood-opacity="0" result="BackgroundImageFix"/>
<feBlend mode="normal" in="SourceGraphic" in2="BackgroundImageFix" result="shape"/>
<feGaussianBlur stdDeviation="35" result="effect1_foregroundBlur_53_732"/>
</filter>
</defs>
</svg>
