<svg width="224" height="224" viewBox="0 0 224 224" fill="none" xmlns="http://www.w3.org/2000/svg">
<g filter="url(#filter0_bd_53_716)">
<rect x="49" y="49" width="125" height="125" rx="20" fill="#2B2D42" fill-opacity="0.8" shape-rendering="crispEdges"/>
<rect x="49.5" y="49.5" width="124" height="124" rx="19.5" stroke="white" stroke-opacity="0.1" shape-rendering="crispEdges"/>
</g>
<g opacity="0.4" filter="url(#filter1_f_53_716)">
<circle cx="112" cy="112" r="42" fill="#7F7EFF"/>
</g>
<path d="M88.4129 140.096C87.9869 140.096 87.57 139.933 87.2528 139.615L77.5556 129.909V138.455C77.5556 139.362 76.8215 140.087 75.9243 140.087C75.0271 140.087 74.293 139.353 74.293 138.455V125.949C74.293 125.287 74.6917 124.689 75.308 124.435C75.9243 124.181 76.6221 124.317 77.0934 124.789L86.7816 134.486V125.949C86.7816 125.042 87.5157 124.317 88.4129 124.317C89.3192 124.317 90.0442 125.051 90.0442 125.949V138.446C90.0533 139.353 89.3192 140.096 88.4129 140.096ZM96.0075 124.335L95.5544 125.178L92.0743 131.504L91.6211 132.302L92.0743 133.099L95.5544 139.226L96.0257 140.059H105.143L105.596 139.135L108.197 133.888L109.366 131.513H106.729L100.077 131.54C99.2067 131.522 98.4092 132.32 98.4092 133.172C98.4092 134.042 99.2067 134.821 100.077 134.803L104.092 134.776L103.113 136.761H97.947L95.3822 132.265L97.9651 127.598H103.457L104.735 130.226H108.034L105.959 125.242L105.505 124.317H96.0075M112.611 124.308C111.75 124.317 110.979 125.106 110.988 125.967V130.244H114.269V125.967C114.278 125.097 113.481 124.29 112.611 124.308ZM117.867 140.123C116.961 140.123 116.236 139.389 116.236 138.492V125.985C116.236 125.079 116.97 124.354 117.867 124.354C118.773 124.354 119.498 125.088 119.498 125.985V134.531L129.196 124.834C129.667 124.363 130.365 124.227 130.981 124.48C131.597 124.734 131.996 125.332 131.996 125.994V138.492C131.996 139.398 131.262 140.123 130.365 140.123C129.458 140.123 128.733 139.389 128.733 138.492V129.936L119.027 139.643C118.719 139.951 118.302 140.123 117.867 140.123ZM144.149 132.22L149.243 127.136C149.886 126.492 149.886 125.459 149.252 124.816C148.608 124.172 147.575 124.172 146.932 124.807L141.829 129.9L136.727 124.807C136.083 124.163 135.05 124.163 134.407 124.816C133.763 125.459 133.763 126.492 134.407 127.136L139.5 132.22L134.416 137.286C133.772 137.93 133.772 138.963 134.407 139.606C134.715 139.914 135.132 140.096 135.567 140.087C135.984 140.087 136.401 139.924 136.727 139.606L141.82 134.531L146.914 139.606C147.222 139.914 147.639 140.087 148.074 140.087C148.49 140.087 148.916 139.924 149.234 139.606C149.877 138.963 149.877 137.93 149.225 137.286L144.149 132.22ZM112.611 140.078C111.75 140.069 110.979 139.28 110.988 138.419V131.559H114.269V138.419C114.278 139.289 113.481 140.087 112.611 140.078Z" fill="#009900"/>
<path d="M127.7 121.979C126.631 121.979 125.571 121.562 124.782 120.774L100.376 96.3584V117.856C100.376 120.139 98.527 121.979 96.2523 121.979C93.9775 121.979 92.1287 120.13 92.1287 117.856V86.4074C92.1287 84.7308 93.1346 83.2354 94.6753 82.592C96.216 81.9485 97.9923 82.302 99.1705 83.4892L123.577 107.905V86.4074C123.577 84.1236 125.426 82.2839 127.7 82.2839C129.984 82.2839 131.824 84.1327 131.824 86.4074V117.865C131.824 120.139 129.984 121.979 127.7 121.979Z" fill="#009900"/>
<defs>
<filter id="filter0_bd_53_716" x="39" y="39" width="145" height="145" filterUnits="userSpaceOnUse" color-interpolation-filters="sRGB">
<feFlood flood-opacity="0" result="BackgroundImageFix"/>
<feGaussianBlur in="BackgroundImageFix" stdDeviation="5"/>
<feComposite in2="SourceAlpha" operator="in" result="effect1_backgroundBlur_53_716"/>
<feColorMatrix in="SourceAlpha" type="matrix" values="0 0 0 0 0 0 0 0 0 0 0 0 0 0 0 0 0 0 127 0" result="hardAlpha"/>
<feOffset dy="4"/>
<feGaussianBlur stdDeviation="2"/>
<feComposite in2="hardAlpha" operator="out"/>
<feColorMatrix type="matrix" values="0 0 0 0 0 0 0 0 0 0 0 0 0 0 0 0 0 0 0.25 0"/>
<feBlend mode="normal" in2="effect1_backgroundBlur_53_716" result="effect2_dropShadow_53_716"/>
<feBlend mode="normal" in="SourceGraphic" in2="effect2_dropShadow_53_716" result="shape"/>
</filter>
<filter id="filter1_f_53_716" x="0" y="0" width="224" height="224" filterUnits="userSpaceOnUse" color-interpolation-filters="sRGB">
<feFlood flood-opacity="0" result="BackgroundImageFix"/>
<feBlend mode="normal" in="SourceGraphic" in2="BackgroundImageFix" result="shape"/>
<feGaussianBlur stdDeviation="35" result="effect1_foregroundBlur_53_716"/>
</filter>
</defs>
</svg>
