<svg width="224" height="224" viewBox="0 0 224 224" fill="none" xmlns="http://www.w3.org/2000/svg">
<g filter="url(#filter0_bd_53_738)">
<rect x="49" y="49" width="125" height="125" rx="20" fill="#2B2D42" fill-opacity="0.8" shape-rendering="crispEdges"/>
<rect x="49.5" y="49.5" width="124" height="124" rx="19.5" stroke="white" stroke-opacity="0.1" shape-rendering="crispEdges"/>
</g>
<g opacity="0.4" filter="url(#filter1_f_53_738)">
<circle cx="112" cy="112" r="42" fill="#7F7EFF"/>
</g>
<mask id="mask0_53_738" style="mask-type:luminance" maskUnits="userSpaceOnUse" x="72" y="72" width="80" height="80">
<path d="M72 72H152V152H72V72Z" fill="white"/>
</mask>
<g mask="url(#mask0_53_738)">
<path d="M131.703 146.281C131.219 149.937 127.641 152.781 124.094 151.797C119.031 150.406 113.172 148.234 107.906 147.828L99.8282 147.203C98.5254 147.112 97.3017 146.545 96.3907 145.609L82.4844 131.281C81.7385 130.518 81.2396 129.548 81.0529 128.497C80.8662 127.447 81.0002 126.364 81.4375 125.391C81.4375 125.391 90.0313 106.484 90.3594 105.5C90.6719 104.516 91.8594 95.9375 92.5469 91.3437C92.7344 90.1094 93.3282 89 94.2657 88.1719L110.719 73.3594C111.261 72.8721 111.898 72.5013 112.59 72.2701C113.281 72.0388 114.013 71.952 114.739 72.015C115.466 72.078 116.172 72.2894 116.813 72.6362C117.455 72.983 118.018 73.4578 118.469 74.0312L132.281 91.5937C133.049 92.599 133.467 93.8286 133.469 95.0937C133.469 98.4219 133.75 105.25 135.594 109.656C137.391 113.922 140.672 118.562 142.391 120.828C142.718 121.252 142.912 121.763 142.948 122.297C142.984 122.831 142.861 123.364 142.594 123.828C140.364 127.57 138.03 131.248 135.594 134.859C133.25 138.344 132.172 142.656 131.688 146.281H131.703Z" fill="#6C31E3"/>
<path d="M97.8907 146.703C104.359 133.578 104.172 124.172 101.422 117.484C98.8907 111.297 94.1876 107.406 90.4845 104.984C90.3907 105.344 90.2814 105.672 90.1407 106L81.4376 125.406C80.9983 126.378 80.8617 127.46 81.0457 128.51C81.2296 129.561 81.7255 130.532 82.4689 131.297L96.3907 145.625C96.8227 146.075 97.3304 146.445 97.8907 146.719V146.703Z" fill="url(#paint0_radial_53_738)"/>
<path d="M115.469 120.062C117.219 120.25 118.938 120.625 120.594 121.25C125.906 123.234 130.75 127.688 134.735 136.297C135.016 135.813 135.297 135.328 135.61 134.859C138.043 131.246 140.377 127.568 142.61 123.828C142.883 123.366 143.01 122.832 142.973 122.297C142.937 121.761 142.739 121.249 142.406 120.828C140.688 118.547 137.406 113.922 135.61 109.656C133.766 105.25 133.5 98.4062 133.485 95.0938C133.485 93.8281 133.078 92.5938 132.297 91.5938L118.469 74.0312C118.394 73.9401 118.316 73.8515 118.235 73.7656C119.144 76.4902 119.253 79.4187 118.547 82.2031C117.878 84.4513 116.955 86.6162 115.797 88.6562L114.672 90.875C112.868 94.309 111.834 98.0946 111.641 101.969C111.453 106.562 112.391 112.344 115.469 120.062Z" fill="url(#paint1_radial_53_738)"/>
<path d="M115.469 120.062C112.391 112.344 111.438 106.562 111.641 101.953C111.834 98.079 112.868 94.2934 114.672 90.8593C115.031 90.1093 115.422 89.375 115.797 88.6562C116.906 86.4843 117.984 84.4375 118.547 82.1875C119.253 79.4031 119.144 76.4745 118.234 73.75C117.286 72.7053 115.963 72.0792 114.554 72.0089C113.145 71.9386 111.766 72.4299 110.719 73.375L94.25 88.1875C93.3315 89.0151 92.7294 90.1365 92.5469 91.3593L90.5469 104.641L90.4688 105C94.1875 107.422 98.9062 111.312 101.422 117.5C101.942 118.753 102.35 120.05 102.641 121.375C107.016 120.312 111.344 119.656 115.469 120.078V120.062Z" fill="url(#paint2_radial_53_738)"/>
<path d="M124.094 151.813C127.641 152.781 131.219 149.938 131.703 146.281C132.106 142.798 133.133 139.416 134.734 136.297C130.734 127.703 125.906 123.234 120.609 121.25C114.984 119.156 108.859 119.844 102.641 121.359C104.031 127.672 103.203 135.938 97.8906 146.703C98.5156 146.984 99.1562 147.172 99.8438 147.219C99.8438 147.219 103.656 147.531 108.219 147.859C112.75 148.172 119.531 150.531 124.094 151.797V151.813Z" fill="url(#paint3_radial_53_738)"/>
<path fill-rule="evenodd" clip-rule="evenodd" d="M111.672 101.656C111.469 106.219 112.047 111.469 115.125 119.172L114.156 119.094C111.391 111.047 110.797 106.906 111 102.281C111.237 98.345 112.325 94.507 114.187 91.0312C114.562 90.2656 115.437 88.8281 115.828 88.0938C116.937 85.9531 117.687 84.8125 118.328 82.8438C119.219 80.1094 119.031 78.7969 118.922 77.5156C119.641 82.1875 116.937 86.2656 114.906 90.3906C113.038 93.8671 111.935 97.7029 111.672 101.641V101.656Z" fill="url(#paint4_radial_53_738)"/>
<path fill-rule="evenodd" clip-rule="evenodd" d="M102.328 117.812C102.703 118.656 103.047 119.344 103.266 120.391L102.438 120.562C102.109 119.344 101.844 118.469 101.375 117.438C98.5938 110.875 94.1406 107.5 90.4844 105.016C94.8906 107.391 99.4219 111.109 102.312 117.812H102.328Z" fill="url(#paint5_radial_53_738)"/>
<path fill-rule="evenodd" clip-rule="evenodd" d="M103.313 121.203C104.844 128.391 103.125 137.484 98.0625 146.344C102.297 137.562 104.344 129.141 102.641 121.344L103.313 121.203Z" fill="url(#paint6_radial_53_738)"/>
<path fill-rule="evenodd" clip-rule="evenodd" d="M120.797 120.563C129.094 123.672 132.297 130.5 134.688 136.188C131.719 130.234 127.625 123.641 120.5 121.188C115.063 119.344 110.484 119.563 102.641 121.344L102.469 120.563C110.781 118.672 115.125 118.453 120.797 120.563Z" fill="url(#paint7_radial_53_738)"/>
</g>
<defs>
<filter id="filter0_bd_53_738" x="39" y="39" width="145" height="145" filterUnits="userSpaceOnUse" color-interpolation-filters="sRGB">
<feFlood flood-opacity="0" result="BackgroundImageFix"/>
<feGaussianBlur in="BackgroundImageFix" stdDeviation="5"/>
<feComposite in2="SourceAlpha" operator="in" result="effect1_backgroundBlur_53_738"/>
<feColorMatrix in="SourceAlpha" type="matrix" values="0 0 0 0 0 0 0 0 0 0 0 0 0 0 0 0 0 0 127 0" result="hardAlpha"/>
<feOffset dy="4"/>
<feGaussianBlur stdDeviation="2"/>
<feComposite in2="hardAlpha" operator="out"/>
<feColorMatrix type="matrix" values="0 0 0 0 0 0 0 0 0 0 0 0 0 0 0 0 0 0 0.25 0"/>
<feBlend mode="normal" in2="effect1_backgroundBlur_53_738" result="effect2_dropShadow_53_738"/>
<feBlend mode="normal" in="SourceGraphic" in2="effect2_dropShadow_53_738" result="shape"/>
</filter>
<filter id="filter1_f_53_738" x="0" y="0" width="224" height="224" filterUnits="userSpaceOnUse" color-interpolation-filters="sRGB">
<feFlood flood-opacity="0" result="BackgroundImageFix"/>
<feBlend mode="normal" in="SourceGraphic" in2="BackgroundImageFix" result="shape"/>
<feGaussianBlur stdDeviation="35" result="effect1_foregroundBlur_53_738"/>
</filter>
<radialGradient id="paint0_radial_53_738" cx="0" cy="0" r="1" gradientUnits="userSpaceOnUse" gradientTransform="translate(97.1876 145.406) rotate(-104.693) scale(36.3448 24.2167)">
<stop stop-color="white" stop-opacity="0.4"/>
<stop offset="1" stop-opacity="0.1"/>
</radialGradient>
<radialGradient id="paint1_radial_53_738" cx="0" cy="0" r="1" gradientUnits="userSpaceOnUse" gradientTransform="translate(128.219 130.438) rotate(-82.4846) scale(59.7319 44.1303)">
<stop stop-color="white" stop-opacity="0.6"/>
<stop offset="1" stop-color="white" stop-opacity="0.1"/>
</radialGradient>
<radialGradient id="paint2_radial_53_738" cx="0" cy="0" r="1" gradientUnits="userSpaceOnUse" gradientTransform="translate(99.375 119.937) rotate(-77.7949) scale(50.9964 34.8451)">
<stop stop-color="white" stop-opacity="0.8"/>
<stop offset="1" stop-color="white" stop-opacity="0.4"/>
</radialGradient>
<radialGradient id="paint3_radial_53_738" cx="0" cy="0" r="1" gradientUnits="userSpaceOnUse" gradientTransform="translate(124.359 152) rotate(-120.496) scale(29.5577 33.9783)">
<stop stop-color="white" stop-opacity="0.3"/>
<stop offset="1" stop-opacity="0.3"/>
</radialGradient>
<radialGradient id="paint4_radial_53_738" cx="0" cy="0" r="1" gradientUnits="userSpaceOnUse" gradientTransform="translate(120.406 92) rotate(102.236) scale(26.5404 17.8972)">
<stop stop-color="white" stop-opacity="0"/>
<stop offset="1" stop-color="white" stop-opacity="0.2"/>
</radialGradient>
<radialGradient id="paint5_radial_53_738" cx="0" cy="0" r="1" gradientUnits="userSpaceOnUse" gradientTransform="translate(89.3125 106.375) rotate(45.3237) scale(19.5562 41.6542)">
<stop stop-color="white" stop-opacity="0.2"/>
<stop offset="1" stop-color="white" stop-opacity="0.4"/>
</radialGradient>
<radialGradient id="paint6_radial_53_738" cx="0" cy="0" r="1" gradientUnits="userSpaceOnUse" gradientTransform="translate(105.563 116.344) rotate(86.0397) scale(20.3611 43.2379)">
<stop stop-color="white" stop-opacity="0.2"/>
<stop offset="1" stop-color="white" stop-opacity="0.3"/>
</radialGradient>
<radialGradient id="paint7_radial_53_738" cx="0" cy="0" r="1" gradientUnits="userSpaceOnUse" gradientTransform="translate(134.469 134.344) rotate(-152.289) scale(34.9455 109.938)">
<stop stop-color="white" stop-opacity="0.2"/>
<stop offset="0.5" stop-color="white" stop-opacity="0.2"/>
<stop offset="1" stop-color="white" stop-opacity="0.3"/>
</radialGradient>
</defs>
</svg>
