<svg width="224" height="224" viewBox="0 0 224 224" fill="none" xmlns="http://www.w3.org/2000/svg">
<g filter="url(#filter0_bd_53_717)">
<rect x="49" y="49" width="125" height="125" rx="20" fill="#2B2D42" fill-opacity="0.8" shape-rendering="crispEdges"/>
<rect x="49.5" y="49.5" width="124" height="124" rx="19.5" stroke="white" stroke-opacity="0.1" shape-rendering="crispEdges"/>
</g>
<g opacity="0.4" filter="url(#filter1_f_53_717)">
<circle cx="112" cy="112" r="42" fill="#7F7EFF"/>
</g>
<path d="M72 113.33C72 107.057 76.151 103 82.566 103C88.9811 103 93.1321 107.057 93.1321 113.33C93.1321 119.604 88.9811 123.66 82.566 123.66C76.151 123.66 72 119.651 72 113.33ZM82.566 119.179C85.8208 119.179 87.9434 116.868 87.9434 113.33C87.9434 109.792 85.8208 107.481 82.566 107.481C79.3113 107.481 77.1887 109.792 77.1887 113.33C77.1887 116.868 79.3113 119.179 82.566 119.179Z" fill="white"/>
<path d="M102.33 103C104.925 103 106.387 103.472 107.755 104.226C107.991 104.321 107.991 104.604 107.896 104.84L106.811 108.141C106.717 108.472 106.387 108.519 106.057 108.33C104.972 107.811 103.604 107.434 102.519 107.434C100.962 107.434 99.8775 108 99.8775 108.943C99.8775 111.679 108.415 111.019 108.415 117.623C108.415 121.585 105.349 123.613 100.585 123.613C97.9907 123.613 95.9624 123.142 94.5944 122.104C94.4058 121.962 94.3586 121.726 94.4529 121.491L95.5378 118.189C95.6322 117.858 96.0095 117.811 96.2925 118C97.2359 118.566 98.651 119.132 100.349 119.132C101.906 119.132 103.227 118.566 103.227 117.623C103.227 114.887 94.6888 115.547 94.6888 108.943C94.7831 105.028 97.8491 103 102.33 103Z" fill="white"/>
<path d="M110.632 122.717V103.991C110.632 103.708 110.868 103.424 111.198 103.424H115.207C115.49 103.424 115.773 103.66 115.773 103.991V122.717C115.773 123 115.538 123.283 115.207 123.283H111.198C110.868 123.236 110.632 123 110.632 122.717Z" fill="white"/>
<path d="M118.556 103.991C118.556 103.708 118.792 103.424 119.122 103.424H124.406C124.641 103.424 124.83 103.566 124.972 103.708L129.17 109.415C129.217 109.509 129.264 109.509 129.311 109.509C129.358 109.509 129.405 109.462 129.405 109.415V103.991C129.405 103.708 129.641 103.424 129.972 103.424H133.981C134.264 103.424 134.547 103.66 134.547 103.991V122.717C134.547 123 134.311 123.283 133.981 123.283H129.972C129.689 123.283 129.405 123.047 129.405 122.717V117.151C129.405 116.962 129.358 116.726 129.264 116.585L123.981 109.462C123.934 109.368 123.887 109.321 123.792 109.321C123.698 109.321 123.651 109.368 123.651 109.462V122.67C123.651 122.953 123.415 123.236 123.085 123.236H119.075C118.792 123.236 118.509 123 118.509 122.67V103.991H118.556Z" fill="white"/>
<path d="M141.434 108.189C141.434 107.906 141.198 107.623 140.868 107.623H136.481C136.198 107.623 135.915 107.387 135.915 107.057V103.943C135.915 103.66 136.151 103.377 136.481 103.377H151.434C151.717 103.377 152 103.613 152 103.943V107.057C152 107.34 151.764 107.623 151.434 107.623H147.047C146.764 107.623 146.481 107.858 146.481 108.189V122.67C146.481 122.953 146.245 123.236 145.915 123.236H141.906C141.623 123.236 141.34 123 141.34 122.67V108.189H141.434Z" fill="white"/>
<defs>
<filter id="filter0_bd_53_717" x="39" y="39" width="145" height="145" filterUnits="userSpaceOnUse" color-interpolation-filters="sRGB">
<feFlood flood-opacity="0" result="BackgroundImageFix"/>
<feGaussianBlur in="BackgroundImageFix" stdDeviation="5"/>
<feComposite in2="SourceAlpha" operator="in" result="effect1_backgroundBlur_53_717"/>
<feColorMatrix in="SourceAlpha" type="matrix" values="0 0 0 0 0 0 0 0 0 0 0 0 0 0 0 0 0 0 127 0" result="hardAlpha"/>
<feOffset dy="4"/>
<feGaussianBlur stdDeviation="2"/>
<feComposite in2="hardAlpha" operator="out"/>
<feColorMatrix type="matrix" values="0 0 0 0 0 0 0 0 0 0 0 0 0 0 0 0 0 0 0.25 0"/>
<feBlend mode="normal" in2="effect1_backgroundBlur_53_717" result="effect2_dropShadow_53_717"/>
<feBlend mode="normal" in="SourceGraphic" in2="effect2_dropShadow_53_717" result="shape"/>
</filter>
<filter id="filter1_f_53_717" x="0" y="0" width="224" height="224" filterUnits="userSpaceOnUse" color-interpolation-filters="sRGB">
<feFlood flood-opacity="0" result="BackgroundImageFix"/>
<feBlend mode="normal" in="SourceGraphic" in2="BackgroundImageFix" result="shape"/>
<feGaussianBlur stdDeviation="35" result="effect1_foregroundBlur_53_717"/>
</filter>
</defs>
</svg>
