<svg width="224" height="224" viewBox="0 0 224 224" fill="none" xmlns="http://www.w3.org/2000/svg">
<g filter="url(#filter0_bd_53_721)">
<rect x="49" y="49" width="125" height="125" rx="20" fill="#2B2D42" fill-opacity="0.8" shape-rendering="crispEdges"/>
<rect x="49.5" y="49.5" width="124" height="124" rx="19.5" stroke="white" stroke-opacity="0.1" shape-rendering="crispEdges"/>
</g>
<g opacity="0.4" filter="url(#filter1_f_53_721)">
<circle cx="112" cy="112" r="42" fill="#7F7EFF"/>
</g>
<path d="M108.789 75.7292H100.046V93.8836H108.789V75.7292Z" fill="#FCFDFD"/>
<path d="M108.789 113.022H100.046V131.176H108.789V113.022Z" fill="#FCFDFD"/>
<path d="M108.789 99.1826H100.046V107.748H108.789V99.1826Z" fill="#FFCA00"/>
<path d="M94.7433 90.6534H86V151H94.7433V90.6534Z" fill="#FCFDFD"/>
<path d="M122.545 128H113.802V146.155H122.545V128Z" fill="#FCFDFD"/>
<path d="M122.545 90.6752H113.802V108.83H122.545V90.6752Z" fill="#FCFDFD"/>
<path d="M122.545 114.132H113.802V122.698H122.545V114.132Z" fill="#E70488"/>
<path d="M136.297 71H127.553V131.347H136.297V71Z" fill="#FCFDFD"/>
<defs>
<filter id="filter0_bd_53_721" x="39" y="39" width="145" height="145" filterUnits="userSpaceOnUse" color-interpolation-filters="sRGB">
<feFlood flood-opacity="0" result="BackgroundImageFix"/>
<feGaussianBlur in="BackgroundImageFix" stdDeviation="5"/>
<feComposite in2="SourceAlpha" operator="in" result="effect1_backgroundBlur_53_721"/>
<feColorMatrix in="SourceAlpha" type="matrix" values="0 0 0 0 0 0 0 0 0 0 0 0 0 0 0 0 0 0 127 0" result="hardAlpha"/>
<feOffset dy="4"/>
<feGaussianBlur stdDeviation="2"/>
<feComposite in2="hardAlpha" operator="out"/>
<feColorMatrix type="matrix" values="0 0 0 0 0 0 0 0 0 0 0 0 0 0 0 0 0 0 0.25 0"/>
<feBlend mode="normal" in2="effect1_backgroundBlur_53_721" result="effect2_dropShadow_53_721"/>
<feBlend mode="normal" in="SourceGraphic" in2="effect2_dropShadow_53_721" result="shape"/>
</filter>
<filter id="filter1_f_53_721" x="0" y="0" width="224" height="224" filterUnits="userSpaceOnUse" color-interpolation-filters="sRGB">
<feFlood flood-opacity="0" result="BackgroundImageFix"/>
<feBlend mode="normal" in="SourceGraphic" in2="BackgroundImageFix" result="shape"/>
<feGaussianBlur stdDeviation="35" result="effect1_foregroundBlur_53_721"/>
</filter>
</defs>
</svg>
