<svg width="224" height="224" viewBox="0 0 224 224" fill="none" xmlns="http://www.w3.org/2000/svg">
<g filter="url(#filter0_bd_53_715)">
<rect x="49" y="49" width="125" height="125" rx="20" fill="#2B2D42" fill-opacity="0.8" shape-rendering="crispEdges"/>
<rect x="49.5" y="49.5" width="124" height="124" rx="19.5" stroke="white" stroke-opacity="0.1" shape-rendering="crispEdges"/>
</g>
<g opacity="0.4" filter="url(#filter1_f_53_715)">
<circle cx="112" cy="112" r="42" fill="#7F7EFF"/>
</g>
<path d="M93.5358 113.821C92.133 113.821 91 112.548 91 111.01V103C91 101.409 92.133 100.189 93.5358 100.189C94.9385 100.189 96.0715 101.462 96.0715 103V111.01C96.0715 112.548 94.9385 113.821 93.5358 113.821ZM101.683 116.845C100.28 116.845 99.1468 115.572 99.1468 114.034V99.9234C99.1468 98.332 100.28 97.1119 101.683 97.1119C103.085 97.1119 104.218 98.385 104.218 99.9234V114.034C104.218 115.625 103.085 116.845 101.683 116.845ZM109.883 119.869C108.481 119.869 107.348 118.596 107.348 117.057V96.9528C107.348 95.3614 108.481 94.1414 109.883 94.1414C111.286 94.1414 112.419 95.4145 112.419 96.9528V117.057C112.419 118.596 111.286 119.869 109.883 119.869ZM131.248 86.9801L95.8557 75.1509C94.1292 74.5674 92.5646 75.7344 92.5646 77.6441V97.4302C92.8883 97.3772 93.2121 97.3241 93.5358 97.3241C93.8595 97.3241 94.1832 97.3772 94.5069 97.4302V77.6441C94.5069 77.4849 94.5069 77.2197 94.9385 77.2197C95.0464 77.2197 95.1543 77.2197 95.2622 77.2728L130.655 89.102C131.41 89.3672 132.004 90.216 132.004 90.8525V116.208C132.004 116.368 132.004 116.633 131.572 116.633C131.464 116.633 131.356 116.633 131.248 116.58L123.102 113.875V116.155L130.709 118.702C130.979 118.808 131.302 118.861 131.626 118.861C132.867 118.914 133.946 117.853 134 116.421C134 116.368 134 116.262 134 116.208V90.8525C134 89.2081 132.759 87.5106 131.248 86.9801ZM118.03 122.998C116.627 122.998 115.494 121.725 115.494 120.187V93.7701C115.494 92.1787 116.627 90.9056 118.03 90.9056C119.433 90.9056 120.566 92.1787 120.566 93.7701V120.187C120.566 121.778 119.433 123.051 118.03 122.998Z" fill="white"/>
<path d="M73.8146 140.97V147.627H72V130H76.2695C77.9239 130 79.2048 130.479 80.1121 131.385C81.0194 132.29 81.4997 133.621 81.4997 135.272C81.4997 136.923 80.966 138.308 79.952 139.373C78.938 140.438 77.5504 140.97 75.8426 140.97H73.8146ZM73.8146 131.917V139.16H75.7358C77.0167 139.16 77.9773 138.84 78.6178 138.201C79.2582 137.562 79.6318 136.604 79.6318 135.432C79.6318 133.089 78.4043 131.917 76.0027 131.917H73.8146ZM88.3309 147.947C86.6765 147.947 85.3956 147.361 84.3816 146.189C83.421 145.018 82.8873 143.473 82.8873 141.503C82.8873 139.373 83.3676 137.722 84.435 136.55C85.449 135.379 86.8366 134.74 88.5444 134.74C90.1988 134.74 91.4797 135.325 92.4403 136.497C93.3476 137.669 93.8279 139.266 93.8279 141.29C93.8279 143.314 93.3476 144.911 92.3336 146.136C91.3196 147.361 89.9853 147.894 88.3309 147.947ZM88.4376 136.444C87.3169 136.444 86.4096 136.87 85.7158 137.775C85.0754 138.68 84.7018 139.852 84.7018 141.396C84.7018 142.888 85.022 144.059 85.7158 144.911C86.3562 145.763 87.2635 146.189 88.4376 146.189C89.6118 146.189 90.4657 145.763 91.1061 144.911C91.7465 144.059 92.0133 142.888 92.0133 141.29C92.0133 139.692 91.6932 138.521 91.1061 137.669C90.4657 136.87 89.6118 136.444 88.4376 136.444ZM110.372 135.059L107.063 147.627H105.195L102.901 138.627C102.794 138.308 102.741 137.882 102.741 137.456H102.687C102.634 137.828 102.58 138.201 102.474 138.574L99.9653 147.574H98.2042L94.8419 135.006H96.7098L99.0047 144.485C99.0581 144.751 99.1114 145.124 99.1648 145.604H99.2715C99.3249 145.231 99.3782 144.805 99.485 144.432L102.047 135.006H103.648L105.943 144.485C105.996 144.805 106.049 145.178 106.103 145.604H106.209C106.209 145.284 106.263 144.911 106.37 144.485L108.611 135.006L110.372 135.059ZM121.046 141.876H113.201C113.254 143.26 113.574 144.379 114.215 145.124C114.855 145.87 115.709 146.243 116.83 146.243C118.057 146.243 119.231 145.763 120.299 144.858V146.775C119.338 147.574 118.057 148 116.403 148C114.855 148 113.628 147.414 112.72 146.296C111.813 145.178 111.386 143.527 111.386 141.45C111.386 139.479 111.867 137.882 112.881 136.657C113.841 135.432 115.069 134.793 116.51 134.793C117.951 134.793 119.071 135.325 119.872 136.391C120.672 137.456 121.046 138.947 121.046 140.811V141.876ZM119.231 140.172C119.231 139 118.965 138.095 118.484 137.456C118.004 136.817 117.31 136.444 116.456 136.444C115.656 136.444 114.855 136.817 114.322 137.456C113.735 138.148 113.361 139 113.254 140.118L119.231 140.172ZM129.425 137.083C129.105 136.817 128.678 136.657 128.091 136.657C127.344 136.657 126.703 137.083 126.169 137.882C125.636 138.68 125.422 139.799 125.422 141.183V147.574H123.661V135.006H125.422V137.615H125.476C125.742 136.71 126.116 136.018 126.65 135.538C127.183 135.059 127.771 134.793 128.411 134.793C128.891 134.793 129.211 134.846 129.478 134.953L129.425 137.083ZM137.697 147.627V130H142.127C143.461 130 144.528 130.373 145.329 131.118C146.129 131.864 146.503 132.822 146.503 134.047C146.503 135.059 146.29 135.911 145.809 136.657C145.329 137.402 144.688 137.935 143.835 138.254V138.308C144.902 138.467 145.702 138.893 146.343 139.639C146.983 140.385 147.304 141.396 147.304 142.568C147.304 144.059 146.823 145.284 145.863 146.243C144.902 147.201 143.728 147.627 142.233 147.627C142.18 147.627 137.697 147.627 137.697 147.627ZM139.512 131.917V137.615H141.38C142.394 137.615 143.141 137.349 143.728 136.817C144.315 136.284 144.582 135.485 144.582 134.527C144.582 132.822 143.568 131.97 141.593 131.97L139.512 131.917ZM139.512 139.426V145.763H142.02C143.087 145.763 143.941 145.497 144.528 144.911C145.115 144.379 145.382 143.527 145.382 142.568C145.382 140.491 144.155 139.426 141.646 139.426H139.512ZM152 147.627H150.185V130H152V147.627Z" fill="white"/>
<defs>
<filter id="filter0_bd_53_715" x="39" y="39" width="145" height="145" filterUnits="userSpaceOnUse" color-interpolation-filters="sRGB">
<feFlood flood-opacity="0" result="BackgroundImageFix"/>
<feGaussianBlur in="BackgroundImageFix" stdDeviation="5"/>
<feComposite in2="SourceAlpha" operator="in" result="effect1_backgroundBlur_53_715"/>
<feColorMatrix in="SourceAlpha" type="matrix" values="0 0 0 0 0 0 0 0 0 0 0 0 0 0 0 0 0 0 127 0" result="hardAlpha"/>
<feOffset dy="4"/>
<feGaussianBlur stdDeviation="2"/>
<feComposite in2="hardAlpha" operator="out"/>
<feColorMatrix type="matrix" values="0 0 0 0 0 0 0 0 0 0 0 0 0 0 0 0 0 0 0.25 0"/>
<feBlend mode="normal" in2="effect1_backgroundBlur_53_715" result="effect2_dropShadow_53_715"/>
<feBlend mode="normal" in="SourceGraphic" in2="effect2_dropShadow_53_715" result="shape"/>
</filter>
<filter id="filter1_f_53_715" x="0" y="0" width="224" height="224" filterUnits="userSpaceOnUse" color-interpolation-filters="sRGB">
<feFlood flood-opacity="0" result="BackgroundImageFix"/>
<feBlend mode="normal" in="SourceGraphic" in2="BackgroundImageFix" result="shape"/>
<feGaussianBlur stdDeviation="35" result="effect1_foregroundBlur_53_715"/>
</filter>
</defs>
</svg>
