<svg width="224" height="224" viewBox="0 0 224 224" fill="none" xmlns="http://www.w3.org/2000/svg">
<g filter="url(#filter0_bd_53_724)">
<rect x="49" y="49" width="125" height="125" rx="20" fill="#2B2D42" fill-opacity="0.8" shape-rendering="crispEdges"/>
<rect x="49.5" y="49.5" width="124" height="124" rx="19.5" stroke="white" stroke-opacity="0.1" shape-rendering="crispEdges"/>
</g>
<g opacity="0.4" filter="url(#filter1_f_53_724)">
<circle cx="112" cy="112" r="42" fill="#7F7EFF"/>
</g>
<path fill-rule="evenodd" clip-rule="evenodd" d="M111.981 76.0005C121.066 76.0005 130.152 76.0005 139.237 76C140.378 76 141.507 76.099 142.601 76.4326C144.973 77.1555 146.229 78.8566 146.721 81.2008C146.917 82.1305 146.972 83.0779 146.974 84.0254C146.989 90.3883 146.999 96.7517 147 103.115C147 114.705 147.002 126.294 146.978 137.883C146.975 139.505 146.888 141.145 146.087 142.623C145.199 144.262 143.983 145.56 142.136 146.13C141.803 146.233 141.454 146.35 141.112 146.35C140.324 146.351 139.557 146.546 138.771 146.546C120.98 146.545 103.188 146.555 85.3965 146.527C83.9494 146.524 82.4789 146.419 81.1043 145.83C80.8309 145.713 80.5547 145.614 80.3141 145.431C78.5641 144.097 77.3757 142.434 77.1209 140.183C77.0293 139.372 77 138.565 77 137.753C77.0027 119.719 77.0044 101.685 77.0137 83.6516C77.0145 82.6054 77.0252 81.5412 77.347 80.5399C78.2039 77.872 80.0792 76.4154 82.8589 76.1195C83.5051 76.0506 84.1567 76.006 84.8058 76.0055C93.8635 75.9981 102.922 76.0005 111.981 76.0005Z" fill="#FB7A24"/>
<path fill-rule="evenodd" clip-rule="evenodd" d="M112.212 120.875C112.013 122.093 111.873 123.193 111.436 124.208C109.388 128.961 105.897 131.858 100.664 132.435C94.4785 133.116 88.7653 129.298 87.0476 123.369C86.4249 121.22 86.4873 119.03 86.7132 116.843C86.9541 114.506 87.6426 112.29 88.7175 110.199C88.8714 109.901 88.8684 109.675 88.6759 109.385C87.0254 106.903 86.385 104.161 86.6174 101.201C86.7419 99.6187 87.126 98.1055 87.8433 96.688C89.9457 92.5359 94.5616 89.0121 100.744 89.5972C106.18 90.1113 111.215 94.8005 112 100.074C112.04 100.339 112.114 100.598 112.201 100.989C112.332 100.282 112.426 99.6983 112.547 99.1203C113.56 94.3293 118.25 89.3161 124.897 89.2541C131.634 89.1917 136.624 94.4759 137.565 99.3836C137.963 101.458 137.894 103.53 137.566 105.601C137.241 107.662 136.627 109.666 135.741 111.555C135.546 111.973 135.566 112.274 135.817 112.663C137.268 114.911 137.908 117.38 137.826 120.061C137.654 125.654 133.698 130.671 128.255 131.983C120.656 133.814 114.831 129.269 112.871 123.771C112.551 122.876 112.4 121.942 112.212 120.875H112.212ZM126.017 111.047C126.099 110.731 126.344 110.541 126.52 110.307C128.425 107.775 129.427 104.947 129.203 101.762C129.04 99.4383 127.129 97.8009 124.815 97.8876C122.499 97.9743 120.754 99.7601 120.721 102.077C120.719 102.267 120.73 102.457 120.719 102.645C120.559 105.115 119.197 106.468 117.132 106.618C116.755 106.646 116.377 106.68 115.999 106.681C113.319 106.687 110.64 106.686 107.96 106.683C106.79 106.682 105.629 106.81 104.515 107.154C99.3121 108.759 96.2783 112.317 95.2737 117.619C95.0746 118.669 94.8955 119.757 95.2395 120.835C95.733 122.381 96.6532 123.53 98.2818 123.915C99.9697 124.313 101.44 123.872 102.608 122.546C103.363 121.689 103.601 120.671 103.658 119.553C103.804 116.678 105.369 115.241 107.981 115.262C111.986 115.295 115.992 115.269 119.998 115.272C120.709 115.272 120.716 115.282 120.72 115.985C120.726 117.284 120.686 118.585 120.736 119.882C120.818 122.001 122.682 123.761 124.842 123.823C127.07 123.887 129.056 122.239 129.202 120.088C129.327 118.226 129.319 116.353 129.197 114.489C129.102 113.047 128.322 112.019 126.999 111.422C126.682 111.279 126.348 111.172 126.017 111.047ZM100.907 106.677C101.769 106.677 102.472 106.669 103.175 106.68C103.523 106.686 103.652 106.536 103.649 106.194C103.638 104.843 103.708 103.487 103.621 102.14C103.508 100.364 102.563 99.0792 100.909 98.4315C99.2131 97.7673 97.6611 98.1463 96.3485 99.3989C95.0303 100.658 94.8545 102.197 95.3158 103.881C95.7396 105.429 96.7404 106.309 98.3148 106.574C99.2292 106.728 100.149 106.655 100.907 106.677Z" fill="white"/>
<defs>
<filter id="filter0_bd_53_724" x="39" y="39" width="145" height="145" filterUnits="userSpaceOnUse" color-interpolation-filters="sRGB">
<feFlood flood-opacity="0" result="BackgroundImageFix"/>
<feGaussianBlur in="BackgroundImageFix" stdDeviation="5"/>
<feComposite in2="SourceAlpha" operator="in" result="effect1_backgroundBlur_53_724"/>
<feColorMatrix in="SourceAlpha" type="matrix" values="0 0 0 0 0 0 0 0 0 0 0 0 0 0 0 0 0 0 127 0" result="hardAlpha"/>
<feOffset dy="4"/>
<feGaussianBlur stdDeviation="2"/>
<feComposite in2="hardAlpha" operator="out"/>
<feColorMatrix type="matrix" values="0 0 0 0 0 0 0 0 0 0 0 0 0 0 0 0 0 0 0.25 0"/>
<feBlend mode="normal" in2="effect1_backgroundBlur_53_724" result="effect2_dropShadow_53_724"/>
<feBlend mode="normal" in="SourceGraphic" in2="effect2_dropShadow_53_724" result="shape"/>
</filter>
<filter id="filter1_f_53_724" x="0" y="0" width="224" height="224" filterUnits="userSpaceOnUse" color-interpolation-filters="sRGB">
<feFlood flood-opacity="0" result="BackgroundImageFix"/>
<feBlend mode="normal" in="SourceGraphic" in2="BackgroundImageFix" result="shape"/>
<feGaussianBlur stdDeviation="35" result="effect1_foregroundBlur_53_724"/>
</filter>
</defs>
</svg>
